<svg id="组_54" data-name="组 54" xmlns="http://www.w3.org/2000/svg" width="69.178" height="59.106" viewBox="0 0 69.178 59.106">
  <defs>
    <style>
      .cls-1 {
        fill: #333;
      }
    </style>
  </defs>
  <path id="路径_145" data-name="路径 145" class="cls-1" d="M105.9-24.294H47.282A5.284,5.284,0,0,1,42-29.577v-36.9a5.284,5.284,0,0,1,5.282-5.282H105.9a5.284,5.284,0,0,1,5.283,5.282v36.9a5.289,5.289,0,0,1-5.283,5.283ZM47.282-67.712a1.229,1.229,0,0,0-1.23,1.23v36.9a1.229,1.229,0,0,0,1.23,1.23H105.9a1.229,1.229,0,0,0,1.23-1.23v-36.9a1.229,1.229,0,0,0-1.23-1.23Zm0,0" transform="translate(-42 71.764)"/>
  <path id="路径_146" data-name="路径 146" class="cls-1" d="M65.6,310.877h64.909v4.052H65.6Zm30.428,11.3h4.052V331.4H96.03Zm0,0" transform="translate(-63.467 -276.266)"/>
  <rect id="矩形_445" data-name="矩形 445" class="cls-1" width="28.945" height="4.052" transform="translate(20.117 55.053)"/>
</svg>
