<svg id="组_58" data-name="组 58" xmlns="http://www.w3.org/2000/svg" width="74.255" height="58.219" viewBox="0 0 74.255 58.219">
  <defs>
    <style>
      .cls-1 {
        fill: #333;
      }
    </style>
  </defs>
  <path id="路径_151" data-name="路径 151" class="cls-1" d="M37.738,317.379a3.646,3.646,0,1,0,3.646-3.647,3.646,3.646,0,0,0-3.646,3.647Zm0,0" transform="translate(-28.091 -280.508)"/>
  <path id="路径_152" data-name="路径 152" class="cls-1" d="M187.465,317.379a3.647,3.647,0,1,0,3.647-3.647,3.646,3.646,0,0,0-3.647,3.647Zm0,0" transform="translate(-167.177 -280.508)"/>
  <path id="路径_153" data-name="路径 153" class="cls-1" d="M335.68,317.379a3.647,3.647,0,1,0,3.646-3.647,3.646,3.646,0,0,0-3.646,3.647Zm0,0" transform="translate(-304.859 -280.508)"/>
  <path id="路径_154" data-name="路径 154" class="cls-1" d="M-29.388-129.888v-21.721a2.15,2.15,0,0,0-2.155-2.155h-.174a2.15,2.15,0,0,0-2.155,2.155v21.721H-92.2a5.8,5.8,0,0,0-5.8,5.8V-109.2a5.8,5.8,0,0,0,5.8,5.8h5.71l-2.892,3.522a2.653,2.653,0,0,0,.365,3.729,2.639,2.639,0,0,0,1.682.6,2.643,2.643,0,0,0,2.047-.97l5.3-6.456a2.814,2.814,0,0,0,.29-.431h37.849a2.915,2.915,0,0,0,.3.439l5.337,6.456a2.634,2.634,0,0,0,2.047.961,2.661,2.661,0,0,0,1.691-.6,2.663,2.663,0,0,0,.356-3.738l-2.909-3.514h5.478a5.8,5.8,0,0,0,5.8-5.8v-14.884a5.808,5.808,0,0,0-5.644-5.8ZM-28.22-109.2a1.33,1.33,0,0,1-1.326,1.326H-92.2a1.33,1.33,0,0,1-1.326-1.326v-14.884a1.33,1.33,0,0,1,1.326-1.326h62.653a1.33,1.33,0,0,1,1.326,1.326Zm0,0" transform="translate(98 153.764)"/>
</svg>
