<svg xmlns="http://www.w3.org/2000/svg" width="24" height="24" viewBox="0 0 24 24"><defs><style>.a,.b,.c,.d{fill:none;}.a,.b,.c{stroke:#000;stroke-linecap:round;stroke-width:1.2px;}.a,.c{stroke-linejoin:round;}.c{stroke-miterlimit:10;}.e{fill:#12e249;}</style></defs><g transform="translate(-1405 -96)"><g transform="translate(1409.973 99.427)"><g transform="translate(-0.473 -0.257)"><path class="a" d="M12.167,0a1,1,0,0,1,.87.507l3.683,6.5a1,1,0,0,1,0,.986l-3.683,6.5a1,1,0,0,1-.87.507H4.833a1,1,0,0,1-.87-.507L.279,7.993a1,1,0,0,1,0-.986L3.963.507A1,1,0,0,1,4.833,0Z" transform="translate(0 16.83) rotate(-90)"/><line class="b" y2="1" transform="translate(8 14.83)"/><path class="b" d="M0,1.526V0" transform="translate(2.02 5.118) rotate(120)"/><path class="b" d="M0,0V1.51" transform="translate(14.576 4.51) rotate(60)"/></g><g transform="translate(1.847 5.846)"><path class="c" d="M3031.948,1416.494a2.209,2.209,0,0,1,1.236-.376,2.236,2.236,0,1,1-2.225,2.236" transform="translate(-3027.809 -1416.118)"/><path class="c" d="M3094.964,1416.118h.444a2.236,2.236,0,1,1,0,4.473c-1.236,0-1.675,0-2.233,0" transform="translate(-3086.913 -1416.118)"/><path class="c" d="M2979.839,1420.215a2.237,2.237,0,1,1,.995-1.86" transform="translate(-2976.361 -1416.118)"/></g></g><rect class="d" width="24" height="24" transform="translate(1405 96)"/><circle class="e" cx="4" cy="4" r="4" transform="translate(1420 110)"/></g></svg>