<svg xmlns="http://www.w3.org/2000/svg" width="80" height="80" viewBox="0 0 80 80"><defs><style>.a{fill:#fff;}.b,.d{fill:none;}.c{fill:#ececee;}.d{stroke:#333;stroke-linecap:round;stroke-width:2px;}</style></defs><g transform="translate(-423 -723)"><g transform="translate(39 111)"><path class="a" d="M8,0H72a8,8,0,0,1,8,8V72a8,8,0,0,1-8,8H8a8,8,0,0,1-8-8V8A8,8,0,0,1,8,0Z" transform="translate(384 612)"/><g transform="translate(246 204)"><rect class="b" width="80" height="80" transform="translate(138 408)"/></g></g><g transform="translate(-198 55)"><path class="c" d="M28,0A28,28,0,1,1,0,28,28,28,0,0,1,28,0Z" transform="translate(633 680)"/><g transform="translate(639.258 686.258)"><rect class="b" width="44" height="44" transform="translate(-0.258 -0.258)"/><g transform="translate(12.516 12.516)"><line class="d" x1="20" transform="translate(-0.774 9.226)"/><line class="d" y1="20" transform="translate(9.226 -0.774)"/></g></g></g></g></svg>