<svg xmlns="http://www.w3.org/2000/svg" width="24" height="24" viewBox="0 0 24 24"><defs><style>.a{fill:none;}.b{fill:#2873f7;}</style></defs><g transform="translate(-900 -1031)"><rect class="a" width="24" height="24" transform="translate(900 1031)"/><path class="b" d="M167.087,77.387h1.941a.2.2,0,0,0,.2-.2v-.007l-.06-1.741a.591.591,0,0,1,.264-.512,5.315,5.315,0,1,0-5.865,0,.591.591,0,0,1,.264.472l.062,1.794a.2.2,0,0,0,.2.19h1.819v-4l-1.415-1.5a.591.591,0,1,1,.86-.81l1.169,1.243,1.342-1.267a.591.591,0,1,1,.811.859l-1.587,1.5Zm5.906-6.89a6.488,6.488,0,0,1-2.636,5.226l.049,1.42a1.378,1.378,0,0,1-1.378,1.425h-4.941a1.378,1.378,0,0,1-1.377-1.331l-.051-1.5A6.5,6.5,0,1,1,172.993,70.5Zm-8.269,10.04a.591.591,0,0,1,0-1.181h3.544a.591.591,0,0,1,0,1.181Z" transform="translate(745.503 970.731)"/></g></svg>