<svg xmlns="http://www.w3.org/2000/svg" xmlns:xlink="http://www.w3.org/1999/xlink" width="88" height="88" viewBox="0 0 88 88"><defs><style>.a{fill:none;}.b{fill:#fff;}.c{fill:#ececee;}.d{fill:url(#c);}.e{fill:url(#i);}.f{filter:url(#m);}.g{filter:url(#j);}.h{filter:url(#g);}.i{filter:url(#d);}.j{filter:url(#a);}</style><filter id="a" x="1" y="2" width="86" height="86" filterUnits="userSpaceOnUse"><feOffset dy="1" input="SourceAlpha"/><feGaussianBlur stdDeviation="1" result="b"/><feFlood flood-opacity="0.078"/><feComposite operator="in" in2="b"/><feComposite in="SourceGraphic"/></filter><linearGradient id="c" x1="0.5" x2="0.5" y2="1" gradientUnits="objectBoundingBox"><stop offset="0" stop-color="#fff"/><stop offset="1" stop-color="#fff" stop-opacity="0"/></linearGradient><filter id="d" x="36.826" y="24.483" width="29.185" height="44.63" filterUnits="userSpaceOnUse"><feOffset dy="3" input="SourceAlpha"/><feGaussianBlur stdDeviation="3" result="e"/><feFlood flood-opacity="0.02"/><feComposite operator="in" in2="e"/><feComposite in="SourceGraphic"/></filter><filter id="g" x="21.913" y="24.483" width="29.185" height="44.63" filterUnits="userSpaceOnUse"><feOffset dy="3" input="SourceAlpha"/><feGaussianBlur stdDeviation="3" result="h"/><feFlood flood-opacity="0.02"/><feComposite operator="in" in2="h"/><feComposite in="SourceGraphic"/></filter><linearGradient id="i" x1="0" y1="0.5" x2="1" y2="0.5" xlink:href="#c"/><filter id="j" x="21.913" y="24.483" width="44.098" height="29.185" filterUnits="userSpaceOnUse"><feOffset dy="3" input="SourceAlpha"/><feGaussianBlur stdDeviation="3" result="k"/><feFlood flood-opacity="0.02"/><feComposite operator="in" in2="k"/><feComposite in="SourceGraphic"/></filter><filter id="m" x="22" y="40" width="44" height="29" filterUnits="userSpaceOnUse"><feOffset dy="3" input="SourceAlpha"/><feGaussianBlur stdDeviation="3" result="n"/><feFlood flood-opacity="0.02"/><feComposite operator="in" in2="n"/><feComposite in="SourceGraphic"/></filter></defs><g transform="translate(-515 -490)"><rect class="a" width="88" height="88" transform="translate(515 490)"/><g transform="translate(0 -229)"><g transform="translate(135 111)"><g class="j" transform="matrix(1, 0, 0, 1, 380, 608)"><rect class="b" width="80" height="80" rx="8" transform="translate(4 4)"/></g><g transform="translate(246 204)"><rect class="a" width="80" height="80" transform="translate(138 408)"/></g></g><g transform="translate(-326 47)"><path class="c" d="M28,0A28,28,0,1,1,0,28,28,28,0,0,1,28,0Z" transform="translate(857 688)"/><g transform="translate(-369 -660.061)"><g transform="translate(1240.913 1362.544)"><g class="i" transform="matrix(1, 0, 0, 1, -30.91, -30.48)"><path class="d" d="M0,0H11.185V26.63H0Z" transform="translate(45.83 30.48)"/></g><g class="h" transform="matrix(1, 0, 0, 1, -30.91, -30.48)"><path class="d" d="M0,0H11.185V26.63H0Z" transform="translate(42.1 57.11) rotate(180)"/></g><g class="g" transform="matrix(1, 0, 0, 1, -30.91, -30.48)"><path class="e" d="M0,0H26.1V11.185H0Z" transform="translate(30.91 30.48)"/></g><g class="f" transform="matrix(1, 0, 0, 1, -30.91, -30.48)"><rect class="e" width="26" height="11" transform="translate(57 57) rotate(180)"/></g></g></g></g></g></g></svg>