<svg xmlns="http://www.w3.org/2000/svg" xmlns:xlink="http://www.w3.org/1999/xlink" width="56" height="56" viewBox="0 0 56 56"><defs><style>.a{fill:#e1e1e3;}.b{fill:#fff;opacity:0.37;}.c{fill:url(#a);}.d{fill:url(#g);}.e{filter:url(#k);}.f{filter:url(#h);}.g{filter:url(#e);}.h{filter:url(#b);}</style><linearGradient id="a" x1="0.5" x2="0.5" y2="1" gradientUnits="objectBoundingBox"><stop offset="0" stop-color="#fff"/><stop offset="1" stop-color="#fff" stop-opacity="0"/></linearGradient><filter id="b" x="20.826" y="8.483" width="29.185" height="44.63" filterUnits="userSpaceOnUse"><feOffset dy="3" input="SourceAlpha"/><feGaussianBlur stdDeviation="3" result="c"/><feFlood flood-opacity="0.02"/><feComposite operator="in" in2="c"/><feComposite in="SourceGraphic"/></filter><filter id="e" x="5.913" y="8.483" width="29.185" height="44.63" filterUnits="userSpaceOnUse"><feOffset dy="3" input="SourceAlpha"/><feGaussianBlur stdDeviation="3" result="f"/><feFlood flood-opacity="0.02"/><feComposite operator="in" in2="f"/><feComposite in="SourceGraphic"/></filter><linearGradient id="g" x1="0" y1="0.5" x2="1" y2="0.5" xlink:href="#a"/><filter id="h" x="5.913" y="8.483" width="44.098" height="29.185" filterUnits="userSpaceOnUse"><feOffset dy="3" input="SourceAlpha"/><feGaussianBlur stdDeviation="3" result="i"/><feFlood flood-opacity="0.02"/><feComposite operator="in" in2="i"/><feComposite in="SourceGraphic"/></filter><filter id="k" x="6" y="24" width="44" height="29" filterUnits="userSpaceOnUse"><feOffset dy="3" input="SourceAlpha"/><feGaussianBlur stdDeviation="3" result="l"/><feFlood flood-opacity="0.02"/><feComposite operator="in" in2="l"/><feComposite in="SourceGraphic"/></filter></defs><g transform="translate(-857 -688)"><path class="a" d="M28,0A28,28,0,1,1,0,28,28,28,0,0,1,28,0Z" transform="translate(857 688)"/><g transform="translate(-369 -660.061)"><circle class="b" cx="28" cy="28" r="28" transform="translate(1226 1348.061)"/><g transform="translate(1240.913 1362.544)"><g class="h" transform="matrix(1, 0, 0, 1, -14.91, -14.48)"><path class="c" d="M0,0H11.185V26.63H0Z" transform="translate(29.83 14.48)"/></g><g class="g" transform="matrix(1, 0, 0, 1, -14.91, -14.48)"><path class="c" d="M0,0H11.185V26.63H0Z" transform="translate(26.1 41.11) rotate(180)"/></g><g class="f" transform="matrix(1, 0, 0, 1, -14.91, -14.48)"><path class="d" d="M0,0H26.1V11.185H0Z" transform="translate(14.91 14.48)"/></g><g class="e" transform="matrix(1, 0, 0, 1, -14.91, -14.48)"><rect class="d" width="26" height="11" transform="translate(41 41) rotate(180)"/></g></g></g></g></svg>