<svg xmlns="http://www.w3.org/2000/svg" width="16" height="16" viewBox="0 0 16 16"><defs><style>.a{fill:#04c9ae;}.b{fill:none;opacity:0.16;}</style></defs><g transform="translate(-863 -840)"><g transform="translate(9.84 -9.469)"><g transform="translate(860.487 856.565)"><path class="a" d="M499.466,326.7l-.728.656a.311.311,0,0,1-.438,0v-1.744a.311.311,0,0,1,.438,0l.728.651A.311.311,0,0,1,499.466,326.7Z" transform="translate(-497.185 -325.525)"/><path class="a" d="M283.466,326.7l-.728.656a.311.311,0,0,1-.438,0v-1.744a.311.311,0,0,1,.438,0l.728.651A.311.311,0,0,1,283.466,326.7Z" transform="translate(-282.3 -325.525)"/></g><path class="a" d="M8.3,9.686a.346.346,0,0,1,0,.692H2.076a.346.346,0,0,1,0-.692H8.3ZM8.648,0a1.676,1.676,0,0,1,1.73,1.614V7.38a1.678,1.678,0,0,1-1.73,1.614H1.73A1.677,1.677,0,0,1,0,7.38V1.614A1.677,1.677,0,0,1,1.73,0H8.648Zm0,.692H1.73a.986.986,0,0,0-1.038.922V7.38A.986.986,0,0,0,1.73,8.3H8.648A.986.986,0,0,0,9.686,7.38V1.614A.986.986,0,0,0,8.648.692Z" transform="translate(856.16 853)"/></g><rect class="b" width="16" height="16" transform="translate(863 840)"/></g></svg>