<svg xmlns="http://www.w3.org/2000/svg" width="48" height="48" viewBox="0 0 48 48"><defs><style>.a{fill:none;}.b,.c{fill:#fff;}.d,.e{stroke:none;}.e{fill:rgba(29,191,162,0.2);}</style></defs><g transform="translate(-4743 1452)"><rect class="a" width="48" height="48" transform="translate(4743 -1452)"/><g transform="translate(-18.69 -17.297)"><g class="b" transform="translate(4762.929 -1421)"><path class="d" d="M22.617,19.477a3.545,3.545,0,0,1-2.41-.917L0,0H45.234L25.027,18.561A3.545,3.545,0,0,1,22.617,19.477Z"/><path class="e" d="M 22.61705017089844 18.47720146179199 C 23.2761402130127 18.47720146179199 23.89178085327148 18.24523162841797 24.35038948059082 17.82418060302734 L 42.66711044311523 1.000000715255737 L 2.566991329193115 1.000000715255737 L 20.88357925415039 17.82405090332031 C 21.34231948852539 18.24524116516113 21.95794105529785 18.47720146179199 22.61705017089844 18.47720146179199 M 22.61705017089844 19.47720146179199 C 21.70680046081543 19.47720146179199 20.85098075866699 19.15169143676758 20.20726013183594 18.56066131591797 L 1.708984314063855e-07 7.308959766305634e-07 L 45.23410034179688 7.308959766305634e-07 L 25.0268497467041 18.56066131591797 C 24.38310050964355 19.15169143676758 23.52729034423828 19.47720146179199 22.61705017089844 19.47720146179199 Z"/></g><path class="c" d="M21.132,18.146a3.453,3.453,0,0,1-2.349-.894L0,0H42.264L23.481,17.253A3.454,3.454,0,0,1,21.132,18.146Z" transform="translate(4764.414 -1421)"/></g></g></svg>