<svg id="icon_24pt_all_copy" data-name="icon/24pt/all/copy" xmlns="http://www.w3.org/2000/svg" width="24" height="24" viewBox="0 0 24 24">
  <defs>
    <style>
      .cls-1 {
        opacity: 0;
      }

      .cls-2 {
        fill: #f9e2e2;
      }

      .cls-3 {
        fill: #ffbcbc;
      }

      .cls-4 {
        fill: #2a2e31;
      }

      .cls-5 {
        fill: none;
      }

      .cls-6, .cls-7 {
        stroke: none;
      }

      .cls-7 {
        fill: #2a2e31;
      }
    </style>
  </defs>
  <g id="底板" class="cls-1">
    <path id="路径_1" data-name="路径 1" class="cls-2" d="M0,0H24V24H0Z"/>
    <rect id="矩形_2" data-name="矩形 2" class="cls-3" width="16" height="16" transform="translate(4 4)"/>
  </g>
  <path id="矩形_69" data-name="矩形 69" class="cls-4" d="M1-.5h9A1.5,1.5,0,0,1,11.5,1v9A1.5,1.5,0,0,1,10,11.5H1A1.5,1.5,0,0,1-.5,10V1A1.5,1.5,0,0,1,1-.5Zm9,11a.5.5,0,0,0,.5-.5V1A.5.5,0,0,0,10,.5H1A.5.5,0,0,0,.5,1v9a.5.5,0,0,0,.5.5Z" transform="translate(4.5 4.5)"/>
  <path id="路径_612" data-name="路径 612" class="cls-4" d="M8.5,10H1A1.5,1.5,0,0,1-.5,8.5V7.531a.5.5,0,0,1,.5-.5.5.5,0,0,1,.5.5V8.5A.5.5,0,0,0,1,9H8.5A.5.5,0,0,0,9,8.5V1A.5.5,0,0,0,8.5.5H7.594a.5.5,0,0,1-.5-.5.5.5,0,0,1,.5-.5H8.5A1.5,1.5,0,0,1,10,1V8.5A1.5,1.5,0,0,1,8.5,10Z" transform="translate(10 10)"/>
  <g id="联合_4" data-name="联合 4" class="cls-5" transform="translate(5560 317)">
    <path class="cls-6" d="M-5550.5-303.5v-3h-3a.5.5,0,0,1-.5-.5.5.5,0,0,1,.5-.5h3v-3a.5.5,0,0,1,.5-.5.5.5,0,0,1,.5.5v3h3a.5.5,0,0,1,.5.5.5.5,0,0,1-.5.5h-3v3a.5.5,0,0,1-.5.5A.5.5,0,0,1-5550.5-303.5Z"/>
    <path class="cls-7" d="M -5549.99951171875 -302.99951171875 C -5550.27587890625 -302.99951171875 -5550.5 -303.2239379882812 -5550.5 -303.4999084472656 L -5550.5 -306.4995422363281 L -5553.49951171875 -306.4995422363281 C -5553.77587890625 -306.4995422363281 -5554 -306.7239379882812 -5554 -306.9999389648438 C -5554 -307.2759094238281 -5553.77587890625 -307.5003356933594 -5553.49951171875 -307.5003356933594 L -5550.5 -307.5003356933594 L -5550.5 -310.4999389648438 C -5550.5 -310.7759094238281 -5550.27587890625 -311.0003356933594 -5549.99951171875 -311.0003356933594 C -5549.7236328125 -311.0003356933594 -5549.49951171875 -310.7759094238281 -5549.49951171875 -310.4999389648438 L -5549.49951171875 -307.5003356933594 L -5546.49951171875 -307.5003356933594 C -5546.2236328125 -307.5003356933594 -5545.99951171875 -307.2759094238281 -5545.99951171875 -306.9999389648438 C -5545.99951171875 -306.7239379882812 -5546.2236328125 -306.4995422363281 -5546.49951171875 -306.4995422363281 L -5549.49951171875 -306.4995422363281 L -5549.49951171875 -303.4999084472656 C -5549.49951171875 -303.2239379882812 -5549.7236328125 -302.99951171875 -5549.99951171875 -302.99951171875 Z"/>
  </g>
</svg>
