<svg xmlns="http://www.w3.org/2000/svg" xmlns:xlink="http://www.w3.org/1999/xlink" width="704" height="277" viewBox="0 0 704 277">
  <defs>
    <style>
      .cls-1, .cls-10, .cls-13 {
        fill: #fff;
      }

      .cls-1, .cls-11, .cls-12, .cls-13, .cls-14, .cls-18, .cls-4, .cls-5, .cls-7, .cls-8, .cls-9 {
        stroke: #150029;
      }

      .cls-1, .cls-11, .cls-12, .cls-4, .cls-5, .cls-7, .cls-8, .cls-9 {
        stroke-miterlimit: 10;
      }

      .cls-1, .cls-11, .cls-13, .cls-14, .cls-18, .cls-23, .cls-4, .cls-5, .cls-7, .cls-8, .cls-9 {
        stroke-width: 3px;
      }

      .cls-19, .cls-2, .cls-23 {
        fill: #150029;
      }

      .cls-2 {
        opacity: 0.1;
      }

      .cls-14, .cls-3, .cls-5 {
        fill: #17bfa1;
      }

      .cls-12, .cls-18, .cls-4 {
        fill: none;
      }

      .cls-6 {
        fill: url(#linear-gradient);
      }

      .cls-7 {
        fill: #2873f7;
      }

      .cls-8 {
        fill: #f23d64;
      }

      .cls-9 {
        fill: #faac30;
      }

      .cls-11 {
        fill: #9522e0;
      }

      .cls-12 {
        stroke-width: 3.218px;
      }

      .cls-13, .cls-14, .cls-18, .cls-23 {
        stroke-linecap: round;
        stroke-linejoin: round;
      }

      .cls-15 {
        fill: url(#linear-gradient-2);
      }

      .cls-16 {
        fill: url(#linear-gradient-3);
      }

      .cls-17 {
        fill: url(#linear-gradient-4);
      }

      .cls-20 {
        fill: url(#linear-gradient-5);
      }

      .cls-21 {
        fill: url(#linear-gradient-6);
      }

      .cls-22 {
        fill: url(#linear-gradient-7);
      }

      .cls-23 {
        stroke: #fff;
      }

      .cls-24 {
        clip-path: url(#clip-path);
      }

      .cls-25 {
        fill: url(#linear-gradient-9);
      }
    </style>
    <linearGradient id="linear-gradient" x1="0.173" y1="0.197" x2="0.827" y2="0.945" gradientUnits="objectBoundingBox">
      <stop offset="0" stop-color="#00d1af"/>
      <stop offset="0.109" stop-color="#0ac4b2"/>
      <stop offset="0.307" stop-color="#24a4ba"/>
      <stop offset="0.57" stop-color="#4f70c8"/>
      <stop offset="0.594" stop-color="#546bca"/>
      <stop offset="0.801" stop-color="#6c36d7"/>
      <stop offset="1" stop-color="#8600e6"/>
    </linearGradient>
    <linearGradient id="linear-gradient-2" x1="-0.366" y1="0.5" x2="1.366" y2="0.5" gradientUnits="objectBoundingBox">
      <stop offset="0" stop-color="#17bfa1"/>
      <stop offset="1" stop-color="#17bfa1"/>
    </linearGradient>
    <linearGradient id="linear-gradient-3" x1="-0.366" y1="0.5" x2="1.366" y2="0.5" xlink:href="#linear-gradient-2"/>
    <linearGradient id="linear-gradient-4" x1="0" y1="0.5" x2="1" y2="0.5" xlink:href="#linear-gradient-2"/>
    <linearGradient id="linear-gradient-5" x1="0.248" y1="0.209" x2="2.206" y2="2.47" gradientUnits="objectBoundingBox">
      <stop offset="0" stop-color="#00d1af"/>
      <stop offset="0.097" stop-color="#0ac4b2"/>
      <stop offset="0.273" stop-color="#24a4ba"/>
      <stop offset="0.507" stop-color="#4f70c8"/>
      <stop offset="0.528" stop-color="#546bca"/>
      <stop offset="0.768" stop-color="#6c36d7"/>
      <stop offset="1" stop-color="#8600e6"/>
    </linearGradient>
    <linearGradient id="linear-gradient-6" x1="-0.492" y1="-0.646" x2="1.466" y2="1.615" xlink:href="#linear-gradient-5"/>
    <linearGradient id="linear-gradient-7" x1="-0.902" y1="-1.112" x2="0.808" y2="0.863" xlink:href="#linear-gradient-5"/>
    <clipPath id="clip-path">
      <path id="矩形_1133" data-name="矩形 1133" class="cls-1" d="M9.133,0H25.7a0,0,0,0,1,0,0V1.964a9.828,9.828,0,0,1-9.828,9.828H0a0,0,0,0,1,0,0V9.133A9.133,9.133,0,0,1,9.133,0Z" transform="translate(1814.724 706.08) rotate(-180)"/>
    </clipPath>
    <linearGradient id="linear-gradient-9" x1="0" y1="0.5" x2="1" y2="0.5" xlink:href="#linear-gradient-5"/>
  </defs>
  <g id="组_1548" data-name="组 1548" transform="translate(-1447.062 -671.714)">
    <path id="矩形_1122" data-name="矩形 1122" class="cls-2" d="M16,0H688a16,16,0,0,1,16,16V277a0,0,0,0,1,0,0H0a0,0,0,0,1,0,0V16A16,16,0,0,1,16,0Z" transform="translate(1447.062 671.714)"/>
    <g id="组_1523" data-name="组 1523">
      <g id="组_1522" data-name="组 1522">
        <g id="组_1521" data-name="组 1521">
          <g id="组_1516" data-name="组 1516">
            <line id="直线_180" data-name="直线 180" class="cls-3" y1="140.942" x2="98.778" transform="translate(1800.395 711.772)"/>
            <line id="直线_181" data-name="直线 181" class="cls-4" y1="140.942" x2="98.778" transform="translate(1800.395 711.772)"/>
          </g>
          <g id="组_1517" data-name="组 1517">
            <line id="直线_182" data-name="直线 182" class="cls-3" x2="256.955" y2="30.762" transform="translate(1800.395 852.714)"/>
            <line id="直线_183" data-name="直线 183" class="cls-4" x2="256.955" y2="30.762" transform="translate(1800.395 852.714)"/>
          </g>
          <g id="组_1518" data-name="组 1518">
            <line id="直线_184" data-name="直线 184" class="cls-3" x1="270.803" y1="91.795" transform="translate(1529.592 760.919)"/>
            <line id="直线_185" data-name="直线 185" class="cls-4" x1="270.803" y1="91.795" transform="translate(1529.592 760.919)"/>
          </g>
          <g id="组_1519" data-name="组 1519">
            <line id="直线_186" data-name="直线 186" class="cls-3" x1="240.611" y1="6.77" transform="translate(1559.785 845.944)"/>
            <line id="直线_187" data-name="直线 187" class="cls-4" x1="240.611" y1="6.77" transform="translate(1559.785 845.944)"/>
          </g>
          <g id="组_1520" data-name="组 1520">
            <line id="直线_188" data-name="直线 188" class="cls-3" x1="179.945" y2="66.364" transform="translate(1620.45 852.714)"/>
            <line id="直线_189" data-name="直线 189" class="cls-4" x1="179.945" y2="66.364" transform="translate(1620.45 852.714)"/>
          </g>
        </g>
      </g>
      <line id="直线_190" data-name="直线 190" class="cls-5" y1="120.704" x2="276.122" transform="translate(1800.395 732.01)"/>
    </g>
    <g id="组_1524" data-name="组 1524">
      <circle id="椭圆_287" data-name="椭圆 287" class="cls-3" cx="33.994" cy="33.994" r="33.994" transform="translate(1655.856 797.123)"/>
      <path id="路径_985" data-name="路径 985" class="cls-6" d="M1672.4,852.714a127.681,127.681,0,0,0,43.347,96h169.307a128,128,0,1,0-212.654-96Z"/>
      <circle id="椭圆_288" data-name="椭圆 288" class="cls-3" cx="16.973" cy="16.973" r="16.973" transform="translate(1907.489 741.661)"/>
      <circle id="椭圆_289" data-name="椭圆 289" class="cls-3" cx="11.769" cy="11.769" r="11.769" transform="translate(1964.608 907.309)"/>
      <circle id="椭圆_290" data-name="椭圆 290" class="cls-3" cx="9.925" cy="9.925" r="9.925" transform="translate(1721.643 685.708)"/>
      <circle id="椭圆_291" data-name="椭圆 291" class="cls-3" cx="18.966" cy="18.966" r="18.966" transform="translate(1594.165 719.217)"/>
      <circle id="椭圆_292" data-name="椭圆 292" class="cls-3" cx="15.673" cy="15.673" r="15.673" transform="translate(1675.587 912.245)"/>
    </g>
    <circle id="椭圆_293" data-name="椭圆 293" class="cls-7" cx="21.76" cy="21.76" r="21.76" transform="translate(2036.08 860.737)"/>
    <circle id="椭圆_294" data-name="椭圆 294" class="cls-8" cx="26.746" cy="26.746" r="26.746" transform="translate(1502.846 734.173)"/>
    <g id="组_1525" data-name="组 1525">
      <circle id="椭圆_295" data-name="椭圆 295" class="cls-9" cx="26.411" cy="26.411" r="26.411" transform="translate(1871.14 685.361)"/>
      <path id="路径_986" data-name="路径 986" class="cls-10" d="M1913.424,711.561a4.688,4.688,0,0,0-1.9-.834,2.106,2.106,0,0,1-1.513-1.529l-1.417-5.662a4.629,4.629,0,0,0-1.72-2.607,4.7,4.7,0,0,0-2.963-1.051h-2.122v-3.714a.51.51,0,0,0-.531-.531h-7.418a.51.51,0,0,0-.531.531v3.707h-2.119a4.7,4.7,0,0,0-2.963,1.052,4.642,4.642,0,0,0-1.72,2.606l-1.417,5.662a2.11,2.11,0,0,1-1.513,1.529,4.688,4.688,0,0,0-1.9.834,3.592,3.592,0,0,0-1.084,2.63v6.36a.507.507,0,0,0,.531.531h1.581v1.068a3.051,3.051,0,0,0,.93,2.251,3.183,3.183,0,0,0,5.437-2.255v-1.061h16.949v1.061a3.188,3.188,0,0,0,5.438,2.255,3.1,3.1,0,0,0,.929-2.255v-1.061h1.589a.509.509,0,0,0,.531-.53v-6.357A3.574,3.574,0,0,0,1913.424,711.561Zm-29.4,2.346a2.64,2.64,0,1,1-.775,1.869A2.545,2.545,0,0,1,1884.025,713.907Zm5.444-4.739,1.143-4.6a.616.616,0,0,1,.234-.29.6.6,0,0,1,.346-.158h12.7a.575.575,0,0,1,.346.158.609.609,0,0,1,.234.29l1.15,4.6a1.054,1.054,0,0,1-1.022,1.311H1890.49A1.051,1.051,0,0,1,1889.469,709.168Zm17.865,4.739a2.643,2.643,0,1,1-.774,1.869A2.548,2.548,0,0,1,1907.334,713.907Z"/>
    </g>
    <path id="路径_987" data-name="路径 987" class="cls-10" d="M2048.534,880.183v3.293h8.816v-11.2h-8.816v.02a2.369,2.369,0,0,0-2.181,2.359v3.17A2.369,2.369,0,0,0,2048.534,880.183Zm18.846,0a2.369,2.369,0,0,0,2.181-2.359v-3.17a2.369,2.369,0,0,0-2.181-2.359v-.02h-9v11.2h9Zm3.466-.535h-1.192a1.188,1.188,0,0,0-1.187,1.19V884.5H2047.45v-3.665a1.186,1.186,0,0,0-1.185-1.19h-1.192a1.19,1.19,0,0,0-1.19,1.19v8.623h1.19v1.784h1.19v-1.784h23.391v1.784h1.19v-1.784h1.189v-8.623A1.189,1.189,0,0,0,2070.846,879.648Z"/>
    <path id="路径_988" data-name="路径 988" class="cls-10" d="M1522.626,772.488a3.263,3.263,0,0,1,1.253.243,3.114,3.114,0,0,1,1.027.679,3.341,3.341,0,0,1,.7,1.027,3.138,3.138,0,0,1,0,2.506,3.289,3.289,0,0,1-1.723,1.723,3.068,3.068,0,0,1-1.253.261,3.158,3.158,0,0,1-1.288-.261,3.289,3.289,0,0,1-1.723-1.723,3.138,3.138,0,0,1,0-2.506,3.339,3.339,0,0,1,.7-1.027,3.123,3.123,0,0,1,1.027-.679A3.36,3.36,0,0,1,1522.626,772.488Zm14.48.069a3.375,3.375,0,0,1,1.27.244,3.058,3.058,0,0,1,1.045.679,3.346,3.346,0,0,1,.7,1.026,3.139,3.139,0,0,1,0,2.507,3.345,3.345,0,0,1-.7,1.026,3.271,3.271,0,0,1-1.045.7,3.191,3.191,0,0,1-1.27.261,3.069,3.069,0,0,1-1.253-.261,3.3,3.3,0,0,1-1.723-1.723,3.141,3.141,0,0,1,0-2.507,3.347,3.347,0,0,1,.7-1.026,3.1,3.1,0,0,1,1.027-.679A3.245,3.245,0,0,1,1537.106,772.557Zm5.848-19.771a3.554,3.554,0,0,1,1.514.261,1.731,1.731,0,0,1,.766.644,1.467,1.467,0,0,1,.208.818,2.735,2.735,0,0,1-.121.749q-.105.313-.453,1.288t-.748,2.14q-.4,1.167-.8,2.315t-.644,1.81a4.008,4.008,0,0,1-1.131,1.932,2.626,2.626,0,0,1-1.688.539h-18.274l.487,3.133h17.578q1.671,0,1.671,1.427a2.138,2.138,0,0,1-.331,1.2,1.451,1.451,0,0,1-1.305.5h-18.239a2.066,2.066,0,0,1-1.167-.313,2.653,2.653,0,0,1-.783-.818,4.936,4.936,0,0,1-.5-1.1,9.771,9.771,0,0,1-.3-1.114c-.024-.139-.087-.475-.192-1.009s-.232-1.2-.383-2-.319-1.694-.5-2.68-.372-1.978-.557-2.976q-.662-3.516-1.5-7.832h-2.611a1.409,1.409,0,0,1-.87-.261,2.282,2.282,0,0,1-.574-.626,2.413,2.413,0,0,1-.313-.783,3.787,3.787,0,0,1-.087-.766,1.525,1.525,0,0,1,.47-1.149,1.755,1.755,0,0,1,1.27-.452h3.516a2.492,2.492,0,0,1,1.113.209,1.888,1.888,0,0,1,.662.522,2.027,2.027,0,0,1,.348.661q.1.348.174.592a7.778,7.778,0,0,1,.139.783c.047.336.093.679.139,1.027q.1.625.209,1.322Zm-2.611-1.113H1527.6l4.595-4.595a2.515,2.515,0,0,1,1.758-.818,2.378,2.378,0,0,1,1.758.783Z"/>
    <circle id="椭圆_296" data-name="椭圆 296" class="cls-11" cx="26.411" cy="26.411" r="26.411" transform="translate(1595.984 891.467)"/>
    <g id="组_1526" data-name="组 1526">
      <path id="路径_989" data-name="路径 989" class="cls-10" d="M1629.469,909.357h-21.511a3.438,3.438,0,0,0-3.438,3.439v12.565a3.438,3.438,0,0,0,3.438,3.438h12.022l5.585,5.585V928.8h3.9a3.438,3.438,0,0,0,3.438-3.438V912.8A3.438,3.438,0,0,0,1629.469,909.357Zm-18.058,11.458a1.737,1.737,0,1,1,1.737-1.737A1.737,1.737,0,0,1,1611.411,920.815Zm7.3,0a1.737,1.737,0,1,1,1.737-1.737A1.737,1.737,0,0,1,1618.713,920.815Zm7.3,0a1.737,1.737,0,1,1,1.737-1.737A1.737,1.737,0,0,1,1626.016,920.815Z"/>
      <path id="路径_990" data-name="路径 990" class="cls-10" d="M1635.034,906.17h-21.511a3.439,3.439,0,0,0-3.178,2.132h21.088a3.438,3.438,0,0,1,3.439,3.438V924.3a3.429,3.429,0,0,1-.261,1.308h.423a3.439,3.439,0,0,0,3.439-3.439V909.609A3.439,3.439,0,0,0,1635.034,906.17Z"/>
    </g>
    <path id="路径_991" data-name="路径 991" class="cls-10" d="M1716.658,771.142h0a13.988,13.988,0,0,1-13.987-13.988,13.989,13.989,0,0,1-13.988,13.988,13.988,13.988,0,0,1,13.988,13.987h0A13.987,13.987,0,0,1,1716.658,771.142Z"/>
    <g id="组_1527" data-name="组 1527">
      <circle id="椭圆_297" data-name="椭圆 297" class="cls-5" cx="26.625" cy="26.625" r="26.625" transform="translate(2049.893 705.385)"/>
      <path id="路径_992" data-name="路径 992" class="cls-12" d="M2068.275,712.6"/>
      <path id="矩形_1123" data-name="矩形 1123" class="cls-1" d="M7.041,0H21.009A7.041,7.041,0,0,1,28.05,7.041v3.743a2.065,2.065,0,0,1-2.065,2.065H2.065A2.065,2.065,0,0,1,0,10.784V7.041A7.041,7.041,0,0,1,7.041,0Z" transform="translate(2062.96 735.841)"/>
      <path id="矩形_1124" data-name="矩形 1124" class="cls-1" d="M8.71,0h0a8.71,8.71,0,0,1,8.71,8.71v1.483A8.357,8.357,0,0,1,9.063,18.55H0a0,0,0,0,1,0,0V8.71A8.71,8.71,0,0,1,8.71,0Z" transform="translate(2085.695 731.66) rotate(-180)"/>
      <path id="路径_993" data-name="路径 993" class="cls-4" d="M2085.7,712.6a8.711,8.711,0,0,1-8.71,8.71h0a8.709,8.709,0,0,1-7.544-4.353"/>
    </g>
    <circle id="椭圆_298" data-name="椭圆 298" class="cls-5" cx="42.703" cy="42.703" r="42.703" transform="translate(1517.081 803.24)"/>
    <g id="组_1530" data-name="组 1530">
      <path id="路径_994" data-name="路径 994" class="cls-13" d="M1532.517,860.638v2.1l23.635,13.646h7.266l23.635-13.646v-2.1l-23.635-13.646h-7.266Z"/>
      <path id="路径_995" data-name="路径 995" class="cls-13" d="M1532.517,829.152v2.1l23.635,13.646h7.266l23.635-13.646v-2.1l-23.635-13.646h-7.266Z"/>
      <path id="路径_996" data-name="路径 996" class="cls-14" d="M1587.053,831.249v31.487l-23.635,13.646V844.895Z"/>
      <path id="路径_997" data-name="路径 997" class="cls-13" d="M1532.517,831.249v31.487l23.635,13.646V844.895Z"/>
      <g id="组_1529" data-name="组 1529">
        <g id="组_1528" data-name="组 1528">
          <ellipse id="椭圆_299" data-name="椭圆 299" class="cls-15" cx="2.765" cy="4.79" rx="2.765" ry="4.79" transform="translate(1547.551 828.836) rotate(-89.689)"/>
          <ellipse id="椭圆_300" data-name="椭圆 300" class="cls-16" cx="2.765" cy="4.79" rx="2.765" ry="4.79" transform="translate(1554.946 833.106) rotate(-89.689)"/>
          <path id="路径_998" data-name="路径 998" class="cls-17" d="M1563.5,836.428l-3.125-1.8,6.753-3.9,3.124,1.8c1.615.933,1.413,2.561-.452,3.638h0A7,7,0,0,1,1563.5,836.428Z"/>
        </g>
      </g>
      <rect id="矩形_1125" data-name="矩形 1125" class="cls-14" width="7.266" height="31.486" transform="translate(1556.152 844.895)"/>
      <path id="路径_999" data-name="路径 999" class="cls-18" d="M1532.517,852.24l23.635,13.646h7.266l23.635-13.646"/>
      <path id="路径_1000" data-name="路径 1000" class="cls-18" d="M1532.517,841.745l23.635,13.646h7.266l23.635-13.646"/>
    </g>
    <g id="组_1538" data-name="组 1538">
      <path id="路径_1001" data-name="路径 1001" class="cls-5" d="M1735.193,888.294v5.129l57.8,33.369h17.767l57.8-33.369v-5.129l-57.8-33.369H1792.99Z"/>
      <path id="路径_1002" data-name="路径 1002" class="cls-5" d="M1735.193,862.629v5.129l57.8,33.369h17.767l57.8-33.369v-5.129l-57.8-33.369H1792.99Z"/>
      <path id="路径_1003" data-name="路径 1003" class="cls-5" d="M1735.193,836.963v5.129l57.8,33.369h17.767l57.8-33.369v-5.129l-57.8-33.369H1792.99Z"/>
      <path id="路径_1004" data-name="路径 1004" class="cls-13" d="M1735.193,811.3v5.129l57.8,33.369h17.767l57.8-33.369V811.3l-57.8-33.369H1792.99Z"/>
      <line id="直线_191" data-name="直线 191" class="cls-5" y2="76.996" transform="translate(1735.193 813.862)"/>
      <path id="路径_1005" data-name="路径 1005" class="cls-14" d="M1868.554,816.427l-57.8,33.369v25.665l57.8-33.369Z"/>
      <path id="路径_1006" data-name="路径 1006" class="cls-14" d="M1868.554,842.092l-57.8,33.369v25.665l57.8-33.369Z"/>
      <path id="路径_1007" data-name="路径 1007" class="cls-14" d="M1868.554,867.757l-57.8,33.369v25.665l57.8-33.369Z"/>
      <g id="组_1531" data-name="组 1531">
        <path id="路径_1008" data-name="路径 1008" class="cls-13" d="M1735.193,867.757l57.8,33.369v25.665l-57.8-33.369Z"/>
        <line id="直线_192" data-name="直线 192" class="cls-18" x1="25.419" y1="14.676" transform="translate(1746.035 886.976)"/>
        <circle id="椭圆_301" data-name="椭圆 301" class="cls-19" cx="3.401" cy="3.401" r="3.401" transform="translate(1778.153 904.115)"/>
      </g>
      <g id="组_1532" data-name="组 1532">
        <path id="路径_1009" data-name="路径 1009" class="cls-1" d="M1735.193,842.092l57.8,33.369v25.665l-57.8-33.369Z"/>
        <line id="直线_193" data-name="直线 193" class="cls-18" x1="25.419" y1="14.676" transform="translate(1746.035 861.31)"/>
        <circle id="椭圆_302" data-name="椭圆 302" class="cls-19" cx="3.401" cy="3.401" r="3.401" transform="translate(1778.153 878.45)"/>
      </g>
      <g id="组_1533" data-name="组 1533">
        <path id="路径_1010" data-name="路径 1010" class="cls-1" d="M1735.193,816.427l57.8,33.369v25.665l-57.8-33.369Z"/>
        <line id="直线_194" data-name="直线 194" class="cls-18" x1="25.419" y1="14.676" transform="translate(1746.035 835.645)"/>
        <circle id="椭圆_303" data-name="椭圆 303" class="cls-19" cx="3.401" cy="3.401" r="3.401" transform="translate(1778.153 852.785)"/>
      </g>
      <g id="组_1534" data-name="组 1534">
        <line id="直线_195" data-name="直线 195" class="cls-18" y2="9.311" transform="translate(1853.951 833.035)"/>
        <line id="直线_196" data-name="直线 196" class="cls-18" y2="9.311" transform="translate(1848.233 836.336)"/>
        <line id="直线_197" data-name="直线 197" class="cls-18" y2="9.311" transform="translate(1842.515 839.638)"/>
        <line id="直线_198" data-name="直线 198" class="cls-18" y2="9.311" transform="translate(1836.797 842.939)"/>
        <line id="直线_199" data-name="直线 199" class="cls-18" y2="9.311" transform="translate(1831.079 846.24)"/>
        <line id="直线_200" data-name="直线 200" class="cls-18" y2="9.311" transform="translate(1825.361 849.541)"/>
      </g>
      <g id="组_1535" data-name="组 1535">
        <line id="直线_201" data-name="直线 201" class="cls-18" y2="9.311" transform="translate(1853.951 858.701)"/>
        <line id="直线_202" data-name="直线 202" class="cls-18" y2="9.311" transform="translate(1848.233 862.002)"/>
        <line id="直线_203" data-name="直线 203" class="cls-18" y2="9.311" transform="translate(1842.515 865.303)"/>
        <line id="直线_204" data-name="直线 204" class="cls-18" y2="9.311" transform="translate(1836.797 868.604)"/>
        <line id="直线_205" data-name="直线 205" class="cls-18" y2="9.311" transform="translate(1831.079 871.906)"/>
        <line id="直线_206" data-name="直线 206" class="cls-18" y2="9.311" transform="translate(1825.361 875.207)"/>
      </g>
      <g id="组_1536" data-name="组 1536">
        <line id="直线_207" data-name="直线 207" class="cls-18" y2="9.311" transform="translate(1853.951 884.366)"/>
        <line id="直线_208" data-name="直线 208" class="cls-18" y2="9.311" transform="translate(1848.233 887.667)"/>
        <line id="直线_209" data-name="直线 209" class="cls-18" y2="9.311" transform="translate(1842.515 890.968)"/>
        <line id="直线_210" data-name="直线 210" class="cls-18" y2="9.311" transform="translate(1836.797 894.27)"/>
        <line id="直线_211" data-name="直线 211" class="cls-18" y2="9.311" transform="translate(1831.079 897.571)"/>
        <line id="直线_212" data-name="直线 212" class="cls-18" y2="9.311" transform="translate(1825.361 900.872)"/>
      </g>
      <g id="组_1537" data-name="组 1537">
        <path id="路径_1011" data-name="路径 1011" class="cls-20" d="M1790.018,795.874c-5.581-3.223-14.6-3.239-20.151-.036s-5.518,8.411.064,11.634,14.6,3.239,20.151.036S1795.6,799.1,1790.018,795.874Z"/>
        <path id="路径_1012" data-name="路径 1012" class="cls-21" d="M1812.018,808.575c-5.582-3.222-14.6-3.239-20.151-.036s-5.519,8.411.063,11.634,14.6,3.239,20.151.037S1817.6,811.8,1812.018,808.575Z"/>
        <path id="路径_1013" data-name="路径 1013" class="cls-22" d="M1833.2,820.808l-9.295-5.366-20.087,11.6,9.294,5.367c4.8,2.773,13.2,2.425,18.742-.777h0C1837.406,828.426,1838.009,823.581,1833.2,820.808Z"/>
      </g>
    </g>
    <g id="组_1544" data-name="组 1544">
      <line id="直线_213" data-name="直线 213" class="cls-13" y2="61.804" transform="translate(1801.874 752.058)"/>
      <g id="组_1543" data-name="组 1543">
        <circle id="椭圆_304" data-name="椭圆 304" class="cls-13" cx="39.28" cy="39.28" r="39.28" transform="translate(1762.593 682.891)"/>
        <path id="矩形_1126" data-name="矩形 1126" class="cls-17" d="M11.232,0H30.15A11.232,11.232,0,0,1,41.383,11.232v7.64a3.295,3.295,0,0,1-3.295,3.295H3.295A3.295,3.295,0,0,1,0,18.873v-7.64A11.232,11.232,0,0,1,11.232,0Z" transform="translate(1784.936 729.331)"/>
        <g id="组_1539" data-name="组 1539">
          <line id="直线_214" data-name="直线 214" class="cls-23" y2="7.013" transform="translate(1790.167 742.977)"/>
        </g>
        <g id="组_1540" data-name="组 1540">
          <line id="直线_215" data-name="直线 215" class="cls-13" y2="7.013" transform="translate(1788.531 742.977)"/>
          <line id="直线_216" data-name="直线 216" class="cls-13" y2="7.013" transform="translate(1815.217 742.977)"/>
        </g>
        <path id="矩形_1127" data-name="矩形 1127" class="cls-4" d="M11.232,0H30.15A11.232,11.232,0,0,1,41.383,11.232v7.64a3.295,3.295,0,0,1-3.295,3.295H3.295A3.295,3.295,0,0,1,0,18.873v-7.64A11.232,11.232,0,0,1,11.232,0Z" transform="translate(1781.182 727.823)"/>
        <path id="矩形_1128" data-name="矩形 1128" class="cls-1" d="M7.068,0h0a7.068,7.068,0,0,1,7.068,7.068v14.68a6.19,6.19,0,0,1-6.19,6.19H0a0,0,0,0,1,0,0V7.068A7.068,7.068,0,0,1,7.068,0Z" transform="translate(1808.942 736.31) rotate(-180)"/>
        <path id="路径_1014" data-name="路径 1014" class="cls-12" d="M1801.874,693.529"/>
        <rect id="矩形_1129" data-name="矩形 1129" class="cls-1" width="37.681" height="9.179" rx="4.589" transform="translate(1783.033 707.365)"/>
        <path id="矩形_1130" data-name="矩形 1130" class="cls-1" d="M12.588,0h.523A12.588,12.588,0,0,1,25.7,12.588v11.1a9.852,9.852,0,0,1-9.852,9.852H0a0,0,0,0,1,0,0V12.588A12.588,12.588,0,0,1,12.588,0Z" transform="translate(1814.724 727.823) rotate(-180)"/>
        <g id="组_1542" data-name="组 1542">
          <path id="矩形_1131" data-name="矩形 1131" class="cls-10" d="M9.133,0H25.7a0,0,0,0,1,0,0V1.964a9.828,9.828,0,0,1-9.828,9.828H0a0,0,0,0,1,0,0V9.133A9.133,9.133,0,0,1,9.133,0Z" transform="translate(1814.724 706.08) rotate(-180)"/>
          <g id="组_1541" data-name="组 1541" class="cls-24">
            <path id="矩形_1132" data-name="矩形 1132" class="cls-25" d="M9.133,0H25.7a0,0,0,0,1,0,0V1.964a9.828,9.828,0,0,1-9.828,9.828H0a0,0,0,0,1,0,0V9.133A9.133,9.133,0,0,1,9.133,0Z" transform="translate(1818.435 707.952) rotate(-180)"/>
          </g>
          <path id="矩形_1134" data-name="矩形 1134" class="cls-4" d="M9.133,0H25.7a0,0,0,0,1,0,0V1.964a9.828,9.828,0,0,1-9.828,9.828H0a0,0,0,0,1,0,0V9.133A9.133,9.133,0,0,1,9.133,0Z" transform="translate(1814.724 706.08) rotate(-180)"/>
        </g>
      </g>
      <ellipse id="椭圆_305" data-name="椭圆 305" class="cls-19" cx="3.629" cy="6.287" rx="3.629" ry="6.287" transform="translate(1795.568 817.457) rotate(-89.689)"/>
    </g>
    <g id="组_1547" data-name="组 1547">
      <g id="组_1545" data-name="组 1545">
        <path id="路径_1015" data-name="路径 1015" class="cls-18" d="M1875.57,896.114a86.937,86.937,0,0,0,2.93-86.8"/>
        <path id="路径_1016" data-name="路径 1016" class="cls-18" d="M1899.33,797.294a111.261,111.261,0,0,1-2.94,110.84"/>
        <path id="路径_1017" data-name="路径 1017" class="cls-18" d="M1888.9,803.314"/>
        <path id="路径_1018" data-name="路径 1018" class="cls-18" d="M1875.57,896.114a86.937,86.937,0,0,0,2.93-86.8"/>
        <path id="路径_1019" data-name="路径 1019" class="cls-18" d="M1888.9,803.314a98.942,98.942,0,0,1-2.93,98.8"/>
      </g>
      <g id="组_1546" data-name="组 1546">
        <path id="路径_1020" data-name="路径 1020" class="cls-18" d="M1727.57,896.114a86.936,86.936,0,0,1-2.93-86.8"/>
        <path id="路径_1021" data-name="路径 1021" class="cls-18" d="M1703.81,797.294a111.261,111.261,0,0,0,2.94,110.84"/>
        <path id="路径_1022" data-name="路径 1022" class="cls-18" d="M1714.24,803.314"/>
        <path id="路径_1023" data-name="路径 1023" class="cls-18" d="M1727.57,896.114a86.936,86.936,0,0,1-2.93-86.8"/>
        <path id="路径_1024" data-name="路径 1024" class="cls-18" d="M1714.24,803.314a98.941,98.941,0,0,0,2.93,98.8"/>
      </g>
    </g>
  </g>
</svg>
