<svg xmlns="http://www.w3.org/2000/svg" xmlns:xlink="http://www.w3.org/1999/xlink" width="37.5" height="37.367" viewBox="0 0 37.5 37.367"><defs><style>.a{fill:#1dbfa2;}.b{opacity:0;}.c{fill:#f9e2e2;}.d{fill:#ffbcbc;}.e{fill:#dce3e7;}.e,.f{stroke:#dce3e7;}.e,.f,.g,.h,.i{stroke-linecap:round;}.f,.h,.i{fill:none;}.g{fill:#fff;}.g,.h{stroke:#fff;}.i{stroke:#1dbfa2;stroke-linejoin:round;stroke-miterlimit:10;}.j{filter:url(#a);}</style><filter id="a" x="0" y="0.633" width="35" height="36.734" filterUnits="userSpaceOnUse"><feOffset dy="3" input="SourceAlpha"/><feGaussianBlur stdDeviation="3" result="b"/><feFlood flood-opacity="0.322"/><feComposite operator="in" in2="b"/><feComposite in="SourceGraphic"/></filter></defs><g transform="translate(-1722.5 -384)"><g transform="translate(77 278)"><path class="a" d="M16,0A16,16,0,1,1,0,16,16,16,0,0,1,16,0Z" transform="translate(1651 106)"/></g><g class="b" transform="translate(1726 380)"><path class="c" d="M0,0H30V24H0Z" transform="translate(3 8)"/><rect class="d" width="24" height="18" transform="translate(6 11)"/></g><g transform="translate(1728.332 386.118)"><path class="e" d="M15.752,4,17.724,7.51a1,1,0,0,1,0,.981l-3.938,7a1,1,0,0,1-.872.51H5.085a1,1,0,0,1-.872-.51l-3.937-7a1,1,0,0,1,0-.981L2.107,4.254" transform="translate(11.669 22.882) rotate(-90)"/><line class="f" y2="1" transform="translate(19.669 20.882)"/><path class="e" d="M0,0V3.985" transform="translate(27.37 9.601) rotate(60)"/></g><g transform="translate(1728.332 386.118)"><g class="j" transform="matrix(1, 0, 0, 1, -5.83, -2.12)"><path class="g" d="M12.915,0a1,1,0,0,1,.872.51l3.938,7a1,1,0,0,1,0,.981l-3.938,7a1,1,0,0,1-.872.51H5.085a1,1,0,0,1-.872-.51l-3.937-7a1,1,0,0,1,0-.981l3.938-7A1,1,0,0,1,5.085,0Z" transform="translate(9.5 25) rotate(-90)"/></g><line class="h" y2="1" transform="translate(11.669 20.882)"/><path class="g" d="M0,1.705V0" transform="translate(5.334 10.281) rotate(120)"/><path class="g" d="M0,0V1.687" transform="translate(19.37 9.601) rotate(60)"/></g><g transform="translate(1726.257 387.558)"><path class="i" d="M3032.065,1416.538a2.466,2.466,0,0,1,1.381-.42,2.5,2.5,0,1,1-2.488,2.5" transform="translate(-3019.694 -1406.176)"/><path class="i" d="M3095.175,1416.118h.5a2.5,2.5,0,1,1,0,5c-1.382,0-1.872,0-2.5,0" transform="translate(-3078.432 -1406.176)"/><path class="i" d="M2980.249,1420.7a2.5,2.5,0,1,1,1.112-2.08" transform="translate(-2968.617 -1406.176)"/></g></g></svg>