<svg xmlns="http://www.w3.org/2000/svg" xmlns:xlink="http://www.w3.org/1999/xlink" width="933" height="373" viewBox="0 0 933 373"><defs><style>.a,.l{fill:#fff;}.b,.h,.j,.k,.m{fill:#8b3dd9;}.b{opacity:0.08;}.c,.s{fill:#dae4f3;}.d,.t{fill:#ebebeb;}.e,.f{fill:#f2f1f2;}.e,.u,.v,.w{stroke:#fff;}.g,.u{fill:#0ad7b6;}.h,.t{opacity:0.5;}.i,.w{fill:#fbc333;}.j{opacity:0.1;}.l,.m{stroke:rgba(0,0,0,0);font-size:10px;font-family:MicrosoftYaHei, Microsoft YaHei;}.n,.q,.r,.x{fill:none;}.n{stroke:#8b3dd9;stroke-width:3px;opacity:0.4;}.o{fill:#00ccab;}.p{opacity:0.8;}.q{stroke:#d0b1f0;}.q,.r{opacity:0.37;}.r{stroke:#d4b8f1;}.s{opacity:0.12;}.v{fill:#778cf4;}.y{stroke:none;}.z{filter:url(#aw);}.aa{filter:url(#au);}.ab{filter:url(#as);}.ac{filter:url(#aq);}.ad{filter:url(#ao);}.ae{filter:url(#am);}.af{filter:url(#ak);}.ag{filter:url(#ai);}.ah{filter:url(#ag);}.ai{filter:url(#ae);}.aj{filter:url(#ac);}.ak{filter:url(#aa);}.al{filter:url(#y);}.am{filter:url(#w);}.an{filter:url(#u);}.ao{filter:url(#s);}.ap{filter:url(#q);}.aq{filter:url(#o);}.ar{filter:url(#m);}.as{filter:url(#k);}.at{filter:url(#i);}.au{filter:url(#g);}.av{filter:url(#e);}.aw{filter:url(#c);}.ax{filter:url(#a);}</style><filter id="a" x="128" y="50" width="671" height="271" filterUnits="userSpaceOnUse"><feOffset dy="8" input="SourceAlpha"/><feGaussianBlur stdDeviation="5" result="b"/><feFlood flood-opacity="0.078"/><feComposite operator="in" in2="b"/><feComposite in="SourceGraphic"/></filter><filter id="c" x="525" y="68" width="293" height="271" filterUnits="userSpaceOnUse"><feOffset dy="8" input="SourceAlpha"/><feGaussianBlur stdDeviation="5" result="d"/><feFlood flood-opacity="0.078"/><feComposite operator="in" in2="d"/><feComposite in="SourceGraphic"/></filter><filter id="e" x="145" y="68" width="402" height="271" filterUnits="userSpaceOnUse"><feOffset dy="8" input="SourceAlpha"/><feGaussianBlur stdDeviation="5" result="f"/><feFlood flood-opacity="0.078"/><feComposite operator="in" in2="f"/><feComposite in="SourceGraphic"/></filter><filter id="g" x="588" y="103" width="169" height="169" filterUnits="userSpaceOnUse"><feOffset dy="3" input="SourceAlpha"/><feGaussianBlur stdDeviation="3" result="h"/><feFlood flood-opacity="0.161"/><feComposite operator="in" in2="h"/><feComposite in="SourceGraphic"/></filter><filter id="i" x="718" y="128" width="69" height="69" filterUnits="userSpaceOnUse"><feOffset dy="3" input="SourceAlpha"/><feGaussianBlur stdDeviation="3" result="j"/><feFlood flood-opacity="0.161"/><feComposite operator="in" in2="j"/><feComposite in="SourceGraphic"/></filter><filter id="k" x="728.998" y="142" width="47.004" height="24.882" filterUnits="userSpaceOnUse"><feOffset dy="3" input="SourceAlpha"/><feGaussianBlur stdDeviation="3" result="l"/><feFlood flood-color="#8b3dd9" flood-opacity="0.161"/><feComposite operator="in" in2="l"/><feComposite in="SourceGraphic"/></filter><filter id="m" x="728.998" y="149.747" width="47.004" height="24.882" filterUnits="userSpaceOnUse"><feOffset dy="3" input="SourceAlpha"/><feGaussianBlur stdDeviation="3" result="n"/><feFlood flood-color="#8b3dd9" flood-opacity="0.161"/><feComposite operator="in" in2="n"/><feComposite in="SourceGraphic"/></filter><filter id="o" x="728.998" y="157.693" width="47.004" height="24.882" filterUnits="userSpaceOnUse"><feOffset dy="3" input="SourceAlpha"/><feGaussianBlur stdDeviation="3" result="p"/><feFlood flood-color="#8b3dd9" flood-opacity="0.161"/><feComposite operator="in" in2="p"/><feComposite in="SourceGraphic"/></filter><filter id="q" x="632" y="68" width="81" height="81" filterUnits="userSpaceOnUse"><feOffset dy="8" input="SourceAlpha"/><feGaussianBlur stdDeviation="5" result="r"/><feFlood flood-opacity="0.078"/><feComposite operator="in" in2="r"/><feComposite in="SourceGraphic"/></filter><filter id="s" x="649" y="83" width="47.004" height="24.882" filterUnits="userSpaceOnUse"><feOffset dy="3" input="SourceAlpha"/><feGaussianBlur stdDeviation="3" result="t"/><feFlood flood-color="#8b3dd9" flood-opacity="0.161"/><feComposite operator="in" in2="t"/><feComposite in="SourceGraphic"/></filter><filter id="u" x="649" y="90.747" width="47.004" height="24.882" filterUnits="userSpaceOnUse"><feOffset dy="3" input="SourceAlpha"/><feGaussianBlur stdDeviation="3" result="v"/><feFlood flood-color="#8b3dd9" flood-opacity="0.161"/><feComposite operator="in" in2="v"/><feComposite in="SourceGraphic"/></filter><filter id="w" x="649" y="98.693" width="47.004" height="24.882" filterUnits="userSpaceOnUse"><feOffset dy="3" input="SourceAlpha"/><feGaussianBlur stdDeviation="3" result="x"/><feFlood flood-color="#8b3dd9" flood-opacity="0.161"/><feComposite operator="in" in2="x"/><feComposite in="SourceGraphic"/></filter><filter id="y" x="557" y="128" width="69" height="69" filterUnits="userSpaceOnUse"><feOffset dy="3" input="SourceAlpha"/><feGaussianBlur stdDeviation="3" result="z"/><feFlood flood-opacity="0.161"/><feComposite operator="in" in2="z"/><feComposite in="SourceGraphic"/></filter><filter id="aa" x="568" y="142" width="47.004" height="24.882" filterUnits="userSpaceOnUse"><feOffset dy="3" input="SourceAlpha"/><feGaussianBlur stdDeviation="3" result="ab"/><feFlood flood-color="#8b3dd9" flood-opacity="0.161"/><feComposite operator="in" in2="ab"/><feComposite in="SourceGraphic"/></filter><filter id="ac" x="568" y="149.747" width="47.004" height="24.882" filterUnits="userSpaceOnUse"><feOffset dy="3" input="SourceAlpha"/><feGaussianBlur stdDeviation="3" result="ad"/><feFlood flood-color="#8b3dd9" flood-opacity="0.161"/><feComposite operator="in" in2="ad"/><feComposite in="SourceGraphic"/></filter><filter id="ae" x="568" y="157.693" width="47.004" height="24.882" filterUnits="userSpaceOnUse"><feOffset dy="3" input="SourceAlpha"/><feGaussianBlur stdDeviation="3" result="af"/><feFlood flood-color="#8b3dd9" flood-opacity="0.161"/><feComposite operator="in" in2="af"/><feComposite in="SourceGraphic"/></filter><filter id="ag" x="590" y="218" width="69" height="69" filterUnits="userSpaceOnUse"><feOffset dy="3" input="SourceAlpha"/><feGaussianBlur stdDeviation="3" result="ah"/><feFlood flood-opacity="0.161"/><feComposite operator="in" in2="ah"/><feComposite in="SourceGraphic"/></filter><filter id="ai" x="601" y="232" width="47.004" height="24.882" filterUnits="userSpaceOnUse"><feOffset dy="3" input="SourceAlpha"/><feGaussianBlur stdDeviation="3" result="aj"/><feFlood flood-color="#8b3dd9" flood-opacity="0.161"/><feComposite operator="in" in2="aj"/><feComposite in="SourceGraphic"/></filter><filter id="ak" x="601" y="239.747" width="47.004" height="24.882" filterUnits="userSpaceOnUse"><feOffset dy="3" input="SourceAlpha"/><feGaussianBlur stdDeviation="3" result="al"/><feFlood flood-color="#8b3dd9" flood-opacity="0.161"/><feComposite operator="in" in2="al"/><feComposite in="SourceGraphic"/></filter><filter id="am" x="601" y="247.693" width="47.004" height="24.882" filterUnits="userSpaceOnUse"><feOffset dy="3" input="SourceAlpha"/><feGaussianBlur stdDeviation="3" result="an"/><feFlood flood-color="#8b3dd9" flood-opacity="0.161"/><feComposite operator="in" in2="an"/><feComposite in="SourceGraphic"/></filter><filter id="ao" x="688" y="218" width="69" height="69" filterUnits="userSpaceOnUse"><feOffset dy="3" input="SourceAlpha"/><feGaussianBlur stdDeviation="3" result="ap"/><feFlood flood-opacity="0.161"/><feComposite operator="in" in2="ap"/><feComposite in="SourceGraphic"/></filter><filter id="aq" x="699" y="232" width="47.004" height="24.882" filterUnits="userSpaceOnUse"><feOffset dy="3" input="SourceAlpha"/><feGaussianBlur stdDeviation="3" result="ar"/><feFlood flood-color="#8b3dd9" flood-opacity="0.161"/><feComposite operator="in" in2="ar"/><feComposite in="SourceGraphic"/></filter><filter id="as" x="699" y="239.747" width="47.004" height="24.882" filterUnits="userSpaceOnUse"><feOffset dy="3" input="SourceAlpha"/><feGaussianBlur stdDeviation="3" result="at"/><feFlood flood-color="#8b3dd9" flood-opacity="0.161"/><feComposite operator="in" in2="at"/><feComposite in="SourceGraphic"/></filter><filter id="au" x="699" y="247.693" width="47.004" height="24.882" filterUnits="userSpaceOnUse"><feOffset dy="3" input="SourceAlpha"/><feGaussianBlur stdDeviation="3" result="av"/><feFlood flood-color="#8b3dd9" flood-opacity="0.161"/><feComposite operator="in" in2="av"/><feComposite in="SourceGraphic"/></filter><filter id="aw" x="624" y="140" width="97" height="97" filterUnits="userSpaceOnUse"><feOffset dy="3" input="SourceAlpha"/><feGaussianBlur stdDeviation="3" result="ax"/><feFlood flood-opacity="0.161"/><feComposite operator="in" in2="ax"/><feComposite in="SourceGraphic"/></filter></defs><g transform="translate(-494 -193)"><g class="ax" transform="matrix(1, 0, 0, 1, 494, 193)"><rect class="a" width="641" height="241" rx="8" transform="translate(143 57)"/></g><rect class="b" width="102" height="41" transform="translate(624 407)"/><path class="c" d="M8,0H633a8,8,0,0,1,8,8V24a0,0,0,0,1,0,0H0a0,0,0,0,1,0,0V8A8,8,0,0,1,8,0Z" transform="translate(637 250)"/><rect class="d" width="641" height="16" transform="translate(637 259)"/><g class="e" transform="translate(654 263)"><circle class="y" cx="4.5" cy="4.5" r="4.5"/><circle class="x" cx="4.5" cy="4.5" r="4"/></g><g class="e" transform="translate(670 263)"><circle class="y" cx="4.5" cy="4.5" r="4.5"/><circle class="x" cx="4.5" cy="4.5" r="4"/></g><g class="e" transform="translate(686 263)"><circle class="y" cx="4.5" cy="4.5" r="4.5"/><circle class="x" cx="4.5" cy="4.5" r="4"/></g><path class="a" d="M8,0H58a0,0,0,0,1,0,0V9a0,0,0,0,1,0,0H0A0,0,0,0,1,0,9V8A8,8,0,0,1,8,0Z" transform="translate(637 250)"/><rect class="f" width="30" height="4" transform="translate(662 253)"/><rect class="g" width="4" height="4" transform="translate(654 253)"/><g class="aw" transform="matrix(1, 0, 0, 1, 494, 193)"><rect class="a" width="263" height="241" rx="8" transform="translate(540 75)"/></g><g class="av" transform="matrix(1, 0, 0, 1, 494, 193)"><rect class="a" width="372" height="241" rx="8" transform="translate(160 75)"/></g><rect class="h" width="58" height="16" transform="translate(893 432)"/><rect class="h" width="24" height="16" transform="translate(704 432)"/><path class="i" d="M264.317,267.157,256,275.474l3.043,2.84L270.2,267.157,259.043,256,256,258.84Zm12.374,0-8.317,8.317,2.84,2.84,11.157-11.157L271.214,256l-2.84,2.84,8.317,8.317Z" transform="translate(532 84.343)"/><path class="i" d="M258.365,259.173,256,261.538l.865.808,3.173-3.173L256.865,256l-.865.808Zm3.519,0-2.365,2.365.808.808,3.173-3.173L260.327,256l-.808.808Z" transform="translate(534 180.827)"/><rect class="j" width="68" height="69" transform="translate(704 317)"/><rect class="j" width="106" height="69" transform="translate(832 317)"/><rect class="k" width="62" height="26" transform="translate(707 323)"/><rect class="k" width="100" height="26" transform="translate(835 323)"/><rect class="k" width="62" height="26" transform="translate(707 353)"/><rect class="k" width="100" height="26" transform="translate(835 353)"/><text class="l" transform="translate(724 370)"><tspan x="0" y="0">Name</tspan></text><text class="l" transform="translate(853 370)"><tspan x="0" y="0">Namedobject</tspan></text><text class="l" transform="translate(729 340)"><tspan x="0" y="0">eips</tspan></text><text class="l" transform="translate(858 340)"><tspan x="0" y="0">7jMm...V8Q</tspan></text><text class="m" transform="translate(674 443)"><tspan x="0" y="0">cyfs:// </tspan><tspan class="a" y="0">eips</tspan><tspan y="0" xml:space="preserve"> /index.html</tspan></text><text class="m" transform="translate(802 443)"><tspan x="0" y="0">cyfs://o/5r4...2md/</tspan><tspan class="a" y="0" xml:space="preserve"> 7jMm...V8Q </tspan><tspan y="0">/index.html</tspan></text><g transform="translate(715 420)"><rect class="k" width="1" height="6"/><rect class="k" width="1" height="6" transform="translate(207)"/><rect class="k" width="1" height="208" transform="translate(208) rotate(90)"/></g><text class="m" transform="translate(1106 493)"><tspan x="0" y="0">Data-ownership network</tspan></text><g transform="translate(-8825 866)"><g class="au" transform="matrix(1, 0, 0, 1, 9319, -673)"><circle class="a" cx="75.5" cy="75.5" r="75.5" transform="translate(597 109)"/></g><text class="l" transform="translate(9988 -492)"><tspan x="0" y="0">TRUSTED links!</tspan></text><g class="n" transform="translate(9906 -574)"><circle class="y" cx="85.5" cy="85.5" r="85.5"/><circle class="x" cx="85.5" cy="85.5" r="84"/></g><g transform="translate(8)"><g transform="translate(8917 -818)"><g class="at" transform="matrix(1, 0, 0, 1, 394, 145)"><circle class="a" cx="25.5" cy="25.5" r="25.5" transform="translate(727 134)"/></g></g><g transform="translate(8968.003 -826)"><g class="as" transform="matrix(1, 0, 0, 1, 343, 153)"><rect class="g" width="29.004" height="6.882" rx="1" transform="translate(738 148)"/></g><g class="ar" transform="matrix(1, 0, 0, 1, 343, 153)"><rect class="g" width="29.004" height="6.882" rx="1" transform="translate(738 155.75)"/></g><g class="aq" transform="matrix(1, 0, 0, 1, 343, 153)"><rect class="g" width="29.004" height="6.882" rx="1" transform="translate(738 163.69)"/></g><g transform="translate(1085.188 302.391)"><g transform="translate(0 0.993)"><circle class="o" cx="1.047" cy="1.047" r="1.047"/><g transform="translate(3.401 0.523)"><rect class="a" width="4.448" height="1.047" rx="0.523"/><rect class="a" width="1.047" height="1.047" rx="0.523" transform="translate(4.971)"/><rect class="a" width="1.047" height="1.047" rx="0.523" transform="translate(6.541)"/></g></g><g class="p" transform="translate(16.746 0)"><rect class="a" width="0.785" height="3.925" rx="0.392" transform="translate(0 0)"/><rect class="a" width="0.785" height="3.925" rx="0.392" transform="translate(1.308 0)"/><rect class="a" width="0.785" height="3.925" rx="0.392" transform="translate(2.617 0)"/></g></g><g transform="translate(1085.188 310.336)"><g transform="translate(0 0.993)"><circle class="o" cx="1.047" cy="1.047" r="1.047"/><g transform="translate(3.401 0.523)"><rect class="a" width="4.448" height="1.047" rx="0.523"/><rect class="a" width="1.047" height="1.047" rx="0.523" transform="translate(4.971)"/><rect class="a" width="1.047" height="1.047" rx="0.523" transform="translate(6.541)"/></g></g><g class="p" transform="translate(16.746 0)"><rect class="a" width="0.785" height="3.925" rx="0.392" transform="translate(0 0)"/><rect class="a" width="0.785" height="3.925" rx="0.392" transform="translate(1.308 0)"/><rect class="a" width="0.785" height="3.925" rx="0.392" transform="translate(2.617 0)"/></g></g><g transform="translate(1085.188 318.084)"><g transform="translate(0 0.993)"><path class="o" d="M1.047,0A1.047,1.047,0,1,1,0,1.047,1.047,1.047,0,0,1,1.047,0Z"/><g transform="translate(3.401 0.523)"><rect class="a" width="4.448" height="1.047" rx="0.523"/><rect class="a" width="1.047" height="1.047" rx="0.523" transform="translate(4.971)"/><rect class="a" width="1.047" height="1.047" rx="0.523" transform="translate(6.541)"/></g></g><g class="p" transform="translate(16.746 0)"><rect class="a" width="0.785" height="3.925" rx="0.392" transform="translate(0 0)"/><rect class="a" width="0.785" height="3.925" rx="0.392" transform="translate(1.308 0)"/><rect class="a" width="0.785" height="3.925" rx="0.392" transform="translate(2.617 0)"/></g></g></g></g><g transform="translate(8845 -877)"><g class="ap" transform="matrix(1, 0, 0, 1, 474, 204)"><circle class="a" cx="25.5" cy="25.5" r="25.5" transform="translate(647 75)"/></g></g><g transform="translate(8896.005 -885)"><g class="ao" transform="matrix(1, 0, 0, 1, 423, 212)"><rect class="g" width="29.004" height="6.882" rx="1" transform="translate(658 89)"/></g><g class="an" transform="matrix(1, 0, 0, 1, 423, 212)"><rect class="g" width="29.004" height="6.882" rx="1" transform="translate(658 96.75)"/></g><g class="am" transform="matrix(1, 0, 0, 1, 423, 212)"><rect class="g" width="29.004" height="6.882" rx="1" transform="translate(658 104.69)"/></g><g transform="translate(1085.188 302.391)"><g transform="translate(0 0.993)"><circle class="o" cx="1.047" cy="1.047" r="1.047"/><g transform="translate(3.401 0.523)"><rect class="a" width="4.448" height="1.047" rx="0.523"/><rect class="a" width="1.047" height="1.047" rx="0.523" transform="translate(4.971)"/><rect class="a" width="1.047" height="1.047" rx="0.523" transform="translate(6.541)"/></g></g><g class="p" transform="translate(16.746 0)"><rect class="a" width="0.785" height="3.925" rx="0.392" transform="translate(0 0)"/><rect class="a" width="0.785" height="3.925" rx="0.392" transform="translate(1.308 0)"/><rect class="a" width="0.785" height="3.925" rx="0.392" transform="translate(2.617 0)"/></g></g><g transform="translate(1085.188 310.336)"><g transform="translate(0 0.993)"><circle class="o" cx="1.047" cy="1.047" r="1.047"/><g transform="translate(3.401 0.523)"><rect class="a" width="4.448" height="1.047" rx="0.523"/><rect class="a" width="1.047" height="1.047" rx="0.523" transform="translate(4.971)"/><rect class="a" width="1.047" height="1.047" rx="0.523" transform="translate(6.541)"/></g></g><g class="p" transform="translate(16.746 0)"><rect class="a" width="0.785" height="3.925" rx="0.392" transform="translate(0 0)"/><rect class="a" width="0.785" height="3.925" rx="0.392" transform="translate(1.308 0)"/><rect class="a" width="0.785" height="3.925" rx="0.392" transform="translate(2.617 0)"/></g></g><g transform="translate(1085.188 318.084)"><g transform="translate(0 0.993)"><path class="o" d="M1.047,0A1.047,1.047,0,1,1,0,1.047,1.047,1.047,0,0,1,1.047,0Z"/><g transform="translate(3.401 0.523)"><rect class="a" width="4.448" height="1.047" rx="0.523"/><rect class="a" width="1.047" height="1.047" rx="0.523" transform="translate(4.971)"/><rect class="a" width="1.047" height="1.047" rx="0.523" transform="translate(6.541)"/></g></g><g class="p" transform="translate(16.746 0)"><rect class="a" width="0.785" height="3.925" rx="0.392" transform="translate(0 0)"/><rect class="a" width="0.785" height="3.925" rx="0.392" transform="translate(1.308 0)"/><rect class="a" width="0.785" height="3.925" rx="0.392" transform="translate(2.617 0)"/></g></g></g><g transform="translate(-9)"><g transform="translate(8773 -818)"><g class="al" transform="matrix(1, 0, 0, 1, 555, 145)"><circle class="a" cx="25.5" cy="25.5" r="25.5" transform="translate(566 134)"/></g></g><g transform="translate(8824.005 -826)"><g class="ak" transform="matrix(1, 0, 0, 1, 504, 153)"><rect class="g" width="29.004" height="6.882" rx="1" transform="translate(577 148)"/></g><g class="aj" transform="matrix(1, 0, 0, 1, 504, 153)"><rect class="g" width="29.004" height="6.882" rx="1" transform="translate(577 155.75)"/></g><g class="ai" transform="matrix(1, 0, 0, 1, 504, 153)"><rect class="g" width="29.004" height="6.882" rx="1" transform="translate(577 163.69)"/></g><g transform="translate(1085.188 302.391)"><g transform="translate(0 0.993)"><circle class="o" cx="1.047" cy="1.047" r="1.047"/><g transform="translate(3.401 0.523)"><rect class="a" width="4.448" height="1.047" rx="0.523"/><rect class="a" width="1.047" height="1.047" rx="0.523" transform="translate(4.971)"/><rect class="a" width="1.047" height="1.047" rx="0.523" transform="translate(6.541)"/></g></g><g class="p" transform="translate(16.746 0)"><rect class="a" width="0.785" height="3.925" rx="0.392" transform="translate(0 0)"/><rect class="a" width="0.785" height="3.925" rx="0.392" transform="translate(1.308 0)"/><rect class="a" width="0.785" height="3.925" rx="0.392" transform="translate(2.617 0)"/></g></g><g transform="translate(1085.188 310.336)"><g transform="translate(0 0.993)"><circle class="o" cx="1.047" cy="1.047" r="1.047"/><g transform="translate(3.401 0.523)"><rect class="a" width="4.448" height="1.047" rx="0.523"/><rect class="a" width="1.047" height="1.047" rx="0.523" transform="translate(4.971)"/><rect class="a" width="1.047" height="1.047" rx="0.523" transform="translate(6.541)"/></g></g><g class="p" transform="translate(16.746 0)"><rect class="a" width="0.785" height="3.925" rx="0.392" transform="translate(0 0)"/><rect class="a" width="0.785" height="3.925" rx="0.392" transform="translate(1.308 0)"/><rect class="a" width="0.785" height="3.925" rx="0.392" transform="translate(2.617 0)"/></g></g><g transform="translate(1085.188 318.084)"><g transform="translate(0 0.993)"><path class="o" d="M1.047,0A1.047,1.047,0,1,1,0,1.047,1.047,1.047,0,0,1,1.047,0Z"/><g transform="translate(3.401 0.523)"><rect class="a" width="4.448" height="1.047" rx="0.523"/><rect class="a" width="1.047" height="1.047" rx="0.523" transform="translate(4.971)"/><rect class="a" width="1.047" height="1.047" rx="0.523" transform="translate(6.541)"/></g></g><g class="p" transform="translate(16.746 0)"><rect class="a" width="0.785" height="3.925" rx="0.392" transform="translate(0 0)"/><rect class="a" width="0.785" height="3.925" rx="0.392" transform="translate(1.308 0)"/><rect class="a" width="0.785" height="3.925" rx="0.392" transform="translate(2.617 0)"/></g></g></g></g><g transform="translate(0 12)"><g transform="translate(8797 -740)"><g class="ah" transform="matrix(1, 0, 0, 1, 522, 55)"><circle class="a" cx="25.5" cy="25.5" r="25.5" transform="translate(599 224)"/></g></g><g transform="translate(8848.005 -748)"><g class="ag" transform="matrix(1, 0, 0, 1, 471, 63)"><rect class="g" width="29.004" height="6.882" rx="1" transform="translate(610 238)"/></g><g class="af" transform="matrix(1, 0, 0, 1, 471, 63)"><rect class="g" width="29.004" height="6.882" rx="1" transform="translate(610 245.75)"/></g><g class="ae" transform="matrix(1, 0, 0, 1, 471, 63)"><rect class="g" width="29.004" height="6.882" rx="1" transform="translate(610 253.69)"/></g><g transform="translate(1085.188 302.391)"><g transform="translate(0 0.993)"><circle class="o" cx="1.047" cy="1.047" r="1.047"/><g transform="translate(3.401 0.523)"><rect class="a" width="4.448" height="1.047" rx="0.523"/><rect class="a" width="1.047" height="1.047" rx="0.523" transform="translate(4.971)"/><rect class="a" width="1.047" height="1.047" rx="0.523" transform="translate(6.541)"/></g></g><g class="p" transform="translate(16.746 0)"><rect class="a" width="0.785" height="3.925" rx="0.392" transform="translate(0 0)"/><rect class="a" width="0.785" height="3.925" rx="0.392" transform="translate(1.308 0)"/><rect class="a" width="0.785" height="3.925" rx="0.392" transform="translate(2.617 0)"/></g></g><g transform="translate(1085.188 310.336)"><g transform="translate(0 0.993)"><circle class="o" cx="1.047" cy="1.047" r="1.047"/><g transform="translate(3.401 0.523)"><rect class="a" width="4.448" height="1.047" rx="0.523"/><rect class="a" width="1.047" height="1.047" rx="0.523" transform="translate(4.971)"/><rect class="a" width="1.047" height="1.047" rx="0.523" transform="translate(6.541)"/></g></g><g class="p" transform="translate(16.746 0)"><rect class="a" width="0.785" height="3.925" rx="0.392" transform="translate(0 0)"/><rect class="a" width="0.785" height="3.925" rx="0.392" transform="translate(1.308 0)"/><rect class="a" width="0.785" height="3.925" rx="0.392" transform="translate(2.617 0)"/></g></g><g transform="translate(1085.188 318.084)"><g transform="translate(0 0.993)"><path class="o" d="M1.047,0A1.047,1.047,0,1,1,0,1.047,1.047,1.047,0,0,1,1.047,0Z"/><g transform="translate(3.401 0.523)"><rect class="a" width="4.448" height="1.047" rx="0.523"/><rect class="a" width="1.047" height="1.047" rx="0.523" transform="translate(4.971)"/><rect class="a" width="1.047" height="1.047" rx="0.523" transform="translate(6.541)"/></g></g><g class="p" transform="translate(16.746 0)"><rect class="a" width="0.785" height="3.925" rx="0.392" transform="translate(0 0)"/><rect class="a" width="0.785" height="3.925" rx="0.392" transform="translate(1.308 0)"/><rect class="a" width="0.785" height="3.925" rx="0.392" transform="translate(2.617 0)"/></g></g></g></g><g transform="translate(-4 12)"><g transform="translate(8898.803 -740)"><g class="ad" transform="matrix(1, 0, 0, 1, 424.2, 55)"><circle class="a" cx="25.5" cy="25.5" r="25.5" transform="translate(697 224)"/></g></g><g transform="translate(8950.005 -748)"><g class="ac" transform="matrix(1, 0, 0, 1, 373, 63)"><rect class="g" width="29.004" height="6.882" rx="1" transform="translate(708 238)"/></g><g class="ab" transform="matrix(1, 0, 0, 1, 373, 63)"><rect class="g" width="29.004" height="6.882" rx="1" transform="translate(708 245.75)"/></g><g class="aa" transform="matrix(1, 0, 0, 1, 373, 63)"><rect class="g" width="29.004" height="6.882" rx="1" transform="translate(708 253.69)"/></g><g transform="translate(1085.188 302.391)"><g transform="translate(0 0.993)"><circle class="o" cx="1.047" cy="1.047" r="1.047"/><g transform="translate(3.401 0.523)"><rect class="a" width="4.448" height="1.047" rx="0.523"/><rect class="a" width="1.047" height="1.047" rx="0.523" transform="translate(4.971)"/><rect class="a" width="1.047" height="1.047" rx="0.523" transform="translate(6.541)"/></g></g><g class="p" transform="translate(16.746 0)"><rect class="a" width="0.785" height="3.925" rx="0.392" transform="translate(0 0)"/><rect class="a" width="0.785" height="3.925" rx="0.392" transform="translate(1.308 0)"/><rect class="a" width="0.785" height="3.925" rx="0.392" transform="translate(2.617 0)"/></g></g><g transform="translate(1085.188 310.336)"><g transform="translate(0 0.993)"><circle class="o" cx="1.047" cy="1.047" r="1.047"/><g transform="translate(3.401 0.523)"><rect class="a" width="4.448" height="1.047" rx="0.523"/><rect class="a" width="1.047" height="1.047" rx="0.523" transform="translate(4.971)"/><rect class="a" width="1.047" height="1.047" rx="0.523" transform="translate(6.541)"/></g></g><g class="p" transform="translate(16.746 0)"><rect class="a" width="0.785" height="3.925" rx="0.392" transform="translate(0 0)"/><rect class="a" width="0.785" height="3.925" rx="0.392" transform="translate(1.308 0)"/><rect class="a" width="0.785" height="3.925" rx="0.392" transform="translate(2.617 0)"/></g></g><g transform="translate(1085.188 318.084)"><g transform="translate(0 0.993)"><path class="o" d="M1.047,0A1.047,1.047,0,1,1,0,1.047,1.047,1.047,0,0,1,1.047,0Z"/><g transform="translate(3.401 0.523)"><rect class="a" width="4.448" height="1.047" rx="0.523"/><rect class="a" width="1.047" height="1.047" rx="0.523" transform="translate(4.971)"/><rect class="a" width="1.047" height="1.047" rx="0.523" transform="translate(6.541)"/></g></g><g class="p" transform="translate(16.746 0)"><rect class="a" width="0.785" height="3.925" rx="0.392" transform="translate(0 0)"/><rect class="a" width="0.785" height="3.925" rx="0.392" transform="translate(1.308 0)"/><rect class="a" width="0.785" height="3.925" rx="0.392" transform="translate(2.617 0)"/></g></g></g></g><g class="z" transform="matrix(1, 0, 0, 1, 9319, -673)"><circle class="k" cx="39.5" cy="39.5" r="39.5" transform="translate(633 146)"/></g><text class="l" transform="translate(9956 -483)"><tspan x="0" y="0">TRUSTED links!</tspan></text><path class="q" d="M5.818,6.123A3.5,3.5,0,1,1,7,3.5,3.487,3.487,0,0,1,5.818,6.123L30.5,36.5Z" transform="translate(9937 -559)"/><path class="q" d="M25.653,6.1A3.5,3.5,0,1,1,28,7a3.491,3.491,0,0,1-2.347-.9L0,36.5Z" transform="translate(10014.5 -559)"/><path class="r" d="M35.5,13a3.492,3.492,0,0,1,.2-1.156L-1-1,35.7,11.843A3.5,3.5,0,1,1,35.5,13Z" transform="translate(10032.5 -475.5)"/><path class="r" d="M0,13a3.5,3.5,0,0,1,6.83-1.082L43.5,0,6.83,11.918A3.5,3.5,0,1,1,0,13Z" transform="translate(9908 -475.5)"/><path class="r" d="M1.023,42.386a3.5,3.5,0,0,1,3.383-4.524L4.5,0,4.406,37.862a3.5,3.5,0,1,1-3.383,4.524Z" transform="translate(9988 -445.5)"/></g><path class="s" d="M8,0H364a8,8,0,0,1,8,8V24a0,0,0,0,1,0,0H0a0,0,0,0,1,0,0V8A8,8,0,0,1,8,0Z" transform="translate(654 268)"/><rect class="t" width="372" height="16" transform="translate(654 277)"/><g class="u" transform="translate(671 281)"><circle class="y" cx="4.5" cy="4.5" r="4.5"/><circle class="x" cx="4.5" cy="4.5" r="4"/></g><g class="v" transform="translate(687 281)"><circle class="y" cx="4.5" cy="4.5" r="4.5"/><circle class="x" cx="4.5" cy="4.5" r="4"/></g><g class="w" transform="translate(703 281)"><circle class="y" cx="4.5" cy="4.5" r="4.5"/><circle class="x" cx="4.5" cy="4.5" r="4"/></g><path class="a" d="M8,0H58a0,0,0,0,1,0,0V9a0,0,0,0,1,0,0H0A0,0,0,0,1,0,9V8A8,8,0,0,1,8,0Z" transform="translate(654 268)"/><rect class="f" width="30" height="4" transform="translate(679 271)"/><rect class="g" width="4" height="4" transform="translate(671 271)"/><rect class="x" width="933" height="373" transform="translate(494 193)"/></g></svg>