<svg xmlns="http://www.w3.org/2000/svg" xmlns:xlink="http://www.w3.org/1999/xlink" width="704" height="277" viewBox="0 0 704 277"><defs><style>.a,.e{fill:#150029;}.a{opacity:0.1;}.b{fill:#17bfa1;}.c{fill:url(#a);}.d,.f{fill:#fff;}.f{stroke:#150029;stroke-linecap:round;stroke-linejoin:round;stroke-width:3px;}</style><linearGradient id="a" x1="0.173" y1="0.197" x2="0.827" y2="0.945" gradientUnits="objectBoundingBox"><stop offset="0" stop-color="#00d1af"/><stop offset="0.109" stop-color="#0ac4b2"/><stop offset="0.307" stop-color="#24a4ba"/><stop offset="0.57" stop-color="#4f70c8"/><stop offset="0.594" stop-color="#546bca"/><stop offset="0.801" stop-color="#6c36d7"/><stop offset="1" stop-color="#8600e6"/></linearGradient></defs><g transform="translate(-618 -250)"><g transform="translate(0 -91)"><g transform="translate(2450 -2008)"><path class="a" d="M16,0H688a16,16,0,0,1,16,16V277a0,0,0,0,1,0,0H0a0,0,0,0,1,0,0V16A16,16,0,0,1,16,0Z" transform="translate(-1832 2349)"/><g transform="translate(-4799.759 1677.286)"><circle class="b" cx="33.994" cy="33.994" r="33.994" transform="translate(3176.554 797.123)"/><path class="c" d="M3193.093,852.714a127.681,127.681,0,0,0,43.347,96h169.306a128,128,0,1,0-212.653-96Z"/><circle class="b" cx="16.973" cy="16.973" r="16.973" transform="translate(3428.187 741.661)"/><circle class="b" cx="11.769" cy="11.769" r="11.769" transform="translate(3542.656 907.309)"/><circle class="b" cx="9.925" cy="9.925" r="9.925" transform="translate(3242.34 685.708)"/><circle class="b" cx="18.966" cy="18.966" r="18.966" transform="translate(3114.863 719.217)"/><circle class="b" cx="15.673" cy="15.673" r="15.673" transform="translate(3196.285 912.245)"/></g><path class="d" d="M3237.356,771.142h0a13.988,13.988,0,0,0-27.976,0,13.987,13.987,0,0,1,13.988,13.987h0A13.988,13.988,0,0,1,3237.356,771.142Z" transform="translate(-4799.759 1677.286)"/><g transform="translate(-4754.732 1677.286)"><path class="d" d="M3415.434,887.164a29.815,29.815,0,0,0-5.952,11.226l0,0a32.15,32.15,0,0,0-10.923,15.97h-4.768a29.77,29.77,0,0,1,21.646-27.2Z"/><path class="d" d="M3430.913,891.583c-.53-.028-1.067-.04-1.6-.04a31.957,31.957,0,0,0-15.4,3.928c2.434-5.636,5.835-9.2,9.527-9.2C3426.181,886.271,3428.77,888.246,3430.913,891.583Z"/><path class="d" d="M3445.862,896.13a31.782,31.782,0,0,0-11.088-4.121h0a23.213,23.213,0,0,0-3.407-4.922q1.38.378,2.723.886a30.109,30.109,0,0,1,11.775,8.157Z"/><path class="b" d="M3447.127,933.947a29.629,29.629,0,0,0,6.115-16.456h-13.4a57.631,57.631,0,0,1-2.775,16.949,29.551,29.551,0,0,1-5.283,9.854c-.046.053-.091.108-.137.16a29.579,29.579,0,0,0,12.257-6.938A30.075,30.075,0,0,0,3447.127,933.947Z"/><path class="b" d="M3409.479,898.393a58.772,58.772,0,0,0-2.454,15.97h-8.469A32.15,32.15,0,0,1,3409.479,898.393Z"/><path class="b" d="M3415.167,944.393c-.212-.061-.417-.132-.626-.2a29.885,29.885,0,0,1-16.424-12.84,32.306,32.306,0,0,1-.334-13.863h9.242a59.832,59.832,0,0,0,2.113,14.82A31.41,31.41,0,0,0,3415.167,944.393Z"/><path class="b" d="M3430.913,891.583c-.53-.028-1.067-.04-1.6-.04a31.957,31.957,0,0,0-15.4,3.928,42.1,42.1,0,0,0-2.291,7.086,59.523,59.523,0,0,0-1.478,13.37,57.681,57.681,0,0,0,2.088,15.716c2.377,8.27,6.532,13.891,11.15,13.937.046,0,.089,0,.132,0a7.755,7.755,0,0,0,5.4-2.729,24.688,24.688,0,0,0,4.961-8.8,55.6,55.6,0,0,0,2.858-18.126C3436.73,905.983,3434.4,896.992,3430.913,891.583Zm.595,27.987L3420,926.215a4.275,4.275,0,0,1-6.412-3.7V909.221a4.275,4.275,0,0,1,6.412-3.7l11.512,6.645a4.276,4.276,0,0,1,0,7.405Z"/><path class="b" d="M3453.246,914.363h-13.407c-.2-8.883-2.091-16.743-5.065-22.354a31.782,31.782,0,0,1,11.088,4.121,29.57,29.57,0,0,1,7.173,15.814c.039.3.067.6.094.889.022.221.043.442.059.662C3453.209,913.784,3453.231,914.072,3453.246,914.363Z"/><path class="d" d="M3430.516,915.868a1.123,1.123,0,0,0-.573-.993l-11.511-6.646a1.114,1.114,0,0,0-.567-.158,1.176,1.176,0,0,0-.579.158,1.123,1.123,0,0,0-.573.992v13.293a1.146,1.146,0,0,0,1.719.992l11.511-6.646A1.123,1.123,0,0,0,3430.516,915.868Z"/><path class="e" d="M3454.077,903.593a32.913,32.913,0,0,0-63.4,10.164,33.145,33.145,0,0,0,.224,6.331,32.987,32.987,0,0,0,23.911,27.468h0a32.706,32.706,0,0,0,8.634,1.158,33.141,33.141,0,0,0,4.345-.285,32.892,32.892,0,0,0,28.341-36.892A33.056,33.056,0,0,0,3454.077,903.593Zm-19.991-15.619a29.83,29.83,0,0,1,18.948,23.969c.04.3.068.594.1.891.021.22.041.44.057.66.021.29.043.579.057.868h-13.4c-.269-11.926-3.586-22-8.477-27.275h0Q3432.743,887.464,3434.086,887.974Zm-40.3,26.388a29.768,29.768,0,0,1,21.645-27.2h0c-4.854,5.291-8.146,15.327-8.411,27.2h-13.238Zm20.753,29.832a29.662,29.662,0,0,1-20.536-24.512c-.1-.729-.156-1.462-.2-2.191h13.219a59.719,59.719,0,0,0,2.112,14.821,31.434,31.434,0,0,0,6.026,12.081h0C3414.956,944.331,3414.75,944.26,3414.542,944.194Zm8.967,1.385h-.131c-4.621-.045-8.775-5.666-11.151-13.936a57.679,57.679,0,0,1-2.091-15.717,59.373,59.373,0,0,1,1.48-13.367c2.234-9.575,6.748-16.289,11.816-16.289,7.208,0,13.3,13.58,13.3,29.656a55.572,55.572,0,0,1-2.86,18.126,24.645,24.645,0,0,1-4.961,8.794A7.76,7.76,0,0,1,3423.509,945.579Zm23.619-11.632a30.168,30.168,0,0,1-3.225,3.569,29.6,29.6,0,0,1-12.259,6.94l0,0c.046-.052.091-.107.137-.16a29.568,29.568,0,0,0,5.283-9.854,57.631,57.631,0,0,0,2.775-16.949h13.4a29.637,29.637,0,0,1-6.114,16.456Z"/><path class="e" d="M3431.507,919.569a4.274,4.274,0,0,0,0-7.4L3420,905.52a4.275,4.275,0,0,0-6.412,3.7v13.293a4.265,4.265,0,0,0,6.412,3.7Zm-14.221,3.937a1.123,1.123,0,0,1-.573-.992V909.221a1.123,1.123,0,0,1,.573-.992,1.176,1.176,0,0,1,.579-.158,1.114,1.114,0,0,1,.567.158l11.511,6.646a1.146,1.146,0,0,1,0,1.985l-11.511,6.646A1.126,1.126,0,0,1,3417.286,923.506Z"/><path class="d" d="M3398.116,931.358a28.7,28.7,0,0,1-1.432-2.625,29.883,29.883,0,0,1-2.68-9.049c-.095-.727-.156-1.46-.2-2.189h3.974a32.306,32.306,0,0,0,.334,13.863Z"/></g><rect class="f" width="192" height="192" transform="translate(-1576.5 2405.5)"/></g></g></g></svg>