<svg xmlns="http://www.w3.org/2000/svg" width="32" height="32" viewBox="0 0 32 32"><defs><style>.a{fill:#1dbfa2;}.b{opacity:0;}.c{fill:#f9e2e2;}.d{fill:#ffbcbc;}.e,.g{fill:#fff;}.e,.f,.g{stroke:#fff;}.e,.f,.g,.h{stroke-linecap:round;}.e,.h{stroke-linejoin:round;}.f,.h{fill:none;}.h{stroke:#1dbfa2;stroke-miterlimit:10;}</style></defs><g transform="translate(-1492 -479)"><g transform="translate(-159 373)"><path class="a" d="M16,0A16,16,0,1,1,0,16,16,16,0,0,1,16,0Z" transform="translate(1651 106)"/></g><g transform="translate(1496 483)"><g class="b" transform="translate(-2 -8)"><path class="c" d="M0,0H24V24H0Z" transform="translate(2 8)"/><rect class="d" width="16" height="18" transform="translate(6 11)"/></g><g transform="translate(2)"><g transform="translate(-1.669 -1.882)"><path class="e" d="M12.915,0a1,1,0,0,1,.872.51l3.938,7a1,1,0,0,1,0,.981l-3.938,7a1,1,0,0,1-.872.51H5.085a1,1,0,0,1-.872-.51l-3.937-7a1,1,0,0,1,0-.981l3.938-7A1,1,0,0,1,5.085,0Z" transform="translate(3.669 22.882) rotate(-90)"/><line class="f" y2="1" transform="translate(11.669 20.882)"/><path class="g" d="M0,1.705V0" transform="translate(5.334 10.281) rotate(120)"/><path class="g" d="M0,0V1.687" transform="translate(19.37 9.601) rotate(60)"/></g><g transform="translate(-3.743 -0.442)"><path class="h" d="M3032.065,1416.538a2.466,2.466,0,0,1,1.381-.42,2.5,2.5,0,1,1-2.488,2.5" transform="translate(-3019.694 -1406.176)"/><path class="h" d="M3095.175,1416.118h.5a2.5,2.5,0,1,1,0,5c-1.382,0-1.872,0-2.5,0" transform="translate(-3078.432 -1406.176)"/><path class="h" d="M2980.249,1420.7a2.5,2.5,0,1,1,1.112-2.08" transform="translate(-2968.617 -1406.176)"/></g></g></g></g></svg>