<svg xmlns="http://www.w3.org/2000/svg" xmlns:xlink="http://www.w3.org/1999/xlink" width="43" height="37.367" viewBox="0 0 43 37.367"><defs><style>.a{fill:#1dbfa2;}.b,.d{fill:#fff;}.b,.c,.d,.i{stroke:#fff;}.b,.c,.d,.h,.i{stroke-linecap:round;}.b,.i{stroke-linejoin:round;}.c,.i{fill:none;}.e{opacity:0;}.f{fill:#f9e2e2;}.g{fill:#ffbcbc;}.h{fill:#dce3e7;stroke:#dce3e7;}.i{stroke-miterlimit:10;}.j{filter:url(#c);}.k{filter:url(#a);}</style><filter id="a" x="8" y="0.633" width="35" height="36.734" filterUnits="userSpaceOnUse"><feOffset dy="3" input="SourceAlpha"/><feGaussianBlur stdDeviation="3" result="b"/><feFlood flood-opacity="0.078"/><feComposite operator="in" in2="b"/><feComposite in="SourceGraphic"/></filter><filter id="c" x="0" y="0.633" width="35" height="36.734" filterUnits="userSpaceOnUse"><feOffset dy="3" input="SourceAlpha"/><feGaussianBlur stdDeviation="3" result="d"/><feFlood flood-opacity="0.322"/><feComposite operator="in" in2="d"/><feComposite in="SourceGraphic"/></filter></defs><g transform="translate(-1760.5 -384)"><g transform="translate(115 278)"><path class="a" d="M16,0A16,16,0,1,1,0,16,16,16,0,0,1,16,0Z" transform="translate(1651 106)"/></g><g transform="translate(1774.332 386.118)"><g class="k" transform="matrix(1, 0, 0, 1, -13.83, -2.12)"><path class="b" d="M12.915,0a1,1,0,0,1,.872.51l3.938,7a1,1,0,0,1,0,.981l-3.938,7a1,1,0,0,1-.872.51H5.085a1,1,0,0,1-.872-.51l-3.937-7a1,1,0,0,1,0-.981l3.938-7A1,1,0,0,1,5.085,0Z" transform="translate(17.5 25) rotate(-90)"/></g><line class="c" y2="1" transform="translate(11.669 20.882)"/><path class="d" d="M0,1.705V0" transform="translate(5.334 10.281) rotate(120)"/><path class="d" d="M0,0V1.687" transform="translate(19.37 9.601) rotate(60)"/></g><g class="e" transform="translate(1764 380)"><path class="f" d="M0,0H30V24H0Z" transform="translate(3 8)"/><rect class="g" width="24" height="18" transform="translate(6 11)"/></g><g transform="translate(1766.332 386.118)"><g class="j" transform="matrix(1, 0, 0, 1, -5.83, -2.12)"><path class="h" d="M12.915,0a1,1,0,0,1,.872.51l3.938,7a1,1,0,0,1,0,.981l-3.938,7a1,1,0,0,1-.872.51H5.085a1,1,0,0,1-.872-.51l-3.937-7a1,1,0,0,1,0-.981l3.938-7A1,1,0,0,1,5.085,0Z" transform="translate(9.5 25) rotate(-90)"/></g></g><path class="i" d="M3032.065,1416.538a2.466,2.466,0,0,1,1.381-.42,2.5,2.5,0,1,1-2.488,2.5" transform="translate(-1255.438 -1018.618)"/><path class="i" d="M3095.175,1416.118h.5a2.5,2.5,0,1,1,0,5c-1.382,0-1.872,0-2.5,0" transform="translate(-1314.175 -1018.618)"/><path class="i" d="M2980.249,1420.7a2.5,2.5,0,1,1,1.112-2.08" transform="translate(-1204.361 -1018.618)"/></g></svg>