<svg xmlns="http://www.w3.org/2000/svg" xmlns:xlink="http://www.w3.org/1999/xlink" width="704" height="277" viewBox="0 0 704 277">
  <defs>
    <style>
      .cls-1, .cls-11, .cls-28, .cls-29, .cls-5 {
        fill: #fff;
      }

      .cls-1, .cls-10, .cls-11, .cls-12, .cls-16, .cls-32, .cls-33, .cls-34, .cls-6, .cls-7, .cls-8 {
        stroke: #150029;
      }

      .cls-1, .cls-10, .cls-32, .cls-33, .cls-34, .cls-6, .cls-7, .cls-8 {
        stroke-miterlimit: 10;
      }

      .cls-1, .cls-10, .cls-11, .cls-12, .cls-16, .cls-21, .cls-26, .cls-32, .cls-33, .cls-34, .cls-7, .cls-8 {
        stroke-width: 3px;
      }

      .cls-2, .cls-26, .cls-30, .cls-9 {
        fill: #150029;
      }

      .cls-2 {
        opacity: 0.1;
      }

      .cls-12, .cls-3, .cls-8 {
        fill: #17bfa1;
      }

      .cls-4 {
        fill: url(#linear-gradient);
      }

      .cls-16, .cls-21, .cls-6, .cls-7 {
        fill: none;
      }

      .cls-6 {
        stroke-width: 3.218px;
      }

      .cls-10 {
        fill: #9522e0;
      }

      .cls-11, .cls-12, .cls-16, .cls-21, .cls-26 {
        stroke-linecap: round;
        stroke-linejoin: round;
      }

      .cls-13 {
        fill: url(#linear-gradient-2);
      }

      .cls-14 {
        fill: url(#linear-gradient-3);
      }

      .cls-15 {
        fill: url(#linear-gradient-4);
      }

      .cls-17 {
        fill: url(#linear-gradient-5);
      }

      .cls-18 {
        fill: url(#linear-gradient-6);
      }

      .cls-19 {
        fill: url(#linear-gradient-7);
      }

      .cls-20 {
        clip-path: url(#clip-path);
      }

      .cls-21, .cls-26 {
        stroke: #fff;
      }

      .cls-22 {
        clip-path: url(#clip-path-2);
      }

      .cls-23 {
        clip-path: url(#clip-path-3);
      }

      .cls-24 {
        fill: url(#linear-gradient-8);
      }

      .cls-25 {
        fill: url(#linear-gradient-9);
      }

      .cls-27 {
        clip-path: url(#clip-path-4);
      }

      .cls-28 {
        font-size: 13.317px;
        font-family: GalanoGrotesque-Bold, Galano Grotesque;
        font-weight: 700;
      }

      .cls-29 {
        font-size: 7.735px;
        font-family: GalanoGrotesque-Medium, Galano Grotesque;
        font-weight: 500;
      }

      .cls-30 {
        font-size: 4.915px;
        font-family: GalanoGrotesque-Regular, Galano Grotesque;
      }

      .cls-31 {
        fill: url(#linear-gradient-11);
      }

      .cls-32 {
        fill: #2873f7;
      }

      .cls-33 {
        fill: #f23d64;
      }

      .cls-34 {
        fill: #faac30;
      }
    </style>
    <linearGradient id="linear-gradient" x1="0.173" y1="0.197" x2="0.827" y2="0.945" gradientUnits="objectBoundingBox">
      <stop offset="0" stop-color="#00d1af"/>
      <stop offset="0.109" stop-color="#0ac4b2"/>
      <stop offset="0.307" stop-color="#24a4ba"/>
      <stop offset="0.57" stop-color="#4f70c8"/>
      <stop offset="0.594" stop-color="#546bca"/>
      <stop offset="0.801" stop-color="#6c36d7"/>
      <stop offset="1" stop-color="#8600e6"/>
    </linearGradient>
    <linearGradient id="linear-gradient-2" x1="-0.366" y1="0.5" x2="1.366" y2="0.5" gradientUnits="objectBoundingBox">
      <stop offset="0" stop-color="#17bfa1"/>
      <stop offset="1" stop-color="#17bfa1"/>
    </linearGradient>
    <linearGradient id="linear-gradient-3" x1="-0.366" y1="0.5" x2="1.366" y2="0.5" xlink:href="#linear-gradient-2"/>
    <linearGradient id="linear-gradient-4" x1="0" y1="0.5" x2="1" y2="0.5" xlink:href="#linear-gradient-2"/>
    <linearGradient id="linear-gradient-5" x1="0.248" y1="0.209" x2="2.206" y2="2.47" gradientUnits="objectBoundingBox">
      <stop offset="0" stop-color="#00d1af"/>
      <stop offset="0.097" stop-color="#0ac4b2"/>
      <stop offset="0.273" stop-color="#24a4ba"/>
      <stop offset="0.507" stop-color="#4f70c8"/>
      <stop offset="0.528" stop-color="#546bca"/>
      <stop offset="0.768" stop-color="#6c36d7"/>
      <stop offset="1" stop-color="#8600e6"/>
    </linearGradient>
    <linearGradient id="linear-gradient-6" x1="-0.492" y1="-0.646" x2="1.466" y2="1.615" xlink:href="#linear-gradient-5"/>
    <linearGradient id="linear-gradient-7" x1="-0.902" y1="-1.112" x2="0.808" y2="0.863" xlink:href="#linear-gradient-5"/>
    <clipPath id="clip-path">
      <rect id="矩形_1065" data-name="矩形 1065" class="cls-1" width="113.672" height="210.775" rx="6.989" transform="translate(2607.864 737.939)"/>
    </clipPath>
    <clipPath id="clip-path-2">
      <rect id="矩形_1070" data-name="矩形 1070" class="cls-1" width="83.661" height="84.648" rx="7.148" transform="translate(2622.87 790.813)"/>
    </clipPath>
    <clipPath id="clip-path-3">
      <rect id="矩形_1074" data-name="矩形 1074" class="cls-1" width="83.661" height="23.137" rx="3.737" transform="translate(2622.87 895.449)"/>
    </clipPath>
    <linearGradient id="linear-gradient-8" x1="0" y1="0.5" x2="1" y2="0.5" xlink:href="#linear-gradient-5"/>
    <linearGradient id="linear-gradient-9" x1="0" y1="0.5" x2="1" y2="0.5" xlink:href="#linear-gradient-2"/>
    <clipPath id="clip-path-4">
      <path id="矩形_1084" data-name="矩形 1084" class="cls-1" d="M5.072,0h9.2a0,0,0,0,1,0,0V1.091A5.457,5.457,0,0,1,8.814,6.548H0a0,0,0,0,1,0,0V5.072A5.072,5.072,0,0,1,5.072,0Z" transform="translate(2671.836 779.915) rotate(-180)"/>
    </clipPath>
    <linearGradient id="linear-gradient-11" x1="0.5" y1="0.017" x2="0.5" y2="0.946" xlink:href="#linear-gradient-5"/>
  </defs>
  <g id="组_1549" data-name="组 1549" transform="translate(-2209.644 -671.714)">
    <path id="矩形_1061" data-name="矩形 1061" class="cls-2" d="M16,0H688a16,16,0,0,1,16,16V277a0,0,0,0,1,0,0H0a0,0,0,0,1,0,0V16A16,16,0,0,1,16,0Z" transform="translate(2209.644 671.714)"/>
    <g id="组_1387" data-name="组 1387">
      <circle id="椭圆_228" data-name="椭圆 228" class="cls-3" cx="33.994" cy="33.994" r="33.994" transform="translate(2418.438 797.123)"/>
      <path id="路径_799" data-name="路径 799" class="cls-4" d="M2434.978,852.714a127.684,127.684,0,0,0,43.346,96h169.307a128,128,0,1,0-212.653-96Z"/>
      <circle id="椭圆_229" data-name="椭圆 229" class="cls-3" cx="16.973" cy="16.973" r="16.973" transform="translate(2670.072 741.661)"/>
      <circle id="椭圆_230" data-name="椭圆 230" class="cls-3" cx="11.769" cy="11.769" r="11.769" transform="translate(2827.541 907.309)"/>
      <circle id="椭圆_231" data-name="椭圆 231" class="cls-3" cx="9.925" cy="9.925" r="9.925" transform="translate(2484.225 685.708)"/>
      <circle id="椭圆_232" data-name="椭圆 232" class="cls-3" cx="18.966" cy="18.966" r="18.966" transform="translate(2356.747 719.217)"/>
      <circle id="椭圆_233" data-name="椭圆 233" class="cls-3" cx="15.673" cy="15.673" r="15.673" transform="translate(2438.169 912.245)"/>
    </g>
    <path id="路径_800" data-name="路径 800" class="cls-5" d="M2479.241,771.142h0a13.989,13.989,0,0,1-13.988-13.988,13.988,13.988,0,0,1-13.988,13.988,13.988,13.988,0,0,1,13.988,13.987h0A13.987,13.987,0,0,1,2479.241,771.142Z"/>
    <path id="路径_801" data-name="路径 801" class="cls-6" d="M2830.857,786.734"/>
    <g id="组_1395" data-name="组 1395">
      <g id="组_1394" data-name="组 1394">
        <g id="组_1393" data-name="组 1393">
          <g id="组_1392" data-name="组 1392">
            <g id="组_1388" data-name="组 1388">
              <line id="直线_89" data-name="直线 89" class="cls-3" x1="58.701" y1="84.413" transform="translate(2399.371 764.259)"/>
              <line id="直线_90" data-name="直线 90" class="cls-7" x1="58.701" y1="84.413" transform="translate(2399.371 764.259)"/>
            </g>
            <g id="组_1389" data-name="组 1389">
              <line id="直线_91" data-name="直线 91" class="cls-3" x1="100.519" y1="31.103" transform="translate(2359.173 814.841)"/>
              <line id="直线_92" data-name="直线 92" class="cls-7" x1="100.519" y1="31.103" transform="translate(2359.173 814.841)"/>
            </g>
            <g id="组_1390" data-name="组 1390">
              <line id="直线_93" data-name="直线 93" class="cls-3" x1="165.897" y1="87.753" transform="translate(2292.174 760.919)"/>
              <line id="直线_94" data-name="直线 94" class="cls-7" x1="165.897" y1="87.753" transform="translate(2292.174 760.919)"/>
            </g>
            <g id="组_1391" data-name="组 1391">
              <line id="直线_95" data-name="直线 95" class="cls-3" x1="130.706" y2="55.002" transform="translate(2326.113 848.01)"/>
              <line id="直线_96" data-name="直线 96" class="cls-7" x1="130.706" y2="55.002" transform="translate(2326.113 848.01)"/>
            </g>
          </g>
        </g>
        <line id="直线_97" data-name="直线 97" class="cls-8" y1="100.011" x2="238.703" transform="translate(2562.978 752.703)"/>
      </g>
    </g>
    <g id="组_1398" data-name="组 1398">
      <path id="路径_802" data-name="路径 802" class="cls-5" d="M2734.861,887.164a29.829,29.829,0,0,0-5.952,11.226l0,0a32.15,32.15,0,0,0-10.923,15.97h-4.768a29.774,29.774,0,0,1,21.646-27.2Z"/>
      <path id="路径_803" data-name="路径 803" class="cls-5" d="M2750.341,891.583c-.531-.028-1.067-.04-1.6-.04a31.961,31.961,0,0,0-15.4,3.928c2.435-5.636,5.836-9.2,9.528-9.2C2745.609,886.271,2748.2,888.246,2750.341,891.583Z"/>
      <path id="路径_804" data-name="路径 804" class="cls-5" d="M2765.29,896.13a31.78,31.78,0,0,0-11.089-4.121h0a23.213,23.213,0,0,0-3.407-4.922q1.38.378,2.723.886a30.125,30.125,0,0,1,11.776,8.157Z"/>
      <g id="组_1397" data-name="组 1397">
        <g id="组_1396" data-name="组 1396">
          <path id="路径_805" data-name="路径 805" class="cls-3" d="M2766.554,933.947a29.61,29.61,0,0,0,6.115-16.456h-13.4a57.665,57.665,0,0,1-2.774,16.949,29.547,29.547,0,0,1-5.284,9.854c-.045.053-.091.108-.137.16a29.6,29.6,0,0,0,12.258-6.938A30.153,30.153,0,0,0,2766.554,933.947Z"/>
          <path id="路径_806" data-name="路径 806" class="cls-3" d="M2728.906,898.393a58.812,58.812,0,0,0-2.453,15.97h-8.47A32.15,32.15,0,0,1,2728.906,898.393Z"/>
          <path id="路径_807" data-name="路径 807" class="cls-3" d="M2734.594,944.393c-.211-.061-.417-.132-.625-.2a29.876,29.876,0,0,1-16.424-12.84,32.306,32.306,0,0,1-.334-13.863h9.242a59.832,59.832,0,0,0,2.113,14.82A31.427,31.427,0,0,0,2734.594,944.393Z"/>
          <path id="路径_808" data-name="路径 808" class="cls-3" d="M2750.341,891.583c-.531-.028-1.067-.04-1.6-.04a31.961,31.961,0,0,0-15.4,3.928,42.189,42.189,0,0,0-2.291,7.086,59.523,59.523,0,0,0-1.478,13.37,57.679,57.679,0,0,0,2.089,15.716c2.376,8.27,6.531,13.891,11.149,13.937.046,0,.089,0,.132,0a7.753,7.753,0,0,0,5.4-2.729,24.707,24.707,0,0,0,4.962-8.8,55.631,55.631,0,0,0,2.858-18.126C2756.158,905.983,2753.827,896.992,2750.341,891.583Zm.595,27.987-11.512,6.645a4.275,4.275,0,0,1-6.412-3.7V909.221a4.275,4.275,0,0,1,6.412-3.7l11.512,6.645a4.276,4.276,0,0,1,0,7.405Z"/>
          <path id="路径_809" data-name="路径 809" class="cls-3" d="M2772.674,914.363h-13.407c-.2-8.883-2.091-16.743-5.066-22.354a31.78,31.78,0,0,1,11.089,4.121,29.561,29.561,0,0,1,7.172,15.814c.04.3.067.6.095.889.022.221.043.442.058.662C2772.637,913.784,2772.658,914.072,2772.674,914.363Z"/>
        </g>
      </g>
      <path id="路径_810" data-name="路径 810" class="cls-5" d="M2749.944,915.868a1.126,1.126,0,0,0-.573-.993l-11.511-6.646a1.117,1.117,0,0,0-.568-.158,1.179,1.179,0,0,0-.579.158,1.125,1.125,0,0,0-.573.992v13.293a1.147,1.147,0,0,0,1.72.992l11.511-6.646A1.125,1.125,0,0,0,2749.944,915.868Z"/>
      <path id="路径_811" data-name="路径 811" class="cls-9" d="M2773.5,903.593a32.912,32.912,0,0,0-63.4,10.164,33.065,33.065,0,0,0,.224,6.331,32.988,32.988,0,0,0,23.91,27.468h0a32.713,32.713,0,0,0,8.635,1.158,33.115,33.115,0,0,0,4.344-.285,32.945,32.945,0,0,0,26.281-44.836Zm-19.991-15.619a29.826,29.826,0,0,1,18.948,23.969c.04.3.068.594.1.891q.033.33.058.66c.021.29.043.579.056.868h-13.4c-.269-11.926-3.585-22-8.476-27.275h0Q2752.171,887.464,2753.513,887.974Zm-40.3,26.388a29.772,29.772,0,0,1,21.645-27.2h0c-4.853,5.291-8.145,15.327-8.41,27.2h-13.239Zm20.754,29.832a29.662,29.662,0,0,1-20.536-24.512c-.1-.729-.157-1.462-.2-2.191h13.219a59.673,59.673,0,0,0,2.112,14.821,31.421,31.421,0,0,0,6.026,12.081h0C2734.384,944.331,2734.178,944.26,2733.97,944.194Zm8.966,1.385h-.131c-4.621-.045-8.774-5.666-11.151-13.936a57.718,57.718,0,0,1-2.09-15.717,59.373,59.373,0,0,1,1.48-13.367c2.233-9.575,6.748-16.289,11.816-16.289,7.207,0,13.3,13.58,13.3,29.656a55.545,55.545,0,0,1-2.861,18.126,24.63,24.63,0,0,1-4.961,8.794A7.757,7.757,0,0,1,2742.936,945.579Zm23.62-11.632a30.168,30.168,0,0,1-3.225,3.569,29.623,29.623,0,0,1-12.259,6.94v0c.046-.052.092-.107.137-.16a29.569,29.569,0,0,0,5.284-9.854,57.665,57.665,0,0,0,2.774-16.949h13.4a29.626,29.626,0,0,1-6.113,16.456Z"/>
      <path id="路径_812" data-name="路径 812" class="cls-9" d="M2750.935,919.569a4.274,4.274,0,0,0,0-7.4l-11.511-6.646a4.275,4.275,0,0,0-6.412,3.7v13.293a4.265,4.265,0,0,0,6.412,3.7Zm-14.222,3.937a1.125,1.125,0,0,1-.573-.992V909.221a1.125,1.125,0,0,1,.573-.992,1.179,1.179,0,0,1,.579-.158,1.117,1.117,0,0,1,.568.158l11.511,6.646a1.146,1.146,0,0,1,0,1.985l-11.511,6.646A1.128,1.128,0,0,1,2736.713,923.506Z"/>
      <path id="路径_813" data-name="路径 813" class="cls-5" d="M2717.544,931.358a28.236,28.236,0,0,1-1.432-2.625,29.883,29.883,0,0,1-2.68-9.049c-.095-.727-.157-1.46-.2-2.189h3.974a32.306,32.306,0,0,0,.334,13.863Z"/>
    </g>
    <circle id="椭圆_234" data-name="椭圆 234" class="cls-10" cx="26.411" cy="26.411" r="26.411" transform="translate(2374.905 736.647)"/>
    <g id="组_1399" data-name="组 1399">
      <path id="路径_814" data-name="路径 814" class="cls-5" d="M2408.389,754.537h-21.51a3.439,3.439,0,0,0-3.439,3.439v12.565a3.439,3.439,0,0,0,3.439,3.439H2398.9l5.584,5.584V773.98h3.9a3.439,3.439,0,0,0,3.439-3.439V757.976A3.439,3.439,0,0,0,2408.389,754.537ZM2390.332,766a1.737,1.737,0,1,1,1.737-1.737A1.737,1.737,0,0,1,2390.332,766Zm7.3,0a1.737,1.737,0,1,1,1.737-1.737A1.737,1.737,0,0,1,2397.634,766Zm7.3,0a1.737,1.737,0,1,1,1.737-1.737A1.738,1.738,0,0,1,2404.937,766Z"/>
      <path id="路径_815" data-name="路径 815" class="cls-5" d="M2413.955,751.351h-21.511a3.436,3.436,0,0,0-3.178,2.131h21.088a3.439,3.439,0,0,1,3.439,3.439v12.565a3.425,3.425,0,0,1-.261,1.307h.423a3.438,3.438,0,0,0,3.438-3.438V754.79A3.438,3.438,0,0,0,2413.955,751.351Z"/>
    </g>
    <circle id="椭圆_235" data-name="椭圆 235" class="cls-8" cx="29.936" cy="29.936" r="29.936" transform="translate(2769.511 722.122)"/>
    <g id="组_1402" data-name="组 1402">
      <path id="路径_816" data-name="路径 816" class="cls-11" d="M2782.687,761.091v1.289l14.528,8.388h4.466l14.528-8.388v-1.289l-14.528-8.388h-4.466Z"/>
      <path id="路径_817" data-name="路径 817" class="cls-11" d="M2782.687,741.737v1.289l14.528,8.388h4.466l14.528-8.388v-1.289l-14.528-8.388h-4.466Z"/>
      <path id="路径_818" data-name="路径 818" class="cls-12" d="M2816.209,743.026V762.38l-14.528,8.388V751.414Z"/>
      <path id="路径_819" data-name="路径 819" class="cls-11" d="M2782.687,743.026V762.38l14.528,8.388V751.414Z"/>
      <g id="组_1401" data-name="组 1401">
        <g id="组_1400" data-name="组 1400">
          <ellipse id="椭圆_236" data-name="椭圆 236" class="cls-13" cx="1.7" cy="2.944" rx="1.7" ry="2.944" transform="translate(2791.928 741.543) rotate(-89.689)"/>
          <ellipse id="椭圆_237" data-name="椭圆 237" class="cls-14" cx="1.7" cy="2.944" rx="1.7" ry="2.944" transform="translate(2796.474 744.167) rotate(-89.689)"/>
          <path id="路径_820" data-name="路径 820" class="cls-15" d="M2801.73,746.209l-1.921-1.109,4.151-2.4,1.92,1.109c.993.573.868,1.574-.278,2.236h0A4.306,4.306,0,0,1,2801.73,746.209Z"/>
        </g>
      </g>
      <rect id="矩形_1062" data-name="矩形 1062" class="cls-12" width="4.466" height="19.354" transform="translate(2797.215 751.414)"/>
    </g>
    <g id="组_1410" data-name="组 1410">
      <path id="路径_821" data-name="路径 821" class="cls-8" d="M2497.775,888.294v5.129l57.8,33.369h17.767l57.8-33.369v-5.129l-57.8-33.369h-17.767Z"/>
      <path id="路径_822" data-name="路径 822" class="cls-8" d="M2497.775,862.629v5.129l57.8,33.369h17.767l57.8-33.369v-5.129l-57.8-33.369h-17.767Z"/>
      <path id="路径_823" data-name="路径 823" class="cls-8" d="M2497.775,836.963v5.129l57.8,33.369h17.767l57.8-33.369v-5.129l-57.8-33.369h-17.767Z"/>
      <path id="路径_824" data-name="路径 824" class="cls-11" d="M2497.775,811.3v5.129l57.8,33.369h17.767l57.8-33.369V811.3l-57.8-33.369h-17.767Z"/>
      <line id="直线_98" data-name="直线 98" class="cls-8" y2="76.996" transform="translate(2497.775 813.862)"/>
      <path id="路径_825" data-name="路径 825" class="cls-12" d="M2631.136,816.427l-57.8,33.369v25.665l57.8-33.369Z"/>
      <path id="路径_826" data-name="路径 826" class="cls-12" d="M2631.136,842.092l-57.8,33.369v25.665l57.8-33.369Z"/>
      <path id="路径_827" data-name="路径 827" class="cls-12" d="M2631.136,867.757l-57.8,33.369v25.665l57.8-33.369Z"/>
      <g id="组_1403" data-name="组 1403">
        <path id="路径_828" data-name="路径 828" class="cls-11" d="M2497.775,867.757l57.8,33.369v25.665l-57.8-33.369Z"/>
        <line id="直线_99" data-name="直线 99" class="cls-16" x1="25.419" y1="14.676" transform="translate(2508.617 886.976)"/>
        <circle id="椭圆_238" data-name="椭圆 238" class="cls-9" cx="3.401" cy="3.401" r="3.401" transform="translate(2540.735 904.115)"/>
      </g>
      <g id="组_1404" data-name="组 1404">
        <path id="路径_829" data-name="路径 829" class="cls-1" d="M2497.775,842.092l57.8,33.369v25.665l-57.8-33.369Z"/>
        <line id="直线_100" data-name="直线 100" class="cls-16" x1="25.419" y1="14.676" transform="translate(2508.617 861.31)"/>
        <circle id="椭圆_239" data-name="椭圆 239" class="cls-9" cx="3.401" cy="3.401" r="3.401" transform="translate(2540.735 878.45)"/>
      </g>
      <g id="组_1405" data-name="组 1405">
        <path id="路径_830" data-name="路径 830" class="cls-1" d="M2497.775,816.427l57.8,33.369v25.665l-57.8-33.369Z"/>
        <line id="直线_101" data-name="直线 101" class="cls-16" x1="25.419" y1="14.676" transform="translate(2508.617 835.645)"/>
        <circle id="椭圆_240" data-name="椭圆 240" class="cls-9" cx="3.401" cy="3.401" r="3.401" transform="translate(2540.735 852.785)"/>
      </g>
      <g id="组_1406" data-name="组 1406">
        <line id="直线_102" data-name="直线 102" class="cls-16" y2="9.311" transform="translate(2616.533 833.035)"/>
        <line id="直线_103" data-name="直线 103" class="cls-16" y2="9.311" transform="translate(2610.815 836.336)"/>
        <line id="直线_104" data-name="直线 104" class="cls-16" y2="9.311" transform="translate(2605.097 839.638)"/>
        <line id="直线_105" data-name="直线 105" class="cls-16" y2="9.311" transform="translate(2599.379 842.939)"/>
        <line id="直线_106" data-name="直线 106" class="cls-16" y2="9.311" transform="translate(2593.661 846.24)"/>
        <line id="直线_107" data-name="直线 107" class="cls-16" y2="9.311" transform="translate(2587.943 849.541)"/>
      </g>
      <g id="组_1407" data-name="组 1407">
        <line id="直线_108" data-name="直线 108" class="cls-16" y2="9.311" transform="translate(2616.533 858.701)"/>
        <line id="直线_109" data-name="直线 109" class="cls-16" y2="9.311" transform="translate(2610.815 862.002)"/>
        <line id="直线_110" data-name="直线 110" class="cls-16" y2="9.311" transform="translate(2605.097 865.303)"/>
        <line id="直线_111" data-name="直线 111" class="cls-16" y2="9.311" transform="translate(2599.379 868.604)"/>
        <line id="直线_112" data-name="直线 112" class="cls-16" y2="9.311" transform="translate(2593.661 871.906)"/>
        <line id="直线_113" data-name="直线 113" class="cls-16" y2="9.311" transform="translate(2587.943 875.207)"/>
      </g>
      <g id="组_1408" data-name="组 1408">
        <line id="直线_114" data-name="直线 114" class="cls-16" y2="9.311" transform="translate(2616.533 884.366)"/>
        <line id="直线_115" data-name="直线 115" class="cls-16" y2="9.311" transform="translate(2610.815 887.667)"/>
        <line id="直线_116" data-name="直线 116" class="cls-16" y2="9.311" transform="translate(2605.097 890.968)"/>
        <line id="直线_117" data-name="直线 117" class="cls-16" y2="9.311" transform="translate(2599.379 894.27)"/>
        <line id="直线_118" data-name="直线 118" class="cls-16" y2="9.311" transform="translate(2593.661 897.571)"/>
        <line id="直线_119" data-name="直线 119" class="cls-16" y2="9.311" transform="translate(2587.943 900.872)"/>
      </g>
      <g id="组_1409" data-name="组 1409">
        <path id="路径_831" data-name="路径 831" class="cls-17" d="M2552.6,795.874c-5.582-3.223-14.6-3.239-20.151-.036s-5.519,8.411.063,11.634,14.6,3.239,20.151.036S2558.183,799.1,2552.6,795.874Z"/>
        <path id="路径_832" data-name="路径 832" class="cls-18" d="M2574.6,808.575c-5.582-3.222-14.6-3.239-20.151-.036s-5.519,8.411.063,11.634,14.6,3.239,20.151.037S2580.182,811.8,2574.6,808.575Z"/>
        <path id="路径_833" data-name="路径 833" class="cls-19" d="M2595.787,820.808l-9.294-5.366-20.088,11.6,9.294,5.367c4.8,2.773,13.2,2.425,18.742-.777h0C2599.988,828.426,2600.591,823.581,2595.787,820.808Z"/>
      </g>
    </g>
    <g id="组_1423" data-name="组 1423" transform="translate(-1 -1.505)">
      <g id="组_1412" data-name="组 1412">
        <rect id="矩形_1063" data-name="矩形 1063" class="cls-5" width="113.672" height="210.775" rx="6.989" transform="translate(2607.864 737.939)"/>
        <g id="组_1411" data-name="组 1411" class="cls-20">
          <rect id="矩形_1064" data-name="矩形 1064" class="cls-9" width="113.672" height="210.775" rx="6.989" transform="translate(2613.236 740.556)"/>
        </g>
        <rect id="矩形_1066" data-name="矩形 1066" class="cls-7" width="113.672" height="210.775" rx="6.989" transform="translate(2607.864 737.939)"/>
      </g>
      <rect id="矩形_1067" data-name="矩形 1067" class="cls-1" width="113.672" height="182.55" transform="translate(2607.864 754.537)"/>
      <g id="组_1413" data-name="组 1413">
        <line id="直线_120" data-name="直线 120" class="cls-21" x2="24.271" transform="translate(2647.725 747.494)"/>
        <circle id="椭圆_241" data-name="椭圆 241" class="cls-5" cx="1.668" cy="1.668" r="1.668" transform="translate(2678.34 745.826)"/>
      </g>
      <g id="组_1415" data-name="组 1415">
        <rect id="矩形_1068" data-name="矩形 1068" class="cls-5" width="83.661" height="84.648" rx="7.148" transform="translate(2622.87 790.813)"/>
        <g id="组_1414" data-name="组 1414" class="cls-22">
          <rect id="矩形_1069" data-name="矩形 1069" class="cls-3" width="83.661" height="84.648" rx="4.243" transform="translate(2627.156 794.495)"/>
        </g>
        <rect id="矩形_1071" data-name="矩形 1071" class="cls-7" width="83.661" height="84.648" rx="7.148" transform="translate(2622.87 790.813)"/>
      </g>
      <g id="组_1417" data-name="组 1417">
        <rect id="矩形_1072" data-name="矩形 1072" class="cls-5" width="83.661" height="23.137" rx="3.737" transform="translate(2622.87 895.449)"/>
        <g id="组_1416" data-name="组 1416" class="cls-23">
          <rect id="矩形_1073" data-name="矩形 1073" class="cls-24" width="83.661" height="23.137" rx="2.608" transform="translate(2626.912 898.531)"/>
        </g>
        <rect id="矩形_1075" data-name="矩形 1075" class="cls-7" width="83.661" height="23.137" rx="3.737" transform="translate(2622.87 895.449)"/>
      </g>
      <rect id="矩形_1076" data-name="矩形 1076" class="cls-5" width="71.379" height="8.62" rx="2.107" transform="translate(2629.011 851.876)"/>
      <g id="组_1422" data-name="组 1422">
        <circle id="椭圆_242" data-name="椭圆 242" class="cls-11" cx="21.813" cy="21.813" r="21.813" transform="translate(2642.887 767.037)"/>
        <path id="矩形_1077" data-name="矩形 1077" class="cls-25" d="M6.238,0H16.743a6.238,6.238,0,0,1,6.238,6.238V10.48a1.83,1.83,0,0,1-1.83,1.83H1.83A1.83,1.83,0,0,1,0,10.48V6.238A6.238,6.238,0,0,1,6.238,0Z" transform="translate(2656.03 792.827)"/>
        <g id="组_1418" data-name="组 1418">
          <line id="直线_121" data-name="直线 121" class="cls-26" y2="3.894" transform="translate(2658.421 800.405)"/>
        </g>
        <g id="组_1419" data-name="组 1419">
          <line id="直线_122" data-name="直线 122" class="cls-11" y2="3.894" transform="translate(2657.291 800.405)"/>
          <line id="直线_123" data-name="直线 123" class="cls-11" y2="3.894" transform="translate(2672.11 800.405)"/>
        </g>
        <path id="矩形_1078" data-name="矩形 1078" class="cls-7" d="M6.238,0H16.743a6.238,6.238,0,0,1,6.238,6.238V10.48a1.83,1.83,0,0,1-1.83,1.83H1.83A1.83,1.83,0,0,1,0,10.48V6.238A6.238,6.238,0,0,1,6.238,0Z" transform="translate(2653.21 791.989)"/>
        <path id="矩形_1079" data-name="矩形 1079" class="cls-1" d="M3.925,0h0A3.925,3.925,0,0,1,7.85,3.925v8.152a3.437,3.437,0,0,1-3.437,3.437H0a0,0,0,0,1,0,0V3.925A3.925,3.925,0,0,1,3.925,0Z" transform="translate(2668.625 796.702) rotate(-180)"/>
        <path id="路径_834" data-name="路径 834" class="cls-6" d="M2664.7,772.945"/>
        <rect id="矩形_1080" data-name="矩形 1080" class="cls-1" width="20.925" height="5.097" rx="2.549" transform="translate(2654.238 780.629)"/>
        <path id="矩形_1081" data-name="矩形 1081" class="cls-1" d="M6.991,0h.291a6.991,6.991,0,0,1,6.991,6.991v6.161A5.471,5.471,0,0,1,8.8,18.623H0a0,0,0,0,1,0,0V6.991A6.991,6.991,0,0,1,6.991,0Z" transform="translate(2671.836 791.989) rotate(-180)"/>
        <g id="组_1421" data-name="组 1421">
          <path id="矩形_1082" data-name="矩形 1082" class="cls-5" d="M5.072,0h9.2a0,0,0,0,1,0,0V1.091A5.457,5.457,0,0,1,8.814,6.548H0a0,0,0,0,1,0,0V5.072A5.072,5.072,0,0,1,5.072,0Z" transform="translate(2671.836 779.915) rotate(-180)"/>
          <g id="组_1420" data-name="组 1420" class="cls-27">
            <path id="矩形_1083" data-name="矩形 1083" class="cls-24" d="M5.072,0h9.2a0,0,0,0,1,0,0V1.091A5.457,5.457,0,0,1,8.814,6.548H0a0,0,0,0,1,0,0V5.072A5.072,5.072,0,0,1,5.072,0Z" transform="translate(2674.576 781.294) rotate(-180)"/>
          </g>
          <path id="矩形_1085" data-name="矩形 1085" class="cls-7" d="M5.072,0h9.2a0,0,0,0,1,0,0V1.091A5.457,5.457,0,0,1,8.814,6.548H0a0,0,0,0,1,0,0V5.072A5.072,5.072,0,0,1,5.072,0Z" transform="translate(2671.836 779.915) rotate(-180)"/>
        </g>
      </g>
      <text id="Public_key" data-name="Public key" class="cls-28" transform="translate(2631.103 833.225)"><tspan x="0" y="0">Public key</tspan></text>
      <text id="Connect_DEC_App" data-name="Connect DEC App" class="cls-29" transform="translate(2630.699 909.438)"><tspan x="0" y="0">Connect DEC App</tspan></text>
      <text id="cyfs:_o_5r4MYf...Uwpi...YRywl" data-name="cyfs://o/5r4MYf...Uwpi...YRywl" class="cls-30" transform="translate(2630.436 857.737)"><tspan x="0" y="0">cyfs://o/5r4MYf...Uwpi...YRywl</tspan></text>
    </g>
    <g id="组_1429" data-name="组 1429">
      <circle id="椭圆_243" data-name="椭圆 243" class="cls-1" cx="53.498" cy="53.498" r="53.498" transform="translate(2406.195 792.446)"/>
      <g id="组_1428" data-name="组 1428">
        <g id="组_1426" data-name="组 1426">
          <circle id="椭圆_244" data-name="椭圆 244" class="cls-31" cx="22.089" cy="22.089" r="22.089" transform="translate(2437.604 810.214)"/>
          <g id="组_1425" data-name="组 1425">
            <path id="路径_835" data-name="路径 835" class="cls-5" d="M2453.215,835.6a3.575,3.575,0,0,1,0-6.817,12.354,12.354,0,0,1,4.793-6.7,10.773,10.773,0,1,0,0,20.228A12.352,12.352,0,0,1,2453.215,835.6Z"/>
            <g id="组_1424" data-name="组 1424">
              <path id="路径_836" data-name="路径 836" class="cls-5" d="M2475.84,832.2h0Z"/>
              <path id="路径_837" data-name="路径 837" class="cls-5" d="M2467.845,834.448a3.574,3.574,0,1,1,0-4.494l7.3-1.565a10.773,10.773,0,1,0,0,7.624Z"/>
            </g>
          </g>
        </g>
        <g id="组_1427" data-name="组 1427">
          <path id="路径_838" data-name="路径 838" d="M2451.86,863.929a3.641,3.641,0,0,0-3.639,3.636v1.867a3.64,3.64,0,0,0,7.054,1.261.609.609,0,0,0-1.143-.422,2.422,2.422,0,0,1-4.694-.839v-.322h5.453a.608.608,0,0,0,.608-.608v-.938A3.641,3.641,0,0,0,2451.86,863.929Zm-2.422,3.636a2.422,2.422,0,0,1,4.844,0v.327h-4.844Z"/>
          <path id="路径_839" data-name="路径 839" d="M2426.541,863.14a4.349,4.349,0,0,1,2.306.659.608.608,0,1,0,.645-1.032,5.574,5.574,0,1,0,0,9.459.609.609,0,1,0-.646-1.032,4.357,4.357,0,1,1-2.3-8.054Z"/>
          <path id="路径_840" data-name="路径 840" d="M2437.456,863.939a.61.61,0,0,0-.609.609v2.389a2.417,2.417,0,0,1-4.834,0v-2.389a.609.609,0,0,0-1.218,0v3.05a.6.6,0,0,0,.161.41,3.627,3.627,0,0,0,5.891,1.636v1.811a2.417,2.417,0,0,1-4.834,0,.609.609,0,1,0-1.218,0,3.635,3.635,0,0,0,7.27,0v-6.907A.609.609,0,0,0,2437.456,863.939Z"/>
          <path id="路径_841" data-name="路径 841" d="M2443.268,863.944a3.618,3.618,0,0,0-2.415.925v-2.335a.609.609,0,1,0-1.218,0v9.929a.609.609,0,1,0,1.218,0v-.323a3.626,3.626,0,0,0,6.047-2.707v-1.86A3.634,3.634,0,0,0,2443.268,863.944Zm2.415,5.489a2.415,2.415,0,0,1-4.83,0v-1.86a2.415,2.415,0,0,1,4.83,0Z"/>
          <path id="路径_842" data-name="路径 842" d="M2471.965,863.14a4.346,4.346,0,0,1,2.306.659.609.609,0,1,0,.646-1.032,5.575,5.575,0,1,0,0,9.459.609.609,0,1,0-.645-1.032,4.357,4.357,0,1,1-2.306-8.054Z"/>
          <path id="路径_843" data-name="路径 843" d="M2492.25,863.93a.609.609,0,0,0-.609.609v.32a3.629,3.629,0,0,0-6.052,2.705v1.861a3.629,3.629,0,0,0,6.052,2.708v.324a.609.609,0,1,0,1.218,0v-7.918A.609.609,0,0,0,2492.25,863.93Zm-3.026,7.913a2.42,2.42,0,0,1-2.417-2.418v-1.861a2.417,2.417,0,0,1,4.834,0v1.861A2.42,2.42,0,0,1,2489.224,871.843Z"/>
          <path id="路径_844" data-name="路径 844" d="M2480.516,863.93a3.617,3.617,0,0,0-2.418.928v-2.327a.608.608,0,1,0-1.217,0v9.915a.608.608,0,1,0,1.217,0v-4.881a2.418,2.418,0,1,1,4.835,0v4.881a.609.609,0,1,0,1.218,0v-4.881A3.639,3.639,0,0,0,2480.516,863.93Z"/>
          <path id="路径_845" data-name="路径 845" d="M2497.81,871.848a.905.905,0,0,1-.9-.905v-5.791h.9a.609.609,0,0,0,0-1.218h-.9v-1.41a.609.609,0,1,0-1.218,0v1.41h-.937a.609.609,0,0,0,0,1.218h.937v5.791a2.125,2.125,0,0,0,2.122,2.123.609.609,0,0,0,0-1.218Z"/>
          <path id="路径_846" data-name="路径 846" d="M2460.968,863.941h-.513a3.617,3.617,0,0,0-2.418.927v-.33a.609.609,0,1,0-1.217,0v7.926a.609.609,0,1,0,1.217,0v-4.891a2.42,2.42,0,0,1,2.418-2.415h.513a.609.609,0,1,0,0-1.217Z"/>
        </g>
      </g>
    </g>
    <g id="组_1430" data-name="组 1430">
      <circle id="椭圆_245" data-name="椭圆 245" class="cls-32" cx="21.76" cy="21.76" r="21.76" transform="translate(2336.871 792.102)"/>
      <path id="路径_847" data-name="路径 847" class="cls-5" d="M2349.324,811.548v3.293h8.817v-11.2h-8.817v.02a2.369,2.369,0,0,0-2.18,2.359v3.17A2.369,2.369,0,0,0,2349.324,811.548Zm18.847,0a2.369,2.369,0,0,0,2.181-2.359v-3.17a2.37,2.37,0,0,0-2.181-2.359v-.02h-9v11.2h9Zm3.466-.534h-1.192a1.188,1.188,0,0,0-1.188,1.189v3.665H2348.24V812.2a1.185,1.185,0,0,0-1.184-1.189h-1.193a1.189,1.189,0,0,0-1.189,1.189v8.623h1.189v1.784h1.19v-1.784h23.391v1.784h1.19v-1.784h1.19V812.2A1.189,1.189,0,0,0,2371.637,811.014Z"/>
    </g>
    <g id="组_1431" data-name="组 1431">
      <circle id="椭圆_246" data-name="椭圆 246" class="cls-33" cx="26.746" cy="26.746" r="26.746" transform="translate(2265.428 734.173)"/>
      <path id="路径_848" data-name="路径 848" class="cls-5" d="M2285.208,772.488a3.263,3.263,0,0,1,1.253.243,3.114,3.114,0,0,1,1.027.679,3.341,3.341,0,0,1,.7,1.027,3.138,3.138,0,0,1,0,2.506,3.288,3.288,0,0,1-1.723,1.723,3.068,3.068,0,0,1-1.253.261,3.158,3.158,0,0,1-1.288-.261,3.289,3.289,0,0,1-1.723-1.723,3.138,3.138,0,0,1,0-2.506,3.341,3.341,0,0,1,.7-1.027,3.134,3.134,0,0,1,1.027-.679A3.36,3.36,0,0,1,2285.208,772.488Zm14.48.069a3.381,3.381,0,0,1,1.271.244,3.063,3.063,0,0,1,1.044.679,3.349,3.349,0,0,1,.7,1.026,3.141,3.141,0,0,1,0,2.507,3.348,3.348,0,0,1-.7,1.026,3.277,3.277,0,0,1-1.044.7,3.2,3.2,0,0,1-1.271.261,3.073,3.073,0,0,1-1.253-.261,3.3,3.3,0,0,1-1.723-1.723,3.141,3.141,0,0,1,0-2.507,3.349,3.349,0,0,1,.7-1.026,3.109,3.109,0,0,1,1.027-.679A3.249,3.249,0,0,1,2299.688,772.557Zm5.848-19.771a3.552,3.552,0,0,1,1.514.261,1.731,1.731,0,0,1,.766.644,1.467,1.467,0,0,1,.209.818,2.775,2.775,0,0,1-.122.749q-.105.313-.453,1.288t-.748,2.14q-.4,1.167-.8,2.315t-.644,1.81a4,4,0,0,1-1.131,1.932,2.624,2.624,0,0,1-1.688.539h-18.274l.487,3.133h17.578q1.671,0,1.671,1.427a2.138,2.138,0,0,1-.331,1.2,1.451,1.451,0,0,1-1.305.5h-18.239a2.064,2.064,0,0,1-1.166-.313,2.645,2.645,0,0,1-.784-.818,4.98,4.98,0,0,1-.5-1.1,10.034,10.034,0,0,1-.3-1.114q-.034-.208-.192-1.009t-.382-2q-.226-1.2-.5-2.68t-.557-2.976q-.661-3.516-1.5-7.832h-2.61a1.413,1.413,0,0,1-.871-.261,2.284,2.284,0,0,1-.574-.626,2.418,2.418,0,0,1-.313-.783,3.8,3.8,0,0,1-.087-.766,1.525,1.525,0,0,1,.47-1.149,1.755,1.755,0,0,1,1.27-.452h3.516a2.5,2.5,0,0,1,1.114.209,1.886,1.886,0,0,1,.661.522,2.025,2.025,0,0,1,.348.661q.105.348.174.592a7.448,7.448,0,0,1,.139.783c.047.336.093.679.14,1.027q.1.625.208,1.322Zm-2.611-1.113h-12.739l4.594-4.595a2.515,2.515,0,0,1,1.758-.818,2.377,2.377,0,0,1,1.758.783Z"/>
    </g>
    <g id="组_1432" data-name="组 1432">
      <circle id="椭圆_247" data-name="椭圆 247" class="cls-34" cx="26.411" cy="26.411" r="26.411" transform="translate(2299.706 875.24)"/>
      <path id="路径_849" data-name="路径 849" class="cls-5" d="M2341.99,901.44a4.692,4.692,0,0,0-1.9-.834,2.106,2.106,0,0,1-1.513-1.529l-1.417-5.662a4.629,4.629,0,0,0-1.72-2.607,4.7,4.7,0,0,0-2.963-1.051h-2.122v-3.714a.509.509,0,0,0-.531-.531H2322.4a.5.5,0,0,0-.382.149.51.51,0,0,0-.149.382v3.707h-2.119a4.692,4.692,0,0,0-2.962,1.052,4.643,4.643,0,0,0-1.721,2.606l-1.417,5.662a2.109,2.109,0,0,1-1.512,1.529,4.694,4.694,0,0,0-1.9.834,3.6,3.6,0,0,0-1.084,2.63v6.36a.509.509,0,0,0,.531.531h1.582v1.068a3.051,3.051,0,0,0,.929,2.251,3.184,3.184,0,0,0,5.438-2.255v-1.061h16.949v1.061a3.188,3.188,0,0,0,5.437,2.255,3.1,3.1,0,0,0,.93-2.255v-1.061h1.588a.507.507,0,0,0,.531-.53V904.07A3.573,3.573,0,0,0,2341.99,901.44Zm-29.4,2.346a2.64,2.64,0,1,1-.775,1.869A2.545,2.545,0,0,1,2312.59,903.786Zm5.444-4.739,1.144-4.6a.6.6,0,0,1,.234-.29.589.589,0,0,1,.346-.159h12.7a.571.571,0,0,1,.346.159.6.6,0,0,1,.234.29l1.15,4.6a1.053,1.053,0,0,1-1.021,1.311h-14.115A1.051,1.051,0,0,1,2318.034,899.047Zm17.865,4.739a2.643,2.643,0,1,1-.774,1.869A2.549,2.549,0,0,1,2335.9,903.786Z"/>
    </g>
  </g>
</svg>
