<svg xmlns="http://www.w3.org/2000/svg" xmlns:xlink="http://www.w3.org/1999/xlink" width="933" height="373" viewBox="0 0 933 373"><defs><style>.a,.b,.e{fill:#fff;}.a,.s{opacity:0.1;}.c{fill:#fbc333;}.d,.f{fill:#17bfa1;}.d,.e,.u{stroke:rgba(0,0,0,0);font-size:10px;font-family:MicrosoftYaHei, Microsoft YaHei;}.g{fill:#ebebeb;}.af,.h,.m{fill:#c8c8c8;}.i{fill:#d5c1d2;}.j{fill:#ebdcf1;}.k{fill:#b3e2f0;}.l{fill:#f3dba5;}.m{opacity:0.28;}.ag,.n{fill:#ddd;}.o{fill:#89bbe4;}.p{fill:#f3f1ef;}.q{fill:#1dbfa2;}.r{fill:#e8e7e7;opacity:0.14;}.s,.t,.u{fill:#0ad7b6;}.v{fill:#8b3dd9;}.v,.w{opacity:0.08;}.w,.x{fill:#11daba;}.x{opacity:0.3;}.y{fill:#12dbbb;}.aa,.z{fill:#b4b3b7;}.z{opacity:0.48;}.aa{opacity:0.4;}.ab{fill:#778cf4;}.ac{fill:#dae4f3;}.ad,.ae{fill:#f2f1f2;}.ad{stroke:#fff;}.af,.ag{opacity:0.2;}.ah{fill:#cddbe5;}.ai{fill:none;}.aj{stroke:none;}.ak{filter:url(#e);}.al{filter:url(#c);}.am{filter:url(#a);}</style><filter id="a" x="172" y="121" width="278" height="157" filterUnits="userSpaceOnUse"><feOffset dy="3" input="SourceAlpha"/><feGaussianBlur stdDeviation="3" result="b"/><feFlood flood-opacity="0.078"/><feComposite operator="in" in2="b"/><feComposite in="SourceGraphic"/></filter><filter id="c" x="168" y="50" width="650" height="289" filterUnits="userSpaceOnUse"><feOffset dy="8" input="SourceAlpha"/><feGaussianBlur stdDeviation="5" result="d"/><feFlood flood-opacity="0.078"/><feComposite operator="in" in2="d"/><feComposite in="SourceGraphic"/></filter><filter id="e" x="137" y="92" width="292" height="205" filterUnits="userSpaceOnUse"><feOffset dy="8" input="SourceAlpha"/><feGaussianBlur stdDeviation="5" result="f"/><feFlood flood-opacity="0.078"/><feComposite operator="in" in2="f"/><feComposite in="SourceGraphic"/></filter></defs><g transform="translate(-494 -193)"><g transform="translate(-16)"><rect class="a" width="149" height="38" transform="translate(1114 307)"/><rect class="b" width="63" height="26" transform="translate(1117 313)"/><rect class="b" width="63" height="26" transform="translate(1197 313)"/><path class="c" d="M262.092,259.765l2.806,2.806-1.027.958-3.764-3.765L263.871,256l1.027.958Zm-4.175,0,2.806,2.806-.958.958L256,259.765,259.765,256l.958.958-2.806,2.806Z" transform="translate(927.102 66)"/><text class="d" transform="translate(1126 330)"><tspan x="0" y="0">Object ID</tspan></text><text class="d" transform="translate(1215 330)"><tspan x="0" y="0">DATA</tspan></text><text class="e" transform="translate(990 385)"><tspan x="0" y="0" xml:space="preserve">cyfs:// 5r4mYF6c...b988i    /    JTK94Y...nRywL</tspan></text><g transform="translate(18 12)"><g transform="translate(0 46.184)"><rect class="b" width="1" height="6" transform="translate(972 334.816)"/><rect class="b" width="1" height="6" transform="translate(1084 334.816)"/><rect class="b" width="1" height="113" transform="translate(972 340.816) rotate(-90)"/></g><rect class="b" width="1" height="12" transform="translate(1028 386)"/></g><g transform="translate(30 12)"><g transform="translate(0 46)"><rect class="b" width="1" height="6" transform="translate(1102 335)"/><rect class="b" width="1" height="6" transform="translate(1172 335)"/><rect class="b" width="1" height="71" transform="translate(1102 341) rotate(-90)"/></g><rect class="b" width="1" height="12" transform="translate(1137 386)"/></g><g transform="translate(18 130)"><rect class="b" width="102" height="26" transform="translate(972 286)"/><text class="d" transform="translate(1002 303)"><tspan x="0" y="0">owner ID</tspan></text></g><g transform="translate(-345 1550)"><rect class="b" width="114" height="26" transform="translate(1462 -1134)"/><text class="d" transform="translate(1481 -1117)"><tspan x="0" y="0">DATA object ID</tspan></text></g><rect class="a" width="120" height="38" transform="translate(987 307)"/><rect class="b" width="35" height="26" transform="translate(990 313)"/><rect class="b" width="62" height="26" transform="translate(1042 313)"/><path class="f" d="M105.1,114.2a8,8,0,1,1,8-8A8,8,0,0,1,105.1,114.2Zm4.19-3.43a.358.358,0,0,0,.382-.328v-2.279c0-1.309-3.047-1.965-4.572-1.965s-4.572.656-4.572,1.965v2.281a.358.358,0,0,0,.38.328Zm-4.19-5.713a2.286,2.286,0,0,0,.094-4.572h-.1a2.286,2.286,0,0,0,0,4.572Z" transform="translate(902.428 219.8)"/><path class="c" d="M258.806,259.765,256,262.571l1.027.958,3.765-3.765L257.027,256l-1.027.958Zm4.175,0-2.806,2.806.958.958,3.765-3.765L261.134,256l-.958.958,2.806,2.806Z" transform="translate(773 66)"/><text class="d" transform="translate(1051 330)"><tspan x="0" y="0">Owner ID</tspan></text><path class="c" d="M260.446,261.964,256,266.411l1.627,1.518,5.964-5.964L257.627,256,256,257.518Zm6.615,0-4.446,4.446,1.518,1.518,5.964-5.964L264.133,256l-1.518,1.518,4.446,4.446Z" transform="translate(1373 96.487) rotate(90)"/></g><g transform="translate(38 10.372)"><g transform="translate(637 302.562)"><g class="am" transform="matrix(1, 0, 0, 1, -181, -119.93)"><rect class="g" width="260" height="139" transform="translate(181 127)"/></g><circle class="h" cx="3.5" cy="3.5" r="3.5" transform="translate(8 0.067)"/><ellipse class="h" cx="2.5" cy="3.5" rx="2.5" ry="3.5" transform="translate(23 0.067)"/><ellipse class="h" cx="3" cy="3.5" rx="3" ry="3.5" transform="translate(37 0.067)"/><circle class="i" cx="3.5" cy="3.5" r="3.5" transform="translate(239 0.067)"/><ellipse class="j" cx="6.5" cy="7" rx="6.5" ry="7" transform="translate(12 48.067)"/><circle class="k" cx="6.5" cy="6.5" r="6.5" transform="translate(12 23.067)"/><circle class="l" cx="6.5" cy="6.5" r="6.5" transform="translate(12 84.067)"/><rect class="k" width="63" height="7" transform="translate(45 23.067)"/><rect class="h" width="63" height="7" transform="translate(45 85.067)"/><rect class="h" width="124" height="4" transform="translate(45 37.067)"/><rect class="m" width="52" height="42" transform="translate(187 23.067)"/><rect class="m" width="52" height="44" transform="translate(187 85.067)"/><rect class="n" width="124" height="4" transform="translate(45 100.067)"/><rect class="n" width="124" height="3" transform="translate(45 50.067)"/><rect class="n" width="124" height="5" transform="translate(45 112.067)"/><rect class="n" width="42" height="3" transform="translate(45 62.067)"/><rect class="n" width="94" height="5" transform="translate(45 124.067)"/><rect class="o" width="3" height="42" transform="translate(37 23.067)"/><rect class="o" width="3" height="44" transform="translate(37 85.067)"/></g><path class="h" d="M1,0H259a1,1,0,0,1,1,1V6a0,0,0,0,1,0,0H0A0,0,0,0,1,0,6V1A1,1,0,0,1,1,0Z" transform="translate(637 292.628)"/><rect class="b" width="260" height="11" transform="translate(637 298.628)"/><g transform="translate(645.94 301.569)"><circle class="h" cx="2.5" cy="2.5" r="2.5" transform="translate(23.06 0.06)"/><circle class="h" cx="2.5" cy="2.5" r="2.5" transform="translate(0.06 0.06)"/><ellipse class="h" cx="2" cy="2.5" rx="2" ry="2.5" transform="translate(12.06 0.06)"/></g><rect class="p" width="24" height="11" transform="translate(873 298.628)"/><circle class="i" cx="2.5" cy="2.5" r="2.5" transform="translate(876 301.628)"/><path class="b" d="M1,0H58a0,0,0,0,1,0,0V6a0,0,0,0,1,0,0H0A0,0,0,0,1,0,6V1A1,1,0,0,1,1,0Z" transform="translate(637 292.628)"/><rect class="q" width="3" height="3" rx="1.5" transform="translate(646 294.628)"/><rect class="p" width="39" height="3" rx="1.5" transform="translate(652 294.628)"/></g><g transform="translate(-6631 667)"><path class="r" d="M8.482,0H642.518C647.2,0,651,2.137,651,4.774V254.226c0,2.637-3.8,4.774-8.482,4.774H8.482C3.8,259,0,256.863,0,254.226V4.774C0,2.137,3.8,0,8.482,0Z" transform="translate(7277 -417)"/><g class="al" transform="matrix(1, 0, 0, 1, 7125, -474)"><rect class="b" width="620" height="259" rx="8" transform="translate(183 57)"/></g><g transform="translate(6617 -657)"><rect class="s" width="149" height="38" transform="translate(1114 307)"/><rect class="t" width="63" height="26" transform="translate(1117 313)"/><rect class="t" width="63" height="26" transform="translate(1197 313)"/><path class="c" d="M262.092,259.765l2.806,2.806-1.027.958-3.764-3.765L263.871,256l1.027.958Zm-4.175,0,2.806,2.806-.958.958L256,259.765,259.765,256l.958.958-2.806,2.806Z" transform="translate(927.102 66)"/><text class="e" transform="translate(1126 330)"><tspan x="0" y="0">Object ID</tspan></text><text class="e" transform="translate(1215 330)"><tspan x="0" y="0">DATA</tspan></text><text class="u" transform="translate(990 385)"><tspan x="0" y="0" xml:space="preserve">cyfs:// 5r4mYF6c...b988i    /    JTK94Y...nRywL</tspan></text><g transform="translate(18 12)"><g transform="translate(0 46.184)"><rect class="t" width="1" height="6" transform="translate(972 334.816)"/><rect class="t" width="1" height="6" transform="translate(1084 334.816)"/><rect class="t" width="1" height="113" transform="translate(972 340.816) rotate(-90)"/></g><rect class="t" width="1" height="12" transform="translate(1028 386)"/></g><g transform="translate(30 12)"><g transform="translate(0 46)"><rect class="t" width="1" height="6" transform="translate(1102 335)"/><rect class="t" width="1" height="6" transform="translate(1172 335)"/><rect class="t" width="1" height="71" transform="translate(1102 341) rotate(-90)"/></g><rect class="t" width="1" height="12" transform="translate(1137 386)"/></g><g transform="translate(18 130)"><rect class="t" width="102" height="26" transform="translate(972 286)"/><text class="e" transform="translate(1002 303)"><tspan x="0" y="0">owner ID</tspan></text></g><g transform="translate(-345 1550)"><rect class="t" width="114" height="26" transform="translate(1462 -1134)"/><text class="e" transform="translate(1481 -1117)"><tspan x="0" y="0">DATA object ID</tspan></text></g><rect class="s" width="120" height="38" transform="translate(987 307)"/><rect class="t" width="35" height="26" transform="translate(990 313)"/><rect class="t" width="62" height="26" transform="translate(1042 313)"/><path class="b" d="M105.1,114.2a8,8,0,1,1,8-8A8,8,0,0,1,105.1,114.2Zm4.19-3.43a.358.358,0,0,0,.382-.328v-2.279c0-1.309-3.047-1.965-4.572-1.965s-4.572.656-4.572,1.965v2.281a.358.358,0,0,0,.38.328Zm-4.19-5.713a2.286,2.286,0,0,0,.094-4.572h-.1a2.286,2.286,0,0,0,0,4.572Z" transform="translate(902.428 219.8)"/><path class="c" d="M258.806,259.765,256,262.571l1.027.958,3.765-3.765L257.027,256l-1.027.958Zm4.175,0-2.806,2.806.958.958,3.765-3.765L261.134,256l-.958.958,2.806,2.806Z" transform="translate(773 66)"/><text class="e" transform="translate(1051 330)"><tspan x="0" y="0">Owner ID</tspan></text><path class="c" d="M260.446,261.964,256,266.411l1.627,1.518,5.964-5.964L257.627,256,256,257.518Zm6.615,0-4.446,4.446,1.518,1.518,5.964-5.964L264.133,256l-1.518,1.518,4.446,4.446Z" transform="translate(1373 96.487) rotate(90)"/></g><rect class="v" width="102" height="41" transform="translate(7255 -351)"/><rect class="w" width="102" height="41" transform="translate(7455 -264.241)"/><circle class="x" cx="40" cy="40" r="40" transform="translate(7368 -326.241)"/><g transform="translate(7385.819 -301.972)"><rect class="y" width="6.952" height="23.636" rx="3" transform="translate(0 14.747) rotate(-45)"/><rect class="y" width="6.952" height="37.54" rx="3" transform="translate(17.816 31.461) rotate(-135)"/></g><rect class="z" width="88" height="7" rx="2" transform="translate(7365 -368.241)"/><rect class="aa" width="21" height="4" rx="2" transform="translate(7399 -353.241)"/><g class="ak" transform="matrix(1, 0, 0, 1, 7125, -474)"><rect class="b" width="262" height="175" rx="8" transform="translate(152 99)"/></g><circle class="t" cx="8" cy="8" r="8" transform="translate(7293.793 -340)"/><circle class="c" cx="8" cy="8" r="8" transform="translate(7293.793 -274)"/><circle class="ab" cx="8" cy="8" r="8" transform="translate(7293.793 -311)"/><rect class="ac" width="6" height="45" transform="translate(7319.793 -340)"/><rect class="ac" width="6" height="45" transform="translate(7319.793 -274)"/><path class="ac" d="M8,0H254a8,8,0,0,1,8,8V24a0,0,0,0,1,0,0H0a0,0,0,0,1,0,0V8A8,8,0,0,1,8,0Z" transform="translate(7276.793 -375)"/><rect class="g" width="262" height="16" transform="translate(7276.793 -366)"/><g class="ad" transform="translate(7293.793 -362)"><circle class="aj" cx="4.5" cy="4.5" r="4.5"/><circle class="ai" cx="4.5" cy="4.5" r="4"/></g><g class="ad" transform="translate(7309.793 -362)"><circle class="aj" cx="4.5" cy="4.5" r="4.5"/><circle class="ai" cx="4.5" cy="4.5" r="4"/></g><g class="ad" transform="translate(7325.793 -362)"><circle class="aj" cx="4.5" cy="4.5" r="4.5"/><circle class="ai" cx="4.5" cy="4.5" r="4"/></g><path class="b" d="M8,0H58a0,0,0,0,1,0,0V9a0,0,0,0,1,0,0H0A0,0,0,0,1,0,9V8A8,8,0,0,1,8,0Z" transform="translate(7276.793 -375)"/><rect class="ae" width="30" height="4" transform="translate(7301.793 -372)"/><rect class="t" width="4" height="4" transform="translate(7293.793 -372)"/><rect class="k" width="95" height="11" transform="translate(7335.793 -340)"/><rect class="k" width="95" height="11" transform="translate(7335.793 -274)"/><rect class="af" width="159" height="5" transform="translate(7335.793 -323)"/><rect class="ag" width="159" height="5" transform="translate(7335.793 -257)"/><rect class="ag" width="134" height="5" transform="translate(7335.793 -311)"/><rect class="ag" width="134" height="5" transform="translate(7335.793 -245)"/><rect class="ag" width="134" height="5" transform="translate(7335.793 -300)"/><rect class="ag" width="134" height="5" transform="translate(7335.793 -234)"/></g><path class="ac" d="M8,0H612a8,8,0,0,1,8,8V24a0,0,0,0,1,0,0H0a0,0,0,0,1,0,0V8A8,8,0,0,1,8,0Z" transform="translate(677 250)"/><path class="ah" d="M0,0H106a0,0,0,0,1,0,0V7a8,8,0,0,1-8,8H8A8,8,0,0,1,0,7V0A0,0,0,0,1,0,0Z" transform="translate(934 250)"/><rect class="ai" width="933" height="373" transform="translate(494 193)"/></g></svg>