<svg xmlns="http://www.w3.org/2000/svg" width="32" height="32" viewBox="0 0 32 32"><defs><style>.a{opacity:0.5;}.b{fill:#78909c;}.c{opacity:0;}.d{fill:#f9e2e2;}.e{fill:#ffbcbc;}.f,.h{fill:#dce3e7;}.f,.g,.h{stroke:#dce3e7;}.f,.g,.h,.i{stroke-linecap:round;}.f{stroke-linejoin:round;}.g,.i{fill:none;}.i{stroke:#f23d64;}</style></defs><g transform="translate(-1566 -479)"><g class="a" transform="translate(-85 373)"><circle class="b" cx="16" cy="16" r="16" transform="translate(1651 106)"/></g><g transform="translate(1570 483)"><g class="c" transform="translate(-2 -8)"><path class="d" d="M0,0H24V24H0Z" transform="translate(2 8)"/><rect class="e" width="18" height="18" transform="translate(5 11)"/></g><g transform="translate(2)"><g transform="translate(-1.669 -1.882)"><path class="f" d="M12.915,0a1,1,0,0,1,.872.51l3.938,7a1,1,0,0,1,0,.981l-3.938,7a1,1,0,0,1-.872.51H5.085a1,1,0,0,1-.872-.51l-3.937-7a1,1,0,0,1,0-.981l3.938-7A1,1,0,0,1,5.085,0Z" transform="translate(3.669 22.882) rotate(-90)"/><line class="g" y2="2" transform="translate(11.668 19.882)"/><path class="h" d="M0,2.793V0" transform="translate(6.276 10.825) rotate(120)"/><path class="h" d="M0,0V2.333" transform="translate(19.37 9.601) rotate(60)"/></g></g><g transform="translate(-317 -138)"><line class="i" x1="6" y2="6" transform="translate(326 147)"/><line class="i" x2="6" y2="6" transform="translate(326 147)"/></g></g></g></svg>