<svg xmlns="http://www.w3.org/2000/svg" width="32" height="32" viewBox="0 0 32 32"><defs><style>.a{fill:#7d7de3;}.b{fill:#fff;}</style></defs><g transform="translate(-865.333 -522)"><circle class="a" cx="16" cy="16" r="16" transform="translate(865.333 522)"/><path class="b" d="M97.763,17.2a14.888,14.888,0,0,0-.389-2.061,6.074,6.074,0,0,0-.875-1.953,4.1,4.1,0,0,0-1.438-1.314l1.1-3.063H93.292a5.406,5.406,0,0,0,.268-2.179c.333-.069.631-.142.9-.217q1.374-.382,1.636-.863a.465.465,0,0,0,.061-.228q0-.776-2.811-1.349a11.251,11.251,0,0,0-.69-1.822A7.078,7.078,0,0,0,91.712.6,1.307,1.307,0,0,0,90.694.1a2.493,2.493,0,0,0-1.123.42,2.5,2.5,0,0,1-1.123.42A2.5,2.5,0,0,1,87.326.52,2.493,2.493,0,0,0,86.2.1a1.3,1.3,0,0,0-1.016.5,7,7,0,0,0-.942,1.55,11.25,11.25,0,0,0-.69,1.822q-2.81.571-2.811,1.349a.481.481,0,0,0,.07.243,2.884,2.884,0,0,0,1.671.858c.257.071.542.139.857.206a4.223,4.223,0,0,0-.028.436,5.372,5.372,0,0,0,.3,1.743H80.737l1.205,3a3.809,3.809,0,0,0-1.253,1.013,5.6,5.6,0,0,0-.851,1.409,9.291,9.291,0,0,0-.5,1.681,13.16,13.16,0,0,0-.252,1.71q-.059.776-.059,1.606A3.424,3.424,0,0,0,80,21.813a3.585,3.585,0,0,0,2.6.94H94.3a3.579,3.579,0,0,0,2.6-.94,3.414,3.414,0,0,0,.977-2.586,16.524,16.524,0,0,0-.111-2.028ZM88.451,19.17l-2.5-6.735.039.035a3.755,3.755,0,0,0,4.939,0l.02-.018-2.5,6.721ZM92.26,8.084a.36.36,0,0,1-.1.088.235.235,0,0,0-.1.144,1.975,1.975,0,0,0-.1.276c-.048.148-.078.241-.094.279s-.048.115-.1.232-.089.195-.113.232-.061.1-.122.192a.627.627,0,0,1-.161.184c-.05.031-.113.075-.189.128a.654.654,0,0,1-.233.108c-.078.018-.172.038-.272.055a1.709,1.709,0,0,1-.326.029,1.636,1.636,0,0,1-.792-.168,1.079,1.079,0,0,1-.437-.409,2.3,2.3,0,0,1-.194-.469,2.149,2.149,0,0,0-.154-.4.261.261,0,0,0-.233-.168H88.37a.265.265,0,0,0-.235.168,2.18,2.18,0,0,0-.154.4,2.577,2.577,0,0,1-.194.469,1.05,1.05,0,0,1-.437.409,1.661,1.661,0,0,1-.792.168A1.908,1.908,0,0,1,86.231,10c-.1-.018-.191-.038-.274-.055a.654.654,0,0,1-.233-.108c-.076-.055-.141-.1-.189-.128a.6.6,0,0,1-.161-.184c-.059-.091-.1-.155-.122-.192s-.059-.115-.113-.232-.087-.195-.1-.232-.046-.128-.094-.279-.085-.241-.1-.276a.268.268,0,0,0-.1-.144.307.307,0,0,1-.1-.088,3.627,3.627,0,0,1-.054-.367.306.306,0,0,1,.054-.084,3.7,3.7,0,0,1,1.284-.108,11.864,11.864,0,0,1,2.237.257,1,1,0,0,0,.281.029,1.068,1.068,0,0,0,.281-.029,11.646,11.646,0,0,1,2.237-.257,3.716,3.716,0,0,1,1.284.108.345.345,0,0,1,.054.084,3.16,3.16,0,0,1-.033.367Z" transform="translate(792.883 526.301)"/></g></svg>