<svg xmlns="http://www.w3.org/2000/svg" xmlns:xlink="http://www.w3.org/1999/xlink" width="933" height="380" viewBox="0 0 933 380"><defs><style>.a,.ac,.b,.p{fill:none;}.a{stroke:#707070;}.c{fill:#8b3dd9;}.d{fill:#964edf;}.e,.h,.k{fill:#421c69;}.e{opacity:0.34;}.f{fill:#562b84;}.g,.j,.o{fill:#7025ba;}.h{opacity:0.78;}.i{fill:#7c47b6;}.j{stroke:#9666be;}.j,.o{stroke-width:0.5px;}.k{opacity:0.67;}.l{fill:#6e3ba5;}.m{fill:#5c17a1;}.n{fill:#522b7c;}.o{stroke:#9983ac;}.q,.r{fill:#fff;}.q{opacity:0.95;}.s{clip-path:url(#g);}.t{opacity:0.97;fill:url(#h);}.u{fill:url(#i);}.v{fill:url(#j);}.w{fill:url(#k);}.x{fill:#55cbf1;}.y{fill:#17bfa1;}.z{fill:#fc8531;}.aa{fill:#ed3381;}.ab{fill:#db206f;}.ac{stroke:#f9b631;stroke-linecap:round;stroke-width:4px;}.ad{fill:#00cdb3;}.ae{fill:#ff4b4e;}.af{fill:#feca53;}.ag{fill:#57bae4;}.ah{fill:#01cdb4;}.ai{fill:#e09215;}.aj{fill:#faac30;}.ak{fill:#175edc;}.al{fill:#2873f7;}.am,.an,.ao,.ap{stroke:none;}.an{fill:#9983ac;}.ao{fill:rgba(153,131,172,0.5);}.ap{fill:#0ad7b6;}.aq{filter:url(#e);}.ar{filter:url(#c);}.as{filter:url(#a);}</style><filter id="a" x="486.188" y="0" width="195.157" height="195.157" filterUnits="userSpaceOnUse"><feOffset dy="8" input="SourceAlpha"/><feGaussianBlur stdDeviation="5" result="b"/><feFlood flood-color="#5c17a1" flood-opacity="0.078"/><feComposite operator="in" in2="b"/><feComposite in="SourceGraphic"/></filter><filter id="c" x="295" y="135.578" width="159" height="187" filterUnits="userSpaceOnUse"><feOffset dy="3" input="SourceAlpha"/><feGaussianBlur stdDeviation="3" result="d"/><feFlood flood-opacity="0.161"/><feComposite operator="in" in2="d"/><feComposite in="SourceGraphic"/></filter><filter id="e" x="382" y="110.578" width="198" height="233" filterUnits="userSpaceOnUse"><feOffset dy="3" input="SourceAlpha"/><feGaussianBlur stdDeviation="3" result="f"/><feFlood flood-opacity="0.161"/><feComposite operator="in" in2="f"/><feComposite in="SourceGraphic"/></filter><clipPath id="g"><rect class="a" width="300" height="249" transform="translate(0 0)"/></clipPath><radialGradient id="h" cx="0.5" cy="0.5" r="0.426" gradientUnits="objectBoundingBox"><stop offset="0" stop-color="#19b796"/><stop offset="0.628" stop-color="#19b796" stop-opacity="0.263"/><stop offset="1" stop-color="#19b796" stop-opacity="0"/></radialGradient><linearGradient id="i" x1="1.302" y1="-0.064" x2="0.524" y2="0.333" gradientUnits="objectBoundingBox"><stop offset="0" stop-color="#fc8531"/><stop offset="1" stop-color="gray" stop-opacity="0"/></linearGradient><linearGradient id="j" x1="0.274" y1="-0.054" x2="0.756" y2="0.521" gradientUnits="objectBoundingBox"><stop offset="0" stop-color="#8b3dd9"/><stop offset="0.279" stop-color="#1dbfa2" stop-opacity="0.329"/><stop offset="1" stop-color="gray" stop-opacity="0"/></linearGradient><linearGradient id="k" x1="0.5" x2="0.5" y2="0.958" gradientUnits="objectBoundingBox"><stop offset="0" stop-color="#1dbfa2"/><stop offset="1" stop-color="gray" stop-opacity="0"/></linearGradient></defs><g transform="translate(-494 -186)"><rect class="b" width="933" height="373" transform="translate(494 193)"/><g transform="translate(228.49 -168)"><g class="as" transform="matrix(1, 0, 0, 1, 265.51, 354)"><path class="c" d="M82.578,0A82.578,82.578,0,1,1,0,82.578,82.578,82.578,0,0,1,82.578,0Z" transform="translate(501.19 7)"/></g><path class="d" d="M33.324,148.868l-.006,0A82.922,82.922,0,0,1,9.08,120.259a81.988,81.988,0,0,1-6.718-17.986A82.913,82.913,0,0,1,0,82.581,82.549,82.549,0,0,1,133.513,17.575C76.364,18.056,29.87,64.949,29.87,122.112a104.93,104.93,0,0,0,3.453,26.751Z" transform="translate(766.696 361)"/><g transform="translate(843.273 364.382)"><ellipse class="e" cx="22.134" cy="15.265" rx="22.134" ry="15.265" transform="matrix(0.899, 0.438, -0.438, 0.899, 13.384, 0)"/><ellipse class="f" cx="19.398" cy="13.378" rx="19.398" ry="13.378" transform="matrix(0.899, 0.438, -0.438, 0.899, 11.729, 2.896)"/><g class="g" transform="matrix(0.899, 0.438, -0.438, 0.899, 11.73, 1.558)"><path class="am" d="M 19.39780616760254 26.55516242980957 C 8.81209659576416 26.55516242980957 0.1999961733818054 20.64372253417969 0.1999961733818054 13.37758255004883 C 0.1999961733818054 6.111442565917969 8.81209659576416 0.2000025510787964 19.39780616760254 0.2000025510787964 C 29.98351669311523 0.2000025510787964 38.59561538696289 6.111442565917969 38.59561538696289 13.37758255004883 C 38.59561538696289 20.64372253417969 29.98351669311523 26.55516242980957 19.39780616760254 26.55516242980957 Z"/><path class="an" d="M 19.39780616760254 0.4000034332275391 C 8.92237663269043 0.4000034332275391 0.3999977111816406 6.221721649169922 0.3999977111816406 13.37758255004883 C 0.3999977111816406 20.53344345092773 8.92237663269043 26.35516166687012 19.39780616760254 26.35516166687012 C 29.87323570251465 26.35516166687012 38.39561462402344 20.53344345092773 38.39561462402344 13.37758255004883 C 38.39561462402344 6.221721649169922 29.87323570251465 0.4000034332275391 19.39780616760254 0.4000034332275391 M 19.39780616760254 1.9073486328125e-06 C 30.11091613769531 1.9073486328125e-06 38.79561614990234 5.989353179931641 38.79561614990234 13.37758255004883 C 38.79561614990234 20.76581192016602 30.11091613769531 26.75516319274902 19.39780616760254 26.75516319274902 C 8.684696197509766 26.75516319274902 -3.814697265625e-06 20.76581192016602 -3.814697265625e-06 13.37758255004883 C -3.814697265625e-06 5.989353179931641 8.684696197509766 1.9073486328125e-06 19.39780616760254 1.9073486328125e-06 Z"/></g></g><g transform="translate(779.992 470.667) rotate(-39)"><path class="h" d="M22.134,0C34.359,0,44.269,6.834,44.269,15.265S34.359,30.53,22.134,30.53,0,23.7,0,15.265,9.91,0,22.134,0Z" transform="matrix(0.899, 0.438, -0.438, 0.899, 13.383, 0)"/><ellipse class="i" cx="20.196" cy="12.849" rx="20.196" ry="12.849" transform="matrix(0.899, 0.438, -0.438, 0.899, 12.034, 2.267)"/><g class="j" transform="matrix(0.899, 0.438, -0.438, 0.899, 11.729, 1.558)"><ellipse class="am" cx="19.398" cy="13.378" rx="19.398" ry="13.378"/><ellipse class="b" cx="19.398" cy="13.378" rx="19.148" ry="13.128"/></g></g><g transform="translate(861.518 513.721) rotate(-84)"><ellipse class="k" cx="24.708" cy="18.773" rx="24.708" ry="18.773" transform="matrix(0.899, 0.438, -0.438, 0.899, 17.239, 0)"/><ellipse class="l" cx="24.086" cy="16.611" rx="24.086" ry="16.611" transform="matrix(0.899, 0.438, -0.438, 0.899, 15.586, 1.072)"/><g class="m" transform="matrix(0.899, 0.438, -0.438, 0.899, 14.564, 3.209)"><path class="am" d="M24.086,0c13.3,0,24.086,7.437,24.086,16.611S37.389,33.222,24.086,33.222,0,25.785,0,16.611,10.784,0,24.086,0Z"/><path class="ao" d="M 24.08622550964355 0.4999961853027344 C 11.08073425292969 0.4999961853027344 0.4999961853027344 7.727325439453125 0.4999961853027344 16.61092567443848 C 0.4999961853027344 25.49452590942383 11.08073425292969 32.72185516357422 24.08622550964355 32.72185516357422 C 37.09171676635742 32.72185516357422 47.67244720458984 25.49452590942383 47.67244720458984 16.61092567443848 C 47.67244720458984 7.727325439453125 37.09171676635742 0.4999961853027344 24.08622550964355 0.4999961853027344 M 24.08622550964355 -3.814697265625e-06 C 37.38867568969727 -3.814697265625e-06 48.17244720458984 7.436965942382812 48.17244720458984 16.61092567443848 C 48.17244720458984 25.78488540649414 37.38867568969727 33.22185516357422 24.08622550964355 33.22185516357422 C 10.78377532958984 33.22185516357422 -3.814697265625e-06 25.78488540649414 -3.814697265625e-06 16.61092567443848 C -3.814697265625e-06 7.436965942382812 10.78377532958984 -3.814697265625e-06 24.08622550964355 -3.814697265625e-06 Z"/></g></g><g transform="matrix(-0.07, 0.998, -0.998, -0.07, 819.628, 374.07)"><ellipse class="e" cx="20.377" cy="12.629" rx="20.377" ry="12.629" transform="matrix(0.848, 0.53, -0.53, 0.848, 14.552, 0)"/><ellipse class="n" cx="19.398" cy="10.15" rx="19.398" ry="10.15" transform="translate(11.784 6.225) rotate(30)"/><g class="o" transform="matrix(0.839, 0.545, -0.545, 0.839, 10.476, 7.998)"><ellipse class="am" cx="19.398" cy="9.618" rx="19.398" ry="9.618"/><ellipse class="b" cx="19.398" cy="9.618" rx="19.148" ry="9.368"/></g></g><g transform="translate(776.323 429.044) rotate(51)"><path class="e" d="M16.974.024c9.1-.4,16.263,4.206,15.994,10.29S25.1,21.654,16,22.055-.261,17.85.007,11.766,7.872.425,16.974.024Z" transform="matrix(0.848, 0.53, -0.53, 0.848, 14.206, 0)"/><path class="n" d="M16.836.044c9.024-.516,16.121,3.542,15.85,9.065s-7.8,10.419-16.829,10.935S-.263,16.5.007,10.98,7.812.561,16.836.044Z" transform="translate(11.656 2.74) rotate(30)"/><g class="g" transform="matrix(0.839, 0.545, -0.545, 0.839, 10.406, 4.693)"><path class="am" d="M 14.43270111083984 18.85552215576172 C 9.160431861877441 18.85552215576172 4.53399133682251 17.31390380859375 2.056961536407471 14.73168277740479 C 0.8129515051841736 13.43484306335449 0.1897515058517456 11.92376327514648 0.2547214925289154 10.36181259155273 C 0.4678314924240112 5.238893032073975 7.803791522979736 0.7178629636764526 16.6077823638916 0.2836829721927643 C 17.06095123291016 0.2613329887390137 17.51801109313965 0.2500029802322388 17.9662914276123 0.2500029802322388 C 23.23854064941406 0.2500029802322388 27.86498069763184 1.791622996330261 30.34201240539551 4.373833179473877 C 31.58602142333984 5.67067289352417 32.20923233032227 7.181753158569336 32.14426040649414 8.74371337890625 C 31.93115234375 13.86663341522217 24.59519195556641 18.38766288757324 15.7912015914917 18.82184219360352 C 15.33803176879883 18.84419250488281 14.88097190856934 18.85552215576172 14.43270111083984 18.85552215576172 Z"/><path class="an" d="M 17.96628189086914 0.5000038146972656 C 17.52197265625 0.5000038146972656 17.06905174255371 0.5112323760986328 16.62010192871094 0.5333728790283203 C 12.37782096862793 0.7425937652587891 8.354850769042969 1.906713485717773 5.292261123657227 3.81130313873291 C 2.303510665893555 5.669962882995605 0.6031913757324219 8.000002861022949 0.5045108795166016 10.37220287322998 C 0.4415416717529297 11.88579368591309 1.024572372436523 13.29430294036865 2.237380981445312 14.55862236022949 C 4.668201446533203 17.0926628112793 9.227201461791992 18.60552215576172 14.43270111083984 18.60552215576172 C 14.87701225280762 18.60552215576172 15.32993125915527 18.59429359436035 15.77888107299805 18.57215309143066 C 20.02116012573242 18.3629322052002 24.04413223266602 17.19881248474121 27.10672187805176 15.29422283172607 C 30.09546089172363 13.43556308746338 31.79579162597656 11.10552310943604 31.89447212219238 8.733323097229004 C 31.95744132995605 7.219733238220215 31.37441062927246 5.811223030090332 30.16160202026367 4.546902656555176 C 27.73078155517578 2.012863159179688 23.17178153991699 0.5000038146972656 17.96628189086914 0.5000038146972656 M 17.96628570556641 0 C 26.25152969360352 0 32.6014404296875 3.768476486206055 32.39404296875 8.75410270690918 C 32.17534255981445 14.01118278503418 24.74752044677734 18.63045310974121 15.80351066589355 19.07154273986816 C 6.8594970703125 19.51263427734375 -0.2137489318847656 15.60850238800049 0.004940032958984375 10.3514232635498 C 0.2236328125 5.094343185424805 7.651472091674805 0.4750728607177734 16.5954704284668 0.03398323059082031 C 17.05730056762695 0.01120758056640625 17.51517868041992 0 17.96628570556641 0 Z"/></g></g><ellipse class="e" cx="15.114" cy="10.423" rx="15.114" ry="10.423" transform="matrix(0.342, 0.94, -0.94, 0.342, 901.186, 416.148)"/><ellipse class="f" cx="14.124" cy="9.135" rx="14.124" ry="9.135" transform="matrix(0.342, 0.94, -0.94, 0.342, 899.144, 414.936)"/><g class="g" transform="matrix(0.342, 0.94, -0.94, 0.342, 900.615, 414.372)"><path class="am" d="M 13.24529647827148 18.0690803527832 C 6.052096366882324 18.0690803527832 0.1999964714050293 14.06106090545654 0.1999964714050293 9.134540557861328 C 0.1999964714050293 4.208020687103271 6.052096366882324 0.2000005543231964 13.24529647827148 0.2000005543231964 C 20.43849563598633 0.2000005543231964 26.29059600830078 4.208020687103271 26.29059600830078 9.134540557861328 C 26.29059600830078 14.06106090545654 20.43849563598633 18.0690803527832 13.24529647827148 18.0690803527832 Z"/><path class="an" d="M 13.24529647827148 0.3999996185302734 C 6.162376403808594 0.3999996185302734 0.3999958038330078 4.318300247192383 0.3999958038330078 9.134540557861328 C 0.3999958038330078 13.95078086853027 6.162376403808594 17.86907958984375 13.24529647827148 17.86907958984375 C 20.32821655273438 17.86907958984375 26.09059715270996 13.95078086853027 26.09059715270996 9.134540557861328 C 26.09059715270996 4.318300247192383 20.32821655273438 0.3999996185302734 13.24529647827148 0.3999996185302734 M 13.24529647827148 0 C 20.56046676635742 0 26.49059677124023 4.089670181274414 26.49059677124023 9.134540557861328 C 26.49059677124023 14.17941093444824 20.56046676635742 18.26908111572266 13.24529647827148 18.26908111572266 C 5.930116653442383 18.26908111572266 -3.814697265625e-06 14.17941093444824 -3.814697265625e-06 9.134540557861328 C -3.814697265625e-06 4.089670181274414 5.930116653442383 0 13.24529647827148 0 Z"/></g></g><g class="p" transform="translate(827 201.578)"><path class="am" d="M147.5,0A147.5,147.5,0,1,1,0,147.5,147.5,147.5,0,0,1,147.5,0Z"/><path class="ap" d="M 147.5 30 C 82.71026611328125 30 30 82.71026611328125 30 147.5 C 30 212.2897338867188 82.71026611328125 265 147.5 265 C 212.2897338867188 265 265 212.2897338867188 265 147.5 C 265 82.71026611328125 212.2897338867188 30 147.5 30 M 147.5 0 C 228.9620056152344 0 295 66.03799438476562 295 147.5 C 295 228.9620056152344 228.9620056152344 295 147.5 295 C 66.03799438476562 295 0 228.9620056152344 0 147.5 C 0 66.03799438476562 66.03799438476562 0 147.5 0 Z"/></g><g class="ar" transform="matrix(1, 0, 0, 1, 494, 186)"><rect class="q" width="141" height="169" rx="8" transform="translate(304 141.58)"/></g><g class="aq" transform="matrix(1, 0, 0, 1, 494, 186)"><rect class="r" width="180" height="215" rx="8" transform="translate(391 116.58)"/></g><g transform="translate(11753 2333.578)"><g class="s" transform="translate(-10928 -2065)"><circle class="t" cx="140" cy="140" r="140" transform="translate(10 12)"/></g><g transform="translate(-10845.518 -1977.863)"><path class="u" d="M31.741-6A37.784,37.784,0,0,1,69.483,31.741v63.39H-6V31.741A37.784,37.784,0,0,1,31.741-6ZM53.3,78.948V31.741A21.583,21.583,0,0,0,31.741,10.183h0A21.583,21.583,0,0,0,10.183,31.741V78.948Z" transform="translate(35.65 42.407)"/><path class="v" d="M46.566-6A52.626,52.626,0,0,1,99.132,46.566v66.768H-6V46.566A52.626,52.626,0,0,1,46.566-6ZM82.95,97.152V46.566A36.425,36.425,0,0,0,46.566,10.183h0A36.425,36.425,0,0,0,10.183,46.566V97.152Z" transform="translate(35.65 24.203)"/><path class="w" d="M61.391-6a67.468,67.468,0,0,1,67.391,67.391v70.147H-6V61.391A67.467,67.467,0,0,1,61.391-6ZM112.6,115.355V61.391A51.266,51.266,0,0,0,61.391,10.183h0A51.266,51.266,0,0,0,10.183,61.391v53.964Z" transform="translate(6 6)"/><path class="r" d="M21.978,0h0A21.978,21.978,0,0,1,43.956,21.978V68.52a0,0,0,0,1,0,0H0a0,0,0,0,1,0,0V21.978A21.978,21.978,0,0,1,21.978,0Z" transform="translate(45.577 52.489)"/></g><circle class="x" cx="6.981" cy="6.981" r="6.981" transform="translate(-10852.979 -1926.925)"/><circle class="c" cx="4.5" cy="4.5" r="4.5" transform="translate(-10715 -1987)"/><circle class="y" cx="5.171" cy="5.171" r="5.171" transform="translate(-10762.775 -1880.134)"/><circle class="z" cx="5.947" cy="5.947" r="5.947" transform="translate(-10748.274 -1908.075)"/><circle class="aa" cx="4.137" cy="4.137" r="4.137" transform="translate(-10792.23 -1895.68)"/></g><g transform="translate(-211.505 -695.263) rotate(37)"><g transform="translate(1457 209.729)"><path class="ab" d="M21.762,20.756a7,7,0,0,1,13.33,0L53.919,79.39a7,7,0,0,1-6.665,9.14H9.6a7,7,0,0,1-6.665-9.14Z" transform="translate(64.164 141.323) rotate(180)"/><path class="ac" d="M8.649,0s1.11,5.947-2.321,10.113a9.237,9.237,0,0,1-2.982,2.342c-6.97,3.524-.887,18.29-.887,18.29" transform="translate(24.973 36.867) rotate(156)"/><path class="ac" d="M27.84,0s-15.3.612-17.132,12.237S0,23.969,0,23.969" transform="matrix(0.755, -0.656, 0.656, 0.755, 18.58, 20.934)"/><path class="ac" d="M36.9.245S25.739-1.7,23.568,5.364C18.917,16.312,8.993,1.663,0,8.336" transform="translate(42.96 35.913) rotate(-50)"/><ellipse class="ad" cx="3.655" cy="4.061" rx="3.655" ry="4.061" transform="translate(47.92 13.807)"/><ellipse class="ad" cx="1.624" cy="2.031" rx="1.624" ry="2.031" transform="translate(25.178 30.051)"/><circle class="ae" cx="3.249" cy="3.249" r="3.249" transform="translate(16.244)"/><ellipse class="af" cx="3.249" cy="3.655" rx="3.249" ry="3.655" transform="translate(0 28.427)"/><rect class="ag" width="8.664" height="3.567" rx="1.784" transform="translate(21.323 15.77) rotate(-48)"/><rect class="ag" width="8.122" height="4.061" rx="2.031" transform="translate(11.371 16.244) rotate(90)"/><rect class="ah" width="8.664" height="3.567" rx="1.784" transform="translate(71.53 42.855) rotate(160)"/><path class="aa" d="M25.653,73.011a7.044,7.044,0,0,1-3.988-1.21,6.911,6.911,0,0,1-2.67-3.629L-.166,9.161A7,7,0,0,1,6.491,0H25.907V73.006C25.822,73.009,25.737,73.011,25.653,73.011Z" transform="translate(9.767 52.393)"/><path class="ai" d="M1.986,15.8-.169,9.162A7,7,0,0,1,6.488,0H44.812a7,7,0,0,1,6.657,9.162L49.314,15.8Z" transform="translate(9.77 52.647)"/><path class="aj" d="M25.907,15.8H1.988L-.166,9.162A7,7,0,0,1,6.491,0H25.907V15.8Z" transform="translate(9.768 52.647)"/><rect class="ak" width="60.915" height="8.934" rx="4.467" transform="translate(5.217 47.926)"/><path class="al" d="M30.8,8.934H4.467A4.467,4.467,0,0,1,4.467,0H30.8V8.933Z" transform="translate(4.873 47.92)"/></g><path class="aj" d="M0,.057A10.268,10.268,0,0,1,1.081,0,10.154,10.154,0,0,1,6.138,18.958Z" transform="translate(1471.757 287.108)"/><path class="ai" d="M0,6.9A6.833,6.833,0,0,1,6.76,0a6.733,6.733,0,0,1,5.862,3.465L9.515,13.209a6.617,6.617,0,0,1-2.755.6A6.833,6.833,0,0,1,0,6.9Z" transform="translate(1495.986 297.667)"/><circle class="ai" cx="4.061" cy="4.061" r="4.061" transform="translate(1495.986 280.611)"/><circle class="aj" cx="2.031" cy="2.031" r="2.031" transform="translate(1485.427 317.972)"/></g></g></svg>