<svg xmlns="http://www.w3.org/2000/svg" xmlns:xlink="http://www.w3.org/1999/xlink" width="32" height="32" viewBox="0 0 32 32"><defs><style>.a{opacity:0;}.b{fill:#f9e2e2;}.c{fill:#ffbcbc;}.d{fill:#e1e2e2;opacity:0.82;}.e,.f,.i{fill:none;}.f{stroke:#2a2e31;}.g,.h{stroke:none;}.h{fill:#2a2e31;}.i{clip-path:url(#b);}</style><clipPath id="b"><use xlink:href="#a"/></clipPath></defs><g class="a" transform="translate(9 4)"><path class="b" d="M0,0H24V24H0Z" transform="translate(-5)"/><rect class="c" width="16" height="16" transform="translate(-1 4)"/></g><circle class="d" cx="16" cy="16" r="16"/><g transform="translate(-1277 -407)"><g transform="translate(3 -3)"><g class="e" transform="translate(1282 418.707) rotate(-45)"><path class="g" d="M.5,0A.5.5,0,0,1,1,.5V21.047a.5.5,0,0,1-1,0V.5A.5.5,0,0,1,.5,0Z"/><path class="h" d="M 0.5 -3.814697265625e-06 C 0.7761399745941162 -3.814697265625e-06 1 0.2238559722900391 1 0.4999961853027344 L 1 21.04679489135742 C 1 21.32293510437012 0.7761399745941162 21.54678535461426 0.5 21.54678535461426 C 0.2238600254058838 21.54678535461426 0 21.32293510437012 0 21.04679489135742 L 0 0.4999961853027344 C 0 0.2238559722900391 0.2238600254058838 -3.814697265625e-06 0.5 -3.814697265625e-06 Z"/></g><g class="f" transform="translate(1282.707 433.943) rotate(-135)"><rect id="a" class="g" width="1" height="21.547" rx="0.5"/><path class="i" d="M0,0.5h0.9999926090240479M0.5,0v21.546632766723633M0.9999926090240479,21.046632766723633h-0.9999926090240479M0.49999260902404785,21.546632766723633v-21.546632766723633"/></g></g></g></svg>