<svg xmlns="http://www.w3.org/2000/svg" xmlns:xlink="http://www.w3.org/1999/xlink" width="933" height="378.763" viewBox="0 0 933 378.763"><defs><style>.a,.j{fill:none;}.b{fill:#4cd491;opacity:0.15;}.c,.f{fill:#e6e5e8;}.c,.e,.i,.j,.k{opacity:0.4;}.d{fill:#778cf4;}.e{fill:#0ad7b6;}.f{opacity:0.7;}.g,.l{fill:#fff;}.h{fill:#8b3dd9;opacity:0.08;}.i{fill:#cddbe5;}.k,.t{fill:#17bfa1;}.l{stroke:#150029;stroke-linecap:round;stroke-linejoin:round;stroke-width:3px;}.m{fill:#7d59c7;}.n{fill:#6b06b3;}.o{fill:#2873f7;}.p{fill:#145cdb;}.q{fill:#f4e5c4;}.r{fill:#f23d64;}.s{fill:#faac30;}.u{fill:#9522e0;}.v{fill:#dd1c45;}.w{fill:#e7991c;}.x{fill:#1761e3;}.y{fill:#0baf92;}.z{fill:#7f14c4;}.aa,.ab{stroke:none;}.ab{fill:#a2e5d9;}.ac{filter:url(#c);}.ad{filter:url(#a);}</style><filter id="a" x="272" y="0" width="364" height="346" filterUnits="userSpaceOnUse"><feOffset dy="16" input="SourceAlpha"/><feGaussianBlur stdDeviation="16" result="b"/><feFlood flood-opacity="0.078"/><feComposite operator="in" in2="b"/><feComposite in="SourceGraphic"/></filter><filter id="c" x="345" y="45.763" width="289" height="289" filterUnits="userSpaceOnUse"><feOffset dy="8" input="SourceAlpha"/><feGaussianBlur stdDeviation="5" result="d"/><feFlood flood-opacity="0.161"/><feComposite operator="in" in2="d"/><feComposite in="SourceGraphic"/></filter></defs><g transform="translate(-494 -187.237)"><rect class="a" width="933" height="373" transform="translate(494 193)"/><path class="b" d="M0,0H92V41H0Z" transform="translate(783.207 249)"/><rect class="c" width="89" height="86" rx="43" transform="translate(814 436)"/><circle class="d" cx="13.5" cy="13.5" r="13.5" transform="translate(792 314)"/><g transform="translate(315.207 54)"><rect class="e" width="158" height="32" transform="translate(712.239 310) rotate(90)"/><path class="f" d="M28.239,0,56.478,30.411H0Z" transform="translate(668 281.589)"/></g><g class="ad" transform="matrix(1, 0, 0, 1, 494, 187.24)"><rect class="g" width="268" height="250" rx="8" transform="translate(320 32)"/></g><rect class="h" width="92" height="41" transform="translate(1044.207 290)"/><g transform="translate(45 46)"><rect class="i" width="169" height="70" rx="4" transform="translate(789 211)"/><g class="j" transform="translate(789 301)"><path class="aa" d="M4,0H165a4,4,0,0,1,4,4V21a4,4,0,0,1-4,4H4a4,4,0,0,1-4-4V4A4,4,0,0,1,4,0Z"/><path class="ab" d="M 4 1 C 2.345809936523438 1 1 2.345804214477539 1 4 L 1 21 C 1 22.65419578552246 2.345809936523438 24 4 24 L 165 24 C 166.6541900634766 24 168 22.65419578552246 168 21 L 168 4 C 168 2.345804214477539 166.6541900634766 1 165 1 L 4 1 M 4 0 L 165 0 C 167.2091369628906 0 169 1.790868759155273 169 4 L 169 21 C 169 23.20913124084473 167.2091369628906 25 165 25 L 4 25 C 1.790863037109375 25 0 23.20913124084473 0 21 L 0 4 C 0 1.790868759155273 1.790863037109375 0 4 0 Z"/></g><rect class="k" width="169" height="39" rx="4" transform="translate(789 356)"/></g><g class="ac" transform="matrix(1, 0, 0, 1, 494, 187.24)"><rect class="g" width="259" height="259" rx="8" transform="translate(360 52.76)"/></g><rect class="l" width="192" height="192" transform="translate(888 274)"/><circle class="d" cx="32" cy="32" r="32" transform="translate(783 392)"/><rect class="m" width="64" height="119" rx="5" transform="translate(1134 376)"/><path class="n" d="M5,119a5,5,0,0,1-5-5V5A5,5,0,0,1,5,0H32V119Z" transform="translate(1198 495.001) rotate(180)"/><rect class="o" width="58" height="111" rx="5" transform="translate(1137 380)"/><path class="p" d="M-4758,1863V1752h24a5,5,0,0,1,5,5v101a5,5,0,0,1-5,5Z" transform="translate(5924 -1372)"/><rect class="q" width="35" height="35" transform="translate(1148 404)"/><path class="g" d="M130.876,130.876v4.314H128V128h7.19v2.876Zm0,20.131h4.314v2.876H128v-7.189h2.876v4.314Zm20.131-20.131h-4.314V128h7.19v7.19h-2.876v-4.314Zm0,20.131v-4.314h2.876v7.19h-7.189v-2.876h4.314ZM128,139.5h25.882v2.876H128Z" transform="translate(1024.559 280.559)"/><rect class="r" width="6" height="6" transform="translate(1176 363)"/><rect class="s" width="4.433" height="4.433" transform="translate(1186.044 377.571) rotate(26)"/><rect class="o" width="8.551" height="8.551" transform="matrix(0.809, 0.588, -0.588, 0.809, 1194.542, 353.199)"/><rect class="t" width="8.144" height="8.144" transform="matrix(0.951, -0.309, 0.309, 0.951, 1197.217, 371.517)"/><rect class="u" width="5.578" height="5.578" transform="matrix(0.951, -0.309, 0.309, 0.951, 1203, 353.866)"/><path class="v" d="M3,6H0V0H3V6Z" transform="translate(1179 363)"/><path class="w" d="M2.216,4.433H0V0H2.216V4.433Z" transform="translate(1188.037 378.542) rotate(26)"/><path class="x" d="M4.276,8.551H0V0H4.276V8.551Z" transform="matrix(0.809, 0.588, -0.588, 0.809, 1198.001, 355.712)"/><path class="y" d="M4.072,8.144H0V0H4.072V8.144Z" transform="matrix(0.951, -0.309, 0.309, 0.951, 1201.09, 370.258)"/><path class="z" d="M2.789,5.578H0V0H2.789V5.578Z" transform="matrix(0.951, -0.309, 0.309, 0.951, 1205.652, 353.004)"/></g></svg>