<svg xmlns="http://www.w3.org/2000/svg" xmlns:xlink="http://www.w3.org/1999/xlink" width="933" height="373" viewBox="0 0 933 373"><defs><style>.a{fill:#4cd491;opacity:0.11;}.b{fill:#e6e5e8;opacity:0.7;}.c{fill:#fff;}.d,.j{fill:#cddbe5;}.d{opacity:0.4;}.e{fill:#0ad7b6;}.f{fill:#778cf4;}.g,.t{fill:#f23d64;}.g{opacity:0.08;}.h{fill:#b4b3b7;opacity:0.48;}.i{fill:#dae4f3;}.k{fill:#145cdb;}.l{fill:#2873f7;}.m{fill:#6b06b3;}.n{fill:#7d59c7;}.o{fill:#00ccab;}.p{opacity:0.8;}.q{fill:none;}.r{fill:#1761e3;}.s{fill:#dd1c45;}.u{fill:#faac30;}.v{fill:#e7991c;}.w{fill:#9522e0;}.x{fill:#7f14c4;}.y{fill:#17bfa1;}.z{fill:#0baf92;}.aa{filter:url(#c);}.ab{filter:url(#a);}</style><filter id="a" x="178" y="23" width="358" height="271" filterUnits="userSpaceOnUse"><feOffset dy="16" input="SourceAlpha"/><feGaussianBlur stdDeviation="16" result="b"/><feFlood flood-opacity="0.078"/><feComposite operator="in" in2="b"/><feComposite in="SourceGraphic"/></filter><filter id="c" x="242" y="31" width="231" height="289" filterUnits="userSpaceOnUse"><feOffset dy="8" input="SourceAlpha"/><feGaussianBlur stdDeviation="5" result="d"/><feFlood flood-opacity="0.078"/><feComposite operator="in" in2="d"/><feComposite in="SourceGraphic"/></filter></defs><rect class="a" width="195" height="28" transform="translate(226 292)"/><rect class="b" width="158" height="32" transform="translate(353 137)"/><g class="ab" transform="matrix(1, 0, 0, 1, 0, 0)"><rect class="c" width="262" height="175" rx="8" transform="translate(226 55)"/></g><g class="aa" transform="matrix(1, 0, 0, 1, 0, 0)"><path class="c" d="M0,0H201a0,0,0,0,1,0,0V251a8,8,0,0,1-8,8H8a8,8,0,0,1-8-8V0A0,0,0,0,1,0,0Z" transform="translate(257 38)"/></g><g transform="translate(-516 -153)"><rect class="d" width="169" height="25" rx="4" transform="translate(789 211)"/><rect class="d" width="169" height="25" rx="4" transform="translate(789 256)"/><rect class="d" width="169" height="25" rx="4" transform="translate(789 301)"/></g><g transform="translate(-517 -153)"><rect class="e" width="158" height="32" transform="translate(760 300)"/><circle class="e" cx="16" cy="16" r="16" transform="translate(716 300)"/></g><g transform="translate(278 197)"><rect class="f" width="158" height="32"/><circle class="f" cx="16" cy="16" r="16" transform="translate(170)"/></g><rect class="g" width="102" height="23" transform="translate(409 86)"/><rect class="h" width="28" height="4" rx="2" transform="translate(282 68)"/><rect class="h" width="39" height="4" rx="2" transform="translate(282 113)"/><path class="i" d="M16,0H185a16,16,0,0,1,16,16V41a0,0,0,0,1,0,0H0a0,0,0,0,1,0,0V16A16,16,0,0,1,16,0Z" transform="translate(257)"/><path class="j" d="M0,0H106a0,0,0,0,1,0,0V7a8,8,0,0,1-8,8H8A8,8,0,0,1,0,7V0A0,0,0,0,1,0,0Z" transform="translate(305)"/><rect class="k" width="27" height="57.492" transform="matrix(0.719, 0.695, -0.695, 0.719, 523.348, 241.593)"/><rect class="l" width="13.58" height="57.513" transform="matrix(0.719, 0.695, -0.695, 0.719, 523.348, 241.593)"/><path class="m" d="M28.239,0,56.478,30.411H0Z" transform="translate(527.154 216.308) rotate(44)"/><path class="n" d="M0,0V30.411L28.239,0Z" transform="matrix(-0.719, -0.695, 0.695, -0.719, 526.374, 257.861)"/><g transform="translate(-494 -193)"><rect class="e" width="146.009" height="34.646" rx="6" transform="translate(1080.995 301)"/><rect class="e" width="146.009" height="34.646" rx="6" transform="translate(1080.995 340)"/><rect class="e" width="146.009" height="34.646" rx="6" transform="translate(1080.995 380)"/><g transform="translate(-6)"><g transform="translate(1108.101 313)"><circle class="o" cx="5.269" cy="5.269" r="5.269"/><g transform="translate(17.123 2.634)"><rect class="c" width="22.392" height="5.269" rx="2"/><rect class="c" width="5.269" height="5.269" rx="2" transform="translate(25.026)"/><rect class="c" width="5.269" height="5.269" rx="2" transform="translate(32.929)"/></g></g><g class="p" transform="translate(1192.399 308)"><rect class="c" width="3.951" height="19.757" rx="1.976" transform="translate(0 0)"/><rect class="c" width="3.951" height="19.757" rx="1.976" transform="translate(6.586 0)"/><rect class="c" width="3.951" height="19.757" rx="1.976" transform="translate(13.172 0)"/></g></g><g transform="translate(-6 40)"><g transform="translate(1108.101 313)"><circle class="o" cx="5.269" cy="5.269" r="5.269"/><g transform="translate(17.123 2.634)"><rect class="c" width="22.392" height="5.269" rx="2"/><rect class="c" width="5.269" height="5.269" rx="2" transform="translate(25.026)"/><rect class="c" width="5.269" height="5.269" rx="2" transform="translate(32.929)"/></g></g><g class="p" transform="translate(1192.399 308)"><rect class="c" width="3.951" height="19.757" rx="1.976" transform="translate(0 0)"/><rect class="c" width="3.951" height="19.757" rx="1.976" transform="translate(6.586 0)"/><rect class="c" width="3.951" height="19.757" rx="1.976" transform="translate(13.172 0)"/></g></g><g transform="translate(-6 79)"><g transform="translate(1108.101 313)"><path class="o" d="M5.269,0A5.269,5.269,0,1,1,0,5.269,5.269,5.269,0,0,1,5.269,0Z"/><g transform="translate(17.123 2.634)"><rect class="c" width="22.392" height="5.269" rx="2"/><rect class="c" width="5.269" height="5.269" rx="2" transform="translate(25.026)"/><rect class="c" width="5.269" height="5.269" rx="2" transform="translate(32.929)"/></g></g><g class="p" transform="translate(1192.399 308)"><rect class="c" width="3.951" height="19.757" rx="1.976" transform="translate(0 0)"/><rect class="c" width="3.951" height="19.757" rx="1.976" transform="translate(6.586 0)"/><rect class="c" width="3.951" height="19.757" rx="1.976" transform="translate(13.172 0)"/></g></g></g><rect class="q" width="933" height="373"/><rect class="r" width="8" height="25" rx="4" transform="matrix(1, 0, 0, 1, 542, 186)"/><path class="l" d="M4,28H4a4,4,0,0,1-4-4V7A4,4,0,0,1,4,3V28Z" transform="translate(542 183)"/><g transform="translate(-6.548 455.577) rotate(-45)"><rect class="s" width="8" height="25" rx="4" transform="matrix(1, 0, 0, 1, 542, 186)"/><path class="t" d="M4,28H4a4,4,0,0,1-4-4V7A4,4,0,0,1,4,3V28Z" transform="translate(542 183)"/></g><g transform="translate(568.091 220.335) rotate(-135)"><path class="u" d="M4,0A4,4,0,0,1,8,4V21a4,4,0,0,1-8,0V4A4,4,0,0,1,4,0Z" transform="translate(0 0)"/><path class="v" d="M4,25H4a4.005,4.005,0,0,1-4-4V4A4,4,0,0,1,4,0V25Z" transform="translate(0 0)"/></g><g transform="translate(571.402 239.874) rotate(-90)"><path class="w" d="M4,0A4,4,0,0,1,8,4V21a4,4,0,0,1-8,0V4A4,4,0,0,1,4,0Z" transform="translate(0 0)"/><path class="x" d="M4,25H4a4.005,4.005,0,0,1-4-4V4A4,4,0,0,1,4,0V25Z" transform="translate(0 0)"/></g><g transform="translate(561.218 256.664) rotate(-45)"><path class="y" d="M4,0A4,4,0,0,1,8,4V21a4,4,0,0,1-8,0V4A4,4,0,0,1,4,0Z" transform="translate(0 0)"/><path class="z" d="M4,25H4a4.005,4.005,0,0,1-4-4V4A4,4,0,0,1,4,0V25Z" transform="translate(0 0)"/></g></svg>