<svg xmlns="http://www.w3.org/2000/svg" xmlns:xlink="http://www.w3.org/1999/xlink" width="88" height="88" viewBox="0 0 88 88"><defs><style>.a{fill:none;}.b{fill:#fff;}.c{fill:#ececee;}.d{fill:#1dbfa2;}.e{fill:#c09;}.f{filter:url(#a);}</style><filter id="a" x="1" y="2" width="86" height="86" filterUnits="userSpaceOnUse"><feOffset dy="1" input="SourceAlpha"/><feGaussianBlur stdDeviation="1" result="b"/><feFlood flood-opacity="0.078"/><feComposite operator="in" in2="b"/><feComposite in="SourceGraphic"/></filter></defs><g transform="translate(-1380 -240)"><g transform="translate(961 -250)"><rect class="a" width="88" height="88" transform="translate(419 490)"/><g transform="translate(0 -229)"><g transform="translate(39 111)"><g class="f" transform="matrix(1, 0, 0, 1, 380, 608)"><rect class="b" width="80" height="80" rx="8" transform="translate(4 4)"/></g><g transform="translate(246 204)"><rect class="a" width="80" height="80" transform="translate(138 408)"/></g></g><g transform="translate(-198 55)"><circle class="c" cx="28" cy="28" r="28" transform="translate(633 680)"/><g transform="translate(639.258 686.258)"><rect class="a" width="44" height="44" transform="translate(-0.258 -0.258)"/></g></g></g></g><g transform="translate(1412.48 251.265)"><path class="d" d="M7148.615,2177.378a8.8,8.8,0,1,1-3.793-15.013,2.253,2.253,0,1,0,1.11-4.366,13.307,13.307,0,1,0,5.733,22.7,2.253,2.253,0,0,0-3.05-3.317Z" transform="translate(-7129.353 -2138.163)"/><circle class="e" cx="2.252" cy="2.252" r="2.252" transform="translate(18.531 22.344)"/></g></g></svg>