<svg xmlns="http://www.w3.org/2000/svg" width="80" height="80" viewBox="0 0 80 80"><defs><style>.a{fill:#fff;}.b{fill:none;}.c{fill:#ececee;}.d{fill:#1dbfa2;}.e{fill:#c09;}</style></defs><g transform="translate(-1386 -443)"><g transform="translate(867 -280)"><g transform="translate(135 111)"><rect class="a" width="80" height="80" rx="8" transform="translate(384 612)"/><g transform="translate(246 204)"><rect class="b" width="80" height="80" transform="translate(138 408)"/></g></g><g transform="translate(-326 47)"><path class="c" d="M28,0A28,28,0,1,1,0,28,28,28,0,0,1,28,0Z" transform="translate(857 688)"/></g></g><g transform="translate(1414 450.572)"><path class="d" d="M7148.615,2177.378a8.8,8.8,0,1,1-3.793-15.013,2.253,2.253,0,1,0,1.11-4.366,13.307,13.307,0,1,0,5.733,22.7,2.253,2.253,0,0,0-3.05-3.317Z" transform="translate(-7129.353 -2138.163)"/><circle class="e" cx="2.252" cy="2.252" r="2.252" transform="translate(18.531 22.344)"/></g></g></svg>