<svg xmlns="http://www.w3.org/2000/svg" xmlns:xlink="http://www.w3.org/1999/xlink" width="933" height="373" viewBox="0 0 933 373"><defs><style>.a{fill:none;}.b{fill:#4cd491;opacity:0.11;}.c{fill:#e6e5e8;}.c,.f{opacity:0.4;}.d{fill:url(#a);}.e{fill:#fff;}.f,.i{fill:#cddbe5;}.g{fill:#ebf1f5;}.h{fill:url(#f);}.j{fill:#0ad7b6;}.k{fill:#8600e6;}.l{fill:#145cdb;}.m{fill:#2873f7;}.n{fill:#6b06b3;}.o{fill:#7d59c7;}.p{fill:#e9dabd;}.q{fill:#f4e5c4;}.r,.s,.t{fill:#778cf4;}.s{opacity:0.2;}.t{opacity:0.1;}.u{filter:url(#d);}.v{filter:url(#b);}</style><linearGradient id="a" x1="0.5" x2="0.5" y2="1" gradientUnits="objectBoundingBox"><stop offset="0" stop-color="#d7e2f3"/><stop offset="1" stop-color="#d1dbec" stop-opacity="0"/></linearGradient><filter id="b" x="271" y="118" width="403" height="202" filterUnits="userSpaceOnUse"><feOffset dy="8" input="SourceAlpha"/><feGaussianBlur stdDeviation="5" result="c"/><feFlood flood-opacity="0.039"/><feComposite operator="in" in2="c"/><feComposite in="SourceGraphic"/></filter><filter id="d" x="228" y="32" width="488" height="174" filterUnits="userSpaceOnUse"><feOffset dy="8" input="SourceAlpha"/><feGaussianBlur stdDeviation="5" result="e"/><feFlood flood-opacity="0.039"/><feComposite operator="in" in2="e"/><feComposite in="SourceGraphic"/></filter><linearGradient id="f" x1="0.5" y1="0.017" x2="0.5" y2="0.946" gradientUnits="objectBoundingBox"><stop offset="0" stop-color="#00d1af"/><stop offset="0.097" stop-color="#0ac4b2"/><stop offset="0.273" stop-color="#24a4ba"/><stop offset="0.507" stop-color="#4f70c8"/><stop offset="0.528" stop-color="#546bca"/><stop offset="0.768" stop-color="#6c36d7"/><stop offset="1" stop-color="#8600e6"/></linearGradient></defs><g transform="translate(-494 -193)"><rect class="a" width="933" height="373" transform="translate(494 193)"/><g transform="translate(6)"><rect class="b" width="195" height="28" transform="translate(997 476)"/><rect class="c" width="89" height="86" rx="43" transform="translate(690 201)"/><rect class="d" width="266" height="373" rx="24" transform="translate(827 193)"/><g class="v" transform="matrix(1, 0, 0, 1, 488, 193)"><rect class="e" width="373" height="172" rx="8" transform="translate(286 125)"/></g><g class="u" transform="matrix(1, 0, 0, 1, 488, 193)"><rect class="e" width="458" height="144" rx="8" transform="translate(243 39)"/></g><g transform="translate(0 -16)"><rect class="f" width="218" height="7" rx="3.5" transform="translate(888 324)"/><rect class="f" width="183" height="6" rx="3" transform="translate(888 361)"/></g><g transform="translate(10 4)"><rect class="g" width="22" height="22" rx="7" transform="translate(758 276)"/><rect class="g" width="22" height="22" rx="7" transform="translate(758 302)"/><rect class="g" width="22" height="22" rx="7" transform="translate(784 276)"/><rect class="g" width="22" height="22" rx="7" transform="translate(784 302)"/></g><g transform="translate(-1635.692 -399.407)"><circle class="h" cx="22.089" cy="22.089" r="22.089" transform="translate(2437.604 810.214)"/><path class="e" d="M2453.215,835.6a3.575,3.575,0,0,1,0-6.817,12.354,12.354,0,0,1,4.793-6.7,10.773,10.773,0,1,0,0,20.228A12.352,12.352,0,0,1,2453.215,835.6Z"/><path class="e" d="M2475.84,832.2h0Z"/><path class="e" d="M2467.845,834.448a3.574,3.574,0,1,1,0-4.494l7.3-1.565a10.773,10.773,0,1,0,0,7.624Z"/></g><path class="i" d="M0,0H106a0,0,0,0,1,0,0V7a8,8,0,0,1-8,8H8A8,8,0,0,1,0,7V0A0,0,0,0,1,0,0Z" transform="translate(907 193)"/><rect class="f" width="169" height="25" rx="4" transform="translate(888 257)"/><path class="j" d="M7698,1939.345h-8a24,24,0,0,1-24-24V1855.95a24,24,0,0,1,24-24h69.983a24,24,0,0,1,24,24v59.393a24,24,0,0,1-24,24H7705v-21.292a3.5,3.5,0,1,0-7,0v21.292Zm27.371-116.47a37.314,37.314,0,1,1,14.572-2.942A37.2,37.2,0,0,1,7725.37,1822.875Z" transform="translate(-6769 -1487.552)"/><g transform="translate(3151.022 6462.602) rotate(47)"><rect class="k" width="8" height="23" rx="4" transform="translate(-5873 -2505)"/><path class="l" d="M10,0H24A10,10,0,0,1,34,10V28H0V10A10,10,0,0,1,10,0Z" transform="translate(-5886 -2613)"/><path class="m" d="M17,46H0V28A10.011,10.011,0,0,1,10,18h7V46Z" transform="translate(-5886 -2631)"/><rect class="n" width="34" height="66" transform="translate(-5886 -2586)"/><path class="o" d="M0,133V67H17v66H0Z" transform="translate(-5886 -2653)"/><path class="p" d="M17,0,34,30H0Z" transform="translate(-5852 -2490) rotate(180)"/><path class="q" d="M0,30H17L0,0Z" transform="translate(-5869 -2490) rotate(180)"/></g><g transform="translate(-134 -68)"><circle class="r" cx="28" cy="28" r="28" transform="translate(1272 300)"/><circle class="s" cx="40" cy="40" r="40" transform="translate(1260 288)"/><circle class="t" cx="52" cy="52" r="52" transform="translate(1248 276)"/><g transform="translate(1290.378 318.378)"><path class="e" d="M469.828,470.645a.807.807,0,1,0-.808-.807A.809.809,0,0,0,469.828,470.645Z" transform="translate(-460.206 -460.215)"/><path class="e" d="M19.192,8.521A9.32,9.32,0,0,0,17.216,3.7,9.339,9.339,0,0,0,11.307.154,10.688,10.688,0,0,0,9.531,0,9.329,9.329,0,0,0,3.508,2.209,9.234,9.234,0,0,0,.154,7.957a9.365,9.365,0,0,0,2.1,7.848A9.393,9.393,0,0,0,8,19.116a8.2,8.2,0,0,0,.88.09l.056,0c.123.008.251.017.374.029.037,0,.159,0,.228.005.173,0,.391,0,.454-.005a9.55,9.55,0,0,0,9.037-7.519,9.422,9.422,0,0,0,.151-1.055v0c.017-.167.034-.33.055-.494s-.008-1.323-.045-1.647ZM3.918,4A7.994,7.994,0,0,1,9.635,1.6h.02V1.567l.011.036h.015a8.06,8.06,0,0,1,7.984,8.081,7.918,7.918,0,0,1-.649,3.1A8.072,8.072,0,0,1,9.6,17.658h0a7.986,7.986,0,0,1-5.7-2.414A7.843,7.843,0,0,1,1.614,9.609,7.812,7.812,0,0,1,3.918,4Z" transform="translate(0)"/><path class="e" d="M260.208,269.125a.939.939,0,0,0,.293-.055c1.791-.594,3.872-1.283,5.912-1.957a.915.915,0,0,0,.613-.606l1.946-5.908a1.52,1.52,0,0,0,.051-.216v0a.7.7,0,0,0-.21-.5.8.8,0,0,0-.565-.237.734.734,0,0,0-.225.036l-1.608.517c-1.3.418-2.765.891-4.2,1.347a.9.9,0,0,0-.646.63c-.681,2.087-1.385,4.179-1.991,5.976a.754.754,0,0,0,.243.81A.516.516,0,0,0,260.208,269.125Zm2.727-6.34,4.269-1.369c-.128.389-.652,1.97-.657,1.987l-.088.268c-.22.672-.448,1.367-.668,2.051a.242.242,0,0,1-.182.188c-.981.32-1.974.648-2.827.931l-1.447.478c.127-.382,1.149-3.458,1.461-4.4A.172.172,0,0,1,262.935,262.785Z" transform="translate(-254.656 -254.761)"/></g></g></g></g></svg>