<svg xmlns="http://www.w3.org/2000/svg" xmlns:xlink="http://www.w3.org/1999/xlink" width="933" height="380" viewBox="0 0 933 380"><defs><style>.a{fill:#faac30;}.b{fill:#e7991c;}.c{fill:#2873f7;}.d{fill:#1761e3;}.e,.f{fill:#e6e5e8;}.e,.m{opacity:0.4;}.f{opacity:0.7;}.g{fill:#fff;}.h,.t{fill:#8b3dd9;}.h,.i{opacity:0.08;}.i,.j{fill:#11daba;}.j{opacity:0.3;}.k{fill:#12dbbb;}.l,.m{fill:#b4b3b7;}.l{opacity:0.48;}.n{fill:#778cf4;}.ag,.o{fill:none;}.o{stroke:#192262;stroke-width:2px;}.p{fill:#192262;}.q{fill:#0ad7b6;}.r{fill:#17bfa1;}.s{fill:#0baf92;}.u{fill:#964edf;}.ab,.v,.y{fill:#421c69;}.v{opacity:0.34;}.w{fill:#562b84;}.aa,.af,.x{fill:#7025ba;}.y{opacity:0.78;}.z{fill:#7c47b6;}.aa{stroke:#9666be;}.aa,.af{stroke-width:0.5px;}.ab{opacity:0.67;}.ac{fill:#6e3ba5;}.ad{fill:#5c17a1;}.ae{fill:#522b7c;}.af{stroke:#9983ac;}.ah,.ai,.aj{stroke:none;}.ai{fill:#9983ac;}.aj{fill:rgba(153,131,172,0.5);}.ak{filter:url(#i);}.al{filter:url(#g);}.am{filter:url(#e);}.an{filter:url(#c);}.ao{filter:url(#a);}</style><filter id="a" x="282.207" y="49.759" width="358" height="271" filterUnits="userSpaceOnUse"><feOffset dy="16" input="SourceAlpha"/><feGaussianBlur stdDeviation="16" result="b"/><feFlood flood-opacity="0.078"/><feComposite operator="in" in2="b"/><feComposite in="SourceGraphic"/></filter><filter id="c" x="346.207" y="32.759" width="231" height="289" filterUnits="userSpaceOnUse"><feOffset dy="8" input="SourceAlpha"/><feGaussianBlur stdDeviation="5" result="d"/><feFlood flood-opacity="0.078"/><feComposite operator="in" in2="d"/><feComposite in="SourceGraphic"/></filter><filter id="e" x="273.207" y="279.759" width="194" height="68" filterUnits="userSpaceOnUse"><feOffset dy="8" input="SourceAlpha"/><feGaussianBlur stdDeviation="5" result="f"/><feFlood flood-opacity="0.078"/><feComposite operator="in" in2="f"/><feComposite in="SourceGraphic"/></filter><filter id="g" x="462.207" y="0" width="194" height="68" filterUnits="userSpaceOnUse"><feOffset dy="8" input="SourceAlpha"/><feGaussianBlur stdDeviation="5" result="h"/><feFlood flood-opacity="0.078"/><feComposite operator="in" in2="h"/><feComposite in="SourceGraphic"/></filter><filter id="i" x="541.139" y="206.63" width="109.194" height="109.194" filterUnits="userSpaceOnUse"><feOffset dy="8" input="SourceAlpha"/><feGaussianBlur stdDeviation="5" result="j"/><feFlood flood-color="#5c17a1" flood-opacity="0.078"/><feComposite operator="in" in2="j"/><feComposite in="SourceGraphic"/></filter></defs><g transform="translate(-494 -186)"><g transform="translate(0.207 -5.241)"><g transform="translate(1208.086 1691.379) rotate(-111)"><path class="a" d="M5.01,7.1a1,1,0,0,1,1.981,0l4.851,34.764A1,1,0,0,1,10.851,43h-9.7a1,1,0,0,1-.99-1.138Z" transform="translate(1212.364 381.144)"/><path class="b" d="M3515.149,1778.144a1,1,0,0,1-.99-1.139l4.85-34.763a.96.96,0,0,1,.627-.8v36.7h-4.488Z" transform="translate(-2301.636 -1354)"/></g><g transform="matrix(-0.848, -0.53, 0.53, -0.848, 1952.227, 1371.597)"><path class="c" d="M5.01,7.1a1,1,0,0,1,1.981,0l4.851,34.764A1,1,0,0,1,10.851,43h-9.7a1,1,0,0,1-.99-1.138Z" transform="translate(1212.364 381.144)"/><path class="d" d="M3515.149,1778.144a1,1,0,0,1-.99-1.139l4.85-34.763a.96.96,0,0,1,.627-.8v36.7h-4.488Z" transform="translate(-2301.636 -1354)"/></g><g transform="translate(334 44.763)"><rect class="e" width="158" height="32" transform="translate(712.239 310) rotate(90)"/><path class="f" d="M28.239,0,56.478,30.411H0Z" transform="translate(668 281.589)"/></g><g transform="translate(153.296 -68)"><rect class="e" width="158" height="32" transform="translate(712 312) rotate(90)"/><path class="e" d="M28.239,0,56.478,30.411H0Z" transform="translate(668 281.589)"/></g><g class="ao" transform="matrix(1, 0, 0, 1, 493.79, 191.24)"><rect class="g" width="262" height="175" rx="8" transform="translate(330.21 81.76)"/></g><rect class="h" width="102" height="41" transform="translate(795 299)"/><rect class="i" width="102" height="41" transform="translate(1002 384)"/><g class="an" transform="matrix(1, 0, 0, 1, 493.79, 191.24)"><rect class="g" width="201" height="259" rx="8" transform="translate(361.21 39.76)"/></g><circle class="j" cx="40" cy="40" r="40" transform="translate(915 322)"/><g transform="translate(932.82 346.27)"><rect class="k" width="6.952" height="23.636" rx="3" transform="translate(0 14.747) rotate(-45)"/><rect class="k" width="6.952" height="37.54" rx="3" transform="translate(17.816 31.461) rotate(-135)"/></g><rect class="l" width="88" height="7" rx="2" transform="translate(912 280)"/><rect class="m" width="21" height="4" rx="2" transform="translate(946 295)"/><g transform="translate(0 12)"><g class="am" transform="matrix(1, 0, 0, 1, 493.79, 179.24)"><rect class="n" width="164" height="38" transform="translate(288.21 286.76)"/></g><g transform="translate(1916 719.755) rotate(180)"><path class="o" d="M-2476.993-1416.823s38.271,3.5,48.806-36.313" transform="translate(3514 1732)"/><path class="p" d="M6.5,0,13,11H0Z" transform="translate(1079 270)"/></g><g transform="translate(-54 -1)"><circle class="g" cx="16" cy="16" r="16" transform="translate(843 470)"/><path class="n" d="M11.391,9.828a7.775,7.775,0,0,0-1.754-.681,4.79,4.79,0,1,0-3.629,0,7.726,7.726,0,0,0-5.95,7.487.542.542,0,0,0,1.084,0,6.678,6.678,0,0,1,9.383-6.059l.866-.747ZM4.118,4.753a3.7,3.7,0,1,1,3.7,3.676,3.7,3.7,0,0,1-3.7-3.676Zm13.86,8.582c-.045-.236-.191-.385-.366-.382h-.036a1.083,1.083,0,0,1-1.095-1.066,1.189,1.189,0,0,1,.1-.409.476.476,0,0,0-.168-.584l-.011-.007-1.054-.567-.011-.005a.559.559,0,0,0-.6.115,1.567,1.567,0,0,1-.861.465,1.561,1.561,0,0,1-.866-.474.56.56,0,0,0-.6-.119l-.011.005-1.091.584L11.3,10.9a.478.478,0,0,0-.169.583,1.156,1.156,0,0,1,.1.409,1.082,1.082,0,0,1-1.095,1.066H10.1c-.176,0-.319.146-.366.382a5.032,5.032,0,0,0-.088.8,5.031,5.031,0,0,0,.088.8c.045.232.185.382.358.382h.041a1.083,1.083,0,0,1,1.095,1.066,1.155,1.155,0,0,1-.1.409.473.473,0,0,0,.169.584l.009.007,1.032.562.011.005a.554.554,0,0,0,.6-.122,1.577,1.577,0,0,1,.879-.5,1.575,1.575,0,0,1,.886.5.552.552,0,0,0,.4.166.5.5,0,0,0,.2-.04l.011-.005,1.075-.578.011-.007a.476.476,0,0,0,.167-.584,1.156,1.156,0,0,1-.1-.409,1.082,1.082,0,0,1,1.095-1.066h.036c.176,0,.321-.146.366-.382a5.032,5.032,0,0,0,.088-.8,4.927,4.927,0,0,0-.086-.8Zm-.758,1.459a1.454,1.454,0,0,0-1.4,1.434,1.481,1.481,0,0,0,.124.551l-.927.5h0a.059.059,0,0,1-.031-.007,2.817,2.817,0,0,0-.342-.3,1.433,1.433,0,0,0-.816-.313,1.429,1.429,0,0,0-.809.308,2.408,2.408,0,0,0-.342.294.059.059,0,0,1-.031.007h0l-.893-.486a1.5,1.5,0,0,0,.124-.553,1.454,1.454,0,0,0-1.4-1.434,4.32,4.32,0,0,1-.072-.652,4.229,4.229,0,0,1,.072-.652,1.454,1.454,0,0,0,1.4-1.434,1.512,1.512,0,0,0-.124-.551L12.7,11h0a.075.075,0,0,1,.034.009,2.476,2.476,0,0,0,.339.281,1.426,1.426,0,0,0,.8.3,1.428,1.428,0,0,0,.791-.29A2.553,2.553,0,0,0,15,11.02a.06.06,0,0,1,.034-.009h0l.911.493a1.514,1.514,0,0,0-.124.553,1.454,1.454,0,0,0,1.4,1.434,4.32,4.32,0,0,1,.072.652,4.225,4.225,0,0,1-.072.65Zm-3.388-2.077a1.42,1.42,0,1,0,1.457,1.419A1.44,1.44,0,0,0,13.833,12.717Zm0,2.2a.777.777,0,1,1,.8-.776A.788.788,0,0,1,13.833,14.912Z" transform="translate(849.939 476.994)"/></g><rect class="g" width="40" height="7" rx="2" transform="translate(831 476)"/><rect class="g" width="70" height="4" rx="2" transform="translate(831 490)"/></g><g transform="translate(0 -15.759)"><g class="al" transform="matrix(1, 0, 0, 1, 493.79, 207)"><rect class="q" width="164" height="38" transform="translate(477.21 7)"/></g><g transform="translate(0 -4.496)"><path class="o" d="M-2476.993-1416.823s38.271,3.5,48.806-36.313" transform="translate(3514 1732)"/><path class="p" d="M6.5,0,13,11H0Z" transform="translate(1079 270)"/></g><g transform="translate(189 -252)"><g transform="translate(-54 -1)"><circle class="g" cx="16" cy="16" r="16" transform="translate(843 470)"/></g><rect class="g" width="40" height="7" rx="2" transform="translate(831 476)"/><rect class="g" width="70" height="4" rx="2" transform="translate(831 490)"/></g><path class="k" d="M81.443,80.361a8.522,8.522,0,0,0-5.877-7.38,4.9,4.9,0,1,0-5.327,0,8.522,8.522,0,0,0-5.877,7.38,1.035,1.035,0,0,0,0,.2.606.606,0,0,0,1.21-.061,7.359,7.359,0,0,1,14.663,0,.606.606,0,0,0,1.21.061A1.035,1.035,0,0,0,81.443,80.361ZM69.224,68.888A3.678,3.678,0,1,1,72.9,72.553,3.671,3.671,0,0,1,69.224,68.888Z" transform="translate(920.645 160)"/></g><g transform="translate(2363.685 610.663) rotate(172)"><path class="r" d="M5.01,7.1a1,1,0,0,1,1.981,0l4.851,34.764A1,1,0,0,1,10.851,43h-9.7a1,1,0,0,1-.99-1.138Z" transform="translate(1212.364 381.144)"/><path class="s" d="M3515.149,1778.144a1,1,0,0,1-.99-1.139l4.85-34.763a.96.96,0,0,1,.627-.8v36.7h-4.488Z" transform="translate(-2301.636 -1354)"/></g><g transform="translate(293.741 43.871)"><g class="ak" transform="matrix(1, 0, 0, 1, 200.05, 147.37)"><path class="t" d="M39.6,0A39.6,39.6,0,1,1,0,39.6,39.6,39.6,0,0,1,39.6,0Z" transform="translate(556.14 213.63)"/></g><path class="u" d="M15.979,71.384l0,0A39.762,39.762,0,0,1,4.354,57.665a39.314,39.314,0,0,1-3.221-8.624A39.758,39.758,0,0,1,0,39.6,39.583,39.583,0,0,1,64.021,8.427,50.173,50.173,0,0,0,15.979,71.381Z" transform="translate(756.189 361)"/><g transform="translate(792.909 362.622)"><ellipse class="v" cx="10.614" cy="7.32" rx="10.614" ry="7.32" transform="matrix(0.899, 0.438, -0.438, 0.899, 6.418, 0)"/><ellipse class="w" cx="9.301" cy="6.415" rx="9.301" ry="6.415" transform="matrix(0.899, 0.438, -0.438, 0.899, 5.624, 1.388)"/><g class="x" transform="matrix(0.899, 0.438, -0.438, 0.899, 5.625, 0.747)"><path class="ah" d="M 9.30140209197998 12.62931728363037 C 4.282872200012207 12.62931728363037 0.2000020891427994 9.841437339782715 0.2000020891427994 6.414657115936279 C 0.2000020891427994 2.987877130508423 4.282872200012207 0.1999971121549606 9.30140209197998 0.1999971121549606 C 14.31993198394775 0.1999971121549606 18.40280151367188 2.987877130508423 18.40280151367188 6.414657115936279 C 18.40280151367188 9.841437339782715 14.31993198394775 12.62931728363037 9.30140209197998 12.62931728363037 Z"/><path class="ai" d="M 9.30140209197998 0.3999967575073242 C 4.393152236938477 0.3999967575073242 0.4000015258789062 3.098167419433594 0.4000015258789062 6.414657115936279 C 0.4000015258789062 9.731146812438965 4.393152236938477 12.42931747436523 9.30140209197998 12.42931747436523 C 14.20965194702148 12.42931747436523 18.20280265808105 9.731146812438965 18.20280265808105 6.414657115936279 C 18.20280265808105 3.098167419433594 14.20965194702148 0.3999967575073242 9.30140209197998 0.3999967575073242 M 9.30140209197998 -2.86102294921875e-06 C 14.43842220306396 -2.86102294921875e-06 18.60280227661133 2.871936798095703 18.60280227661133 6.414657115936279 C 18.60280227661133 9.957377433776855 14.43842220306396 12.82931709289551 9.30140209197998 12.82931709289551 C 4.164381980895996 12.82931709289551 1.9073486328125e-06 9.957377433776855 1.9073486328125e-06 6.414657115936279 C 1.9073486328125e-06 2.871936798095703 4.164381980895996 -2.86102294921875e-06 9.30140209197998 -2.86102294921875e-06 Z"/></g></g><g transform="translate(762.565 413.586) rotate(-39)"><path class="y" d="M10.614,0c5.862,0,10.614,3.277,10.614,7.32s-4.752,7.32-10.614,7.32S0,11.362,0,7.32,4.752,0,10.614,0Z" transform="matrix(0.899, 0.438, -0.438, 0.899, 6.417, 0)"/><ellipse class="z" cx="9.684" cy="6.161" rx="9.684" ry="6.161" transform="matrix(0.899, 0.438, -0.438, 0.899, 5.771, 1.087)"/><g class="aa" transform="matrix(0.899, 0.438, -0.438, 0.899, 5.624, 0.747)"><ellipse class="ah" cx="9.301" cy="6.415" rx="9.301" ry="6.415"/><ellipse class="ag" cx="9.301" cy="6.415" rx="9.051" ry="6.165"/></g></g><g transform="translate(801.657 434.231) rotate(-84)"><ellipse class="ab" cx="11.848" cy="9.002" rx="11.848" ry="9.002" transform="matrix(0.899, 0.438, -0.438, 0.899, 8.266, 0)"/><ellipse class="ac" cx="11.55" cy="7.965" rx="11.55" ry="7.965" transform="matrix(0.899, 0.438, -0.438, 0.899, 7.473, 0.514)"/><g class="ad" transform="matrix(0.899, 0.438, -0.438, 0.899, 6.983, 1.539)"><path class="ah" d="M11.55,0C17.928,0,23.1,3.566,23.1,7.965S17.928,15.93,11.55,15.93,0,12.364,0,7.965,5.171,0,11.55,0Z"/><path class="aj" d="M 11.54953670501709 0.5000019073486328 C 5.456796646118164 0.5000019073486328 0.4999961853027344 3.848822593688965 0.4999961853027344 7.965072154998779 C 0.4999961853027344 12.08132171630859 5.456796646118164 15.43014240264893 11.54953670501709 15.43014240264893 C 17.64227676391602 15.43014240264893 22.59907722473145 12.08132171630859 22.59907722473145 7.965072154998779 C 22.59907722473145 3.848822593688965 17.64227676391602 0.5000019073486328 11.54953670501709 0.5000019073486328 M 11.54953670501709 1.9073486328125e-06 C 17.92816734313965 1.9073486328125e-06 23.09907722473145 3.566082000732422 23.09907722473145 7.965072154998779 C 23.09907722473145 12.36406230926514 17.92816734313965 15.93014240264893 11.54953670501709 15.93014240264893 C 5.170906066894531 15.93014240264893 -3.814697265625e-06 12.36406230926514 -3.814697265625e-06 7.965072154998779 C -3.814697265625e-06 3.566082000732422 5.170906066894531 1.9073486328125e-06 11.54953670501709 1.9073486328125e-06 Z"/></g></g><g transform="matrix(-0.07, 0.998, -0.998, -0.07, 781.571, 367.267)"><ellipse class="v" cx="9.771" cy="6.056" rx="9.771" ry="6.056" transform="matrix(0.848, 0.53, -0.53, 0.848, 6.978, 0)"/><ellipse class="ae" cx="9.301" cy="4.867" rx="9.301" ry="4.867" transform="translate(5.65 2.985) rotate(30)"/><g class="af" transform="matrix(0.839, 0.545, -0.545, 0.839, 5.023, 3.835)"><ellipse class="ah" cx="9.301" cy="4.612" rx="9.301" ry="4.612"/><ellipse class="ag" cx="9.301" cy="4.612" rx="9.051" ry="4.362"/></g></g><g transform="translate(760.806 393.628) rotate(51)"><path class="v" d="M8.139.012c4.364-.192,7.8,2.017,7.669,4.934s-3.771,5.438-8.135,5.63S-.125,8.559,0,5.642,3.775.2,8.139.012Z" transform="matrix(0.848, 0.53, -0.53, 0.848, 6.812, 0)"/><path class="ae" d="M8.073.021c4.327-.248,7.73,1.7,7.6,4.347s-3.742,5-8.07,5.244S-.126,7.913,0,5.265,3.746.269,8.073.021Z" transform="translate(5.589 1.314) rotate(30)"/><g class="x" transform="matrix(0.839, 0.545, -0.545, 0.839, 4.99, 2.25)"><path class="ah" d="M 6.920574188232422 8.911255836486816 C 4.427244186401367 8.911255836486816 2.24394416809082 8.187005996704102 1.080244064331055 6.973896026611328 C 0.5006841421127319 6.369736194610596 0.2220741212368011 5.696866035461426 0.2521441280841827 4.973976135253906 C 0.2993241250514984 3.839976072311401 1.112934112548828 2.725646018981934 2.543094158172607 1.836246013641357 C 4.01017427444458 0.9238860011100769 5.937484264373779 0.3662260174751282 7.969974040985107 0.2659960091114044 C 8.185153961181641 0.255376011133194 8.402164459228516 0.2499960064888 8.614984512329102 0.2499960064888 C 11.10832405090332 0.2499960064888 13.29162406921387 0.9742460250854492 14.45532417297363 2.187366008758545 C 15.03488445281982 2.791526079177856 15.3134937286377 3.464395999908447 15.28342437744141 4.187275886535645 C 15.23624420166016 5.321276187896729 14.42263412475586 6.435606002807617 12.99247455596924 7.325006008148193 C 11.52539443969727 8.23736572265625 9.598084449768066 8.795025825500488 7.56559419631958 8.895256042480469 C 7.350414276123047 8.905876159667969 7.13340425491333 8.911255836486816 6.920574188232422 8.911255836486816 Z"/><path class="ai" d="M 8.614984512329102 0.4999961853027344 C 8.406333923339844 0.4999961853027344 8.193464279174805 0.5052757263183594 7.982294082641602 0.51568603515625 C 5.991514205932617 0.613865852355957 4.106723785400391 1.158246040344238 2.675113677978516 2.048545837402344 C 1.317354202270508 2.892916202545166 0.5455636978149414 3.935545921325684 0.5019340515136719 4.984365940093994 C 0.4748039245605469 5.636575698852539 0.7300739288330078 6.247715950012207 1.260654449462891 6.800836086273193 C 2.378133773803711 7.965765953063965 4.493993759155273 8.661255836486816 6.920574188232422 8.661255836486816 C 7.129234313964844 8.661255836486816 7.342103958129883 8.655976295471191 7.553274154663086 8.645565986633301 C 9.54405403137207 8.547386169433594 11.4288444519043 8.003005981445312 12.86045455932617 7.112706184387207 C 14.21821403503418 6.268336296081543 14.99000453948975 5.225706100463867 15.03363418579102 4.176886081695557 C 15.06076431274414 3.524685859680176 14.80549430847168 2.913536071777344 14.2749137878418 2.36042594909668 C 13.15743446350098 1.195486068725586 11.04156398773193 0.4999961853027344 8.614984512329102 0.4999961853027344 M 8.614988327026367 0 C 12.58782958984375 0 15.63264942169189 1.807019710540771 15.53320407867432 4.197666168212891 C 15.42833423614502 6.718476295471191 11.86663436889648 8.933456420898438 7.577904224395752 9.144955635070801 C 3.289194107055664 9.356465339660645 -0.1024951934814453 7.484406471252441 0.002364158630371094 4.96358585357666 C 0.107234001159668 2.442776203155518 3.668933868408203 0.2277956008911133 7.957664012908936 0.01629638671875 C 8.179115295410156 0.005374908447265625 8.398679733276367 0 8.614988327026367 0 Z"/></g></g><ellipse class="v" cx="7.247" cy="4.998" rx="7.247" ry="4.998" transform="matrix(0.342, 0.94, -0.94, 0.342, 820.679, 387.444)"/><ellipse class="w" cx="6.772" cy="4.38" rx="6.772" ry="4.38" transform="matrix(0.342, 0.94, -0.94, 0.342, 819.699, 386.863)"/><g class="x" transform="matrix(0.342, 0.94, -0.94, 0.342, 820.405, 386.592)"><path class="ah" d="M 6.351224899291992 8.560174942016602 C 2.959434986114502 8.560174942016602 0.200004905462265 6.684995174407959 0.200004905462265 4.380084991455078 C 0.200004905462265 2.075185060501099 2.959434986114502 0.2000049948692322 6.351224899291992 0.2000049948692322 C 9.743024826049805 0.2000049948692322 12.50245475769043 2.075185060501099 12.50245475769043 4.380084991455078 C 12.50245475769043 6.684995174407959 9.743024826049805 8.560174942016602 6.351224899291992 8.560174942016602 Z"/><path class="ai" d="M 6.351224899291992 0.3999948501586914 C 4.735074996948242 0.3999948501586914 3.220794677734375 0.8304948806762695 2.087325096130371 1.612185001373291 C 0.9992351531982422 2.362575054168701 0.3999948501586914 3.345574855804443 0.3999948501586914 4.380084991455078 C 0.3999948501586914 5.414594650268555 0.9992351531982422 6.397584915161133 2.087325096130371 7.147984981536865 C 3.220785140991211 7.929665088653564 4.735074996948242 8.360164642333984 6.351224899291992 8.360164642333984 C 7.967374801635742 8.360164642333984 9.481655120849609 7.929675102233887 10.61512470245361 7.147984981536865 C 11.70320510864258 6.397594928741455 12.30244445800781 5.414594650268555 12.30244445800781 4.380084991455078 C 12.30244445800781 3.345574855804443 11.70320510864258 2.362575054168701 10.61512470245361 1.612185001373291 C 9.481655120849609 0.8304948806762695 7.967374801635742 0.3999948501586914 6.351224899291992 0.3999948501586914 M 6.351224899291992 -4.76837158203125e-06 C 9.858904838562012 -4.76837158203125e-06 12.7024450302124 1.961034774780273 12.7024450302124 4.380084991455078 C 12.7024450302124 6.799135208129883 9.858904838562012 8.760165214538574 6.351224899291992 8.760165214538574 C 2.843544960021973 8.760165214538574 -4.76837158203125e-06 6.799135208129883 -4.76837158203125e-06 4.380084991455078 C -4.76837158203125e-06 1.961034774780273 2.843544960021973 -4.76837158203125e-06 6.351224899291992 -4.76837158203125e-06 Z"/></g></g></g><rect class="ag" width="933" height="373" transform="translate(494 193)"/></g></svg>