<svg xmlns="http://www.w3.org/2000/svg" xmlns:xlink="http://www.w3.org/1999/xlink" width="37.5" height="37.367" viewBox="0 0 37.5 37.367"><defs><style>.a{opacity:0.5;}.b{fill:#78909c;}.c{opacity:0;}.d{fill:#f9e2e2;}.e{fill:#ffbcbc;}.f{opacity:0.32;}.g{fill:#fff;stroke-linejoin:round;}.g,.h{stroke:#fff;}.g,.h,.i,.j{stroke-linecap:round;}.h,.j{fill:none;}.i{fill:#dce3e7;stroke:#dce3e7;}.j{stroke:#f23d64;}.k{filter:url(#a);}</style><filter id="a" x="0" y="0.633" width="35" height="36.734" filterUnits="userSpaceOnUse"><feOffset dy="3" input="SourceAlpha"/><feGaussianBlur stdDeviation="3" result="b"/><feFlood flood-opacity="0.322"/><feComposite operator="in" in2="b"/><feComposite in="SourceGraphic"/></filter></defs><g transform="translate(-1798.5 -384)"><g class="a" transform="translate(153 278)"><circle class="b" cx="16" cy="16" r="16" transform="translate(1651 106)"/></g><g class="c" transform="translate(1802 380)"><path class="d" d="M0,0H30V24H0Z" transform="translate(3 8)"/><rect class="e" width="24" height="18" transform="translate(6 11)"/></g><g class="f" transform="translate(1812.332 386.118)"><path class="g" d="M12.915,0a1,1,0,0,1,.872.51l3.938,7a1,1,0,0,1,0,.981l-3.938,7a1,1,0,0,1-.872.51H5.085a1,1,0,0,1-.872-.51l-3.937-7a1,1,0,0,1,0-.981l3.938-7A1,1,0,0,1,5.085,0Z" transform="translate(3.669 22.882) rotate(-90)"/><line class="h" y2="2" transform="translate(11.668 19.882)"/><path class="h" d="M0,2.793V0" transform="translate(6.276 10.825) rotate(120)"/><path class="h" d="M0,0V2.333" transform="translate(19.37 9.601) rotate(60)"/></g><g transform="translate(1804.332 386.118)"><g class="k" transform="matrix(1, 0, 0, 1, -5.83, -2.12)"><path class="i" d="M12.915,0a1,1,0,0,1,.872.51l3.938,7a1,1,0,0,1,0,.981l-3.938,7a1,1,0,0,1-.872.51H5.085a1,1,0,0,1-.872-.51l-3.937-7a1,1,0,0,1,0-.981l3.938-7A1,1,0,0,1,5.085,0Z" transform="translate(9.5 25) rotate(-90)"/></g></g><g transform="translate(1487 250)"><line class="j" x1="6" y2="6" transform="translate(326 147)"/><line class="j" x2="6" y2="6" transform="translate(326 147)"/></g></g></svg>