<svg xmlns="http://www.w3.org/2000/svg" xmlns:xlink="http://www.w3.org/1999/xlink" width="16" height="16" viewBox="0 0 16 16"><defs><style>.a{opacity:0.6;}.b{fill:#dadbdb;}.c,.d,.g{fill:none;}.d{stroke:#2a2e31;}.e,.f{stroke:none;}.f{fill:#2a2e31;}.g{clip-path:url(#b);}</style><clipPath id="b"><use xlink:href="#a"/></clipPath></defs><g class="a" transform="translate(-641 -459)"><rect class="b" width="16" height="16" rx="4" transform="translate(641 459)"/><g transform="translate(644.75 462.75)"><g transform="translate(0 0)"><g transform="translate(0 0)"><g class="c" transform="translate(0 0.38) rotate(-45)"><path class="e" d="M.269,0A.269.269,0,0,1,.538.269V11.322a.269.269,0,0,1-.538,0V.269A.269.269,0,0,1,.269,0Z"/><path class="f" d="M 0.2689821720123291 2.86102294921875e-06 C 0.4175321757793427 2.86102294921875e-06 0.5379621982574463 0.1204233169555664 0.5379621982574463 0.2689828872680664 L 0.5379621982574463 11.32242298126221 C 0.5379621982574463 11.47098255157471 0.4175321757793427 11.59140300750732 0.2689821720123291 11.59140300750732 C 0.1204321682453156 11.59140300750732 2.145767211914062e-06 11.47098255157471 2.145767211914062e-06 11.32242298126221 L 2.145767211914062e-06 0.2689828872680664 C 2.145767211914062e-06 0.1204233169555664 0.1204321682453156 2.86102294921875e-06 0.2689821720123291 2.86102294921875e-06 Z"/></g><g class="d" transform="translate(0.38 8.577) rotate(-135)"><rect id="a" class="e" width="0.538" height="11.591" rx="0.269"/><path class="g" d="M0,0.5h0.537960410118103M0.5,0v11.591320991516113M0.537960410118103,11.091320991516113h-0.537960410118103M0.03796041011810303,11.591320991516113v-11.591320991516113"/></g></g></g></g></g></svg>