<svg id="组件_11_5" data-name="组件 11 – 5" xmlns="http://www.w3.org/2000/svg" width="26.008" height="24.754" viewBox="0 0 26.008 24.754">
  <defs>
    <style>
      .cls-1, .cls-2, .cls-5 {
        fill: none;
      }

      .cls-2 {
        stroke: #333;
      }

      .cls-3, .cls-4 {
        stroke: none;
      }

      .cls-4 {
        fill: #333;
      }
    </style>
  </defs>
  <g id="路径_200" data-name="路径 200" class="cls-1" transform="translate(3.534 10.215) rotate(45)">
    <path class="cls-3" d="M1.8,0H15.54s.429,4.217-2.382,5H0C1.8,3.748,1.8,0,1.8,0Z"/>
    <path class="cls-4" d="M 14.55403137207031 1.00000524520874 L 2.7415771484375 1.000022411346436 C 2.66228199005127 1.808552265167236 2.468705177307129 2.962870836257935 1.997784614562988 3.997900724411011 L 13.00714874267578 3.997884035110474 C 14.22086429595947 3.572029590606689 14.5028829574585 2.012988567352295 14.55403137207031 1.00000524520874 M 15.54030323028564 3.814697265625e-06 C 15.54030323028564 3.814697265625e-06 15.96980381011963 4.216963768005371 13.15849304199219 4.997883796691895 C 9.214073181152344 4.997893810272217 4.841703414916992 4.997903823852539 2.86102294921875e-06 4.997903823852539 C 1.796113014221191 3.748433828353882 1.796123504638672 2.384185791015625e-05 1.796123504638672 2.384185791015625e-05 L 15.54030323028564 3.814697265625e-06 Z"/>
  </g>
  <g id="联合_1" data-name="联合 1" class="cls-1" transform="translate(16.29 -0.001) rotate(45)">
    <path class="cls-3" d="M6.872,14.994H0V10.747a2,2,0,0,1,2-2H3.749V3.124a3.123,3.123,0,0,1,6.247,0V8.747h1.749a2,2,0,0,1,2,2v4.247Z"/>
    <path class="cls-4" d="M 12.74390029907227 13.99400043487549 L 12.74390029907227 10.74690055847168 C 12.74390029907227 10.19561004638672 12.29539012908936 9.747099876403809 11.74410057067871 9.747099876403809 L 9.995400428771973 9.747099876403809 L 8.995400428771973 9.747099876403809 L 8.995400428771973 8.747099876403809 L 8.995400428771973 3.123900413513184 C 8.995400428771973 1.953270316123962 8.04302978515625 1.000900387763977 6.872400283813477 1.000900387763977 C 5.701280117034912 1.000900387763977 4.748500347137451 1.953270316123962 4.748500347137451 3.123900413513184 L 4.748500347137451 8.747099876403809 L 4.748500347137451 9.747099876403809 L 3.748500108718872 9.747099876403809 L 1.999800205230713 9.747099876403809 C 1.44851016998291 9.747099876403809 1.00000011920929 10.19561004638672 1.00000011920929 10.74690055847168 L 1.00000011920929 13.99400043487549 L 6.872400283813477 13.99400043487549 L 12.74390029907227 13.99400043487549 M 13.74390029907227 14.99400043487549 L 6.872400283813477 14.99400043487549 L 1.495361345860147e-07 14.99400043487549 L 1.495361345860147e-07 10.74690055847168 C 1.495361345860147e-07 9.642600059509277 0.895500123500824 8.747099876403809 1.999800205230713 8.747099876403809 L 3.748500108718872 8.747099876403809 L 3.748500108718872 3.123900413513184 C 3.748500108718872 1.398600339889526 5.14709997177124 0.0009003517334349453 6.872400283813477 0.0009003517334349453 C 8.597700119018555 0.0009003517334349453 9.995400428771973 1.398600339889526 9.995400428771973 3.123900413513184 L 9.995400428771973 8.747099876403809 L 11.74410057067871 8.747099876403809 C 12.8484001159668 8.747099876403809 13.74390029907227 9.642600059509277 13.74390029907227 10.74690055847168 L 13.74390029907227 14.99400043487549 Z"/>
  </g>
  <g id="椭圆_78" data-name="椭圆 78" class="cls-2" transform="translate(18.94 6.184) rotate(45)">
    <circle class="cls-3" cx="0.625" cy="0.625" r="0.625"/>
    <circle class="cls-5" cx="0.625" cy="0.625" r="0.125"/>
  </g>
</svg>
