<svg xmlns="http://www.w3.org/2000/svg" xmlns:xlink="http://www.w3.org/1999/xlink" width="346" height="378" viewBox="0 0 346 378"><defs><style>.a,.ac{fill:none;}.aa,.b{fill:#767676;}.ac,.b,.f,.h,.n,.p{stroke:#fff;stroke-miterlimit:10;}.c{fill:#c92020;opacity:0;}.d{opacity:0.04;}.e{fill:#070203;}.f{fill:#3e3d3d;}.g,.p{opacity:0.2;}.h{fill:#adadad;}.i{opacity:0.34;}.j{isolation:isolate;}.k{clip-path:url(#a);}.l{fill:#232324;}.m{clip-path:url(#b);}.n,.p{fill:#353132;}.o{clip-path:url(#c);}.q{clip-path:url(#d);}.r{fill:#232424;}.s{opacity:0.28;}.t{clip-path:url(#e);}.u{fill:#006a96;}.v{fill:#006792;}.w{fill:#00648e;}.x{clip-path:url(#f);}.y{fill:#005b82;}.z{opacity:0.64;}.ab{clip-path:url(#g);}.ad{opacity:0.47;}.ae{clip-path:url(#h);}.af{opacity:0.08;}.ag{clip-path:url(#i);}.ah{fill:#fff;}.ai{fill:#2a2e31;font-size:24px;font-family:MicrosoftYaHei-Bold, Microsoft YaHei;font-weight:700;}</style><clipPath id="a"><path class="a" d="M597.648,435.56l-.012,4.082c0-.074,0-.147,0-.22l.011-4.082C597.648,435.414,597.648,435.487,597.648,435.56Z" transform="translate(-597.636 -435.34)"/></clipPath><clipPath id="b"><path class="a" d="M597.529,446.557l.011-4.082c0,.348,0,.709.01,1.086l-.012,4.082C597.53,447.266,597.528,446.905,597.529,446.557Z" transform="translate(-597.529 -442.475)"/></clipPath><clipPath id="c"><path class="a" d="M511.89,463.7l.012-4.082a11.8,11.8,0,0,0,.142,1.861l-.011,4.081A11.78,11.78,0,0,1,511.89,463.7Z" transform="translate(-511.89 -459.618)"/></clipPath><clipPath id="d"><path class="a" d="M567.115,475.291l-.011,4.081c-.005,1.732-.117,3.135-.139,4.535l.012-4.082C567,478.425,567.11,477.023,567.115,475.291Z" transform="translate(-566.964 -475.291)"/></clipPath><clipPath id="e"><path class="a" d="M666.333,242.159v4.7c0-2.8-.174-4.6-.216-5.029v-4.7C666.159,237.562,666.333,239.363,666.333,242.159Z" transform="translate(-666.117 -237.13)"/></clipPath><clipPath id="f"><path class="a" d="M495.552,246.828v-4.7c0-2.778.173-4.567.215-5v4.7C495.725,242.261,495.552,244.05,495.552,246.828Z" transform="translate(-495.552 -237.13)"/></clipPath><clipPath id="g"><path class="b" d="M581.013,198.339v-5.212a249.835,249.835,0,0,0,47.246,18.59v5.212A249.836,249.836,0,0,1,581.013,198.339Z" transform="translate(-581.013 -193.127)"/></clipPath><clipPath id="h"><path class="b" d="M580.454,244.1v-2.613a125.254,125.254,0,0,0,23.683,9.319v2.613A125.247,125.247,0,0,1,580.454,244.1Z" transform="translate(-580.454 -241.484)"/></clipPath><clipPath id="i"><path class="b" d="M580.454,243.3v-1.816a87.069,87.069,0,0,0,16.463,6.478v1.816A87.064,87.064,0,0,1,580.454,243.3Z" transform="translate(-580.454 -241.484)"/></clipPath></defs><g transform="translate(-8 -28)"><rect class="c" width="346" height="378" transform="translate(8 28)"/><g class="d" transform="translate(86.789 276.212)"><path class="e" d="M-651.726,74.918c0,.012,0,.022,0,.033a8.4,8.4,0,0,1-.14.829c-.017.08-.039.16-.059.241q-.073.3-.169.6c-.028.087-.056.174-.087.261-.094.266-.2.532-.317.8l-19.446,42.551c-.133.29-.283.577-.446.859-.05.086-.106.171-.158.256-.118.193-.24.386-.371.574-.071.1-.145.2-.219.3q-.178.24-.371.476c-.119.145-.241.287-.367.428s-.248.275-.378.41-.272.275-.413.411-.305.292-.466.435c-.091.081-.183.162-.276.242-.2.174-.417.345-.634.513-.077.06-.151.121-.23.18q-.445.335-.923.653c-.066.044-.136.086-.2.129q-.368.239-.753.467c-.275.163-.559.319-.847.474-.135.073-.266.149-.4.22-.431.222-.873.438-1.331.642l-.025.01c-.45.2-.914.39-1.388.573-.157.061-.321.116-.481.174-.332.121-.665.241-1.007.353s-.661.212-1,.311c-.082.024-.161.05-.244.074-.439.125-.887.243-1.339.354-.123.03-.249.057-.373.086q-.51.119-1.031.226c-.156.032-.313.063-.47.092-.441.084-.885.166-1.337.236l-73.4,11.4c-.661.1-1.325.183-1.992.253q-.433.046-.866.082c-.177.015-.353.032-.531.044-.391.028-.781.049-1.172.065-.112,0-.224.013-.337.017q-.732.026-1.464.026c-.135,0-.27,0-.4,0-.364,0-.727-.01-1.089-.022l-.46-.018q-.557-.025-1.108-.065c-.119-.008-.237-.015-.354-.024q-.718-.057-1.427-.138c-.1-.012-.2-.027-.307-.039q-.557-.068-1.109-.15c-.165-.025-.328-.051-.492-.078q-.485-.078-.964-.169c-.156-.029-.312-.057-.466-.089-.319-.064-.633-.134-.947-.205-.164-.037-.329-.072-.491-.111q-.6-.145-1.184-.309c-.068-.019-.139-.035-.206-.054-.092-.026-.179-.056-.27-.083-.409-.12-.815-.244-1.214-.377-.173-.058-.341-.123-.512-.183-.308-.109-.618-.218-.919-.336-.122-.047-.24-.1-.361-.149q-.687-.278-1.345-.585c-.149-.069-.3-.138-.443-.209-.53-.259-1.049-.526-1.544-.812l-53.954-31.15c-4.758-2.748-7.334-6.446-7.323-10.231l-.014,4.949c-.011,3.785,2.564,7.482,7.323,10.23l53.954,31.15c.5.286,1.015.554,1.545.812.146.072.294.141.443.21q.657.306,1.345.585c.084.033.161.073.246.107l.115.042c.3.117.608.225.916.334.173.061.342.127.517.185.393.132.8.254,1.2.373.09.026.175.056.265.083l.018,0c.065.018.132.034.2.052q.59.165,1.192.311c.162.039.327.073.491.11.239.055.475.112.717.162.076.016.153.029.23.044.155.031.311.06.466.089q.479.09.965.169c.163.027.327.053.491.077.1.016.2.034.308.049.265.038.533.069.8.1.1.013.2.027.307.039.432.049.865.093,1.3.129l.125.008c.118.01.236.016.355.024q.553.039,1.109.064l.46.018c.126,0,.252.012.379.015.237.006.475.005.713.008.134,0,.266,0,.4,0,.469,0,.938-.007,1.407-.022l.057,0c.113,0,.225-.012.337-.017.391-.017.782-.038,1.173-.066.177-.012.354-.029.531-.044.211-.018.423-.032.635-.053.078-.007.154-.021.232-.029.666-.07,1.331-.151,1.992-.253l73.4-11.4q.48-.075.952-.16c.13-.024.257-.052.386-.076.157-.03.314-.061.469-.093q.522-.106,1.032-.226c.124-.029.25-.056.373-.086.453-.111.9-.228,1.339-.354.082-.024.161-.05.243-.073.273-.081.547-.161.814-.247.063-.02.122-.044.185-.065.341-.112.674-.231,1.005-.353.16-.059.324-.114.482-.174.472-.182.935-.372,1.384-.572l.029-.012c.457-.2.9-.42,1.33-.641.14-.072.272-.149.409-.223.286-.154.569-.31.842-.472.049-.029.1-.055.151-.084.208-.126.407-.256.607-.386.066-.042.134-.083.2-.126q.479-.319.925-.654c.079-.059.153-.12.23-.18q.327-.252.634-.512c.094-.08.185-.16.276-.241s.166-.141.245-.214.147-.149.223-.222c.141-.135.279-.273.412-.411s.255-.271.378-.409.249-.284.367-.429c.053-.065.114-.128.165-.193.073-.093.136-.189.206-.283s.148-.2.219-.3c.132-.189.253-.381.371-.574.052-.086.108-.17.158-.256.014-.024.03-.046.043-.07q.221-.39.4-.789l19.446-42.551q.143-.313.261-.628c.021-.056.036-.114.057-.17.03-.087.058-.174.085-.26.064-.2.121-.4.17-.6.02-.081.041-.161.059-.242.009-.039.021-.078.029-.117q.071-.356.111-.712c0-.011,0-.022,0-.033.024-.223.041-.445.048-.668q0-.108,0-.217l.014-4.949A8.371,8.371,0,0,1-651.726,74.918Z" transform="translate(848.097 -28.443)"/><g transform="translate(0.014 0)"><path class="f" d="M-658.99,34.3c6.287,3.63,8.766,8.92,6.5,13.88l-19.446,42.551c-2.263,4.957-8.93,8.831-17.484,10.161l-73.4,11.4c-8.551,1.327-17.692-.092-23.98-3.722l-53.954-31.15c-6.288-3.63-8.763-8.918-6.5-13.875l19.442-42.553c2.271-4.957,8.937-8.831,17.484-10.16l73.4-11.4c8.554-1.33,17.692.087,23.98,3.717Z" transform="translate(848.074 1.058)"/></g></g><g transform="translate(-298.851 -13.443)"><g class="g" transform="translate(398.367 279.195)"><g transform="translate(0 3.304)"><path class="e" d="M414.89,452.18c0,.008,0,.016.007.023a1.159,1.159,0,0,0,.137.26c.01.014.019.029.03.044a1.613,1.613,0,0,0,.216.237,2.184,2.184,0,0,0,.33.245l.008.006a3.16,3.16,0,0,0,.583.26c.056.019.11.039.168.056.09.027.183.049.278.069s.178.04.271.054l.121.017a4.659,4.659,0,0,0,.489.039,4.777,4.777,0,0,0,.566-.023l.059-.007a4.562,4.562,0,0,0,.487-.081l.078-.019a3.942,3.942,0,0,0,.413-.126l.057-.019a3.028,3.028,0,0,0,.426-.2,1.442,1.442,0,0,0,.822-1.086,27.289,27.289,0,0,1,.759-4.224.944.944,0,0,0,.032-.248l.019,6.774a.959.959,0,0,1-.033.247,27.3,27.3,0,0,0-.758,4.224,1.444,1.444,0,0,1-.822,1.086,3.14,3.14,0,0,1-.408.2l-.018.006-.058.019c-.087.032-.173.064-.265.09-.048.014-.1.024-.147.036l-.077.019c-.024.006-.047.013-.072.018-.09.018-.182.035-.276.048-.046.006-.094.01-.14.015l-.059.007-.072.008c-.09.007-.182.012-.275.014-.073,0-.146,0-.22,0l-.069,0q-.155-.005-.306-.021c-.039,0-.076-.012-.114-.016l-.121-.017c-.041-.006-.084-.01-.124-.017s-.1-.026-.147-.036c-.1-.021-.188-.043-.277-.069-.031-.009-.066-.014-.1-.024s-.046-.023-.073-.032a3.182,3.182,0,0,1-.583-.26h0l-.01-.007a2.216,2.216,0,0,1-.328-.243s-.012-.008-.016-.012a1.663,1.663,0,0,1-.176-.189c-.009-.012-.016-.025-.025-.037s-.02-.029-.03-.044-.041-.057-.058-.086a1.107,1.107,0,0,1-.074-.158c0-.006,0-.011,0-.016s0-.016-.007-.024a1.038,1.038,0,0,1-.033-.115.95.95,0,0,1-.018-.16v-.024l-.019-6.774A.95.95,0,0,0,414.89,452.18Z" transform="translate(-414.838 -409.49)"/><path class="e" d="M582.346,420.73c-.057-.635-.135-1.27-.239-1.9-.012-.073-.027-.145-.039-.217-.076-.445-.178-.888-.277-1.331-.084-.378-.174-.756-.276-1.132-.092-.342-.193-.683-.3-1.024q-.174-.563-.372-1.125c-.188-.529-.377-1.057-.6-1.583l0-.009c-.279-.661-.587-1.318-.918-1.973-.025-.049-.048-.1-.073-.147-.314-.613-.656-1.222-1.016-1.828-.058-.1-.115-.2-.174-.294q-.538-.885-1.143-1.759c-.076-.109-.153-.218-.23-.327-.412-.583-.843-1.163-1.3-1.737-.081-.1-.168-.2-.251-.306q-.607-.749-1.266-1.488c-.121-.137-.241-.274-.366-.41-.517-.567-1.054-1.129-1.616-1.684-.1-.094-.2-.187-.293-.281-.434-.422-.888-.839-1.348-1.254-.361-.325-.733-.648-1.111-.969-.35-.3-.7-.6-1.069-.891-.393-.318-.8-.631-1.207-.944-.379-.29-.76-.579-1.154-.866-.423-.308-.861-.611-1.3-.914-.408-.281-.817-.562-1.239-.838-.456-.3-.926-.592-1.4-.886-.591-.368-1.176-.737-1.792-1.1-.838-.487-1.7-.955-2.562-1.415q-.339-.18-.682-.357-1.177-.61-2.385-1.189c-.1-.048-.2-.1-.295-.144-.893-.422-1.8-.827-2.72-1.222-.237-.1-.476-.2-.714-.3q-1.183-.5-2.39-.965c-.165-.065-.328-.131-.495-.195q-1.414-.539-2.861-1.036c-.237-.082-.476-.161-.714-.241-.644-.217-1.3-.424-1.947-.629q-.936-.294-1.884-.574-.8-.235-1.606-.46-.958-.265-1.926-.514c-.542-.14-1.086-.278-1.632-.41-.653-.158-1.311-.307-1.97-.455-.547-.122-1.094-.244-1.646-.36-.67-.139-1.345-.269-2.02-.4-.609-.116-1.216-.234-1.828-.341-.274-.048-.55-.094-.825-.14q-1.418-.237-2.848-.444c-.135-.02-.269-.042-.405-.061q-1.6-.225-3.217-.407c-.273-.031-.547-.06-.821-.09-.654-.071-1.31-.131-1.966-.192q-1.247-.116-2.5-.207c-.525-.039-1.049-.077-1.574-.109-.865-.054-1.732-.095-2.6-.131-.5-.021-.992-.046-1.489-.061-.752-.023-1.5-.033-2.256-.044-.532-.008-1.064-.021-1.6-.022-.8,0-1.6.012-2.4.025-.486.008-.971.008-1.456.021-.733.019-1.464.055-2.2.086-.527.022-1.055.037-1.582.066-.784.043-1.565.1-2.347.159-.471.034-.943.059-1.413.1-.917.076-1.831.171-2.744.266-.331.034-.663.06-.994.1q-1.863.209-3.712.47c-.148.021-.293.048-.441.069-1.109.161-2.214.332-3.312.522-.43.075-.855.161-1.283.24-.81.149-1.621.3-2.424.462-.414.085-.823.181-1.235.269-.877.19-1.752.384-2.62.592-.482.116-.959.24-1.438.361q-1.184.3-2.356.623c-.669.186-1.337.374-2,.572-.248.074-.5.146-.744.221q-1.5.459-2.966.956c-.187.064-.371.131-.557.2q-1.219.422-2.416.872c-.27.1-.541.2-.81.308-.635.245-1.261.5-1.886.76-.429.177-.861.35-1.285.533-.609.262-1.209.535-1.808.809-.391.179-.787.352-1.174.536-.655.311-1.3.636-1.939.961-.316.161-.64.314-.953.479q-1.422.744-2.8,1.535a54.923,54.923,0,0,0-15.68,13.016,2,2,0,0,1-.57.473,3,3,0,0,1-.4.193c-.078.03-.16.056-.242.081l-.053.018-.045.015q-.145.041-.3.073c-.092.019-.185.035-.279.048-.041.006-.082.009-.123.014l-.044.005c-.035,0-.07.009-.105.012-.091.008-.182.013-.274.015s-.189,0-.284,0c-.042,0-.085-.006-.127-.009l-.056,0c-.042,0-.083,0-.125-.009q-.18-.018-.359-.05t-.331-.073c-.066-.018-.131-.037-.193-.057-.016-.005-.025-.013-.041-.018a3.1,3.1,0,0,1-.569-.253c-.012-.007-.029-.011-.04-.018s-.025-.021-.039-.03a2.135,2.135,0,0,1-.314-.233h0a1.651,1.651,0,0,1-.177-.19l0-.006c-.007-.009-.012-.019-.019-.028a1.263,1.263,0,0,1-.091-.135c-.006-.011-.01-.023-.015-.033s-.018-.038-.027-.057-.025-.047-.034-.071-.016-.056-.023-.083-.011-.033-.014-.05-.006-.017-.008-.026a.955.955,0,0,1-.018-.161v-.024l-.02-6.774a.978.978,0,0,0,.027.211c0,.016.01.033.014.049a1.017,1.017,0,0,0,.058.155c.009.018.016.038.026.056a1.268,1.268,0,0,0,.105.166c.007.009.013.02.02.03a1.633,1.633,0,0,0,.18.2,2.176,2.176,0,0,0,.314.233l.079.047a3.1,3.1,0,0,0,.569.253c.077.026.151.053.233.075a4.5,4.5,0,0,0,.815.131l.055,0a4.784,4.784,0,0,0,.791-.017l.043-.005a4.323,4.323,0,0,0,.745-.15l.052-.018a3.266,3.266,0,0,0,.646-.275,2.011,2.011,0,0,0,.57-.473,54.93,54.93,0,0,1,15.68-13.016q1.372-.792,2.8-1.535c.314-.164.638-.318.955-.479.641-.325,1.282-.649,1.936-.96.388-.184.786-.359,1.179-.538.6-.272,1.194-.545,1.8-.806.426-.183.859-.358,1.29-.535.412-.169.817-.347,1.232-.511.214-.085.433-.163.647-.246q.405-.157.815-.309,1.2-.45,2.414-.872c.185-.064.369-.132.554-.195q1.469-.5,2.967-.956c.247-.076.5-.148.744-.222.428-.128.853-.259,1.284-.382.236-.068.478-.124.715-.189.781-.217,1.566-.423,2.356-.624.479-.122.956-.245,1.439-.362.868-.209,1.743-.4,2.621-.592.325-.071.644-.152.97-.219.087-.018.175-.032.261-.05.805-.165,1.617-.313,2.43-.462.427-.079.85-.165,1.278-.239,1.1-.19,2.2-.362,3.311-.522.141-.021.28-.047.421-.066l.02,0q1.848-.261,3.712-.47c.33-.037.663-.063.994-.1.913-.1,1.826-.19,2.743-.266l.085-.008c.438-.036.878-.058,1.317-.089.786-.057,1.572-.117,2.36-.16.525-.029,1.051-.044,1.577-.066.732-.031,1.463-.067,2.2-.086.067,0,.135-.007.2-.008.423-.011.846-.007,1.269-.013.8-.013,1.593-.026,2.389-.024.535,0,1.069.014,1.6.022.75.011,1.5.021,2.25.044.147,0,.294,0,.442.009.35.012.7.038,1.047.053.868.037,1.734.078,2.6.131.526.032,1.05.07,1.574.109q1.252.092,2.5.208c.3.028.6.045.891.074.359.036.717.079,1.075.117.274.03.547.059.821.09,1.076.124,2.15.257,3.218.407.135.019.269.041.4.061q1.431.205,2.848.444l.825.14c.231.041.465.077.7.118.38.069.754.151,1.132.223.676.129,1.35.258,2.021.4.551.115,1.1.237,1.646.359.659.147,1.316.3,1.97.455.547.132,1.089.27,1.632.41q.967.25,1.926.514.808.224,1.607.46.947.279,1.883.573c.28.088.566.167.845.257.371.12.737.248,1.1.373.237.08.476.159.712.24q1.447.5,2.863,1.037c.165.063.328.13.493.194q1.208.468,2.39.966c.239.1.477.2.714.3.918.4,1.827.8,2.721,1.223.1.047.194.1.293.143q1.21.578,2.386,1.19.342.177.682.357c.866.46,1.724.928,2.561,1.415q.475.276.941.556c.294.177.565.361.853.54.471.293.941.586,1.4.885.422.276.83.557,1.238.838.44.3.878.607,1.3.915.394.286.775.575,1.154.866.409.312.814.626,1.206.943.365.3.719.593,1.07.892.378.321.75.644,1.111.97.146.132.306.259.449.392.308.284.6.572.9.86.1.095.2.188.3.283.562.555,1.1,1.117,1.615,1.683.125.136.245.273.366.41q.658.739,1.266,1.488c.083.1.169.2.25.3.036.045.075.089.111.134.418.53.809,1.066,1.189,1.6.078.11.154.219.23.328q.6.873,1.143,1.758c.06.1.117.2.176.3.127.214.259.428.38.643.222.393.432.787.634,1.182.026.05.048.1.074.149.33.654.639,1.311.917,1.971l0,.012q.231.547.437,1.1c.06.16.1.322.16.482.133.375.256.751.372,1.127.106.34.207.68.3,1.022.1.378.191.756.276,1.135.046.2.107.4.148.606.048.24.088.481.129.722.013.074.028.147.039.22.1.633.181,1.266.239,1.9.008.087.017.174.024.261.037.451.065.9.078,1.353q.01.341.011.682l.019,6.774c0-.679-.034-1.358-.089-2.037C582.363,420.9,582.354,420.816,582.346,420.73Z" transform="translate(-422.049 -371.628)"/><path class="e" d="M418.67,472.539c.008.02.018.039.027.06q.261.616.55,1.226c.067.141.139.281.208.422.14.285.281.57.43.854.085.162.174.324.262.486q.206.38.424.757c.116.2.236.4.357.6.139.231.28.462.426.691q.189.3.386.6.226.342.46.683c.136.2.272.393.412.588q.243.339.494.675c.145.194.29.387.439.579s.309.393.466.589q.33.412.672.819c.154.182.308.364.466.545.237.273.481.544.727.815.157.173.313.345.474.517.271.289.55.575.831.861.145.147.286.3.434.442q.569.565,1.166,1.12c.055.051.107.1.163.155.681.63,1.394,1.248,2.125,1.858.106.088.209.177.315.265q1.059.872,2.186,1.714l.412.307q1.133.837,2.329,1.644c.125.085.254.168.38.252.836.556,1.69,1.1,2.57,1.637l.225.133q.857.515,1.741,1.014c.211.12.427.238.64.356q.717.4,1.45.784c.224.118.448.237.674.354q.859.444,1.74.873c.13.064.257.129.388.192q1.074.518,2.181,1.014c.2.091.407.179.61.268q.826.365,1.668.718.38.159.763.315.843.345,1.7.677c.219.085.436.171.656.255q1.179.447,2.386.873c.124.044.251.085.376.128q1.03.358,2.081.7c.261.085.525.168.788.251q.929.294,1.875.576c.258.077.516.155.776.23.868.251,1.741.5,2.628.732.931.247,1.866.48,2.8.7.293.071.588.137.882.2q.982.229,1.969.443.5.109,1.008.213.963.2,1.93.384c.319.061.637.123.956.182.724.133,1.448.257,2.174.378.245.041.489.085.734.125q1.451.233,2.907.434c.221.031.442.056.662.085.753.1,1.506.2,2.259.283.344.04.689.076,1.033.113q.833.09,1.667.17c1.339.129,2.679.243,4.019.333.131.008.261.013.392.022q1.842.118,3.684.185c.379.014.758.027,1.137.038q1.489.044,2.976.057c.283,0,.567.01.851.01q1.881.006,3.755-.039c.305-.007.61-.02.916-.029q1.407-.042,2.81-.111.595-.029,1.188-.064,1.371-.08,2.733-.186c.325-.025.65-.047.975-.074q1.829-.155,3.642-.354c.236-.026.471-.058.707-.085q1.476-.171,2.939-.373.551-.076,1.1-.157,1.515-.222,3.014-.475c.261-.045.524-.085.785-.131q1.835-.322,3.643-.693c.258-.053.514-.11.772-.165q1.733-.366,3.438-.776c.253-.061.508-.119.761-.181q1.92-.475,3.8-1.006c.464-.131.924-.266,1.384-.4.389-.115.778-.228,1.164-.346.517-.159,1.028-.324,1.54-.489.367-.119.736-.234,1.1-.356.534-.179,1.061-.365,1.589-.55.333-.117.67-.231,1-.351.589-.214,1.169-.436,1.749-.658.261-.1.526-.2.785-.3.15-.058.3-.122.445-.181q1.243-.495,2.457-1.016c.315-.136.625-.275.936-.414q.962-.426,1.905-.868.493-.231.982-.468.949-.46,1.875-.939c.28-.145.564-.286.841-.433.88-.466,1.749-.941,2.6-1.43a59.042,59.042,0,0,0,16.872-14.031c5.213-6.56,7.67-13.443,7.651-20.211l.02,6.774c.019,6.768-2.438,13.651-7.651,20.211a59.037,59.037,0,0,1-16.873,14.032c-.848.49-1.716.964-2.6,1.43-.277.146-.56.288-.841.433q-.928.478-1.876.94-.487.236-.978.467-.944.444-1.909.87c-.311.138-.621.277-.935.413q-1.214.522-2.456,1.016c-.126.051-.247.1-.373.155l-.072.027c-.261.1-.528.2-.791.3-.577.221-1.155.443-1.741.655-.335.122-.677.237-1.015.356-.523.184-1.044.368-1.574.545-.368.123-.741.24-1.112.36-.508.164-1.014.328-1.528.485-.389.12-.782.234-1.173.349-.354.1-.705.214-1.061.316-.1.03-.21.054-.313.083q-1.88.531-3.8,1.007c-.25.062-.5.12-.755.18q-1.708.411-3.444.778c-.17.036-.336.079-.506.114-.087.018-.175.032-.261.05q-1.809.371-3.645.694c-.261.046-.524.086-.786.131q-1.5.254-3.014.475c-.2.029-.388.064-.584.092-.17.024-.342.041-.512.065q-1.468.2-2.949.373c-.233.027-.464.058-.7.084q-1.814.2-3.644.354c-.09.008-.178.019-.268.026-.234.019-.471.03-.705.048q-1.363.106-2.733.186c-.4.023-.792.045-1.189.064q-1.4.069-2.81.111c-.23.006-.458.021-.688.027-.076,0-.152,0-.228,0q-1.874.043-3.755.038c-.283,0-.567-.007-.851-.01q-1.487-.013-2.976-.057c-.2-.006-.393,0-.591-.012-.182-.006-.364-.02-.545-.027q-1.845-.07-3.691-.185c-.128-.008-.255-.013-.382-.021-1.342-.09-2.684-.2-4.024-.333-.149-.014-.3-.022-.447-.037-.405-.04-.809-.089-1.214-.133-.346-.037-.692-.073-1.037-.113-.751-.087-1.5-.183-2.249-.282-.225-.03-.45-.056-.675-.087q-1.455-.2-2.9-.434c-.249-.04-.5-.085-.747-.127-.578-.1-1.156-.19-1.732-.294-.143-.026-.285-.055-.428-.082-.322-.059-.644-.122-.966-.184q-.962-.184-1.92-.382-.509-.105-1.016-.214-.982-.212-1.958-.44c-.3-.069-.595-.136-.891-.207-.937-.225-1.872-.458-2.8-.705-.886-.234-1.759-.481-2.627-.732-.26-.076-.517-.153-.775-.23q-.947-.282-1.879-.577c-.157-.05-.319-.1-.476-.146-.1-.033-.2-.07-.307-.1q-1.052-.342-2.085-.7c-.124-.043-.251-.084-.374-.128q-1.208-.425-2.385-.873c-.221-.084-.438-.17-.657-.255q-.861-.334-1.706-.678-.381-.156-.759-.314-.846-.354-1.675-.72c-.2-.089-.4-.176-.6-.265q-1.106-.5-2.183-1.015c-.13-.063-.256-.128-.385-.191q-.883-.431-1.744-.875c-.225-.117-.448-.235-.671-.352q-.734-.388-1.451-.785c-.214-.118-.429-.236-.64-.356q-.887-.5-1.747-1.018l-.192-.112-.026-.016c-.881-.534-1.734-1.081-2.571-1.637-.127-.084-.255-.167-.381-.252q-1.2-.807-2.328-1.643l-.414-.308q-1.124-.843-2.184-1.713c-.107-.088-.211-.178-.317-.266-.731-.61-1.443-1.228-2.124-1.857l-.012-.01c-.052-.048-.1-.1-.152-.146q-.594-.554-1.164-1.117c-.148-.147-.29-.3-.436-.444-.281-.285-.56-.571-.831-.86-.16-.171-.315-.342-.471-.514-.247-.271-.492-.544-.73-.818-.157-.18-.31-.361-.463-.543q-.344-.409-.674-.821c-.085-.106-.175-.209-.259-.315-.071-.09-.136-.182-.206-.272-.149-.192-.295-.386-.44-.58q-.25-.335-.493-.673-.21-.294-.414-.591-.233-.339-.458-.68-.2-.3-.387-.6-.218-.345-.426-.692c-.121-.2-.24-.4-.356-.6-.054-.094-.113-.186-.165-.279-.089-.158-.171-.317-.257-.476s-.178-.326-.264-.489c-.148-.282-.289-.565-.428-.849-.07-.142-.143-.284-.21-.427q-.287-.606-.547-1.218c-.009-.022-.021-.045-.03-.068q-.253-.6-.48-1.205l-.064-.173a1.034,1.034,0,0,1-.052-.176.92.92,0,0,1-.019-.161v-.025l-.019-6.774a.985.985,0,0,0,.071.362Q418.38,471.853,418.67,472.539Z" transform="translate(-416.444 -416.136)"/></g><g transform="translate(0 39.657)"><path class="f" d="M416.445,444.711a1.571,1.571,0,0,0-.792.906,29.809,29.809,0,0,0-.814,4.531v.055c-.063.891,1.139,1.645,2.688,1.678a4.092,4.092,0,0,0,2.085-.476,1.442,1.442,0,0,0,.822-1.086,27.286,27.286,0,0,1,.759-4.224c.232-.885-.821-1.712-2.348-1.844A4.236,4.236,0,0,0,416.445,444.711Z" transform="translate(-414.837 -444.234)"/></g><g transform="translate(1.61)"><path class="h" d="M440.8,379.134a59.076,59.076,0,0,0-16.869,14.027c-.644.818-.037,1.78,1.368,2.153a4.418,4.418,0,0,0,3.147-.329,2.01,2.01,0,0,0,.57-.473A54.931,54.931,0,0,1,444.7,381.5c30.4-17.55,79.55-17.547,109.657-.051s29.952,45.968-.357,63.467-79.457,17.5-109.569,0c-10.5-6.086-17.738-13.811-20.821-22.241-.365-.925-1.869-1.467-3.377-1.262a3.669,3.669,0,0,0-1.348.43c-.663.383-.98.95-.758,1.518,5.464,14.828,22.691,27.28,46.484,33.584,32.406,8.594,69.455,4.07,93.365-9.735a59.042,59.042,0,0,0,16.872-14.031c19.21-24.176,1-52.73-40.676-63.779C501.764,360.8,464.711,365.327,440.8,379.134Z" transform="translate(-418.054 -365.028)"/></g></g><g class="i" transform="translate(432.025 297.617)"><g transform="translate(0 1.991)"><path class="e" d="M678.039,454.336l0,.014a.7.7,0,0,1-.083.157l-.017.027a.956.956,0,0,1-.131.143,1.262,1.262,0,0,1-.2.148l0,0a1.92,1.92,0,0,1-.351.157c-.034.011-.067.024-.1.034-.054.016-.111.029-.168.042s-.107.024-.163.033l-.073.01a2.941,2.941,0,0,1-.295.023,2.83,2.83,0,0,1-.341-.014l-.036,0a2.681,2.681,0,0,1-.293-.049l-.047-.012a2.345,2.345,0,0,1-.249-.076l-.034-.012a1.906,1.906,0,0,1-.256-.121.87.87,0,0,1-.5-.655,16.46,16.46,0,0,0-.457-2.545.576.576,0,0,1-.02-.15l-.011,4.082a.6.6,0,0,0,.019.149,16.415,16.415,0,0,1,.458,2.545.869.869,0,0,0,.5.654,1.8,1.8,0,0,0,.245.118l.011,0,.034.012c.052.02.1.039.16.054.029.008.059.014.089.021l.046.011.043.011c.055.011.11.021.166.029l.085.01.036,0,.043,0c.054,0,.11.008.166.009h.133l.041,0c.063,0,.124-.006.185-.012.024,0,.046-.007.069-.01l.073-.01c.025,0,.051-.006.075-.011s.059-.016.089-.022c.058-.012.113-.026.167-.042.019-.006.04-.009.058-.015s.028-.014.044-.02a1.858,1.858,0,0,0,.351-.156h0l.006,0a1.251,1.251,0,0,0,.2-.146l.01-.007a.937.937,0,0,0,.106-.114l.015-.022.017-.027c.012-.017.025-.034.035-.052a.729.729,0,0,0,.045-.1l0-.01,0-.014a.533.533,0,0,0,.019-.069.567.567,0,0,0,.011-.1v-.014l.012-4.082A.583.583,0,0,1,678.039,454.336Z" transform="translate(-578.005 -428.613)"/><path class="e" d="M611.9,453.4a8.637,8.637,0,0,1,.484,2.73l.011-4.082a7.606,7.606,0,0,0-.285-2.061c4.153.362,8.266.74,11.515,1.1l.011-4.082c-7.461-.83-19.478-1.746-26.074-2.368l-.011,4.082c3.677.346,9.04.785,14.358,1.248Z" transform="translate(-539.727 -425.195)"/><path class="e" d="M583.449,438.307c.179.032.361.068.543.1.279.055.558.108.843.17l.012-4.082-.426-.091c-.141-.029-.277-.052-.417-.079-.182-.036-.364-.071-.543-.1-.208-.037-.412-.07-.616-.1-.175-.029-.351-.058-.523-.083l-.159-.025c-.146-.021-.285-.036-.429-.054-.174-.023-.348-.046-.519-.066-.192-.022-.38-.041-.568-.059-.166-.017-.332-.034-.494-.048l-.122-.012c-.123-.01-.239-.016-.36-.025-.2-.014-.393-.029-.583-.039-.156-.009-.307-.016-.46-.022-.184-.008-.367-.016-.546-.021l-.154-.006c-.078,0-.149,0-.226,0q-.367-.007-.716-.006h-.334c-.254,0-.5.008-.735.015l-.163,0-.053,0-.28.012-.44.02-.287.018c-.127.008-.252.016-.372.025l-.267.021-.327.027-.242.023-.153.014-.14.015-.181.019-.279.031-.143.016-.3.035-.276.031L572,438.063l.277-.031.291-.034.164-.018.264-.029.187-.02.3-.029.235-.022.332-.027.266-.021.377-.025.281-.017c.142-.008.293-.015.444-.021l.278-.012.215-.005q.356-.011.736-.015h.334c.232,0,.471,0,.716.007l.383.008c.178.006.362.014.545.022.152.007.3.013.459.022.191.011.389.025.586.039.159.012.317.022.48.036s.33.032.5.048c.188.019.375.037.567.059.17.02.344.043.518.065.195.025.39.051.589.08.172.025.348.054.523.082C583.036,438.237,583.241,438.27,583.449,438.307Z" transform="translate(-526.968 -419.708)"/><path class="e" d="M488.944,435.386c.035-.382.081-.765.144-1.147.007-.044.016-.088.024-.131.046-.268.107-.535.167-.8.051-.228.1-.456.166-.682.056-.206.117-.412.18-.617.07-.226.144-.453.224-.678.113-.318.227-.637.36-.953l0-.006c.168-.4.354-.795.553-1.189.015-.03.029-.059.044-.089.189-.37.4-.736.612-1.1.035-.059.069-.118.105-.177q.324-.534.689-1.06c.046-.066.092-.132.138-.2.248-.351.508-.7.783-1.047.049-.062.1-.123.151-.184q.366-.451.763-.9c.074-.083.146-.165.22-.247.312-.341.635-.68.974-1.014.058-.057.119-.113.177-.169.261-.254.535-.505.813-.755.217-.2.442-.391.669-.584.211-.18.425-.359.644-.537.236-.191.481-.38.727-.569.228-.175.458-.349.695-.522.255-.186.519-.368.784-.551.246-.169.492-.339.746-.5.274-.18.558-.357.842-.534.357-.221.709-.444,1.081-.66.5-.293,1.021-.576,1.544-.853q.2-.109.411-.215.709-.367,1.437-.716c.06-.029.118-.059.177-.087.538-.254,1.086-.5,1.639-.737l.43-.182q.713-.3,1.44-.582c.1-.039.2-.079.3-.117q.852-.325,1.724-.625l.43-.145c.388-.131.781-.255,1.174-.379q.564-.177,1.135-.345.481-.142.968-.277.577-.16,1.161-.309c.327-.084.654-.168.983-.247.394-.1.79-.185,1.187-.274.329-.074.659-.147.991-.216.4-.084.811-.162,1.218-.24.367-.07.732-.141,1.1-.205l.5-.085q.855-.143,1.716-.268l.244-.037c.644-.09,1.29-.17,1.939-.245l.495-.054c.394-.043.789-.079,1.185-.115q.751-.07,1.506-.125c.316-.023.632-.046.948-.066.521-.032,1.043-.057,1.566-.079.3-.012.6-.028.9-.037.453-.014.906-.02,1.359-.027.32,0,.641-.012.962-.013.483,0,.966.008,1.448.015.292,0,.585,0,.878.012.441.012.882.033,1.322.052.318.013.636.022.953.04.472.026.943.062,1.414.1.284.02.568.036.852.06.552.046,1.1.1,1.653.16.2.021.4.036.6.059q1.123.125,2.236.283c.089.013.177.029.265.042.668.1,1.334.2,2,.315.259.044.515.1.773.144.488.09.976.179,1.46.278.249.051.5.109.744.163.529.114,1.056.231,1.579.356.29.07.578.144.866.218q.713.181,1.419.376c.4.112.806.225,1.2.344.149.044.3.088.449.134q.9.276,1.787.576c.113.038.223.079.335.118q.734.255,1.455.526.245.092.488.185c.383.148.76.3,1.137.458.258.107.518.211.773.321.368.158.729.323,1.089.488.236.108.474.212.707.323.395.187.781.383,1.168.579.191.1.386.189.574.288q.857.448,1.685.924a33.106,33.106,0,0,1,9.448,7.843,1.22,1.22,0,0,0,.343.285,1.859,1.859,0,0,0,.243.116c.047.019.1.034.146.049l.032.011.026.009c.059.016.118.031.179.044s.111.022.168.03l.074.008.027,0,.063.007c.055,0,.11.008.165.009s.114,0,.171,0c.026,0,.051,0,.077-.005l.033,0,.075-.005c.072-.007.144-.017.216-.03s.134-.027.2-.044c.04-.01.078-.022.116-.034.009,0,.015-.008.024-.011a1.876,1.876,0,0,0,.343-.153c.007,0,.017-.007.024-.011s.015-.013.024-.018a1.307,1.307,0,0,0,.189-.14h0a1.016,1.016,0,0,0,.106-.114l0,0c0-.006.007-.012.011-.017a.764.764,0,0,0,.055-.082c0-.007.006-.013.009-.02s.011-.023.016-.034.014-.029.02-.043.009-.034.014-.05.006-.02.009-.03,0-.011,0-.016a.584.584,0,0,0,.011-.1v-.015l.012-4.081a.6.6,0,0,1-.016.127c0,.01-.005.019-.008.029a.668.668,0,0,1-.034.093c-.005.012-.01.023-.016.034a.782.782,0,0,1-.063.1c0,.006-.007.012-.012.017a1,1,0,0,1-.109.118,1.348,1.348,0,0,1-.189.14l-.048.028a1.884,1.884,0,0,1-.343.153c-.046.015-.091.032-.141.045a2.706,2.706,0,0,1-.491.079l-.034,0a2.956,2.956,0,0,1-.477-.01l-.026,0a2.656,2.656,0,0,1-.449-.091l-.032-.011a1.993,1.993,0,0,1-.389-.166,1.21,1.21,0,0,1-.343-.285,33.1,33.1,0,0,0-9.448-7.843q-.827-.478-1.684-.925c-.189-.1-.385-.192-.575-.289-.386-.2-.772-.391-1.167-.578-.234-.111-.474-.216-.71-.324-.36-.164-.72-.328-1.086-.486-.256-.111-.518-.216-.778-.322s-.492-.209-.742-.308c-.129-.051-.26-.1-.39-.148q-.244-.095-.491-.187-.721-.271-1.454-.525c-.112-.039-.222-.08-.334-.118q-.885-.3-1.788-.576c-.149-.046-.3-.089-.449-.134-.258-.077-.514-.156-.774-.23-.142-.041-.288-.075-.431-.114-.469-.131-.943-.255-1.419-.376-.288-.073-.576-.148-.867-.218-.523-.126-1.051-.242-1.58-.357-.2-.043-.388-.092-.584-.132-.052-.011-.105-.019-.158-.03-.485-.1-.974-.189-1.464-.279-.257-.047-.512-.1-.77-.144q-.993-.171-2-.314c-.085-.012-.169-.028-.254-.04h-.012q-1.113-.158-2.237-.283c-.2-.022-.4-.038-.6-.059-.55-.057-1.1-.115-1.653-.16l-.051-.005c-.264-.022-.529-.035-.794-.054-.474-.034-.947-.071-1.422-.1-.316-.018-.633-.027-.95-.04-.441-.019-.882-.04-1.323-.052l-.122-.005c-.255-.006-.51,0-.764-.008-.48-.008-.96-.015-1.44-.014-.322,0-.644.008-.966.013-.452.007-.9.012-1.356.026-.089,0-.177,0-.266.005-.211.007-.42.023-.631.032-.523.022-1.045.047-1.566.079-.317.019-.632.042-.948.065q-.755.056-1.506.125c-.179.017-.359.027-.537.045-.216.022-.432.048-.647.071-.165.018-.33.035-.495.054q-.973.111-1.939.245l-.244.037q-.861.123-1.716.267l-.5.085c-.14.025-.28.046-.42.071-.229.042-.454.091-.682.134-.407.078-.814.156-1.218.24-.332.069-.662.143-.991.216-.4.089-.794.179-1.187.274-.329.08-.656.163-.983.247q-.583.15-1.161.309-.487.134-.968.277-.571.168-1.135.345c-.169.053-.341.1-.509.155-.224.072-.444.15-.665.224-.143.048-.287.1-.429.145q-.871.3-1.725.625c-.1.038-.2.079-.3.117q-.728.282-1.44.582c-.144.061-.288.121-.431.182-.553.238-1.1.482-1.639.736-.06.028-.117.058-.176.086q-.729.348-1.438.717l-.411.215c-.522.277-1.039.559-1.544.853-.191.111-.38.223-.567.335s-.34.218-.514.326c-.284.176-.567.353-.841.533-.254.167-.5.335-.746.5-.265.183-.529.366-.784.552-.237.172-.467.346-.695.521-.246.189-.49.377-.727.569-.22.178-.433.357-.644.537-.228.194-.452.388-.67.584-.088.079-.184.156-.27.236-.186.171-.363.344-.541.518-.059.057-.12.114-.178.171-.339.334-.662.673-.973,1.014-.075.082-.148.165-.221.247q-.4.445-.763.9c-.05.061-.1.122-.151.183-.021.027-.045.054-.066.081-.252.319-.488.642-.717.966l-.139.2q-.364.526-.688,1.059c-.036.06-.07.119-.106.179-.077.129-.156.258-.229.388-.134.236-.26.474-.382.712-.016.03-.029.06-.044.09-.2.394-.385.79-.553,1.188l0,.007q-.139.33-.264.661c-.036.1-.062.194-.1.29-.08.226-.154.453-.224.679-.064.2-.125.41-.18.615-.062.228-.116.456-.167.684-.027.122-.064.243-.089.365-.029.145-.053.29-.078.435-.008.044-.016.088-.024.132-.062.381-.109.763-.144,1.146-.005.052-.011.1-.015.157-.022.272-.039.544-.047.816,0,.137-.006.274-.007.411l-.011,4.082c0-.41.021-.819.054-1.228C488.934,435.49,488.939,435.438,488.944,435.386Z" transform="translate(-485.464 -405.8)"/><path class="e" d="M601.973,483.432q.8-.146,1.578-.311l.323-.073q.617-.136,1.222-.283c.172-.042.342-.087.513-.13q.512-.131,1.014-.271c.173-.048.346-.1.518-.147.352-.1.7-.209,1.044-.318.1-.033.209-.062.312-.095l.118-.04c.156-.051.308-.1.463-.156.24-.082.48-.163.716-.247.161-.058.32-.117.479-.176.224-.083.448-.167.668-.252.161-.063.319-.127.478-.191q.321-.129.638-.263.236-.1.469-.2.31-.136.614-.276c.152-.07.3-.139.452-.21.2-.1.4-.195.6-.294.143-.071.287-.142.428-.214.2-.1.4-.211.6-.318.13-.07.261-.139.389-.21.214-.119.424-.241.633-.363.107-.063.216-.123.321-.186l.05-.03c.059-.035.112-.072.17-.108q.461-.281.9-.572c.117-.077.23-.154.345-.232q.379-.258.743-.523c.106-.077.213-.154.318-.232q.459-.344.893-.7l.081-.064c.313-.259.612-.523.9-.79.027-.025.057-.048.084-.073.137-.127.268-.255.4-.384.055-.053.111-.1.165-.158q.326-.323.631-.653c.049-.053.1-.108.144-.161.153-.168.3-.337.446-.508.068-.08.132-.16.2-.24s.145-.172.213-.259c.031-.039.057-.081.088-.12.217-.28.424-.562.619-.848.019-.029.041-.056.061-.085.21-.312.4-.629.587-.949.019-.034.043-.066.062-.1.035-.062.063-.125.1-.187q.169-.309.321-.622c.051-.1.1-.206.148-.31.1-.227.2-.456.29-.686.024-.062.055-.122.078-.184.007-.019.012-.037.018-.055.111-.3.211-.6.3-.9.014-.048.024-.1.037-.145q.106-.383.188-.77c.006-.031.016-.061.022-.092.015-.074.022-.15.035-.224.037-.2.07-.408.1-.612.015-.116.028-.233.039-.349q.029-.3.043-.6c0-.071.013-.141.015-.213,0-.1,0-.2.005-.307l.012-4.082c0,.174-.012.346-.02.519q-.014.3-.043.6c-.012.117-.024.233-.039.349-.027.205-.06.41-.1.613-.019.1-.036.21-.058.315-.053.258-.117.515-.188.771-.014.048-.023.1-.037.145-.087.3-.188.6-.3.9-.03.081-.065.16-.1.24-.091.23-.186.459-.29.686-.047.1-.1.208-.148.311-.1.208-.208.415-.32.62-.053.1-.1.193-.16.289-.183.319-.377.635-.586.948-.02.03-.043.059-.063.088-.194.284-.4.566-.616.844-.1.128-.2.256-.3.383-.065.079-.129.159-.2.237-.145.171-.295.341-.448.51-.048.053-.094.108-.143.161q-.306.33-.632.653c-.053.052-.108.1-.161.154q-.239.232-.488.46c-.291.267-.591.53-.9.789-.028.023-.057.045-.084.067q-.432.354-.89.7c-.1.079-.213.156-.319.233q-.363.264-.741.521c-.115.078-.23.157-.346.234q-.44.29-.9.57c-.075.046-.148.094-.224.139-.1.062-.211.122-.317.184-.21.123-.421.245-.636.365-.128.071-.259.14-.389.209-.2.108-.4.215-.6.319-.141.072-.284.143-.427.213-.2.1-.4.2-.6.294-.15.071-.3.141-.452.21q-.3.14-.615.276-.233.1-.468.2-.315.133-.637.262c-.159.064-.318.128-.479.191-.22.086-.443.169-.666.252-.16.06-.319.119-.48.177-.236.084-.476.166-.716.247-.154.052-.307.105-.463.156s-.286.09-.429.135c-.345.109-.693.215-1.047.318-.171.05-.343.1-.515.146q-.5.14-1.016.271c-.171.044-.34.088-.513.13q-.606.149-1.226.284c-.107.024-.211.049-.318.072q-.78.166-1.58.312c-.429.079-.861.154-1.3.223l-.012,4.081q.608-.1,1.2-.2Z" transform="translate(-541.287 -432.9)"/><path class="e" d="M522.377,458.717c.423.244.857.48,1.3.711.145.076.3.148.442.221.3.153.607.3.919.452.178.083.358.164.539.245.291.132.585.262.883.388.192.082.386.161.581.24.142.058.279.118.421.174.1.041.214.076.318.116q.69.266,1.4.511c.175.061.347.124.524.183q.966.322,1.966.611l.059.019c.195.056.4.1.593.157.37.1.739.2,1.116.3.249.062.5.116.754.175.356.082.709.166,1.07.241.056.012.11.026.167.038.283.059.572.109.858.164.242.046.483.1.727.138.375.066.754.124,1.134.183.222.035.441.073.665.105l.077.012q.847.12,1.708.216c.1.01.2.018.293.028.459.049.919.1,1.382.134l.139.009c.2.017.412.028.618.042.4.028.806.055,1.212.075.24.012.481.02.722.029s.483.022.727.028c.132,0,.266,0,.4,0,.267.005.535.007.8.008q.545,0,1.092,0,.408-.005.816-.016c.158,0,.314,0,.472-.009q.563-.02,1.128-.049h0c.619-2.056,1.529-5.181,2.027-7.374l.011-4.082c-.5,2.193-1.407,5.317-2.027,7.374-.537.028-1.072.044-1.605.058q-.407.011-.813.016-.548.008-1.094,0c-.268,0-.536,0-.8-.008-.377-.007-.753-.019-1.128-.033-.24-.008-.48-.016-.718-.028-.408-.02-.814-.047-1.218-.075-.2-.014-.409-.026-.612-.042-.508-.041-1.013-.09-1.515-.143-.1-.01-.2-.018-.3-.029q-.9-.1-1.785-.228c-.222-.032-.441-.07-.661-.1-.38-.059-.761-.117-1.136-.184-.246-.043-.487-.092-.731-.139-.342-.065-.684-.129-1.022-.2-.361-.076-.716-.16-1.071-.242-.251-.059-.5-.113-.753-.175-.378-.093-.747-.2-1.118-.3-.216-.059-.436-.114-.65-.175q-1-.286-1.966-.61c-.177-.059-.349-.122-.525-.183q-.71-.246-1.4-.511c-.248-.1-.5-.191-.74-.291-.195-.079-.389-.159-.581-.24-.3-.126-.591-.256-.882-.388-.18-.082-.362-.162-.539-.246-.311-.147-.616-.3-.919-.452-.147-.074-.3-.146-.441-.221-.442-.231-.877-.467-1.3-.711a30.258,30.258,0,0,1-2.973-1.95q-.69-.517-1.326-1.06a20.548,20.548,0,0,1-3.27-3.491q-.451-.618-.835-1.259-.191-.321-.365-.646l0,0,.336.031.323.03.964.088.155.014.868.079.329.029.82.073.246.022,1.089.1.178.016.9.078.313.027.916.077.134.012.034,0,1.013.082.228.018.755.059.307.024.678.051.279.021.892.063.012-4.082-.535-.038c.011-.076.022-.152.036-.229.011-.06.019-.118.031-.179.029-.137.065-.278.1-.42.014-.056.026-.11.042-.167q.086-.3.2-.61c.019-.05.044-.1.064-.154.061-.154.123-.309.2-.467.036-.078.079-.157.118-.236.067-.135.133-.269.209-.406.106-.19.218-.382.343-.577v0c2.25,0,4.5.037,7.195.03q.577,0,1.182-.006h0c.905-3.859,2.164-10.771,3.4-14.964l.011-4.081c-1.232,4.193-2.49,11.105-3.4,14.964-3.231.026-5.806-.029-8.377-.024q-.17.264-.316.524c-.011.018-.018.036-.029.055-.076.137-.143.272-.209.407-.039.079-.083.158-.118.235-.073.157-.135.311-.2.464-.019.049-.044.1-.062.147l0,.011q-.116.311-.2.609c-.017.058-.028.112-.042.169-.037.141-.073.281-.1.417,0,.013-.008.028-.01.042-.01.048-.013.092-.022.139-.025.143-.049.284-.065.422-.008.07-.015.138-.021.207-.012.125-.021.248-.026.368,0,.036-.007.075-.008.111,0,.064,0,.127,0,.19l-.008,3.006-.272-.02-.278-.021-.677-.051-.31-.023-.727-.057-.268-.021-.985-.08-.243-.021-.831-.069-.369-.032-.809-.069-.267-.023-1.066-.094-.247-.021-.815-.073-.336-.03-.864-.078-.156-.014-.964-.089-.323-.03-.664-.062-.245-.023-.87-.081-.011,4.081.87.082.243.023-.01,3.458C514.945,453.185,518.146,456.274,522.377,458.717Z" transform="translate(-497.097 -413.204)"/><path class="e" d="M580.786,466.6l-.016.036q-.158.371-.331.739c-.041.085-.084.169-.126.254-.084.172-.169.344-.259.514-.051.1-.105.2-.158.293q-.125.228-.255.456c-.07.122-.142.243-.215.363q-.126.209-.256.417c-.076.12-.154.24-.233.36q-.136.207-.277.412c-.082.119-.164.236-.248.355q-.146.2-.3.406c-.087.117-.175.233-.264.349s-.186.237-.281.355q-.2.247-.405.493-.139.165-.28.328c-.143.165-.29.328-.438.491-.095.1-.189.208-.285.311-.163.174-.332.346-.5.519-.088.089-.173.178-.262.266q-.343.34-.7.674l-.1.094c-.411.38-.84.752-1.281,1.12-.064.053-.126.107-.19.159q-.638.526-1.317,1.033l-.248.185q-.683.5-1.4.99c-.076.051-.153.1-.229.152-.5.335-1.018.665-1.548.986l-.136.08q-.517.31-1.049.611c-.128.072-.257.143-.386.215q-.431.239-.873.473c-.135.071-.27.143-.407.213q-.517.267-1.048.526c-.079.039-.155.078-.234.116q-.647.312-1.314.611c-.122.055-.245.108-.368.161q-.5.22-1.005.433l-.46.19q-.508.207-1.026.408l-.4.154q-.71.27-1.437.526l-.227.077q-.621.216-1.254.422l-.475.151q-.56.177-1.13.347c-.156.047-.31.093-.467.139-.523.152-1.049.3-1.584.442-.561.149-1.125.289-1.689.425-.177.042-.354.083-.532.124-.395.092-.79.181-1.186.266l-.607.128q-.58.121-1.163.231c-.192.037-.383.075-.576.11q-.653.119-1.31.227c-.148.025-.295.052-.443.075q-.874.14-1.752.262l-.4.051q-.68.091-1.361.171c-.208.024-.415.046-.623.068q-.5.054-1,.1c-.806.077-1.614.146-2.422.2l-.236.014q-1.11.071-2.22.111-.342.013-.685.023-.9.027-1.793.035c-.171,0-.342.005-.513.006q-1.132,0-2.262-.023c-.184,0-.368-.012-.552-.018q-.848-.025-1.693-.067l-.716-.039q-.825-.048-1.646-.112c-.2-.015-.392-.028-.587-.045q-1.1-.093-2.194-.213c-.143-.016-.284-.035-.426-.051q-.889-.1-1.771-.224-.332-.046-.662-.1-.913-.133-1.816-.286c-.158-.027-.316-.051-.473-.079q-1.106-.194-2.195-.418c-.156-.032-.31-.067-.465-.1q-1.045-.221-2.072-.468c-.152-.037-.306-.072-.458-.109q-1.157-.286-2.288-.606c-.28-.079-.557-.16-.834-.242-.234-.069-.469-.138-.7-.209-.312-.1-.62-.2-.928-.295-.221-.072-.443-.141-.662-.214-.322-.108-.64-.22-.958-.332-.2-.071-.4-.139-.6-.211-.355-.129-.7-.263-1.054-.4-.157-.061-.317-.118-.473-.18-.09-.035-.178-.073-.268-.109q-.749-.3-1.481-.612c-.19-.082-.377-.166-.564-.249q-.58-.257-1.148-.523-.3-.14-.592-.282c-.381-.185-.757-.375-1.129-.566-.169-.087-.339-.172-.507-.261-.53-.281-1.054-.567-1.565-.862a35.585,35.585,0,0,1-10.166-8.455,19.39,19.39,0,0,1-4.61-12.178l-.011,4.082a19.389,19.389,0,0,0,4.61,12.178,35.575,35.575,0,0,0,10.166,8.454c.511.295,1.034.581,1.565.862.167.088.338.174.507.261q.559.288,1.13.566.293.142.59.281.569.267,1.15.524c.188.083.374.167.563.249q.732.314,1.48.612c.076.03.149.063.225.093l.044.016c.157.062.318.12.477.181.348.133.7.267,1.049.4.2.073.408.143.612.214.315.111.629.222.948.328.222.074.447.145.671.217.305.1.611.2.92.292.234.072.471.141.707.211.213.063.425.129.639.19.062.018.126.032.188.05q1.133.32,2.291.607c.151.037.3.072.455.109q1.028.247,2.075.469c.1.022.2.048.3.069.052.011.105.02.158.03q1.089.223,2.2.418c.157.028.316.052.474.079q.9.153,1.816.286c.118.018.234.039.352.056.1.014.206.025.308.039q.885.122,1.777.225c.14.016.279.035.42.051q1.093.121,2.2.213l.162.016c.141.011.284.018.426.029q.821.064,1.646.112c.239.014.477.027.716.039q.844.041,1.693.066c.138,0,.276.013.414.017h.137q1.129.026,2.262.023c.171,0,.342,0,.513-.006q.9-.008,1.793-.034c.119,0,.237,0,.356-.007s.219-.013.329-.017q1.111-.042,2.224-.112l.23-.013c.809-.054,1.617-.123,2.425-.2.09-.008.179-.013.269-.022.244-.025.488-.054.732-.08.209-.023.417-.044.625-.068.452-.052.9-.11,1.355-.17.136-.018.271-.034.407-.053q.876-.121,1.749-.261c.15-.024.3-.052.451-.076.348-.058.7-.115,1.043-.177l.258-.049c.195-.036.388-.074.582-.111q.579-.111,1.157-.23.307-.064.612-.129.592-.128,1.18-.265c.179-.042.358-.082.537-.125.564-.136,1.128-.276,1.688-.424.534-.141,1.06-.289,1.583-.441.157-.046.311-.092.467-.139q.571-.17,1.132-.347l.287-.088.185-.062q.635-.207,1.256-.423l.226-.077q.728-.256,1.437-.526c.133-.051.264-.1.4-.154q.519-.2,1.028-.409l.458-.189q.51-.213,1.009-.435c.12-.053.243-.106.363-.16q.667-.3,1.315-.611c.079-.038.155-.077.232-.115q.532-.259,1.051-.527c.136-.07.27-.141.4-.212q.442-.234.874-.473c.129-.071.258-.142.386-.214q.534-.3,1.052-.614l.116-.067.016-.01c.53-.321,1.044-.651,1.549-.986l.23-.152q.721-.485,1.4-.99l.249-.186q.677-.508,1.316-1.032l.191-.161c.44-.367.869-.74,1.28-1.12l.007-.006c.031-.028.061-.058.092-.088q.358-.334.7-.673c.09-.089.175-.178.263-.267.169-.172.338-.344.5-.518.1-.1.19-.207.284-.31.149-.164.3-.328.44-.493.095-.109.187-.217.279-.327q.207-.246.406-.495c.051-.064.106-.126.156-.19s.082-.109.124-.164c.09-.116.178-.233.265-.35q.151-.2.3-.4.127-.178.249-.356.141-.2.276-.41.119-.18.233-.36.131-.208.257-.417c.073-.121.145-.242.215-.364.033-.056.068-.112.1-.168.054-.1.1-.191.155-.286s.108-.2.159-.295c.089-.17.174-.34.257-.511.042-.086.086-.171.127-.257q.173-.365.33-.734c.006-.013.013-.027.018-.041q.152-.362.289-.727l.039-.1a.646.646,0,0,0,.031-.106.542.542,0,0,0,.011-.1v-.015l.011-4.081a.6.6,0,0,1-.043.218Q580.96,466.189,580.786,466.6Z" transform="translate(-482.062 -432.618)"/></g><g class="j" transform="translate(57.866 16.781)"><g class="k"><g class="j"><path class="l" d="M597.648,435.56l-.012,4.082c0-.074,0-.147,0-.22l.011-4.082c0,.074,0,.147,0,.22" transform="translate(-597.636 -435.34)"/></g></g></g><g class="j" transform="translate(57.812 20.354)"><g class="m"><g class="j"><path class="l" d="M597.55,443.561l-.012,4.082c-.009-.377-.011-.738-.01-1.086l.011-4.082c0,.348,0,.709.01,1.086" transform="translate(-597.529 -442.475)"/></g></g></g><g class="g" transform="translate(45.04 8.734)"><path class="n" d="M584.857,427.315a37.28,37.28,0,0,0-12.837-.517c.459-2.226,1.32-5.4,1.9-7.456,10.621-.524,20.706,1.763,27.849,5.887,4.252,2.455,7.462,5.561,9.123,9.111-7.461-.83-19.478-1.746-26.074-2.368C584.774,430.185,584.862,428.749,584.857,427.315Z" transform="translate(-572.02 -419.268)"/></g><g transform="translate(96.217 23.895)"><path class="f" d="M677.113,449.835a.949.949,0,0,1,.477.546,18.023,18.023,0,0,1,.49,2.73v.033c.038.537-.686.991-1.619,1.011a2.469,2.469,0,0,1-1.256-.286.87.87,0,0,1-.5-.655,16.453,16.453,0,0,0-.457-2.545c-.14-.534.494-1.032,1.414-1.111A2.55,2.55,0,0,1,677.113,449.835Z" transform="translate(-674.233 -449.548)"/></g><g class="j" transform="translate(14.934 28.937)"><g class="o"><g class="j"><path class="l" d="M512.044,461.479l-.011,4.081a11.78,11.78,0,0,1-.142-1.86l.012-4.082a11.8,11.8,0,0,0,.142,1.861" transform="translate(-511.89 -459.618)"/></g></g></g><g transform="translate(14.946 9.416)"><path class="p" d="M526.083,435.569a7.858,7.858,0,0,0-.821,7.565c-3.946-.269-9.592-.784-13.207-1.124-.932-5.976,2.75-11.875,10.055-16.112a45.218,45.218,0,0,1,15.745-5.269c-1.232,4.193-2.49,11.105-3.4,14.964C531.229,435.619,528.654,435.564,526.083,435.569Z" transform="translate(-511.913 -420.629)"/></g><g class="j" transform="translate(42.509 36.784)"><g class="q"><g class="j"><path class="r" d="M567.232,475.291l-.012,4.081c0,.438-.009.855-.022,1.256l.012-4.082c.012-.4.019-.818.021-1.255" transform="translate(-567.081 -475.291)"/><path class="r" d="M567.106,477.8l-.012,4.082c-.029.986-.08,1.878-.106,2.752L567,480.55c.025-.875.077-1.765.106-2.752" transform="translate(-566.976 -476.543)"/><path class="r" d="M566.988,483.3l-.012,4.081c-.005.177-.009.352-.012.528l.012-4.082q0-.263.012-.527" transform="translate(-566.964 -479.288)"/></g></g></g><g transform="translate(59.399 26.119)"><path class="p" d="M626.3,455.273c1.425,9.749-9.329,18.679-25.6,21.262,1.339-4.322,2.765-11.4,3.742-15.14,3,.028,5.443.115,7.884.144a7.908,7.908,0,0,0,1.159-7.55C617.294,454.31,622.688,454.878,626.3,455.273Z" transform="translate(-600.697 -453.989)"/></g><g transform="translate(16.192 34.359)"><path class="p" d="M553.555,478.013c-.5,2.193-1.407,5.317-2.027,7.373-10.678.563-20.84-1.725-28.028-5.875-4.231-2.443-7.432-5.531-9.1-9.063,7.38.729,19.655,1.48,26.467,2.013.014,1.925-.115,3.437-.138,4.946A37.253,37.253,0,0,0,553.555,478.013Z" transform="translate(-514.401 -470.448)"/></g><g class="s" transform="translate(0.011 0)"><path class="f" d="M567.462,410.323a35.6,35.6,0,0,1,10.164,8.452c.388.493.022,1.072-.824,1.3a2.662,2.662,0,0,1-1.9-.2,1.207,1.207,0,0,1-.343-.285,33.1,33.1,0,0,0-9.448-7.843c-18.316-10.575-47.933-10.573-66.073-.03s-18.048,27.7.215,38.241,47.876,10.544,66.02,0c6.33-3.668,10.688-8.322,12.546-13.4a1.925,1.925,0,0,1,2.035-.76,2.2,2.2,0,0,1,.812.259c.4.23.591.572.457.915-3.292,8.935-13.673,16.437-28.009,20.236-19.526,5.178-41.849,2.452-56.256-5.866a35.583,35.583,0,0,1-10.166-8.454c-11.575-14.567-.6-31.772,24.509-38.43C530.729,399.277,553.055,402,567.462,410.323Z" transform="translate(-482.085 -401.823)"/></g></g><g class="j" transform="translate(524.178 215.159)"><g class="t"><g class="j"><path class="u" d="M666.117,241.831v-4.7c0,.045.01.1.017.176v4.7c-.007-.073-.012-.132-.017-.176" transform="translate(-666.117 -237.13)"/><path class="v" d="M666.15,242.183v-4.7c.053.572.172,2.009.2,4.114v4.7c-.024-2.106-.142-3.542-.2-4.115" transform="translate(-666.133 -237.306)"/><path class="w" d="M666.54,250.4v-4.7q0,.357,0,.738v4.7q0-.382,0-.738" transform="translate(-666.328 -241.409)"/></g></g></g><g class="j" transform="translate(438.779 215.159)"><g class="x"><g class="j"><path class="y" d="M495.552,246.828v-4.7c0-2.778.173-4.567.215-5v4.7c-.042.43-.215,2.219-.215,5" transform="translate(-495.552 -237.13)"/></g></g></g><g class="z" transform="translate(434.593 189.248)"><g transform="translate(0 5.212)"><path class="e" d="M543,202.516a249.832,249.832,0,0,0,47.246,18.59c.263,2.714,5.251,54.275-47.091,79.006-52.612-24.731-47.623-76.292-47.361-79.006C523.405,213.466,542.017,203.064,543,202.516Z" transform="translate(-495.552 -202.516)"/></g><g transform="translate(47.444 0)"><path class="aa" d="M581.013,198.339v-5.212a249.835,249.835,0,0,0,47.246,18.59v5.212A249.836,249.836,0,0,1,581.013,198.339Z" transform="translate(-581.013 -193.127)"/><g class="ab"><g class="j"><path class="b" d="M581.013,198.339v-5.212a249.835,249.835,0,0,0,47.246,18.59v5.212a249.836,249.836,0,0,1-47.246-18.59" transform="translate(-581.013 -193.127)"/></g></g><path class="ac" d="M581.013,198.339v-5.212a249.835,249.835,0,0,0,47.246,18.59v5.212A249.836,249.836,0,0,1,581.013,198.339Z" transform="translate(-581.013 -193.127)"/></g><path class="f" d="M543.062,193.2l-.043.024-.163.09-.095.052-.245.134-.072.039-.392.211-.124.067-.368.2-.161.085-.461.243-.13.068-.636.329-.135.07c-.236.12-.481.246-.741.377l-.052.026c-.246.125-.506.255-.774.389l-.156.078q-.42.209-.874.432l-.181.089c-.305.15-.619.3-.946.46l-.044.021c-.336.163-.687.33-1.046.5l-.217.1q-.536.254-1.1.519l-.183.085q-.531.247-1.087.5l-.187.086c-.4.185-.82.373-1.244.564l-.263.118c-.436.2-.88.394-1.337.6l-.38.165c-.376.165-.755.331-1.145.5l-.6.257c-.331.142-.662.284-1,.428l-.682.286c-.328.137-.654.275-.99.414l-.734.3c-.334.137-.669.275-1.01.413-.257.1-.52.209-.781.314-.339.136-.68.273-1.025.409l-.828.326q-.52.2-1.049.409l-.858.33-1.089.414-.887.332q-.647.242-1.307.484l-.525.193q-.955.347-1.936.7l-.283.1q-.849.3-1.716.6l-.625.214q-.749.256-1.512.512l-.6.2q-1.041.346-2.1.69l-.2.063q-.969.312-1.96.621l-.663.206c-.42.13-.845.259-1.27.388q-1,.3-2.011.6c-.3.088-.6.177-.9.265q-1.453.421-2.939.834l-.006,0v5.212c.994-.275,1.972-.555,2.943-.836.3-.088.6-.178.907-.266q1.012-.3,2.007-.6c.164-.05.334-.1.5-.149.258-.078.51-.158.766-.237l.675-.209q.984-.307,1.949-.617l.207-.066q1.064-.343,2.1-.689l.606-.2q.761-.255,1.509-.511l.626-.215q.867-.3,1.716-.6l.283-.1q.979-.348,1.931-.694l.539-.2c.271-.1.544-.2.813-.3l.482-.18.893-.335q.545-.206,1.081-.41l.865-.333c.352-.136.7-.271,1.044-.406l.832-.328,1.019-.407.79-.318c.338-.137.668-.272,1-.408l.742-.3c.332-.138.656-.274.98-.41l.7-.292c.339-.143.667-.284,1-.426l.6-.257c.38-.164.749-.325,1.116-.486l.415-.181.028-.012c.445-.2.876-.389,1.3-.579l.27-.121q.635-.286,1.242-.563l.187-.085q.557-.256,1.087-.5l.183-.085c.377-.176.741-.348,1.1-.516l.233-.111c.354-.168.7-.334,1.032-.494l.066-.032c.319-.154.625-.3.923-.449l.192-.094q.448-.22.863-.427l.168-.084c.261-.13.513-.257.753-.378l.072-.037c.255-.129.5-.251.726-.37l.154-.079.588-.3.033-.018.15-.078.445-.234.17-.09.353-.188.133-.071.391-.211.072-.039.244-.133.106-.058.137-.076.072-.039.067-.037.047-.026h0v-5.212Z" transform="translate(-495.743 -193.127)"/></g><g class="ad" transform="translate(457.943 216.093)"><g transform="translate(0 2.613)"><path class="e" d="M561.4,246.191a125.25,125.25,0,0,0,23.683,9.319c.132,1.36,2.633,27.207-23.606,39.6-26.374-12.4-23.873-38.244-23.742-39.6A114.238,114.238,0,0,0,561.4,246.191Z" transform="translate(-537.613 -246.191)"/></g><g transform="translate(23.783 0)"><path class="aa" d="M580.454,244.1v-2.613a125.254,125.254,0,0,0,23.683,9.319v2.613A125.247,125.247,0,0,1,580.454,244.1Z" transform="translate(-580.454 -241.484)"/><g class="ae"><g class="j"><path class="b" d="M580.454,244.1v-2.613a125.254,125.254,0,0,0,23.683,9.319v2.613a125.247,125.247,0,0,1-23.683-9.319" transform="translate(-580.454 -241.484)"/></g></g><path class="ac" d="M580.454,244.1v-2.613a125.254,125.254,0,0,0,23.683,9.319v2.613A125.247,125.247,0,0,1,580.454,244.1Z" transform="translate(-580.454 -241.484)"/></g><path class="f" d="M561.429,241.519l-.022.012-.082.046-.047.026-.123.067-.036.019-.2.106-.063.033-.184.1-.081.043-.232.121-.065.034-.319.165-.068.035-.371.189-.026.013-.388.195-.078.039-.438.217-.091.044c-.153.075-.31.152-.474.231l-.022.011-.525.251-.109.052c-.179.085-.363.172-.554.26l-.092.043-.545.252-.093.043q-.3.139-.624.283l-.131.059c-.219.1-.441.2-.671.3l-.19.083c-.189.083-.379.166-.575.25l-.3.129-.5.214-.342.144-.5.207-.368.152-.506.207-.392.158-.514.205-.415.163-.526.2-.431.165-.546.207-.444.167-.656.242-.263.1q-.479.174-.97.349l-.142.05q-.426.15-.86.3l-.313.108-.758.257-.3.1c-.348.115-.7.231-1.055.346l-.1.032q-.486.157-.983.311l-.333.1-.636.194q-.5.152-1.008.3l-.451.133q-.728.211-1.473.419h0v2.613c.5-.138.989-.278,1.475-.419l.455-.134q.507-.149,1.006-.3l.249-.074.384-.119.338-.1q.494-.155.977-.31l.1-.033q.533-.172,1.054-.346l.3-.1q.382-.128.757-.256l.313-.108q.436-.15.86-.3l.142-.05q.491-.174.968-.348l.27-.1.408-.149.241-.091.447-.168.542-.206.433-.167.523-.2.417-.164.511-.2.4-.159.5-.2.372-.153.491-.205.349-.147.5-.213.3-.129.559-.244.208-.091.014-.006.652-.29.135-.061.623-.282.093-.043c.187-.085.368-.169.545-.251l.092-.043.55-.259.117-.056.517-.248.033-.016.462-.225.1-.047.432-.214.084-.042.378-.19.036-.018.364-.185.077-.039.294-.153.017-.009.075-.039.223-.117.086-.046.177-.094.067-.036.2-.105.036-.02.122-.067.053-.029.069-.038.036-.02.033-.018.024-.013h0v-2.613Z" transform="translate(-537.709 -241.484)"/></g><g class="af" transform="translate(534.853 241.259)"><g transform="translate(0 1.816)"><path class="e" d="M554.146,246.191a87.063,87.063,0,0,0,16.463,6.478A27.793,27.793,0,0,1,554.2,280.2a27.771,27.771,0,0,1-16.5-27.53A79.413,79.413,0,0,0,554.146,246.191Z" transform="translate(-537.613 -246.191)"/></g><g transform="translate(16.532 0)"><path class="aa" d="M580.454,243.3v-1.816a87.069,87.069,0,0,0,16.463,6.478v1.816A87.064,87.064,0,0,1,580.454,243.3Z" transform="translate(-580.454 -241.484)"/><g class="ag"><g class="j"><path class="b" d="M580.454,243.3v-1.816a87.069,87.069,0,0,0,16.463,6.478v1.816a87.064,87.064,0,0,1-16.463-6.478" transform="translate(-580.454 -241.484)"/></g></g><path class="ac" d="M580.454,243.3v-1.816a87.069,87.069,0,0,0,16.463,6.478v1.816A87.064,87.064,0,0,1,580.454,243.3Z" transform="translate(-580.454 -241.484)"/></g><path class="f" d="M554.234,241.508l-.015.008-.057.032-.033.018-.086.047-.025.014-.137.074-.044.023-.128.068-.056.03-.161.084-.045.024-.222.115-.047.024-.258.132-.018.009-.27.135-.054.027-.3.151-.063.031-.33.161-.015.007-.365.174-.076.036-.385.181-.064.03-.379.175-.065.03-.434.2-.091.041-.466.207-.132.058-.4.174-.209.089-.349.149-.238.1-.345.144-.255.105-.352.144-.272.11-.357.143-.288.113-.365.142-.3.115-.379.144-.309.116-.456.168-.183.067q-.333.121-.675.242l-.1.035-.6.209-.218.075-.527.178-.21.07c-.242.08-.486.161-.733.24l-.069.022q-.338.109-.683.216l-.231.072-.442.135q-.347.105-.7.21l-.314.092q-.506.147-1.024.291h0v1.816c.347-.1.687-.193,1.025-.291l.316-.093q.352-.1.7-.209l.173-.052.267-.083.235-.073q.343-.108.679-.215l.072-.023q.371-.12.732-.24l.211-.071.526-.178.218-.075.6-.209.1-.035c.228-.081.452-.161.673-.242l.188-.069.283-.1.168-.063.311-.117.377-.143.3-.116.364-.142.29-.114.355-.142.276-.111.348-.142.259-.106.341-.143.242-.1.347-.148.209-.09.389-.169.145-.063.01,0,.453-.2.094-.042.433-.2.065-.03.379-.175.064-.03.382-.18.081-.039.36-.172.023-.011.321-.156.067-.033.3-.149.058-.029.262-.132.025-.013.253-.129.054-.027.2-.106.012-.006.052-.027.155-.081.059-.032.123-.066.046-.025.136-.073.025-.014.085-.046.037-.02.048-.027.025-.014.023-.013.017-.009h0v-1.816Z" transform="translate(-537.745 -241.484)"/></g><g class="af" transform="translate(395.547 214.625)"><g transform="translate(0 2.613)"><path class="e" d="M561.4,246.191a125.25,125.25,0,0,0,23.683,9.319c.132,1.36,2.633,27.207-23.606,39.6-26.374-12.4-23.873-38.244-23.742-39.6A114.238,114.238,0,0,0,561.4,246.191Z" transform="translate(-537.613 -246.191)"/></g><g transform="translate(23.783 0)"><path class="aa" d="M580.454,244.1v-2.613a125.254,125.254,0,0,0,23.683,9.319v2.613A125.247,125.247,0,0,1,580.454,244.1Z" transform="translate(-580.454 -241.484)"/><g class="ae"><g class="j"><path class="b" d="M580.454,244.1v-2.613a125.254,125.254,0,0,0,23.683,9.319v2.613a125.247,125.247,0,0,1-23.683-9.319" transform="translate(-580.454 -241.484)"/></g></g><path class="ac" d="M580.454,244.1v-2.613a125.254,125.254,0,0,0,23.683,9.319v2.613A125.247,125.247,0,0,1,580.454,244.1Z" transform="translate(-580.454 -241.484)"/></g><path class="f" d="M561.429,241.519l-.022.012-.082.046-.047.026-.123.067-.036.019-.2.106-.063.033-.184.1-.081.043-.232.121-.065.034-.319.165-.068.035-.371.189-.026.013-.388.195-.078.039-.438.217-.091.044c-.153.075-.31.152-.474.231l-.022.011-.525.251-.109.052c-.179.085-.363.172-.554.26l-.092.043-.545.252-.093.043q-.3.139-.624.283l-.131.059c-.219.1-.441.2-.671.3l-.19.083c-.189.083-.379.166-.575.25l-.3.129-.5.214-.342.144-.5.207-.368.152-.506.207-.392.158-.514.205-.415.163-.526.2-.431.165-.546.207-.444.167-.656.242-.263.1q-.479.174-.97.349l-.142.05q-.426.15-.86.3l-.313.108-.758.257-.3.1c-.348.115-.7.231-1.055.346l-.1.032q-.486.157-.983.311l-.333.1-.636.194q-.5.152-1.008.3l-.451.133q-.728.211-1.473.419h0v2.613c.5-.138.989-.278,1.475-.419l.455-.134q.507-.149,1.006-.3l.249-.074.384-.119.338-.1q.494-.155.977-.31l.1-.033q.533-.172,1.054-.346l.3-.1q.382-.128.757-.256l.313-.108q.436-.15.86-.3l.142-.05q.491-.174.968-.348l.27-.1.408-.149.241-.091.447-.168.542-.206.433-.167.523-.2.417-.164.511-.2.4-.159.5-.2.372-.153.491-.205.349-.147.5-.213.3-.129.559-.244.208-.091.014-.006.652-.29.135-.061.623-.282.093-.043c.187-.085.368-.169.545-.251l.092-.043.55-.259.117-.056.517-.248.033-.016.462-.225.1-.047.432-.214.084-.042.378-.19.036-.018.364-.185.077-.039.294-.153.017-.009.075-.039.223-.117.086-.046.177-.094.067-.036.2-.105.036-.02.122-.067.053-.029.069-.038.036-.02.033-.018.024-.013h0v-2.613Z" transform="translate(-537.709 -241.484)"/></g><g transform="translate(472.705 230.6)"><path class="ah" d="M581.519,280.079a.629.629,0,0,0-.815.362,12.411,12.411,0,0,1-4.418,5.867,10.041,10.041,0,0,1-2.608,1.358,11.032,11.032,0,0,1-4.382-2.879c-2.807-3.006-4.11-7.515-3.767-13.074a16.162,16.162,0,0,0,8.058-2.68,16.633,16.633,0,0,0,8.619,2.716.635.635,0,1,0,.073-1.267A14.886,14.886,0,0,1,574,267.765a.655.655,0,0,0-.833,0,14.647,14.647,0,0,1-8.275,2.716.626.626,0,0,0-.6.579c-.616,7.823,1.884,12.241,4.074,14.577a11.816,11.816,0,0,0,5.089,3.278.457.457,0,0,0,.145.018h.072a.512.512,0,0,0,.163-.018c.217-.054,5.541-1.467,8.022-8.022a.606.606,0,0,0-.344-.815Z" transform="translate(-564.203 -267.616)"/><path class="ah" d="M595.818,282.044a.688.688,0,1,0,.688-.688A.688.688,0,0,0,595.818,282.044Z" transform="translate(-578.267 -273.728)"/><path class="ah" d="M595.133,286.415a.688.688,0,1,0,.688-.688A.688.688,0,0,0,595.133,286.415Z" transform="translate(-577.962 -275.673)"/><path class="ah" d="M595.883,277.575a.688.688,0,1,0,.688-.688A.688.688,0,0,0,595.883,277.575Z" transform="translate(-578.296 -271.74)"/></g><g transform="translate(409.859 229.132)"><path class="ah" d="M581.519,280.079a.629.629,0,0,0-.815.362,12.411,12.411,0,0,1-4.418,5.867,10.041,10.041,0,0,1-2.608,1.358,11.032,11.032,0,0,1-4.382-2.879c-2.807-3.006-4.11-7.515-3.767-13.074a16.162,16.162,0,0,0,8.058-2.68,16.633,16.633,0,0,0,8.619,2.716.635.635,0,1,0,.073-1.267A14.886,14.886,0,0,1,574,267.765a.655.655,0,0,0-.833,0,14.647,14.647,0,0,1-8.275,2.716.626.626,0,0,0-.6.579c-.616,7.823,1.884,12.241,4.074,14.577a11.816,11.816,0,0,0,5.089,3.278.457.457,0,0,0,.145.018h.072a.512.512,0,0,0,.163-.018c.217-.054,5.541-1.467,8.022-8.022a.606.606,0,0,0-.344-.815Z" transform="translate(-564.203 -267.616)"/><path class="ah" d="M595.818,282.044a.688.688,0,1,0,.688-.688A.688.688,0,0,0,595.818,282.044Z" transform="translate(-578.267 -273.728)"/><path class="ah" d="M595.133,286.415a.688.688,0,1,0,.688-.688A.688.688,0,0,0,595.133,286.415Z" transform="translate(-577.962 -275.673)"/><path class="ah" d="M595.883,277.575a.688.688,0,1,0,.688-.688A.688.688,0,0,0,595.883,277.575Z" transform="translate(-578.296 -271.74)"/></g><g transform="translate(544.801 251.343)"><path class="ah" d="M576.24,276.279a.437.437,0,0,0-.566.252,8.627,8.627,0,0,1-3.071,4.079,6.98,6.98,0,0,1-1.813.944,7.669,7.669,0,0,1-3.046-2c-1.951-2.09-2.857-5.224-2.618-9.088a11.235,11.235,0,0,0,5.6-1.863,11.562,11.562,0,0,0,5.992,1.888.441.441,0,1,0,.05-.881,10.347,10.347,0,0,1-5.753-1.888.455.455,0,0,0-.579,0,10.181,10.181,0,0,1-5.752,1.888.435.435,0,0,0-.416.4c-.428,5.438,1.309,8.509,2.832,10.133a8.214,8.214,0,0,0,3.537,2.278.317.317,0,0,0,.1.012h.05a.355.355,0,0,0,.114-.012,8.823,8.823,0,0,0,5.576-5.576.421.421,0,0,0-.239-.567Z" transform="translate(-564.203 -267.616)"/><path class="ah" d="M595.818,281.835a.478.478,0,1,0,.478-.479A.478.478,0,0,0,595.818,281.835Z" transform="translate(-583.618 -276.054)"/><path class="ah" d="M595.133,286.205a.478.478,0,1,0,.478-.478A.478.478,0,0,0,595.133,286.205Z" transform="translate(-583.197 -278.738)"/><path class="ah" d="M595.883,277.366a.478.478,0,1,0,.479-.479A.478.478,0,0,0,595.883,277.366Z" transform="translate(-583.658 -273.309)"/></g></g><text class="ai" transform="translate(53 84)"><tspan x="0" y="0">Real, pure, safe web3 </tspan><tspan x="0" y="36">protocol supported</tspan></text></g></svg>