<svg xmlns="http://www.w3.org/2000/svg" xmlns:xlink="http://www.w3.org/1999/xlink" width="346" height="378" viewBox="0 0 346 378"><defs><style>.a{fill:#403f3f;}.b{fill:#c92020;opacity:0;}.c,.i{fill:#070203;}.c,.h{opacity:0.2;}.d{opacity:0.23;}.e,.f{fill:#353132;}.f,.j,.q{stroke:#fff;stroke-miterlimit:10;}.g{opacity:0.22;}.j{fill:#3e3d3d;}.k{fill:#302d2c;}.l{opacity:0.6;}.m{opacity:0.3;}.n{isolation:isolate;}.o{clip-path:url(#a);}.p{clip-path:url(#b);}.r{clip-path:url(#c);}.s{clip-path:url(#d);}.t{fill:#2a2e31;font-size:24px;font-family:MicrosoftYaHei-Bold, Microsoft YaHei;font-weight:700;}</style><clipPath id="a"><path class="a" d="M398.608,249.061l2.312,1.581c-5.52-3.774-14.715-2.143-26.238,5.789-22.9,15.762-46.456,50.529-52.513,77.5-3.008,13.4-1.141,22.391,4.308,26.117l-2.312-1.581c-5.449-3.726-7.317-12.719-4.308-26.117,6.057-26.972,29.614-61.74,52.513-77.5C383.893,246.918,393.088,245.287,398.608,249.061Z" transform="translate(-318.424 -247.121)"/></clipPath><clipPath id="b"><path class="a" d="M404.647,242.614l2.312,1.581c6.19,4.12,7.866,14.108,4.718,28.126s-10.742,30.387-21.383,46.092-23.055,28.864-34.957,37.056-21.865,10.435-28.054,6.316l-2.312-1.581c6.189,4.119,16.153,1.876,28.054-6.316s24.317-21.353,34.957-37.057,18.236-32.075,21.383-46.092S410.836,246.733,404.647,242.614Z" transform="translate(-324.97 -242.614)"/></clipPath><clipPath id="c"><path class="a" d="M286.936,309.79l.878-1.575c-2.1,3.759,2.4,11.141,13.984,21.224,23.014,20.036,65.415,43.272,94.519,51.8,14.457,4.234,22.955,4.053,25.025.342l-.878,1.575c-2.07,3.71-10.568,3.892-25.025-.342-29.1-8.523-71.505-31.759-94.519-51.8C289.338,320.93,284.839,313.549,286.936,309.79Z" transform="translate(-286.438 -308.215)"/></clipPath><clipPath id="d"><path class="a" d="M277.128,300.922l.879-1.574c2.237-4.232,11.8-4.122,26.926.308s34,12.65,53.158,23.146,36.286,22.011,48.249,32.425,17.315,18.479,15.079,22.71l-.879,1.574c2.237-4.23-3.118-12.3-15.079-22.71s-29.1-21.929-48.249-32.425-38.033-18.716-53.157-23.146S279.366,296.691,277.128,300.922Z" transform="translate(-277.128 -296.251)"/></clipPath></defs><g transform="translate(-8 -28)"><rect class="b" width="346" height="378" transform="translate(8 28)"/><g transform="translate(-134.543 -62.993)"><g transform="translate(255.773 345.04)"><path class="c" d="M444.38,494.378c0-.031,0-.063-.007-.094s-.006-.055-.01-.082-.009-.063-.015-.094-.011-.055-.017-.083-.014-.061-.022-.091-.016-.055-.024-.083-.019-.06-.03-.09-.02-.054-.031-.081-.026-.063-.04-.095-.024-.053-.037-.079-.032-.062-.049-.094-.028-.051-.042-.076-.044-.074-.068-.111-.029-.045-.044-.067c-.028-.041-.057-.081-.088-.12-.013-.018-.026-.036-.04-.053-.051-.064-.1-.127-.162-.189l-.046-.048c-.045-.048-.093-.094-.142-.141l-.069-.064-.09-.079-.087-.072-.1-.076-.093-.07-.106-.075-.1-.067c-.037-.024-.075-.048-.113-.072s-.1-.06-.145-.089l-35.648-20.716c-.136-.079-.278-.152-.422-.222l-.115-.053c-.131-.061-.264-.118-.4-.171l-.053-.021c-.146-.056-.3-.106-.45-.154-.106-.033-.214-.063-.322-.092-.082-.022-.163-.046-.246-.066-.114-.028-.231-.051-.346-.074-.084-.017-.167-.036-.251-.051l-.105-.017c-.144-.024-.288-.044-.433-.062l-.127-.015c-.083-.009-.168-.014-.252-.021-.14-.011-.281-.022-.422-.028-.09,0-.181-.006-.272-.008-.114,0-.228,0-.342,0q-.144,0-.287.008c-.106,0-.211.01-.317.017s-.193.015-.289.024-.209.021-.312.035-.187.025-.28.04c-.111.017-.221.037-.332.057-.087.017-.173.034-.259.052-.131.029-.261.062-.388.1-.083.022-.167.043-.249.067l-.133.041c-.128.041-.255.083-.379.13-.036.013-.073.026-.109.04-.114.044-.223.093-.333.141-.053.023-.109.045-.161.07-.158.075-.312.154-.459.24l-35.879,20.715a3.13,3.13,0,0,0-1.846,2.58l-.006-2.027a3.13,3.13,0,0,1,1.846-2.58L398.066,469.2c.147-.085.3-.165.459-.24.053-.025.108-.046.161-.07.094-.042.186-.085.283-.123l.05-.019.109-.04q.187-.069.379-.13l.132-.041.089-.028c.052-.015.107-.025.16-.039.128-.034.257-.067.388-.1.035-.008.068-.018.1-.025.051-.01.1-.017.156-.027.11-.021.22-.04.332-.058.044-.007.088-.017.133-.023s.1-.01.147-.016c.1-.013.208-.025.312-.035.05,0,.1-.012.149-.016s.094,0,.14-.008q.158-.011.317-.017c.053,0,.105-.007.159-.008s.085,0,.128,0c.114,0,.228,0,.342,0,.057,0,.114,0,.17,0,.034,0,.067.005.1.007.141.006.282.016.422.028.057,0,.114.006.17.011l.082.01.127.015q.218.026.433.061l.105.017.05.008c.068.012.134.03.2.043.116.024.233.047.347.074.083.02.164.044.245.066.108.03.217.059.323.092l.069.02c.129.042.256.087.381.135l.053.022c.137.053.27.111.4.171l.115.054c.145.07.286.143.422.222l35.648,20.716.076.045.069.043.113.072.1.068.105.074.094.07.1.076.086.072.091.079.037.032.031.031c.049.046.1.094.141.141l.046.048c.057.063.112.126.162.189l.007.008c.012.015.021.03.033.044.03.04.06.081.088.121.015.022.03.045.044.067s.047.073.069.11c.006.01.013.021.019.031s.015.031.023.046c.017.031.033.062.049.094l.037.079q.021.047.04.095c.005.014.012.029.018.042s.008.026.013.039c.01.03.021.06.03.09s.017.055.024.083.015.061.022.091.009.033.012.049,0,.022.005.033c.006.031.011.063.015.094s.008.054.01.082.005.063.007.095,0,.037,0,.055,0,.037,0,.055l.006,2.027C444.384,494.452,444.381,494.415,444.38,494.378Z" transform="translate(-337.741 -456.04)"/><g class="d"><path class="e" d="M442.223,521.377c0,.049-.005.1-.01.145s-.011.084-.016.127-.014.1-.022.144-.017.085-.027.127-.021.093-.034.14-.024.085-.038.127-.029.093-.046.139-.031.083-.047.124-.04.1-.062.146-.037.081-.057.122-.049.1-.074.144-.042.078-.065.117c-.033.057-.069.114-.105.17-.022.035-.044.069-.067.1-.042.062-.088.124-.135.185-.021.027-.04.055-.062.082-.078.1-.161.195-.249.291-.023.025-.047.049-.071.074q-.1.109-.218.217l-.1.1c-.045.041-.092.081-.139.121s-.087.074-.133.111-.1.079-.151.118-.094.072-.143.107-.108.077-.164.115l-.153.1c-.057.037-.115.073-.174.11-.074.046-.147.092-.223.136l-54.819,31.858c-.209.121-.427.233-.65.341l-.176.083c-.2.093-.407.181-.617.263l-.082.033c-.225.086-.457.163-.691.237-.163.051-.329.1-.5.141-.126.034-.251.071-.378.1-.176.042-.354.078-.533.114-.129.026-.256.056-.387.079l-.162.026q-.331.054-.666.094l-.2.023c-.129.014-.259.022-.388.033-.216.018-.431.033-.648.043-.139.006-.279.009-.419.012-.175,0-.35,0-.526,0-.147,0-.294-.007-.441-.012q-.244-.009-.487-.026-.223-.016-.445-.037-.241-.024-.481-.054c-.144-.018-.287-.039-.43-.061q-.256-.04-.51-.089c-.134-.025-.267-.052-.4-.081-.2-.044-.4-.094-.6-.147-.128-.034-.257-.065-.382-.1-.069-.02-.136-.042-.2-.063q-.3-.093-.584-.2c-.056-.021-.113-.04-.168-.062-.175-.068-.343-.143-.512-.217-.082-.037-.168-.07-.248-.108-.242-.115-.479-.238-.706-.368l-55.176-31.856c-1.9-1.095-2.844-2.532-2.84-3.968l-.009,3.116c0,1.436.944,2.873,2.84,3.968L371,560.095c.227.131.463.253.706.368.081.039.166.072.248.108.144.064.286.13.434.189l.077.028c.055.022.112.041.168.062.192.071.386.137.584.2.068.021.135.043.2.063l.136.042c.081.023.165.039.247.06.2.052.4.1.6.147.053.012.1.028.159.039.079.016.16.027.24.042.169.033.338.062.51.089.068.01.135.026.2.035s.15.016.225.025c.16.021.32.038.481.054.077.007.152.019.229.025s.144.007.216.012c.162.011.324.02.487.026.082,0,.163.011.244.013.066,0,.131,0,.2,0,.176,0,.351,0,.526,0,.087,0,.175,0,.262,0,.052,0,.1-.008.156-.011.217-.01.433-.025.648-.043.087-.008.176-.009.262-.018l.126-.015.195-.023q.336-.04.666-.094l.163-.026.077-.012c.1-.019.205-.045.309-.066.179-.036.358-.072.533-.114.128-.031.252-.068.378-.1.167-.046.333-.091.5-.142.034-.011.071-.019.105-.03q.3-.1.586-.207l.082-.033c.21-.082.416-.17.617-.263l.176-.083c.222-.107.441-.219.649-.341l54.819-31.858.117-.069c.037-.022.07-.045.106-.067.059-.036.117-.073.174-.11s.1-.069.154-.1.109-.075.162-.114.1-.072.144-.108.1-.078.151-.118l.132-.11.139-.122.057-.05c.017-.016.031-.032.048-.048q.114-.107.218-.217l.071-.074c.088-.1.172-.193.25-.291l.011-.012c.018-.022.032-.046.05-.069.047-.062.093-.123.136-.186.023-.034.045-.069.067-.1.036-.056.072-.113.1-.17.009-.016.02-.031.029-.047s.023-.047.036-.07c.026-.048.051-.1.074-.144s.039-.081.057-.122.042-.1.062-.146c.009-.022.02-.043.028-.065s.012-.04.019-.059c.017-.046.032-.093.046-.139s.026-.085.037-.127.024-.094.034-.14c.006-.025.013-.051.018-.076s.005-.034.008-.051c.009-.048.016-.1.023-.145s.011-.083.016-.126.008-.1.01-.146c0-.028.005-.056.006-.084s0-.056,0-.084l.009-3.116C442.231,521.264,442.227,521.321,442.223,521.377Z" transform="translate(-312.986 -483.753)"/><path class="f" d="M439.4,476.269l-55.176-31.856a15,15,0,0,0-13.605,0L315.8,476.271c-3.744,2.176-3.724,5.7.044,7.881l55.176,31.856a14.99,14.99,0,0,0,13.6,0l54.819-31.858C443.189,481.974,443.172,478.447,439.4,476.269Zm-21.46,5.517-35.7,20.748a9.763,9.763,0,0,1-8.86,0l-35.934-20.746c-2.454-1.417-2.467-3.715-.029-5.132l35.7-20.748a9.763,9.763,0,0,1,8.86,0l35.934,20.746C420.367,478.072,420.379,480.369,417.94,481.786Z" transform="translate(-312.996 -442.782)"/></g></g><g class="g" transform="translate(214.185 328.813)"><path class="c" d="M443.478,486.265c0-.052-.006-.1-.011-.156s-.01-.091-.017-.136-.015-.1-.024-.155-.018-.092-.029-.137-.023-.1-.037-.15-.026-.092-.04-.137-.031-.1-.05-.15-.033-.089-.051-.134-.043-.1-.066-.157-.04-.087-.061-.131-.052-.1-.08-.155-.046-.084-.07-.126c-.036-.062-.074-.123-.114-.183-.024-.037-.047-.074-.073-.111-.046-.067-.1-.134-.146-.2-.022-.03-.043-.059-.066-.088-.084-.106-.174-.21-.269-.314-.024-.026-.051-.052-.076-.079-.075-.079-.153-.157-.235-.234l-.114-.1c-.048-.044-.1-.087-.149-.13s-.094-.08-.144-.119-.107-.085-.162-.127-.1-.077-.153-.116-.117-.083-.177-.124-.108-.075-.165-.112-.124-.079-.188-.119c-.079-.049-.158-.1-.241-.147l-59.046-34.314c-.225-.131-.46-.252-.7-.367-.063-.031-.126-.06-.189-.089-.217-.1-.438-.2-.664-.283l-.088-.036c-.242-.093-.492-.176-.745-.255-.175-.055-.355-.1-.534-.153-.136-.037-.27-.076-.407-.109-.189-.046-.382-.084-.574-.123-.139-.028-.276-.06-.417-.084-.058-.01-.117-.019-.175-.028-.238-.039-.477-.073-.718-.1-.07-.009-.14-.018-.21-.025-.139-.015-.279-.023-.419-.035-.232-.019-.464-.036-.7-.046-.15-.007-.3-.01-.451-.013-.189,0-.378,0-.566,0-.158,0-.317.007-.475.013-.175.007-.35.016-.524.028s-.32.025-.479.04-.346.036-.518.058c-.155.02-.309.042-.462.065-.185.029-.367.061-.549.1-.144.028-.287.056-.43.087-.218.047-.431.1-.644.157-.137.037-.277.071-.412.111-.074.022-.147.045-.22.068q-.319.1-.629.215c-.06.022-.122.043-.181.066-.188.073-.37.154-.551.234-.088.039-.18.075-.267.116-.262.125-.516.256-.76.4l-59.43,34.312c-2.043,1.179-3.063,2.727-3.058,4.274l-.01-3.357c0-1.546,1.016-3.094,3.058-4.274l59.43-34.312c.244-.141.5-.273.761-.4.087-.041.178-.077.267-.116.155-.069.308-.14.468-.2l.083-.03c.06-.023.121-.044.181-.066q.309-.115.629-.215c.073-.023.145-.046.219-.068.049-.014.1-.031.147-.045.087-.025.178-.042.265-.065.213-.057.426-.11.644-.158.058-.013.113-.03.171-.042.085-.018.173-.029.258-.045q.273-.052.549-.1c.073-.011.146-.028.22-.038s.162-.017.243-.027q.258-.033.517-.058c.083-.008.164-.021.246-.027s.156-.007.233-.012c.175-.012.349-.021.524-.028.088,0,.175-.012.263-.014.071,0,.141,0,.212,0,.189,0,.378,0,.567,0,.094,0,.188,0,.282,0,.056,0,.112.009.168.011.234.01.466.027.7.047.094.008.189.01.283.019l.135.016.21.025q.361.044.718.1l.175.028.083.013c.113.02.221.049.333.071.192.039.385.077.574.123.137.033.271.073.407.11.179.049.359.1.534.152.038.012.077.021.114.032q.321.1.63.223l.088.036q.34.133.664.284l.189.089c.24.116.474.237.7.367l59.046,34.314.126.075.114.072c.063.04.126.079.187.119s.112.075.167.113.117.081.174.123.1.077.155.116.109.084.162.127.1.079.142.118.1.087.15.131l.062.053c.018.017.033.034.052.051.082.077.159.155.234.234.025.026.052.052.076.079q.142.155.269.314l.011.013c.02.024.035.049.054.074.051.066.1.133.146.2.025.037.049.074.073.112.04.061.078.122.114.183.01.017.021.033.031.05s.025.051.039.075c.028.052.054.1.08.156s.042.087.061.131.045.1.066.157c.01.024.021.047.03.071s.014.042.021.063c.018.05.034.1.05.15s.028.092.04.137.026.1.037.151c.006.027.015.054.02.082s.005.037.009.055c.01.052.017.1.025.156s.012.09.017.136.009.1.011.158c0,.03.006.061.007.091s0,.061,0,.091l.01,3.356C443.486,486.387,443.481,486.326,443.478,486.265Z" transform="translate(-266.845 -422.762)"/><g class="h" transform="translate(0 -2)"><path class="i" d="M439.907,530.986c0,.08-.009.16-.017.24s-.017.139-.026.209-.023.159-.038.239-.028.141-.044.211-.036.155-.056.232-.04.141-.062.211-.049.154-.076.23-.051.137-.078.205-.066.162-.1.242-.061.135-.094.2-.08.159-.123.238-.071.13-.108.194c-.055.094-.114.188-.174.281-.037.057-.073.115-.112.171-.071.1-.147.205-.224.307-.034.045-.066.091-.1.136q-.193.244-.413.482c-.038.041-.078.081-.117.122q-.173.181-.361.359c-.057.054-.115.108-.174.162s-.151.134-.23.2-.145.123-.22.184-.165.13-.249.2-.156.118-.236.177-.179.127-.271.19-.167.115-.253.171-.191.122-.289.183c-.122.076-.242.152-.37.226l-90.8,52.768c-.346.2-.707.387-1.076.565-.1.047-.193.092-.291.137-.333.154-.673.3-1.021.436-.046.018-.09.038-.136.055-.373.142-.756.271-1.144.393-.27.084-.545.159-.821.234-.208.057-.414.117-.626.168-.291.07-.587.129-.882.189-.213.043-.424.092-.64.13-.089.015-.179.028-.269.042q-.548.09-1.1.157c-.107.013-.215.027-.323.039-.214.023-.429.036-.644.054-.357.03-.714.056-1.074.072-.23.01-.461.015-.692.019-.291.005-.581.008-.871,0-.244,0-.487-.01-.731-.02q-.4-.016-.807-.043c-.246-.017-.492-.038-.737-.062q-.4-.039-.8-.089-.358-.045-.712-.1-.425-.067-.844-.147c-.221-.042-.442-.086-.661-.134-.334-.073-.663-.156-.99-.243-.211-.056-.425-.108-.633-.17-.114-.033-.225-.07-.337-.1q-.491-.155-.967-.331c-.093-.034-.187-.066-.278-.1-.289-.112-.568-.236-.847-.36-.136-.061-.277-.115-.411-.179-.4-.191-.794-.393-1.17-.61L230.559,537.19c-3.141-1.813-4.71-4.195-4.7-6.572l-.015,5.162c-.007,2.378,1.562,4.758,4.7,6.572l91.392,52.765c.376.217.767.419,1.17.61.134.063.275.118.411.179.239.106.473.216.72.314.042.016.085.031.127.047.092.035.186.067.279.1q.475.175.967.33c.112.035.223.071.337.1.075.022.149.049.225.07.134.038.273.064.409.1.327.086.655.169.99.242.089.02.174.046.264.065.13.027.265.044.4.069.28.053.561.1.844.147.114.018.224.042.338.059s.25.026.374.042q.4.05.8.089c.127.012.252.032.379.042s.239.011.358.019q.4.028.806.043c.136.006.27.019.405.022.108,0,.217,0,.326,0,.291,0,.581,0,.871,0,.145,0,.29,0,.434,0,.087,0,.172-.013.258-.017.36-.016.717-.042,1.074-.072.145-.012.291-.015.435-.029.07-.007.139-.017.209-.025.108-.011.215-.026.323-.039q.555-.067,1.1-.156c.09-.015.18-.027.27-.043l.127-.021c.173-.031.341-.074.512-.109.3-.06.592-.118.883-.189.212-.051.417-.112.626-.168.276-.075.552-.149.821-.234.057-.018.118-.031.175-.05.329-.106.652-.221.969-.343.046-.018.09-.037.136-.055.349-.136.688-.282,1.022-.436.1-.045.194-.091.291-.137.368-.179.73-.364,1.076-.565l90.8-52.769c.065-.038.13-.076.194-.115s.116-.074.176-.111c.1-.061.194-.121.288-.183s.172-.115.256-.173.181-.125.268-.189.16-.118.238-.178.168-.129.25-.2.147-.121.219-.182.156-.134.231-.2c.031-.028.064-.054.094-.083s.052-.052.079-.079q.188-.177.361-.359c.039-.041.079-.081.117-.122.146-.159.284-.319.413-.482l.018-.021c.03-.037.054-.076.083-.114.078-.1.154-.2.225-.308.039-.057.074-.114.111-.171.061-.094.119-.187.175-.282.015-.026.033-.052.048-.078s.039-.077.06-.116c.042-.079.084-.158.123-.239s.064-.134.094-.2.07-.161.1-.241c.014-.036.032-.072.045-.108s.021-.065.032-.1q.041-.115.076-.231c.021-.07.042-.14.062-.211s.039-.155.057-.232c.009-.042.022-.084.031-.126s.008-.057.013-.085c.015-.08.026-.159.038-.239s.019-.139.026-.208.013-.162.018-.242c0-.046.009-.093.01-.139s0-.094,0-.14l.015-5.162C439.92,530.8,439.913,530.893,439.907,530.986Z" transform="translate(-225.841 -468.665)"/><path class="j" d="M435.231,456.27l-91.392-52.765c-6.243-3.6-16.333-3.6-22.535,0l-90.8,52.768c-6.2,3.6-6.169,9.449.073,13.053l91.392,52.765c6.247,3.606,16.333,3.6,22.535,0l90.8-52.768C441.506,465.719,441.477,459.876,435.231,456.27Zm-35.546,9.138-59.136,34.366a16.168,16.168,0,0,1-14.676,0l-59.52-34.364c-4.066-2.348-4.087-6.154-.048-8.5l59.136-34.366a16.174,16.174,0,0,1,14.676,0l59.52,34.364C403.705,459.256,403.724,463.061,399.685,465.408Z" transform="translate(-225.857 -400.802)"/></g></g><g transform="translate(307.56 250.974)"><g transform="translate(19.193 11.081)"><path class="k" d="M480.851,301.55l-.066,23.341-19.068,11.081.066-23.341Z" transform="translate(-461.716 -301.55)"/></g><g transform="translate(0 11.081)"><path class="i" d="M440.759,312.632l-.066,23.341L421.5,324.892l.066-23.341Z" transform="translate(-421.499 -301.551)"/></g><g transform="translate(0.066)"><path class="j" d="M459.9,289.412l-19.068,11.081-19.193-11.081,19.068-11.081Z" transform="translate(-421.638 -278.331)"/></g></g><g class="l" transform="translate(326.714 308.608)"><g transform="translate(19.193 11.081)"><path class="k" d="M520.987,407.547l-.066,23.341L501.853,441.97l.066-23.341Z" transform="translate(-501.853 -407.547)"/></g><g transform="translate(0 11.081)"><path class="i" d="M480.9,418.628l-.066,23.341-19.193-11.081.066-23.341Z" transform="translate(-461.636 -407.547)"/></g><g transform="translate(0.066)"><path class="j" d="M500.036,395.409,480.968,406.49l-19.193-11.081,19.068-11.081Z" transform="translate(-461.775 -384.328)"/></g></g><g class="l" transform="translate(270.84 302.347)"><g transform="translate(19.193 11.081)"><path class="k" d="M403.908,395.547l-.066,23.341L384.774,429.97l.066-23.341Z" transform="translate(-384.774 -395.547)"/></g><g transform="translate(0 11.081)"><path class="i" d="M363.816,406.628l-.066,23.341-19.193-11.081.066-23.341Z" transform="translate(-344.557 -395.547)"/></g><g transform="translate(0.066)"><path class="j" d="M382.956,383.409,363.888,394.49,344.7,383.409l19.068-11.081Z" transform="translate(-344.695 -372.328)"/></g></g><g transform="translate(349.778 269.174)"><g transform="translate(19.193 11.081)"><path class="k" d="M569.316,331.967l-.066,23.341L550.182,366.39l.066-23.341Z" transform="translate(-550.182 -331.967)"/></g><g transform="translate(0 11.081)"><path class="i" d="M529.224,343.049l-.066,23.341-19.193-11.081.066-23.341Z" transform="translate(-509.965 -331.967)"/></g><g transform="translate(0.066)"><path class="j" d="M548.365,319.829,529.3,330.91,510.1,319.829l19.068-11.081Z" transform="translate(-510.104 -308.748)"/></g></g><g transform="translate(325.703 272.616)"><g transform="translate(19.193 11.081)"><path class="k" d="M518.868,338.564l-.066,23.341-19.068,11.081.066-23.341Z" transform="translate(-499.734 -338.564)"/></g><g transform="translate(0 11.081)"><path class="i" d="M478.776,349.645l-.066,23.341-19.193-11.081.066-23.341Z" transform="translate(-459.517 -338.564)"/></g><g transform="translate(0.066)"><path class="j" d="M497.917,326.425l-19.068,11.081-19.193-11.081,19.068-11.081Z" transform="translate(-459.656 -315.344)"/></g></g><g class="m" transform="translate(301.448 351.999)"><g transform="translate(19.193 11.081)"><path class="k" d="M468.044,490.712l-.066,23.341L448.91,525.134l.066-23.341Z" transform="translate(-448.91 -490.712)"/></g><g transform="translate(0 11.081)"><path class="i" d="M427.952,501.793l-.066,23.341-19.193-11.081.066-23.341Z" transform="translate(-408.693 -490.712)"/></g><g transform="translate(0.066 0)"><path class="j" d="M447.093,478.573l-19.068,11.081-19.193-11.081L427.9,467.492Z" transform="translate(-408.832 -467.492)"/></g></g><g class="l" transform="translate(296.994 320.71)"><g transform="translate(0 11.081)"><path class="k" d="M399.36,430.741l.066,23.341,19.068,11.081-.066-23.341Z" transform="translate(-399.36 -430.741)"/></g><g transform="translate(19.068 11.081)"><path class="i" d="M439.315,441.823l.066,23.341,19.193-11.081-.066-23.341Z" transform="translate(-439.315 -430.742)"/></g><g transform="translate(0)"><path class="j" d="M399.36,418.6l19.068,11.081L437.621,418.6l-19.068-11.081Z" transform="translate(-399.36 -407.522)"/></g></g><g transform="translate(301.448 290.136)"><g transform="translate(0 11.081)"><path class="k" d="M408.693,372.143l.066,23.341,19.068,11.081-.066-23.341Z" transform="translate(-408.693 -372.143)"/></g><g transform="translate(19.068 11.081)"><path class="i" d="M448.649,383.225l.066,23.341,19.193-11.081-.066-23.341Z" transform="translate(-448.649 -372.144)"/></g><g transform="translate(0)"><path class="j" d="M408.693,360.005l19.068,11.081,19.193-11.081-19.068-11.081Z" transform="translate(-408.693 -348.924)"/></g></g><g class="l" transform="translate(385.939 237.424)"><g transform="translate(9.644 5.568)"><path class="k" d="M615.559,261.6l-.033,11.729-9.582,5.568.033-11.729Z" transform="translate(-605.945 -261.605)"/></g><g transform="translate(0 5.568)"><path class="i" d="M595.414,267.173,595.38,278.9l-9.644-5.568.033-11.729Z" transform="translate(-585.736 -261.605)"/></g><g transform="translate(0.033 0)"><path class="j" d="M605.031,255.506l-9.582,5.568-9.644-5.568,9.582-5.568Z" transform="translate(-585.806 -249.937)"/></g></g><g class="l" transform="translate(367.291 316.993)"><g transform="translate(5.076 2.931)"><path class="k" d="M562.357,409.059l-.018,6.173-5.043,2.931.018-6.173Z" transform="translate(-557.297 -409.059)"/></g><g transform="translate(0 2.931)"><path class="i" d="M551.754,411.99l-.018,6.173-5.076-2.931.018-6.173Z" transform="translate(-546.66 -409.059)"/></g><g transform="translate(0.018 0)"><path class="j" d="M556.816,405.849l-5.043,2.931-5.076-2.931,5.043-2.931Z" transform="translate(-546.697 -402.918)"/></g></g><g class="l" transform="translate(398.283 328.813)"><g transform="translate(6.925 3.998)"><path class="k" d="M564.2,409.059l-.024,8.422-6.88,4,.024-8.422Z" transform="translate(-557.297 -409.059)"/></g><g transform="translate(0 3.999)"><path class="i" d="M553.61,413.058l-.024,8.422-6.925-4,.024-8.422Z" transform="translate(-546.66 -409.059)"/></g><g transform="translate(0.024 0)"><path class="j" d="M560.5,406.917l-6.88,4-6.925-4,6.88-4Z" transform="translate(-546.697 -402.918)"/></g></g><g class="l" transform="translate(254.974 226)"><g transform="translate(7.945 4.587)"><path class="k" d="M335.88,235.611l-.027,9.662-7.893,4.587.027-9.662Z" transform="translate(-327.96 -235.611)"/></g><g transform="translate(0 4.587)"><path class="i" d="M319.284,240.2l-.027,9.662-7.945-4.587.027-9.662Z" transform="translate(-311.312 -235.612)"/></g><g transform="translate(0.027)"><path class="j" d="M327.208,230.587l-7.893,4.587-7.945-4.587L319.263,226Z" transform="translate(-311.37 -226)"/></g></g><g class="l" transform="translate(203.543 313.96)"><g transform="translate(15.187 8.768)"><path class="k" d="M250.507,413.736l-.052,18.469-15.088,8.768.052-18.469Z" transform="translate(-235.366 -413.736)"/></g><g transform="translate(0 8.768)"><path class="i" d="M218.783,422.5l-.052,18.469-15.187-8.768.052-18.469Z" transform="translate(-203.543 -413.736)"/></g><g transform="translate(0.052)"><path class="j" d="M233.928,404.131,218.84,412.9l-15.187-8.768,15.088-8.768Z" transform="translate(-203.653 -395.363)"/></g></g><g class="g" transform="translate(255.223 231.914)"><g class="n" transform="translate(3.145 4.166)"><path class="a" d="M398.608,249.061l2.312,1.581c-5.52-3.774-14.715-2.143-26.238,5.789-22.9,15.762-46.456,50.529-52.513,77.5-3.008,13.4-1.141,22.391,4.308,26.117l-2.312-1.581c-5.449-3.726-7.317-12.719-4.308-26.117,6.057-26.972,29.614-61.74,52.513-77.5C383.893,246.918,393.088,245.287,398.608,249.061Z" transform="translate(-318.424 -247.121)"/><g class="o"><g class="n" transform="translate(0)"><path class="a" d="M449.056,249.061l2.312,1.581c-5.52-3.774-14.715-2.143-26.238,5.789a90.094,90.094,0,0,0-7.892,6.145L414.926,261a90.172,90.172,0,0,1,7.892-6.145c11.524-7.932,20.719-9.563,26.238-5.789" transform="translate(-368.872 -247.121)"/><path class="a" d="M408.331,276.193l2.312,1.581q-3.033,2.629-6.02,5.616l-2.313-1.581q2.981-2.977,6.02-5.616" transform="translate(-362.277 -262.319)"/><path class="a" d="M397.031,287.961l2.313,1.581q-2.438,2.435-4.821,5.073l-2.312-1.581q2.38-2.634,4.821-5.073" transform="translate(-356.997 -268.471)"/><path class="a" d="M387.471,298.592l2.312,1.581q-2.195,2.429-4.326,5.006l-2.312-1.581q2.128-2.574,4.326-5.006" transform="translate(-352.258 -274.029)"/><path class="a" d="M378.74,309.082l2.312,1.581q-2.048,2.476-4.022,5.066l-2.312-1.581q1.971-2.587,4.022-5.066" transform="translate(-347.852 -279.512)"/><path class="a" d="M370.486,319.7l2.312,1.581q-1.976,2.593-3.863,5.28l-2.312-1.581q1.884-2.683,3.863-5.28" transform="translate(-343.621 -285.061)"/><path class="a" d="M362.464,330.76l2.312,1.581q-1.954,2.781-3.8,5.64l-2.312-1.581q1.84-2.855,3.8-5.64" transform="translate(-339.462 -290.845)"/><path class="a" d="M354.446,342.579l2.312,1.581q-2,3.109-3.855,6.28l-2.312-1.581q1.848-3.166,3.855-6.28" transform="translate(-335.24 -297.023)"/><path class="a" d="M346.118,355.739l2.312,1.581q-2.161,3.7-4.084,7.448l-2.312-1.581q1.917-3.736,4.084-7.448" transform="translate(-330.766 -303.903)"/><path class="a" d="M336.246,371.345l2.312,1.581c-1.985,3.868-3.761,7.743-5.283,11.561l-2.312-1.581c1.523-3.818,3.3-7.693,5.283-11.561" transform="translate(-324.979 -312.061)"/><path class="a" d="M325.775,395.57l2.312,1.581a95.843,95.843,0,0,0-4.551,14.386q-.1.425-.185.845l-2.312-1.581q.089-.419.185-.845a95.822,95.822,0,0,1,4.551-14.386" transform="translate(-319.791 -324.725)"/><path class="a" d="M319.7,427.485l2.312,1.581a54.748,54.748,0,0,0-1.221,9.262l-2.312-1.581a54.752,54.752,0,0,1,1.221-9.262" transform="translate(-318.454 -341.409)"/><path class="a" d="M318.451,446.892l2.312,1.581a33.582,33.582,0,0,0,.17,5.07l-2.312-1.581a33.581,33.581,0,0,1-.17-5.07" transform="translate(-318.424 -351.555)"/><path class="a" d="M318.837,457.516l2.312,1.581a22.865,22.865,0,0,0,.722,3.707l-2.312-1.581a22.854,22.854,0,0,1-.722-3.707" transform="translate(-318.64 -357.108)"/><path class="a" d="M320.349,465.284l2.312,1.581a16.457,16.457,0,0,0,1.121,2.893l-2.312-1.581a16.427,16.427,0,0,1-1.121-2.893" transform="translate(-319.43 -361.169)"/><path class="a" d="M322.7,471.346l2.312,1.581a12.581,12.581,0,0,0,1.491,2.305l-2.312-1.581a12.566,12.566,0,0,1-1.491-2.305" transform="translate(-320.658 -364.338)"/><path class="a" d="M325.822,476.176l2.312,1.581a10.659,10.659,0,0,0,1.889,1.806l-2.312-1.581a10.625,10.625,0,0,1-1.889-1.806" transform="translate(-322.291 -366.863)"/><path class="a" d="M329.78,479.96l2.312,1.581c.106.078.213.155.322.229l-2.312-1.581c-.109-.074-.216-.15-.322-.229" transform="translate(-324.36 -368.841)"/></g></g></g><g transform="translate(6.269 2.015)"><path class="a" d="M404.647,242.614l2.312,1.581c6.19,4.12,7.866,14.108,4.718,28.126s-10.742,30.387-21.383,46.092-23.055,28.864-34.957,37.056-21.865,10.435-28.054,6.316l-2.312-1.581c6.189,4.119,16.153,1.876,28.054-6.316s24.317-21.353,34.957-37.057,18.236-32.075,21.383-46.092S410.836,246.733,404.647,242.614Z" transform="translate(-324.97 -242.614)"/><g class="p"><g class="n"><path class="a" d="M491.925,242.614l2.312,1.581q.24.16.47.331l-2.312-1.581q-.23-.171-.47-.331" transform="translate(-412.248 -242.614)"/><path class="a" d="M492.91,243.307l2.312,1.581a11.489,11.489,0,0,1,2.039,1.949l-2.312-1.581a11.507,11.507,0,0,0-2.039-1.949" transform="translate(-412.763 -242.976)"/><path class="a" d="M497.183,247.391l2.312,1.581a13.424,13.424,0,0,1,1.59,2.458l-2.312-1.581a13.428,13.428,0,0,0-1.59-2.458" transform="translate(-414.997 -245.111)"/><path class="a" d="M500.515,252.541l2.312,1.581a17.462,17.462,0,0,1,1.189,3.067l-2.312-1.581a17.457,17.457,0,0,0-1.189-3.068" transform="translate(-416.739 -247.803)"/><path class="a" d="M503.007,258.969l2.312,1.581a24.365,24.365,0,0,1,.766,3.921l-2.313-1.581a24.3,24.3,0,0,0-.766-3.921" transform="translate(-418.042 -251.164)"/><path class="a" d="M504.612,267.186l2.313,1.581a35.943,35.943,0,0,1,.187,5.421l-2.312-1.581a35.876,35.876,0,0,0-.187-5.42" transform="translate(-418.881 -255.459)"/><path class="a" d="M503.582,278.544l2.312,1.581a58.978,58.978,0,0,1-1.3,9.94l-2.312-1.581a58.981,58.981,0,0,0,1.3-9.94" transform="translate(-417.664 -261.397)"/><path class="a" d="M496.545,299.373l2.312,1.581q-.108.515-.226,1.039a103.861,103.861,0,0,1-5.013,15.789l-2.312-1.581a103.86,103.86,0,0,0,5.013-15.789q.117-.523.226-1.039" transform="translate(-411.925 -272.286)"/><path class="a" d="M485.247,334.634l2.312,1.581c-1.588,3.957-3.44,8-5.532,12.075l-2.312-1.581c2.091-4.076,3.943-8.118,5.532-12.075" transform="translate(-405.865 -290.719)"/><path class="a" d="M474.937,359.937l2.312,1.581q-2.033,3.962-4.361,7.951l-2.312-1.581q2.325-3.982,4.361-7.951" transform="translate(-401.088 -303.946)"/><path class="a" d="M466.053,376.6l2.312,1.581q-1.966,3.367-4.129,6.725l-2.312-1.581q2.161-3.354,4.129-6.725" transform="translate(-396.565 -312.656)"/><path class="a" d="M457.4,390.689l2.312,1.581q-1.148,1.781-2.348,3.553-.881,1.3-1.779,2.578l-2.312-1.581q.9-1.277,1.779-2.578,1.2-1.771,2.348-3.552" transform="translate(-392.044 -320.023)"/><path class="a" d="M448.731,403.535l2.312,1.581q-2.038,2.9-4.15,5.671l-2.312-1.581q2.109-2.768,4.15-5.671" transform="translate(-387.499 -326.738)"/><path class="a" d="M439.891,415.418,442.2,417q-2.11,2.77-4.281,5.393l-2.312-1.581q2.168-2.621,4.281-5.393" transform="translate(-382.809 -332.95)"/><path class="a" d="M430.591,426.718,432.9,428.3q-2.266,2.74-4.582,5.3l-2.312-1.581q2.314-2.561,4.582-5.3" transform="translate(-377.79 -338.857)"/><path class="a" d="M420.357,437.831l2.312,1.581q-2.558,2.833-5.159,5.43l-2.313-1.581q2.6-2.594,5.159-5.431" transform="translate(-372.138 -344.667)"/><path class="a" d="M408.189,449.211l2.313,1.581q-3.185,3.181-6.4,5.973l-2.312-1.581q3.207-2.785,6.4-5.973" transform="translate(-365.129 -350.616)"/><path class="a" d="M361.632,461.726l2.312,1.581a97.6,97.6,0,0,1-8.608,6.708c-11.9,8.192-21.865,10.435-28.054,6.316l-2.312-1.581c6.189,4.119,16.153,1.876,28.054-6.316a97.777,97.777,0,0,0,8.608-6.708" transform="translate(-324.97 -357.158)"/></g></g></g><path class="q" d="M397.779,240.407c6.19,4.119,7.866,14.108,4.718,28.126s-10.742,30.387-21.383,46.092-23.055,28.864-34.957,37.057S324.291,362.117,318.1,358s-7.865-14.109-4.718-28.126,10.742-30.388,21.383-46.093,23.056-28.865,34.956-37.057S391.589,236.288,397.779,240.407Zm-50.823,107.71c22.9-15.763,46.458-50.531,52.514-77.5s-7.646-36.092-30.546-20.329-46.456,50.529-52.513,77.5,7.647,36.09,30.545,20.329" transform="translate(-311.833 -238.393)"/></g><g transform="translate(252.686 256.354)"><g transform="translate(0 11.081)"><path class="k" d="M306.517,312.824l.066,23.341,19.068,11.081-.066-23.341Z" transform="translate(-306.517 -312.824)"/></g><g transform="translate(19.068 11.081)"><path class="i" d="M346.473,323.905l.066,23.341,19.193-11.081-.066-23.341Z" transform="translate(-346.473 -312.824)"/></g><path class="j" d="M306.517,300.685l19.068,11.081,19.193-11.081L325.71,289.6Z" transform="translate(-306.517 -289.604)"/></g><g transform="translate(276.761 246.87)"><g transform="translate(0 11.081)"><path class="k" d="M356.965,292.95l.066,23.341L376.1,327.372l-.066-23.341Z" transform="translate(-356.965 -292.95)"/></g><g transform="translate(19.068 11.081)"><path class="i" d="M396.921,304.031l.066,23.341,19.193-11.081-.066-23.341Z" transform="translate(-396.921 -292.95)"/></g><path class="j" d="M356.965,280.812l19.068,11.081,19.193-11.081L376.158,269.73Z" transform="translate(-356.965 -269.73)"/></g><g class="g" transform="translate(238.163 263.666)"><g class="n" transform="translate(4.941 5.709)"><path class="a" d="M286.936,309.79l.878-1.575c-2.1,3.759,2.4,11.141,13.984,21.224,23.014,20.036,65.415,43.272,94.519,51.8,14.457,4.234,22.955,4.053,25.025.342l-.878,1.575c-2.07,3.71-10.568,3.892-25.025-.342-29.1-8.523-71.505-31.759-94.519-51.8C289.338,320.93,284.839,313.549,286.936,309.79Z" transform="translate(-286.438 -308.215)"/><g class="r"><g class="n"><path class="a" d="M286.936,309.79l.878-1.575c-2.1,3.759,2.4,11.141,13.984,21.224,2.644,2.3,5.544,4.646,8.651,7.006l-.879,1.575c-3.106-2.359-6.006-4.7-8.65-7.006-11.582-10.083-16.081-17.465-13.984-21.224" transform="translate(-286.438 -308.215)"/><path class="a" d="M334.91,368.942l.879-1.575c2.4,1.821,4.916,3.65,7.536,5.476l-.879,1.575q-3.93-2.739-7.536-5.476" transform="translate(-311.778 -339.138)"/><path class="a" d="M350.7,380.416l.879-1.575q3.213,2.24,6.616,4.466l-.878,1.575q-3.4-2.223-6.617-4.466" transform="translate(-320.033 -345.136)"/><path class="a" d="M364.567,389.775l.878-1.575q3.133,2.05,6.395,4.072l-.878,1.574q-3.258-2.019-6.395-4.072" transform="translate(-327.281 -350.028)"/><path class="a" d="M377.967,398.307l.878-1.574q3.134,1.942,6.361,3.844l-.878,1.575q-3.223-1.9-6.361-3.844" transform="translate(-334.286 -354.489)"/><path class="a" d="M391.3,406.362l.878-1.575q3.231,1.9,6.528,3.751l-.878,1.574q-3.293-1.845-6.528-3.751" transform="translate(-341.254 -358.7)"/><path class="a" d="M404.974,414.221l.878-1.574q3.414,1.913,6.871,3.75l-.878,1.575q-3.453-1.835-6.871-3.75" transform="translate(-348.405 -362.809)"/><path class="a" d="M419.372,422.079l.878-1.575q3.76,2,7.535,3.886l-.879,1.574q-3.769-1.884-7.535-3.885" transform="translate(-355.931 -366.916)"/><path class="a" d="M435.16,430.22l.879-1.574q4.409,2.2,8.784,4.229l-.879,1.575q-4.365-2.019-8.784-4.229" transform="translate(-364.185 -371.172)"/><path class="a" d="M453.567,439.082l.879-1.575c4.52,2.091,8.982,4.019,13.308,5.743l-.879,1.574c-4.326-1.724-8.787-3.652-13.308-5.743" transform="translate(-373.807 -375.804)"/><path class="a" d="M481.453,451.116l.879-1.574c5.591,2.228,10.956,4.116,15.932,5.573q.46.135.911.263l-.878,1.574q-.452-.128-.911-.263c-4.977-1.457-10.342-3.345-15.933-5.574" transform="translate(-388.385 -382.096)"/><path class="a" d="M516.747,463.346l.878-1.574a90,90,0,0,0,9.727,2.259l-.878,1.574a89.977,89.977,0,0,1-9.727-2.259" transform="translate(-406.836 -388.489)"/><path class="a" d="M537.129,468.079l.878-1.574a45.927,45.927,0,0,0,5.065.585l-.879,1.575a45.941,45.941,0,0,1-5.064-.585" transform="translate(-417.491 -390.964)"/><path class="a" d="M547.741,469.265l.879-1.575a24.906,24.906,0,0,0,3.518-.037l-.879,1.574a24.9,24.9,0,0,1-3.518.037" transform="translate(-423.038 -391.564)"/><path class="a" d="M555.113,468.72l.879-1.574a13.234,13.234,0,0,0,2.572-.463l-.879,1.575a13.192,13.192,0,0,1-2.572.462" transform="translate(-426.892 -391.057)"/><path class="a" d="M560.5,467.345l.879-1.575a6.974,6.974,0,0,0,1.864-.834l-.879,1.575a6.982,6.982,0,0,1-1.864.834" transform="translate(-429.71 -390.143)"/><path class="a" d="M564.409,465.181l.879-1.575a4.212,4.212,0,0,0,1.237-1.214l-.879,1.575a4.217,4.217,0,0,1-1.236,1.214" transform="translate(-431.752 -388.814)"/><path class="a" d="M567,463.729l.879-1.575q.069-.107.131-.218l-.878,1.575c-.042.073-.085.146-.132.218" transform="translate(-433.106 -388.576)"/></g></g></g><g transform="translate(0.498)"><path class="a" d="M277.128,300.922l.879-1.574c2.237-4.232,11.8-4.122,26.926.308s34,12.65,53.158,23.146,36.286,22.011,48.249,32.425,17.315,18.479,15.079,22.71l-.879,1.574c2.237-4.23-3.118-12.3-15.079-22.71s-29.1-21.929-48.249-32.425-38.033-18.716-53.157-23.146S279.366,296.691,277.128,300.922Z" transform="translate(-277.128 -296.251)"/><g class="s"><g class="n" transform="translate(0 0)"><path class="a" d="M277.128,303.964l.879-1.574q.087-.164.188-.319l-.878,1.574c-.067.1-.13.21-.188.319" transform="translate(-277.128 -299.294)"/><path class="a" d="M277.522,302.21l.878-1.574a4.556,4.556,0,0,1,1.335-1.31l-.879,1.575a4.547,4.547,0,0,0-1.334,1.31" transform="translate(-277.334 -297.858)"/><path class="a" d="M280.318,299.926l.879-1.575a7.458,7.458,0,0,1,1.988-.889l-.879,1.575a7.464,7.464,0,0,0-1.988.889" transform="translate(-278.796 -296.884)"/><path class="a" d="M284.483,298.5l.879-1.575a14.01,14.01,0,0,1,2.727-.491l-.878,1.574a14.051,14.051,0,0,0-2.727.492" transform="translate(-280.973 -296.346)"/><path class="a" d="M290.2,297.912l.878-1.574a26.383,26.383,0,0,1,3.721-.042l-.879,1.575a26.456,26.456,0,0,0-3.72.041" transform="translate(-283.961 -296.251)"/><path class="a" d="M297.993,297.921l.879-1.575a48.9,48.9,0,0,1,5.413.621l-.879,1.574a48.986,48.986,0,0,0-5.413-.621" transform="translate(-288.036 -296.301)"/><path class="a" d="M309.336,299.222l.879-1.574a96.849,96.849,0,0,1,10.436,2.414l-.878,1.575a96.847,96.847,0,0,0-10.436-2.415" transform="translate(-293.965 -296.981)"/><path class="a" d="M331.2,304.282l.878-1.575q.555.157,1.119.323c5.4,1.583,11.288,3.649,17.492,6.131l-.879,1.575c-6.2-2.482-12.087-4.548-17.492-6.131q-.565-.165-1.119-.323" transform="translate(-305.397 -299.626)"/><path class="a" d="M370.2,317.8l.879-1.575c4.487,1.795,9.142,3.807,13.9,6.009l-.878,1.575c-4.763-2.2-9.417-4.214-13.9-6.009" transform="translate(-325.783 -306.695)"/><path class="a" d="M399.337,330.4l.878-1.575q4.629,2.141,9.379,4.516l-.879,1.574q-4.74-2.371-9.378-4.516" transform="translate(-341.015 -313.278)"/><path class="a" d="M418.988,339.859l.879-1.574q4.008,2,8.069,4.161l-.878,1.575q-4.056-2.155-8.069-4.162" transform="translate(-351.288 -318.225)"/><path class="a" d="M435.9,348.58l.878-1.575q2.153,1.145,4.314,2.328,1.587.87,3.155,1.748l-.878,1.575q-1.568-.878-3.155-1.749-2.16-1.183-4.314-2.328" transform="translate(-360.126 -322.783)"/><path class="a" d="M451.546,357.122l.878-1.575q3.561,2,7.011,4.029l-.878,1.575q-3.448-2.032-7.011-4.029" transform="translate(-368.308 -327.249)"/><path class="a" d="M466.237,365.564l.878-1.575q3.45,2.033,6.772,4.092l-.879,1.575q-3.318-2.057-6.771-4.092" transform="translate(-375.988 -331.662)"/><path class="a" d="M480.426,374.138l.879-1.575q3.468,2.15,6.774,4.313l-.878,1.574q-3.3-2.161-6.775-4.313" transform="translate(-383.405 -336.144)"/><path class="a" d="M494.622,383.175l.878-1.574q3.654,2.39,7.082,4.78l-.878,1.575q-3.425-2.387-7.082-4.78" transform="translate(-390.826 -340.869)"/><path class="a" d="M509.462,393.192l.878-1.575q4.2,2.926,8.014,5.82l-.878,1.575q-3.806-2.888-8.014-5.82" transform="translate(-398.584 -346.105)"/><path class="a" d="M526.254,405.388l.878-1.575c3.415,2.591,6.576,5.148,9.441,7.643,11.96,10.413,17.315,18.479,15.079,22.71l-.879,1.574c2.237-4.23-3.118-12.3-15.079-22.71-2.865-2.494-6.026-5.051-9.441-7.642" transform="translate(-407.363 -352.481)"/></g></g></g><g transform="translate(0 1.575)"><path class="q" d="M276.583,302.647c2.238-4.231,11.8-4.122,26.926.308s34,12.65,53.157,23.146,36.287,22.011,48.249,32.425,17.316,18.479,15.079,22.71-11.8,4.122-26.925-.307-34-12.65-53.158-23.146-36.288-22.011-48.249-32.424S274.346,306.878,276.583,302.647ZM401.068,357.4c-23.015-20.038-65.416-43.274-94.518-51.8s-34.057.844-11.042,20.881,65.415,43.272,94.519,51.8,34.055-.844,11.042-20.88" transform="translate(-276.085 -299.551)"/></g></g></g><text class="t" transform="translate(57 84)"><tspan x="0" y="0">Be the true owner of </tspan><tspan x="0" y="36">your data</tspan></text></g></svg>