<svg xmlns="http://www.w3.org/2000/svg" width="200.667" height="99.582" viewBox="0 0 200.667 99.582">
  <defs>
    <style>
      .cls-1 {
        fill: #0c9;
      }

      .cls-2 {
        fill: #fc0;
      }

      .cls-3 {
        fill: #c09;
      }

      .cls-4 {
        fill: #60c;
      }

      .cls-5 {
        fill: #fff;
        stroke: #000;
        stroke-miterlimit: 10;
        stroke-width: 0.112px;
      }

      .cls-6 {
        fill: aqua;
      }

      .cls-7 {
        fill: #999;
      }
    </style>
  </defs>
  <g id="组_80" data-name="组 80" transform="translate(-989.177 -529.604)">
    <g id="组_75" data-name="组 75" transform="translate(989.177 548.834)">
      <path id="路径_171" data-name="路径 171" class="cls-1" d="M1027.18,543.148h24.47a4.845,4.845,0,0,0,0-9.69h-24.47a16.749,16.749,0,0,0-16.73,16.731v24.52a4.845,4.845,0,0,0,9.69,0v-9.4a16.488,16.488,0,0,0,7.04,1.612h24.47a4.848,4.848,0,0,0,0-9.7h-24.47a7.041,7.041,0,0,1,0-14.081Z" transform="translate(-904.301 -533.458)"/>
      <path id="路径_172" data-name="路径 172" class="cls-1" d="M1041.1,533.458a4.843,4.843,0,0,0-4.84,4.845V543.9a13.335,13.335,0,0,1-26.671,0V538.3a4.845,4.845,0,1,0-9.69,0V543.9a22.945,22.945,0,0,0,36.361,18.7v5.075a13.335,13.335,0,0,1-26.671,0,4.845,4.845,0,1,0-9.69,0,23.023,23.023,0,0,0,46.046,0V538.3A4.847,4.847,0,0,0,1041.1,533.458Z" transform="translate(-946.402 -533.458)"/>
      <path id="路径_173" data-name="路径 173" class="cls-1" d="M1030.6,576.006a18.915,18.915,0,1,1-8.158-32.284,4.845,4.845,0,1,0,2.385-9.391,28.62,28.62,0,1,0,12.33,48.811,4.845,4.845,0,0,0-6.557-7.135Z" transform="translate(-989.177 -533.458)"/>
      <path id="路径_174" data-name="路径 174" class="cls-1" d="M1049.479,557.229h-12.584a7.041,7.041,0,1,1,0-14.081h23.442a4.845,4.845,0,0,0,0-9.69h-23.442a16.733,16.733,0,0,0,0,33.467h12.584a7.038,7.038,0,1,1,0,14.077H1029.34a4.843,4.843,0,0,1,4.406,6.756,4.854,4.854,0,0,1-4.451,2.929v0h20.244a16.731,16.731,0,0,0-.061-33.462Z" transform="translate(-865.543 -533.458)"/>
      <path id="路径_175" data-name="路径 175" class="cls-1" d="M1021.994,542.99l.016,0h-.016Z" transform="translate(-858.24 -495.441)"/>
    </g>
    <circle id="椭圆_48" data-name="椭圆 48" class="cls-2" cx="4.844" cy="4.844" r="4.844" transform="translate(1143.798 596.378)"/>
    <circle id="椭圆_49" data-name="椭圆 49" class="cls-3" cx="4.844" cy="4.844" r="4.844" transform="translate(1029.032 555.101)"/>
    <circle id="椭圆_50" data-name="椭圆 50" class="cls-4" cx="4.844" cy="4.844" r="4.844" transform="translate(1079.032 529.604)"/>
    <path id="路径_176" data-name="路径 176" class="cls-5" d="M1011.437,542.832" transform="translate(88.814 52.777)"/>
    <circle id="椭圆_51" data-name="椭圆 51" class="cls-6" cx="4.844" cy="4.844" r="4.844" transform="translate(1095.409 596.756)"/>
    <g id="组_76" data-name="组 76" transform="translate(1109.452 620.06)">
      <path id="路径_177" data-name="路径 177" class="cls-7" d="M1019.368,547.732l-.015,1.377h-4.541v2.61h4.117v1.367h-4.117V556.8h-1.532v-9.067Z" transform="translate(-1013.281 -547.732)"/>
      <path id="路径_178" data-name="路径 178" class="cls-7" d="M1020.518,556.8l-1.656-2.75a2.845,2.845,0,0,1-.415.02h-2.15V556.8h-1.527v-9.067h3.677c2.315,0,3.647,1.133,3.647,3.094a2.9,2.9,0,0,1-1.876,2.939l2.036,3.034Zm-2.071-4.1c1.4,0,2.2-.6,2.2-1.836,0-1.188-.8-1.751-2.2-1.751h-2.15V552.7Z" transform="translate(-1007.34 -547.732)"/>
      <path id="路径_179" data-name="路径 179" class="cls-7" d="M1023.112,547.732v1.377h-4.945v2.455h4.426v1.362h-4.426v2.495h5.1V556.8h-6.626v-9.067Z" transform="translate(-999.879 -547.732)"/>
      <path id="路径_180" data-name="路径 180" class="cls-7" d="M1024.814,547.732v1.377h-4.945v2.455h4.421v1.362h-4.421v2.495h5.095V556.8h-6.626v-9.067Z" transform="translate(-993.104 -547.732)"/>
    </g>
    <g id="组_77" data-name="组 77" transform="translate(1156.082 619.995)">
      <path id="路径_181" data-name="路径 181" class="cls-7" d="M1026.339,549.161c-.894,0-1.472.329-1.472.943,0,1.981,4.9.918,4.88,4.181,0,1.617-1.422,2.615-3.418,2.615a5.611,5.611,0,0,1-3.7-1.437l.664-1.323a4.748,4.748,0,0,0,3.063,1.323c1.063,0,1.7-.409,1.7-1.1,0-2.021-4.9-.9-4.9-4.122,0-1.552,1.337-2.525,3.3-2.525a5.921,5.921,0,0,1,3.169.933l-.634,1.347A5.417,5.417,0,0,0,1026.339,549.161Z" transform="translate(-1022.626 -547.719)"/>
      <path id="路径_182" data-name="路径 182" class="cls-7" d="M1031.181,554.753h-4.571l-.863,2.046h-1.592l4-9.067h1.572l3.957,9.067h-1.631Zm-.584-1.367-1.707-4.022-1.707,4.022Z" transform="translate(-1016.525 -547.667)"/>
      <path id="路径_183" data-name="路径 183" class="cls-7" d="M1032.388,547.732l-.015,1.377h-4.545v2.61h4.121v1.367h-4.121V556.8H1026.3v-9.067Z" transform="translate(-1007.963 -547.667)"/>
      <path id="路径_184" data-name="路径 184" class="cls-7" d="M1034.26,547.732v1.377h-4.94v2.455h4.421v1.362h-4.421v2.495h5.095V556.8h-6.626v-9.067Z" transform="translate(-1002.031 -547.667)"/>
    </g>
    <g id="组_78" data-name="组 78" transform="translate(1048.651 619.995)">
      <path id="路径_185" data-name="路径 185" class="cls-7" d="M1005.986,553.775V556.8h-1.517v-2.964l-3.373-6.1h1.537l2.59,4.416,2.54-4.416h1.547Z" transform="translate(-1001.096 -547.667)"/>
      <path id="路径_186" data-name="路径 186" class="cls-7" d="M1012.423,552.3a4.809,4.809,0,1,1-4.8-4.571A4.631,4.631,0,0,1,1012.423,552.3Zm-8.048,0a3.243,3.243,0,0,0,6.487,0,3.244,3.244,0,0,0-6.487,0Z" transform="translate(-994.225 -547.695)"/>
      <path id="路径_187" data-name="路径 187" class="cls-7" d="M1008.991,555.491a2.232,2.232,0,0,0,2.4-2.445v-5.314h1.527v5.314a3.944,3.944,0,0,1-7.884,0v-5.314h1.532v5.314A2.26,2.26,0,0,0,1008.991,555.491Z" transform="translate(-985.404 -547.667)"/>
      <path id="路径_188" data-name="路径 188" class="cls-7" d="M1012.79,556.8l-1.657-2.75a2.766,2.766,0,0,1-.414.02h-2.146V556.8h-1.532v-9.067h3.678c2.315,0,3.652,1.133,3.652,3.094a2.908,2.908,0,0,1-1.876,2.939l2.031,3.034Zm-2.071-4.1c1.4,0,2.2-.6,2.2-1.836,0-1.188-.8-1.751-2.2-1.751h-2.146V552.7Z" transform="translate(-977.372 -547.667)"/>
      <path id="路径_189" data-name="路径 189" class="cls-7" d="M1012.455,549.161c-.889,0-1.473.329-1.473.943,0,1.981,4.9.918,4.88,4.181,0,1.617-1.422,2.615-3.418,2.615a5.611,5.611,0,0,1-3.7-1.437l.664-1.323a4.758,4.758,0,0,0,3.064,1.323c1.063,0,1.7-.409,1.7-1.1,0-2.021-4.89-.9-4.89-4.122,0-1.552,1.332-2.525,3.3-2.525a5.936,5.936,0,0,1,3.173.933l-.634,1.347A5.448,5.448,0,0,0,1012.455,549.161Z" transform="translate(-970.589 -547.719)"/>
    </g>
    <g id="组_79" data-name="组 79" transform="translate(991.148 620.024)">
      <path id="路径_190" data-name="路径 190" class="cls-7" d="M994.362,549.087a3.186,3.186,0,1,0,0,6.372,3.747,3.747,0,0,0,2.525-1.068l.908,1.013a5.166,5.166,0,0,1-3.508,1.482,4.583,4.583,0,1,1,.05-9.161,4.994,4.994,0,0,1,3.443,1.4l-.893,1.113A3.524,3.524,0,0,0,994.362,549.087Z" transform="translate(-989.572 -547.725)"/>
      <path id="路径_191" data-name="路径 191" class="cls-7" d="M993.058,547.732v3.937h4.8v-3.937h1.532V556.8h-1.532v-3.752h-4.8V556.8h-1.532v-9.067Z" transform="translate(-981.776 -547.697)"/>
      <path id="路径_192" data-name="路径 192" class="cls-7" d="M1000.364,554.753h-4.571l-.868,2.046h-1.587l4-9.067H998.9l3.962,9.067h-1.632Zm-.583-1.367-1.707-4.022-1.711,4.022Z" transform="translate(-974.546 -547.697)"/>
      <path id="路径_193" data-name="路径 193" class="cls-7" d="M997.014,547.732V556.8h-1.532v-9.067Z" transform="translate(-965.992 -547.697)"/>
      <path id="路径_194" data-name="路径 194" class="cls-7" d="M997.762,547.732l4.86,6.512v-6.512h1.5V556.8h-1.5l-4.83-6.5v6.5h-1.527v-9.067Z" transform="translate(-962.868 -547.697)"/>
    </g>
    <rect id="矩形_463" data-name="矩形 463" class="cls-7" width="0.556" height="9.371" transform="translate(1041.467 619.755)"/>
    <rect id="矩形_464" data-name="矩形 464" class="cls-7" width="0.556" height="9.371" transform="translate(1101.106 619.755)"/>
    <rect id="矩形_465" data-name="矩形 465" class="cls-7" width="0.556" height="9.371" transform="translate(1148.578 619.755)"/>
  </g>
</svg>
