<svg xmlns="http://www.w3.org/2000/svg" width="56" height="56" viewBox="0 0 56 56"><defs><style>.a{fill:#09ceaf;}.b,.e{fill:none;}.b{stroke:#fff;stroke-width:3.7px;}.c{fill:#fff;}.d{stroke:none;}</style></defs><g transform="translate(-689 -538)"><g transform="translate(219)"><rect class="a" width="56" height="56" rx="28" transform="translate(470 538)"/></g><g transform="translate(-290.913)"><g transform="translate(901.274 -337.604) rotate(45)"><g class="b" transform="translate(698.147 547.147)"><path class="d" d="M7.9,0h0a7.9,7.9,0,0,1,7.9,7.9v4.741A3.161,3.161,0,0,1,12.643,15.8H7.9A7.9,7.9,0,0,1,0,7.9v0A7.9,7.9,0,0,1,7.9,0Z"/><path class="e" d="M7.9,1.85h0A6.052,6.052,0,0,1,13.953,7.9v4.455a1.6,1.6,0,0,1-1.6,1.6H7.9A6.052,6.052,0,0,1,1.85,7.9v0A6.052,6.052,0,0,1,7.9,1.85Z"/></g><g class="b" transform="translate(699.332 565.123)"><path class="d" d="M7.9,0h4.741A3.161,3.161,0,0,1,15.8,3.161V7.9a7.9,7.9,0,0,1-7.9,7.9h0A7.9,7.9,0,0,1,0,7.9v0A7.9,7.9,0,0,1,7.9,0Z"/><path class="e" d="M7.9,1.85h4.455a1.6,1.6,0,0,1,1.6,1.6V7.9A6.052,6.052,0,0,1,7.9,13.953h0A6.052,6.052,0,0,1,1.85,7.9v0A6.052,6.052,0,0,1,7.9,1.85Z"/></g><g class="b" transform="translate(716.123 548.332)"><path class="d" d="M7.9,0h0a7.9,7.9,0,0,1,7.9,7.9v0a7.9,7.9,0,0,1-7.9,7.9H3.161A3.161,3.161,0,0,1,0,12.643V7.9A7.9,7.9,0,0,1,7.9,0Z"/><path class="e" d="M7.9,1.85h0A6.052,6.052,0,0,1,13.953,7.9v0A6.052,6.052,0,0,1,7.9,13.953H3.446a1.6,1.6,0,0,1-1.6-1.6V7.9A6.052,6.052,0,0,1,7.9,1.85Z"/></g></g><path class="c" d="M197.454,44.032a1.176,1.176,0,0,1,.991.348,1.873,1.873,0,0,1,.261,1.113q0,.348.009,1.1t.009,1.591q0,.843.009,1.643t.009,1.269a3.428,3.428,0,0,0,.13,1.052.54.54,0,0,0,.6.374q.33,0,.817.017t.835.017q.609,0,.774.322t-.235.843q-.417.522-.974,1.235t-1.156,1.461q-.6.748-1.174,1.469t-1.008,1.278a1.142,1.142,0,0,1-.774.522,1.011,1.011,0,0,1-.774-.469q-.417-.5-.974-1.182t-1.139-1.4q-.583-.722-1.148-1.426t-1.017-1.261q-.5-.609-.383-1t.748-.391h.417q.243,0,.5-.009t.513-.026q.252-.017.443-.017.452,0,.556-.261a1.97,1.97,0,0,0,.1-.713q0-.5-.009-1.321t-.009-1.7q0-.887-.009-1.721t-.009-1.356a3.321,3.321,0,0,1,.035-.469,1.082,1.082,0,0,1,.165-.443,1.032,1.032,0,0,1,.356-.33,1.258,1.258,0,0,1,.626-.13q.469,0,.9-.009t.974-.009Z" transform="translate(811.516 527.113)"/></g></g></svg>