<svg xmlns="http://www.w3.org/2000/svg" xmlns:xlink="http://www.w3.org/1999/xlink" width="48" height="48" viewBox="0 0 48 48"><defs><style>.a{opacity:0;}.b{fill:#f9e2e2;}.c{fill:#ffbcbc;}.d,.e,.f,.g,.h,.k,.l,.n,.o,.p{fill:none;}.d,.e{stroke:#17bfa1;}.d,.e,.f,.g,.h{stroke-linecap:round;}.d,.h{stroke-width:2px;}.e,.g{stroke-width:4px;}.g{stroke:#0f1010;}.h{stroke:#2a2e31;}.i{fill:#17bfa1;}.j,.m{stroke:none;}.l{clip-path:url(#b);}.m{fill:#0f1010;}.n{clip-path:url(#d);}.o{clip-path:url(#f);}.p{clip-path:url(#h);}</style><clipPath id="b"><use xlink:href="#a"/></clipPath><clipPath id="d"><use xlink:href="#c"/></clipPath><clipPath id="f"><use xlink:href="#e"/></clipPath><clipPath id="h"><use xlink:href="#g"/></clipPath></defs><g class="a"><path class="b" d="M0,0H48V48H0Z"/><rect class="c" width="40" height="40" transform="translate(4 4)"/></g><g class="d" transform="translate(14 12)"><rect class="j" width="20" height="20" rx="10"/><rect class="k" x="1" y="1" width="18" height="18" rx="9"/></g><g class="e" transform="translate(23 21)"><rect id="a" class="j" width="2" height="2" rx="1"/><path class="l" d="M0,0h2M2,0v2M2,2h-2M0,2v-2"/></g><g class="f" transform="translate(13 9)"><path class="j" d="M1,0A1,1,0,1,1,0,1,1,1,0,0,1,1,0Z"/><path class="m" d="M 1 0 C 1.552279949188232 0 2 0.4477200508117676 2 1 C 2 1.552279949188232 1.552279949188232 2 1 2 C 0.4477200508117676 2 0 1.552279949188232 0 1 C 0 0.4477200508117676 0.4477200508117676 0 1 0 Z"/></g><g class="g" transform="translate(13 37)"><rect id="c" class="j" width="2" height="2" rx="1"/><path class="n" d="M0,0h2M2,0v2M2,2h-2M0,2v-2"/></g><g class="g" transform="translate(33 9)"><rect id="e" class="j" width="2" height="2" rx="1"/><path class="o" d="M0,0h2M2,0v2M2,2h-2M0,2v-2"/></g><g class="g" transform="translate(33 37)"><rect id="g" class="j" width="2" height="2" rx="1"/><path class="p" d="M0,0h2M2,0v2M2,2h-2M0,2v-2"/></g><g class="h" transform="translate(8 4)"><rect class="j" width="32" height="40" rx="3"/><rect class="k" x="1" y="1" width="30" height="38" rx="2"/></g><rect class="i" width="2" height="10.5" rx="1" transform="translate(25.161 24.575) rotate(-45)"/></svg>