<svg xmlns="http://www.w3.org/2000/svg" width="48" height="48" viewBox="0 0 48 48"><defs><style>.a{opacity:0;}.b{fill:#f9e2e2;}.c{fill:#ffbcbc;}.d,.f,.h{fill:none;}.d{stroke:#17bfa1;stroke-width:2px;}.e{fill:#17bfa1;}.g,.i{stroke:none;}.i{fill:#2a2e31;}</style></defs><g class="a"><path class="b" d="M0,0H48V48H0Z"/><rect class="c" width="40" height="40" transform="translate(4 4)"/></g><g class="d" transform="translate(14 22)"><rect class="g" width="20" height="15" rx="2"/><rect class="h" x="1" y="1" width="18" height="13" rx="1"/></g><rect class="e" width="2" height="6" rx="1" transform="translate(32 11)"/><rect class="e" width="2" height="6" rx="1" transform="translate(23 11)"/><rect class="e" width="2" height="6" rx="1" transform="translate(14 11)"/><g class="f" transform="translate(7 4)"><path class="g" d="M0,9,9,0H30a4,4,0,0,1,4,4V37a3,3,0,0,1-3,3H3a3,3,0,0,1-3-3Z"/><path class="i" d="M 9.828420639038086 2 L 2 9.828420639038086 L 2 37 C 2 37.55139923095703 2.448600769042969 38 3 38 L 31 38 C 31.55139923095703 38 32 37.55139923095703 32 37 L 32 4 C 32 2.897201538085938 31.1028003692627 2 30 2 L 9.828420639038086 2 M 9 0 L 30 0 C 32.20914077758789 0 34 1.790859222412109 34 4 L 34 37 C 34 38.6568489074707 32.6568489074707 40 31 40 L 3 40 C 1.343151092529297 40 0 38.6568489074707 0 37 L 0 9 L 9 0 Z"/></g></svg>