<svg xmlns="http://www.w3.org/2000/svg" width="48" height="48" viewBox="0 0 48 48"><defs><style>.a{opacity:0;}.b{fill:#f9e2e2;}.c{fill:#ffbcbc;}.d{fill:#2a2e31;}.e{fill:#333638;}.f{fill:none;stroke:#2a2e31;stroke-width:2px;}.g{fill:#17bfa1;}</style></defs><g class="a"><path class="b" d="M0,0H48V48H0Z"/><rect class="c" width="40" height="40" transform="translate(4 4)"/></g><rect class="d" width="10" height="2" transform="translate(36 31) rotate(90)"/><rect class="e" width="10" height="2" transform="translate(43 31) rotate(90)"/><rect class="d" width="10" height="2" transform="translate(29 31) rotate(90)"/><rect class="d" width="10" height="2" transform="translate(21 31) rotate(90)"/><rect class="d" width="10" height="2" transform="translate(14 31) rotate(90)"/><rect class="e" width="10" height="2" transform="translate(7 31) rotate(90)"/><path class="f" d="M14,0H35a5,5,0,0,1,5,5V32" transform="translate(2 9)"/><path class="f" d="M40,0H19a5,5,0,0,0-5,5V32" transform="translate(-8 9)"/><rect class="g" width="26" height="2" rx="1" transform="translate(11 24)"/><rect class="g" width="26" height="2" rx="1" transform="translate(11 17)"/></svg>