<svg xmlns="http://www.w3.org/2000/svg" xmlns:xlink="http://www.w3.org/1999/xlink" width="32" height="32" viewBox="0 0 32 32">
  <defs>
    <style>
      .cls-1, .cls-3, .cls-4, .cls-5 {
        fill: none;
      }

      .cls-2 {
        fill: url(#linear-gradient);
      }

      .cls-3, .cls-4, .cls-5 {
        stroke: #333;
        stroke-linecap: round;
      }

      .cls-3, .cls-4 {
        stroke-linejoin: round;
      }

      .cls-4, .cls-5 {
        stroke-width: 0.75px;
      }
    </style>
    <linearGradient id="linear-gradient" x1="0.5" x2="0.5" y2="1" gradientUnits="objectBoundingBox">
      <stop offset="0" stop-color="#0c9"/>
      <stop offset="1" stop-color="#fff" stop-opacity="0"/>
    </linearGradient>
  </defs>
  <g id="组_509" data-name="组 509" transform="translate(-76 -291)">
    <rect id="矩形_846" data-name="矩形 846" class="cls-1" width="32" height="32" transform="translate(76 291)"/>
    <circle id="椭圆_172" data-name="椭圆 172" class="cls-2" cx="7" cy="7" r="7" transform="translate(90 305)"/>
    <circle id="椭圆_165" data-name="椭圆 165" class="cls-3" cx="10.5" cy="10.5" r="10.5" transform="translate(81 296)"/>
    <g id="组_507" data-name="组 507" transform="translate(83.5 298.5)">
      <circle id="椭圆_164" data-name="椭圆 164" class="cls-1" cx="7.5" cy="7.5" r="7.5" transform="translate(0.5 0.5)"/>
      <path id="路径_622" data-name="路径 622" class="cls-4" d="M4405.767,980.451h13.071" transform="translate(-4404.243 -976.562)"/>
      <path id="路径_623" data-name="路径 623" class="cls-4" d="M4405.767,1046.614h13.071" transform="translate(-4404.243 -1034.369)"/>
      <path id="路径_624" data-name="路径 624" class="cls-4" d="M4444.331,953.513v.012h.013l1.647,1.659H4446v.012l1.719,1.719h.012l2.435,2.447h.012v.012" transform="translate(-4437.938 -953.026)"/>
      <path id="路径_625" data-name="路径 625" class="cls-4" d="M4406.785,1009.6l-1.659-1.671-1.73-1.731h-.012l-2.436-2.447-1.731-1.731-1.671-1.671" transform="translate(-4397.062 -993.945)"/>
      <line id="直线_69" data-name="直线 69" class="cls-5" y1="9.248" x2="9.248" transform="translate(0.481 0.491)"/>
      <path id="路径_626" data-name="路径 626" class="cls-4" d="M4450.181,1027.143v.012l-2.447,2.447h-.012l-1.719,1.731v.012l-1.671,1.66" transform="translate(-4437.938 -1017.357)"/>
      <path id="路径_627" data-name="路径 627" class="cls-4" d="M4418.838,1046.616v.011a7.85,7.85,0,0,1-2.352,2.352,8.231,8.231,0,0,1-1.862.872,5.956,5.956,0,0,1-.657.179,6.535,6.535,0,0,1-.812.12,8.111,8.111,0,0,1-1.693,0,6.391,6.391,0,0,1-.823-.12,5.944,5.944,0,0,1-.658-.179,7.4,7.4,0,0,1-.847-.335,8.017,8.017,0,0,1-1-.537h-.012a7.306,7.306,0,0,1-1.3-1.05,7.84,7.84,0,0,1-1.05-1.3v-.011Z" transform="translate(-4404.243 -1034.37)"/>
      <path id="路径_628" data-name="路径 628" class="cls-4" d="M4399.678,961.779h-.012a7.51,7.51,0,0,0-1.29,1.039,7.392,7.392,0,0,0-1.062,1.313,8.275,8.275,0,0,0-.872,1.862,6.006,6.006,0,0,0-.179.656,6.462,6.462,0,0,0-.12.812,7.87,7.87,0,0,0,0,1.7,6.338,6.338,0,0,0,.12.824,6,6,0,0,0,.179.656,7.127,7.127,0,0,0,.334.848,8.155,8.155,0,0,0,.538,1v.012a7.229,7.229,0,0,0,1.051,1.3,7.687,7.687,0,0,0,1.3,1.051h.012Z" transform="translate(-4395.796 -960.248)"/>
      <path id="路径_629" data-name="路径 629" class="cls-4" d="M4450.182,953.325h0a6.982,6.982,0,0,0-1.4-.7c-.154-.06-.311-.119-.478-.167-.214-.059-.429-.119-.644-.167h-.011c-.133-.036-.264-.059-.395-.083a7.421,7.421,0,0,0-2.519,0c-.132.024-.263.048-.4.083h-.011l1.658,1.66,4.191,4.19v-2.459h0Z" transform="translate(-4437.939 -951.787)"/>
      <path id="路径_630" data-name="路径 630" class="cls-4" d="M4450.182,1029.684h0v-2.447l-2.446,2.447-1.731,1.731v.012l-1.671,1.659a6.657,6.657,0,0,0,.822.132,8.139,8.139,0,0,0,1.7,0,6.159,6.159,0,0,0,.812-.132h.013c.215-.048.429-.108.644-.167a8.254,8.254,0,0,0,1.863-.872h0Z" transform="translate(-4437.939 -1017.439)"/>
      <path id="路径_631" data-name="路径 631" class="cls-4" d="M4418.838,955.687v-.011a7.855,7.855,0,0,0-2.352-2.352,8.252,8.252,0,0,0-1.862-.872,6.01,6.01,0,0,0-.657-.179,6.534,6.534,0,0,0-.812-.12,8.078,8.078,0,0,0-1.693,0,6.391,6.391,0,0,0-.823.12,6,6,0,0,0-.658.179,7.471,7.471,0,0,0-.847.335,8.082,8.082,0,0,0-1,.537h-.012a7.312,7.312,0,0,0-1.3,1.05,7.849,7.849,0,0,0-1.05,1.3v.011Z" transform="translate(-4404.243 -951.799)"/>
      <path id="路径_632" data-name="路径 632" class="cls-4" d="M4405.484,1009.576l-.009.008a7.556,7.556,0,0,1-1.646.177,7.424,7.424,0,0,1-1.679-.178,8.278,8.278,0,0,1-1.934-.7,6.359,6.359,0,0,1-.591-.338,6.75,6.75,0,0,1-.659-.49,8.173,8.173,0,0,1-1.2-1.2,6.492,6.492,0,0,1-.5-.667,6.25,6.25,0,0,1-.337-.591,7.368,7.368,0,0,1-.362-.836,8.06,8.06,0,0,1-.33-1.089l-.008-.008a7.228,7.228,0,0,1-.177-1.663,7.721,7.721,0,0,1,.176-1.663l.009-.008Z" transform="translate(-4395.759 -993.933)"/>
      <path id="路径_633" data-name="路径 633" class="cls-4" d="M4396.245,961.5l-.008-.008a7.909,7.909,0,0,1,0-3.326,8.255,8.255,0,0,1,.7-1.934,5.657,5.657,0,0,1,.338-.591,6.563,6.563,0,0,1,.489-.659,8.111,8.111,0,0,1,1.2-1.2,6.4,6.4,0,0,1,.666-.5,6.044,6.044,0,0,1,.592-.338,7.324,7.324,0,0,1,.834-.363,8.047,8.047,0,0,1,1.089-.329l.009-.008a7.273,7.273,0,0,1,1.662-.177,7.7,7.7,0,0,1,1.664.177l.008.008Z" transform="translate(-4395.763 -951.762)"/>
      <path id="路径_634" data-name="路径 634" class="cls-5" d="M4517.567,1026.658" transform="translate(-4501.923 -1016.933)"/>
    </g>
  </g>
</svg>
