<svg id="icon_24pt_all_shuxing" data-name="icon/24pt/all/shuxing" xmlns="http://www.w3.org/2000/svg" xmlns:xlink="http://www.w3.org/1999/xlink" width="32" height="32" viewBox="0 0 32 32">
  <defs>
    <style>
      .cls-1 {
        opacity: 0;
      }

      .cls-2 {
        fill: #f9e2e2;
      }

      .cls-3 {
        fill: #ffbcbc;
      }

      .cls-4 {
        fill: url(#linear-gradient);
      }

      .cls-5, .cls-8 {
        fill: none;
      }

      .cls-5, .cls-6 {
        stroke: #333;
        stroke-linecap: round;
      }

      .cls-5 {
        stroke-linejoin: round;
      }

      .cls-6 {
        fill: #333;
      }

      .cls-7 {
        stroke: none;
      }
    </style>
    <linearGradient id="linear-gradient" x1="0.5" x2="0.5" y2="1" gradientUnits="objectBoundingBox">
      <stop offset="0" stop-color="#0c9"/>
      <stop offset="1" stop-color="#fff" stop-opacity="0"/>
    </linearGradient>
  </defs>
  <g id="底板" class="cls-1">
    <path id="路径_1" data-name="路径 1" class="cls-2" d="M0,0H32V32H0Z"/>
    <rect id="矩形_2" data-name="矩形 2" class="cls-3" width="24" height="24" transform="translate(4 4)"/>
  </g>
  <circle id="椭圆_170" data-name="椭圆 170" class="cls-4" cx="7" cy="7" r="7" transform="translate(14 14)"/>
  <g id="矩形_426" data-name="矩形 426" class="cls-5" transform="translate(8 6)">
    <rect class="cls-7" width="16" height="20" rx="2"/>
    <rect class="cls-8" x="0.5" y="0.5" width="15" height="19" rx="1.5"/>
  </g>
  <g id="矩形_427" data-name="矩形 427" class="cls-6" transform="translate(13 11)">
    <rect class="cls-7" width="8" height="1" rx="0.5"/>
    <rect class="cls-8" x="0.5" y="0.5" width="7"/>
  </g>
  <g id="矩形_430" data-name="矩形 430" class="cls-6" transform="translate(11 11)">
    <rect class="cls-7" width="1" height="1" rx="0.5"/>
    <rect class="cls-8" x="0.5" y="0.5"/>
  </g>
  <g id="矩形_428" data-name="矩形 428" class="cls-6" transform="translate(13 15.5)">
    <rect class="cls-7" width="8" height="1" rx="0.5"/>
    <rect class="cls-8" x="0.5" y="0.5" width="7"/>
  </g>
  <g id="矩形_431" data-name="矩形 431" class="cls-6" transform="translate(10.783 15.5)">
    <rect class="cls-7" width="1" height="1" rx="0.5"/>
    <rect class="cls-8" x="0.5" y="0.5"/>
  </g>
  <g id="矩形_429" data-name="矩形 429" class="cls-6" transform="translate(13 20)">
    <rect class="cls-7" width="8" height="1" rx="0.5"/>
    <rect class="cls-8" x="0.5" y="0.5" width="7"/>
  </g>
  <g id="矩形_432" data-name="矩形 432" class="cls-6" transform="translate(11 20)">
    <rect class="cls-7" width="1" height="1" rx="0.5"/>
    <rect class="cls-8" x="0.5" y="0.5"/>
  </g>
</svg>
