<svg xmlns="http://www.w3.org/2000/svg" xmlns:xlink="http://www.w3.org/1999/xlink" width="88" height="88" viewBox="0 0 88 88"><defs><style>.a{fill:none;}.b{fill:#f7f7f7;}.c,.f{fill:#fff;}.d{fill:url(#c);}.e{fill:#0ad7b6;}.f{stroke:#000;stroke-miterlimit:10;stroke-width:0.672px;}.g{filter:url(#a);}</style><filter id="a" x="1" y="2" width="86" height="86" filterUnits="userSpaceOnUse"><feOffset dy="1" input="SourceAlpha"/><feGaussianBlur stdDeviation="1" result="b"/><feFlood flood-opacity="0.078"/><feComposite operator="in" in2="b"/><feComposite in="SourceGraphic"/></filter><linearGradient id="c" x1="0.146" y1="0.146" x2="0.854" y2="0.854" gradientUnits="objectBoundingBox"><stop offset="0" stop-color="#00d1af"/><stop offset="0.273" stop-color="#24a4ba"/><stop offset="0.528" stop-color="#546bca"/><stop offset="0.768" stop-color="#6c36d7"/><stop offset="1" stop-color="#8600e6"/></linearGradient></defs><g transform="translate(-893 -490)"><rect class="a" width="88" height="88" transform="translate(893 490)"/><g transform="translate(0 -229)"><g transform="translate(513 111)"><g class="g" transform="matrix(1, 0, 0, 1, 380, 608)"><rect class="b" width="80" height="80" rx="8" transform="translate(4 4)"/></g><g transform="translate(246 204)"><rect class="a" width="80" height="80" transform="translate(138 408)"/></g></g><g transform="translate(909.004 735.3)"><path class="c" d="M1623.72,759.517h-19.2a2.024,2.024,0,0,1-2.024-2.024V738.319a2.024,2.024,0,0,1,2.024-2.024h19.2a2.024,2.024,0,0,1,2.025,2.024v19.173A2.025,2.025,0,0,1,1623.72,759.517Zm-17.179-4.049H1621.7V740.344h-15.155Z" transform="translate(-1586.282 -720.024)"/><circle class="d" cx="28" cy="28" r="28" transform="translate(-0.004 -0.3)"/><path class="c" d="M1650.441,791.819a7.575,7.575,0,1,1,7.575-7.575A7.584,7.584,0,0,1,1650.441,791.819Zm0-11.1a3.526,3.526,0,1,0,3.526,3.526A3.531,3.531,0,0,0,1650.441,780.718Z" transform="translate(-1613.034 -746.776)"/><path class="c" d="M1593.615,734.993h-7.575v-15.15h7.575a7.575,7.575,0,0,1,0,15.15Zm-3.526-4.049h3.526a3.526,3.526,0,0,0,0-7.053h-3.526Z" transform="translate(-1575.381 -709.123)"/><path class="c" d="M1629.039,797.17h-8.072a2.024,2.024,0,0,1,0-4.049h8.072a2.024,2.024,0,0,1,0,4.049Z" transform="translate(-1597.182 -757.677)"/><path class="c" d="M1661.433,765.185a2.011,2.011,0,0,1-2.024-2v-7.964a2.025,2.025,0,0,1,4.049,0v7.964A2.011,2.011,0,0,1,1661.433,765.185Z" transform="translate(-1623.995 -731.243)"/><path class="c" d="M1604.517,764.008a2.024,2.024,0,0,1-2.024-2.024V754.77a2.024,2.024,0,1,1,4.049,0v7.213A2.025,2.025,0,0,1,1604.517,764.008Z" transform="translate(-1586.282 -730.924)"/><path class="c" d="M1593.615,790.689l-7.575-4.373v-8.747l7.575-4.374,7.575,4.374v8.747Zm-3.526-6.711,3.526,2.036,3.526-2.036v-4.072l-3.526-2.036-3.526,2.036Z" transform="translate(-1575.381 -744.474)"/><path class="c" d="M1631.065,740.344h-10.1a2.024,2.024,0,1,1,0-4.049h10.1a2.024,2.024,0,1,1,0,4.049Z" transform="translate(-1597.182 -720.024)"/><path class="c" d="M1656.7,731.87l-8.184-14.9a.667.667,0,0,0-1.169,0l-8.184,14.9a.667.667,0,0,0,.584.988h16.369A.667.667,0,0,0,1656.7,731.87Zm-11.325-2.9,2.556-4.591,2.556,4.591Z" transform="translate(-1610.527 -706.987)"/></g><g transform="translate(322 198)"><path class="e" d="M0,0H33a8,8,0,0,1,8,8V19a0,0,0,0,1,0,0H8a8,8,0,0,1-8-8V0A0,0,0,0,1,0,0Z" transform="translate(575 586)"/><g transform="translate(210 489.621)"><g transform="translate(370 99.858)"><g transform="translate(0 0)"><path class="c" d="M7259.48,2159.121h3.863a.765.765,0,0,0,0-1.53h-3.863a2.644,2.644,0,0,0-2.641,2.641v3.87a.765.765,0,0,0,1.529,0v-1.482a2.61,2.61,0,0,0,1.111.254h3.863a.765.765,0,0,0,0-1.53h-3.863a1.111,1.111,0,0,1,0-2.223Z" transform="translate(-7240.23 -2154.571)"/><path class="c" d="M7200.108,2157.591a.765.765,0,0,0-.765.765v.883a2.1,2.1,0,1,1-4.209,0v-.883a.764.764,0,1,0-1.529,0v.883a3.621,3.621,0,0,0,5.738,2.952v.8a2.1,2.1,0,0,1-4.209,0,.764.764,0,1,0-1.529,0,3.634,3.634,0,0,0,7.268,0v-4.636A.765.765,0,0,0,7200.108,2157.591Z" transform="translate(-7185.234 -2154.581)"/><path class="c" d="M7135.891,2164.308a2.986,2.986,0,1,1-1.288-5.1.765.765,0,1,0,.377-1.482,4.517,4.517,0,1,0,1.946,7.7.765.765,0,1,0-1.035-1.126Z" transform="translate(-7129.352 -2154.581)"/><circle class="c" cx="0.765" cy="0.765" r="0.765" transform="translate(14.083)"/><circle class="c" cx="0.765" cy="0.765" r="0.765" transform="translate(6.247 4.018)"/><path class="f" d="M7262.755,2213.773" transform="translate(-7245.34 -2203.4)"/><circle class="c" cx="0.765" cy="0.765" r="0.765" transform="translate(16.637 10.485)"/><circle class="c" cx="0.765" cy="0.765" r="0.765" transform="translate(24.234 10.485)"/><g transform="translate(24.193 3.011)"><path class="c" d="M7319.682,2161.344h-1.987a1.111,1.111,0,0,1,0-2.223h3.7a.765.765,0,0,0,0-1.53h-3.7a2.641,2.641,0,0,0,0,5.283h1.987a1.111,1.111,0,1,1,0,2.222H7316.6a.756.756,0,0,1,.286.062.765.765,0,0,1-.3,1.467h3.107a2.641,2.641,0,0,0-.009-5.281Z" transform="translate(-7315.054 -2157.591)"/></g></g></g></g></g></g></g></svg>