<svg xmlns="http://www.w3.org/2000/svg" xmlns:xlink="http://www.w3.org/1999/xlink" width="80" height="80" viewBox="0 0 80 80"><defs><style>.a{fill:#fff;}.b{fill:none;}.c{fill:url(#a);}.d{fill:#042559;}</style><linearGradient id="a" x1="0.146" y1="0.146" x2="0.854" y2="0.854" gradientUnits="objectBoundingBox"><stop offset="0" stop-color="#21ccff"/><stop offset="0.528" stop-color="#546bca"/><stop offset="1" stop-color="#8600e6"/></linearGradient></defs><g transform="translate(-323 -443)"><g transform="translate(-100 -280)"><g transform="translate(39 111)"><rect class="a" width="80" height="80" rx="8" transform="translate(384 612)"/><g transform="translate(246 204)"><rect class="b" width="80" height="80" transform="translate(138 408)"/></g></g><g transform="translate(-30 568)"><circle class="c" cx="28" cy="28" r="28" transform="translate(465 167)"/><path class="a" d="M84,76.3a19.991,19.991,0,0,0-6.6,38.864c1.05.264.889-.483.889-.992v-3.463c-6.064.711-6.31-3.3-6.717-3.973-.822-1.4-2.766-1.761-2.185-2.431,1.381-.711,2.789.179,4.42,2.587,1.18,1.747,3.481,1.452,4.648,1.162A5.637,5.637,0,0,1,80,105.337c-6.283-1.126-8.9-4.96-8.9-9.518a8.8,8.8,0,0,1,2.158-5.885,7.8,7.8,0,0,1,.219-5.362c2.6-.232,5.3,1.859,5.506,2.024a21.132,21.132,0,0,1,10.117.013c.5-.384,3.007-2.181,5.421-1.962a7.85,7.85,0,0,1,.246,5.273,8.8,8.8,0,0,1,2.185,5.912c0,4.567-2.637,8.406-8.938,9.514a5.7,5.7,0,0,1,1.7,4.066v5.027c.036.4,0,.8.67.8A19.993,19.993,0,0,0,84,76.3Z" transform="translate(409 99.23)"/></g></g><g transform="translate(-252 -82)"><path class="d" d="M0,0H12a8,8,0,0,1,8,8V19a0,0,0,0,1,0,0H8a8,8,0,0,1-8-8V0A0,0,0,0,1,0,0Z" transform="translate(575 586)"/></g><g transform="translate(222.816 400.784)"><path class="a" d="M111.61,390.5a2.733,2.733,0,0,0-.279-.241h0a.554.554,0,0,0-.809.755h0a.556.556,0,0,0,.137.118c.052.043.1.085.151.133l.046.046a1.55,1.55,0,0,1-.171,2.135l-2.45,2.449a1.474,1.474,0,0,1-2.082,0l-.046-.046a1.472,1.472,0,0,1,0-2.081l1.082-1.082a.6.6,0,0,0-.712-.969v0l-.012.011a.606.606,0,0,0-.114.107l-1.125,1.053a2.727,2.727,0,0,0,0,3.845l.046.046a2.727,2.727,0,0,0,3.844,0l2.449-2.45a2.655,2.655,0,0,0,.09-3.782Z" transform="translate(0 -279.099)"/><path class="a" d="M360.322,107.8l-.046-.046a2.726,2.726,0,0,0-3.844,0l-2.449,2.45a2.488,2.488,0,0,0-.058,3.642l.045.044c.048.048.1.093.149.137a.525.525,0,0,0,.128.1h0a.523.523,0,0,0,.731-.681h0a1.144,1.144,0,0,0-.288-.339l-.045-.044a1.374,1.374,0,0,1,.218-1.982l2.451-2.449a1.472,1.472,0,0,1,2.081,0l.046.045a1.474,1.474,0,0,1,0,2.082l-1.079,1.08a.6.6,0,0,0,.668.988l0,0,.017-.015a.6.6,0,0,0,.136-.125l1.137-1.049A2.725,2.725,0,0,0,360.322,107.8Z" transform="translate(-245.182 0)"/></g></g></svg>