<svg xmlns="http://www.w3.org/2000/svg" width="24" height="24" viewBox="0 0 24 24"><defs><style>.a{fill:none;}.b{fill:#04c9ae;}</style></defs><g transform="translate(-412 -186)"><rect class="a" width="24" height="24" transform="translate(412 186)"/><g transform="translate(313.307 67.116)"><path class="b" d="M110.523,136.4q-1.356-1.364-2.719-2.72c-1.042-1.039-2.086-2.076-3.17-3.155.259-.278.468-.515.691-.739q2.547-2.553,5.1-5.1a3.661,3.661,0,0,0,.512-.57.738.738,0,0,0-.075-.972.749.749,0,0,0-1.045-.081,3.763,3.763,0,0,0-.494.454q-2.994,2.99-5.984,5.983c-.874.877-.877,1.108-.022,1.965q2.987,3,5.983,5.984a4.662,4.662,0,0,0,.57.512.7.7,0,0,0,.96-.087.748.748,0,0,0,.132-.967A2.459,2.459,0,0,0,110.523,136.4Z" transform="translate(0 0)"/><path class="b" d="M360.441,470.032c-.159-.009-.319,0-.479,0q-4.122,0-8.244,0c-1.056,0-1.47.232-1.435.826s.362.811,1.477.784c1.373-.032,2.748-.008,4.122-.008h1.438c1.055,0,2.109.014,3.163-.01.648-.015.985-.326.969-.809S361.095,470.068,360.441,470.032Z" transform="translate(-242.76 -340.352)"/></g></g></svg>