<svg xmlns="http://www.w3.org/2000/svg" width="100" height="38.284" viewBox="0 0 100 38.284"><defs><style>.a{fill:#1dbfa2;}.b{fill:#8b3dd9;}.c{fill:#c09;}.d{fill:#fff;stroke:#000;stroke-miterlimit:10;stroke-width:0.672px;}.e{fill:#1de0e0;}.f{fill:#fc8531;}</style></defs><g transform="translate(-1137 -206.224)"><g transform="translate(1137 206.224)"><path class="a" d="M7265.233,2162.454h12.278a2.431,2.431,0,0,0,0-4.862h-12.278a8.4,8.4,0,0,0-8.394,8.4v12.3a2.43,2.43,0,0,0,4.861,0v-4.712a8.3,8.3,0,0,0,3.533.807h12.278a2.431,2.431,0,0,0,0-4.863h-12.278a3.533,3.533,0,0,1,0-7.066Z" transform="translate(-7204.046 -2147.99)"/><path class="a" d="M7214.276,2157.591a2.431,2.431,0,0,0-2.43,2.431v2.806a6.69,6.69,0,1,1-13.38,0v-2.806a2.43,2.43,0,1,0-4.86,0v2.806a11.512,11.512,0,0,0,18.241,9.382v2.547a6.69,6.69,0,0,1-13.38,0,2.43,2.43,0,1,0-4.86,0,11.551,11.551,0,0,0,23.1,0v-14.735A2.431,2.431,0,0,0,7214.276,2157.591Z" transform="translate(-7166.998 -2148.022)"/><path class="a" d="M7150.136,2178.94a9.491,9.491,0,1,1-4.093-16.2,2.43,2.43,0,1,0,1.2-4.711,14.358,14.358,0,1,0,6.186,24.488,2.431,2.431,0,0,0-3.291-3.579Z" transform="translate(-7129.352 -2148.022)"/><circle class="b" cx="2.43" cy="2.43" r="2.43" transform="translate(44.764)"/><circle class="c" cx="2.43" cy="2.43" r="2.43" transform="translate(19.855 12.772)"/><path class="d" d="M7262.755,2213.773" transform="translate(-7207.401 -2180.803)"/><circle class="e" cx="2.431" cy="2.431" r="2.431" transform="translate(52.881 33.326)"/><circle class="f" cx="2.431" cy="2.431" r="2.431" transform="translate(77.029 33.326)"/><g transform="translate(76.899 9.569)"><path class="a" d="M7329.762,2169.519h-6.315a3.533,3.533,0,1,1,0-7.066h11.763a2.431,2.431,0,0,0,0-4.862h-11.763a8.4,8.4,0,0,0,0,16.791h6.315a3.532,3.532,0,1,1,0,7.064h-9.8a2.43,2.43,0,0,1-.05,4.86h9.876a8.394,8.394,0,0,0-.029-16.787Z" transform="translate(-7315.054 -2157.591)"/></g></g></g></svg>