<svg xmlns="http://www.w3.org/2000/svg" width="104" height="104" viewBox="0 0 104 104"><defs><style>.a{fill:#dcdcdc;}.b{fill:#fff;}</style></defs><g transform="translate(-908 -218)"><g transform="translate(42.666 -304)"><path class="a" d="M52,0A52,52,0,1,1,0,52,52,52,0,0,1,52,0Z" transform="translate(865.334 522)"/><path class="b" d="M8,0H52a8,8,0,0,1,8,8V29a0,0,0,0,1,0,0H0a0,0,0,0,1,0,0V8A8,8,0,0,1,8,0Z" transform="translate(887.334 578)"/><ellipse class="b" cx="19" cy="18.5" rx="19" ry="18.5" transform="translate(898.334 533)"/></g></g></svg>