<svg xmlns="http://www.w3.org/2000/svg" width="24" height="24" viewBox="0 0 24 24"><defs><style>.a{opacity:0;}.b{fill:#fff;}.c{fill:none;}.d,.e{stroke:none;}.e{fill:#fff;}</style></defs><g class="a"><path class="b" d="M0,0H24V24H0Z"/><rect class="b" width="16" height="16" transform="translate(4 4)"/></g><path class="b" d="M1-.5h9A1.5,1.5,0,0,1,11.5,1v9A1.5,1.5,0,0,1,10,11.5H1A1.5,1.5,0,0,1-.5,10V1A1.5,1.5,0,0,1,1-.5Zm9,11a.5.5,0,0,0,.5-.5V1A.5.5,0,0,0,10,.5H1A.5.5,0,0,0,.5,1v9a.5.5,0,0,0,.5.5Z" transform="translate(4.5 4.5)"/><path class="b" d="M8.5,10H1A1.5,1.5,0,0,1-.5,8.5V7.531a.5.5,0,0,1,.5-.5.5.5,0,0,1,.5.5V8.5A.5.5,0,0,0,1,9H8.5A.5.5,0,0,0,9,8.5V1A.5.5,0,0,0,8.5.5H7.594a.5.5,0,0,1-.5-.5.5.5,0,0,1,.5-.5H8.5A1.5,1.5,0,0,1,10,1V8.5A1.5,1.5,0,0,1,8.5,10Z" transform="translate(10 10)"/><g class="c" transform="translate(6 6)"><path class="d" d="M3.5,7.5v-3H.5a.5.5,0,0,1,0-1h3V.5a.5.5,0,1,1,1,0v3h3a.5.5,0,0,1,0,1h-3v3a.5.5,0,0,1-1,0Z"/><path class="e" d="M 3.999600172042847 7.999200344085693 C 3.723300218582153 7.999200344085693 3.500100135803223 7.776000022888184 3.500100135803223 7.49970006942749 L 3.500100135803223 4.5 L 0.499500185251236 4.5 C 0.2241001725196838 4.5 1.720428457474554e-07 4.275900363922119 1.720428457474554e-07 3.999600172042847 C 1.720428457474554e-07 3.724200248718262 0.2241001725196838 3.500100135803223 0.499500185251236 3.500100135803223 L 3.500100135803223 3.500100135803223 L 3.500100135803223 0.500400185585022 C 3.500100135803223 0.2241001725196838 3.723300218582153 1.720428457474554e-07 3.999600172042847 1.720428457474554e-07 C 4.275900363922119 1.720428457474554e-07 4.5 0.2241001725196838 4.5 0.500400185585022 L 4.5 3.500100135803223 L 7.49970006942749 3.500100135803223 C 7.776000022888184 3.500100135803223 7.999200344085693 3.724200248718262 7.999200344085693 3.999600172042847 C 7.999200344085693 4.275900363922119 7.776000022888184 4.5 7.49970006942749 4.5 L 4.5 4.5 L 4.5 7.49970006942749 C 4.5 7.776000022888184 4.275900363922119 7.999200344085693 3.999600172042847 7.999200344085693 Z"/></g></svg>