<svg xmlns="http://www.w3.org/2000/svg" xmlns:xlink="http://www.w3.org/1999/xlink" width="156" height="149" viewBox="0 0 156 149"><defs><style>.a{fill:none;}.b{fill:url(#a);}.c{fill:url(#d);}.d{mix-blend-mode:overlay;isolation:isolate;fill:url(#e);}.e{fill:url(#f);}.f{fill:#fff;}.g{filter:url(#b);}</style><linearGradient id="a" x1="0.5" y1="0.062" x2="0.5" y2="1" gradientUnits="objectBoundingBox"><stop offset="0" stop-color="#e9e9e9"/><stop offset="0.711" stop-color="#c4d6d3"/><stop offset="1" stop-color="#fff"/></linearGradient><filter id="b" x="12" y="4" width="132" height="132" filterUnits="userSpaceOnUse"><feOffset dy="6" input="SourceAlpha"/><feGaussianBlur stdDeviation="3" result="c"/><feFlood flood-color="#78ccbe" flood-opacity="0.31"/><feComposite operator="in" in2="c"/><feComposite in="SourceGraphic"/></filter><linearGradient id="d" x1="0.5" x2="0.5" y2="1" gradientUnits="objectBoundingBox"><stop offset="0" stop-color="#2a2e31"/><stop offset="1" stop-color="#e1e1e1"/></linearGradient><linearGradient id="e" x1="0.129" y1="0.676" x2="1.028" y2="0.744" gradientUnits="objectBoundingBox"><stop offset="0" stop-color="#0c9"/><stop offset="0.707" stop-color="#60c"/><stop offset="1" stop-color="#8b3dd9"/></linearGradient><linearGradient id="f" x1="0.02" y1="0.017" x2="0.964" y2="0.972" gradientUnits="objectBoundingBox"><stop offset="0" stop-color="#fff"/><stop offset="1" stop-color="#fff" stop-opacity="0"/></linearGradient></defs><g transform="translate(-96 -542)"><rect class="a" width="156" height="149" transform="translate(96 542)"/><g class="g" transform="matrix(1, 0, 0, 1, 96, 542)"><circle class="b" cx="57" cy="57" r="57" transform="translate(21 7)"/></g><g transform="translate(128.216 560.122)"><circle class="c" cx="46" cy="46" r="46" transform="translate(-0.216 -0.123)"/><circle class="d" cx="46" cy="46" r="46" transform="translate(-0.216 -0.123)"/><g transform="translate(9.061 10.068)"><rect class="a" width="74" height="75" transform="translate(-0.278 -0.19)"/><rect class="e" width="50" height="34" rx="1" transform="translate(6.722 15.81)"/><rect class="e" width="21" height="34" rx="1" transform="translate(49.722 24.81)"/><path class="e" d="M1,0H27a1,1,0,0,1,1,1V1a0,0,0,0,1,0,0H0A0,0,0,0,1,0,1V1A1,1,0,0,1,1,0Z" transform="translate(16.722 57.81)"/><rect class="f" width="3" height="4" rx="1.5" transform="translate(58.722 51.81)"/><rect class="e" width="21" height="8" transform="translate(21.722 49.81)"/></g></g></g></svg>