<svg id="组件_43_5" data-name="组件 43 – 5" xmlns="http://www.w3.org/2000/svg" xmlns:xlink="http://www.w3.org/1999/xlink" width="24" height="24" viewBox="0 0 24 24">
  <defs>
    <style>
      .cls-1, .cls-4 {
        fill: none;
      }

      .cls-2 {
        fill: url(#linear-gradient);
      }

      .cls-3 {
        opacity: 0;
      }

      .cls-4 {
        stroke: #1c201e;
      }

      .cls-5 {
        stroke: none;
      }
    </style>
    <linearGradient id="linear-gradient" x1="0.5" x2="0.5" y2="1" gradientUnits="objectBoundingBox">
      <stop offset="0" stop-color="#19b796"/>
      <stop offset="1" stop-color="#fff" stop-opacity="0"/>
    </linearGradient>
  </defs>
  <circle id="椭圆_171" data-name="椭圆 171" class="cls-1" cx="12" cy="12" r="12"/>
  <circle id="椭圆_211" data-name="椭圆 211" class="cls-2" cx="5" cy="5" r="5" transform="translate(12 12)"/>
  <g id="组_83" data-name="组 83" class="cls-3" transform="translate(-8 -8)">
    <path id="路径_1" data-name="路径 1" class="cls-1" d="M0,0H24V24H0Z" transform="translate(8 8)"/>
    <rect id="矩形_2" data-name="矩形 2" class="cls-1" width="16" height="16" transform="translate(12 12)"/>
  </g>
  <g id="矩形_437" data-name="矩形 437" class="cls-4" transform="translate(5.5 13)">
    <path class="cls-5" d="M3,0h7a3,3,0,0,1,3,3V6a0,0,0,0,1,0,0H0A0,0,0,0,1,0,6V3A3,3,0,0,1,3,0Z"/>
    <path class="cls-1" d="M3,.5h7A2.5,2.5,0,0,1,12.5,3V5.5a0,0,0,0,1,0,0H.5a0,0,0,0,1,0,0V3A2.5,2.5,0,0,1,3,.5Z"/>
  </g>
  <g id="椭圆_48" data-name="椭圆 48" class="cls-4" transform="translate(8 4)">
    <circle class="cls-5" cx="4" cy="4" r="4"/>
    <circle class="cls-1" cx="4" cy="4" r="3.5"/>
  </g>
</svg>
