<svg xmlns="http://www.w3.org/2000/svg" width="56" height="56" viewBox="0 0 56 56"><defs><style>.a{fill:#09ceaf;}.b{fill:#fff;}</style></defs><g transform="translate(-1025 -538)"><g transform="translate(555)"><rect class="a" width="56" height="56" rx="28" transform="translate(470 538)"/></g><g transform="translate(925.689 481.471)"><path class="b" d="M127.284,105.1a2.927,2.927,0,0,1-1.391-.354l-15.628-9.517a2.918,2.918,0,0,1-1.465-2.562V75.83a2.991,2.991,0,0,1,1.5-2.585l15.518-8.893a2.964,2.964,0,0,1,3.053.064l15.564,9.811a2.962,2.962,0,0,1,1.391,2.516V92.656a2.979,2.979,0,0,1-1.556,2.617l-15.449,9.412A3.13,3.13,0,0,1,127.284,105.1Zm-14.37-13.071,14.4,8.769,14.393-8.769V77.381l-14.448-9.113-14.347,8.223Z" transform="translate(0 0)"/><g transform="translate(-925.689 -481.04)"><rect class="b" width="4" height="11" rx="2" transform="translate(1051 565)"/><g transform="translate(-0.345 -0.174)"><rect class="b" width="4.075" height="12.205" rx="2" transform="matrix(0.545, 0.839, -0.839, 0.545, 1061.876, 558.827)"/><rect class="b" width="4.075" height="12.205" rx="2" transform="matrix(-0.545, 0.839, -0.839, -0.545, 1055.051, 565.475)"/></g></g></g></g></svg>