<svg xmlns="http://www.w3.org/2000/svg" xmlns:xlink="http://www.w3.org/1999/xlink" width="91.158" height="90.13" viewBox="0 0 91.158 90.13">
  <defs>
    <style>
      .cls-1 {
        fill: #0c9;
      }

      .cls-2 {
        filter: url(#减去_10);
      }
    </style>
    <filter id="矩形_679" x="7.26" y="4.595" width="78" height="78.529" filterUnits="userSpaceOnUse">
      <feOffset dy="2" input="SourceAlpha"/>
      <feGaussianBlur stdDeviation="2" result="blur"/>
      <feFlood flood-opacity="0.161"/>
      <feComposite operator="in" in2="blur"/>
      <feComposite in="SourceGraphic"/>
    </filter>
    <filter id="减去_10" x="0" y="0" width="91.158" height="90.13" filterUnits="userSpaceOnUse">
      <feOffset dy="2" input="SourceAlpha"/>
      <feGaussianBlur stdDeviation="2" result="blur-2"/>
      <feFlood flood-opacity="0.161"/>
      <feComposite operator="in" in2="blur-2"/>
      <feComposite in="SourceGraphic"/>
    </filter>
  </defs>
  <g class="cls-2" transform="matrix(1, 0, 0, 1, 0, 0)">
    <path id="减去_10-2" data-name="减去 10" class="cls-1" d="M-2112.89,77.907a17.475,17.475,0,0,1-12.141-4.839l-.127-.122a17.164,17.164,0,0,1-4.99-9.625l-.32-48.7a12.8,12.8,0,0,1,3.676-9.144,12.793,12.793,0,0,1,9.009-3.994c.174-.007.35-.011.523-.011a12.4,12.4,0,0,1,8.655,3.5,12.524,12.524,0,0,1,3.8,9.051l.223,23.864-4.213,4.363-.263-28.154a8.075,8.075,0,0,0-2.333-5.833,8.564,8.564,0,0,0-6.162-2.527h-.16a8.569,8.569,0,0,0-8.508,8.81l.434,46.419a12.51,12.51,0,0,0,3.8,9.05,12.4,12.4,0,0,0,8.657,3.5c.173,0,.348,0,.521-.011a13.13,13.13,0,0,0,12.687-13.136l-.2-50.679,4.1.08.544,52.8a17.219,17.219,0,0,1-4.746,10.023,17.225,17.225,0,0,1-12.156,5.315Zm-8.667-22.44v0l-.183-36.9,4.253-.074.277,32.47-4.345,4.5Z" transform="matrix(0.69, 0.72, -0.72, 0.69, 1541.99, 1535.51)"/>
  </g>
</svg>
