<svg xmlns="http://www.w3.org/2000/svg" width="24" height="24" viewBox="0 0 24 24"><defs><style>.a{fill:none;}.b{fill:#5f6368;}</style></defs><g transform="translate(-654 -500)"><rect class="a" width="24" height="24" transform="translate(654 500)"/><g transform="translate(595 438.3)"><path class="b" d="M78.371,70.586A8.024,8.024,0,1,0,79,73.7,7.963,7.963,0,0,0,78.371,70.586ZM71,80.255A6.555,6.555,0,1,1,77.555,73.7,6.562,6.562,0,0,1,71,80.255Z"/><path class="b" d="M472.825,224.915h-2.641v-3.823a.792.792,0,0,0-1.584,0v4.615a.794.794,0,0,0,.792.792h3.433a.792.792,0,0,0,0-1.584Z" transform="translate(-398.459 -151.893)"/></g></g></svg>