<svg xmlns="http://www.w3.org/2000/svg" width="48" height="48" viewBox="0 0 48 48"><defs><style>.a,.b{fill:#964edf;}.a{opacity:0.2;}</style></defs><g transform="translate(-1491 -409)"><path class="a" d="M24,0A24,24,0,1,1,0,24,24,24,0,0,1,24,0Z" transform="translate(1491 409)"/><path class="b" d="M296.7,50.936l.245,11.629a1.17,1.17,0,0,0,1.178,1.166h2.309a1.166,1.166,0,0,0,1.178-1.166l-.245-11.629h2.321c1.291,0,1.716-.835.944-1.866l-4.2-5.6a1.65,1.65,0,0,0-2.8,0l-4.2,5.6c-.779,1.038-.35,1.866.943,1.866H296.7Z" transform="translate(1215.952 379.302)"/></g></svg>