<svg xmlns="http://www.w3.org/2000/svg" width="24" height="24" viewBox="0 0 24 24">
  <defs>
    <style>
      .cls-1, .cls-5 {
        fill: #fff;
      }

      .cls-1 {
        opacity: 0;
      }

      .cls-2 {
        fill: #c9c9c9;
      }

      .cls-3 {
        fill: #f2f2f2;
      }

      .cls-4 {
        fill: none;
      }
    </style>
  </defs>
  <g id="组_700" data-name="组 700" transform="translate(-475 -130)">
    <g id="组_693" data-name="组 693" transform="translate(28)">
      <g id="组_689" data-name="组 689" transform="translate(342)">
        <g id="组_662" data-name="组 662" transform="translate(105 130)">
          <rect id="矩形_895" data-name="矩形 895" class="cls-1" width="24" height="24"/>
        </g>
        <g id="icon_24pt_all_DOC" data-name="icon/24pt/all/DOC" transform="translate(111 134)">
          <path id="路径_175" data-name="路径 175" class="cls-2" d="M1,16H11a1,1,0,0,0,1-1V4.1L7.438,0H1A1,1,0,0,0,0,1V15A1,1,0,0,0,1,16Z"/>
          <path id="路径_174" data-name="路径 174" class="cls-3" d="M.756,4.1h3.78L2.268,2.052,0,0V3.42A.723.723,0,0,0,.756,4.1Z" transform="translate(7.464)"/>
          <line id="直线_11" data-name="直线 11" class="cls-4" x2="7" transform="translate(2.5 11.5)"/>
          <line id="直线_12" data-name="直线 12" class="cls-4" x2="7" transform="translate(2.5 8.5)"/>
          <line id="直线_13" data-name="直线 13" class="cls-4" x2="2" transform="translate(2.5 5.5)"/>
        </g>
        <path id="矩形_992" data-name="矩形 992" class="cls-5" d="M0,0H.669A.281.281,0,0,1,.95.281v0a0,0,0,0,1,0,0H0a0,0,0,0,1,0,0V0A0,0,0,0,1,0,0Z" transform="translate(113.94 133.896) rotate(180)"/>
      </g>
      <rect id="矩形_1000" data-name="矩形 1000" class="cls-5" width="7" height="0.8" rx="0.4" transform="translate(455 145)"/>
      <rect id="矩形_1001" data-name="矩形 1001" class="cls-5" width="7" height="0.8" rx="0.4" transform="translate(455 143)"/>
      <rect id="矩形_1002" data-name="矩形 1002" class="cls-5" width="4" height="0.8" rx="0.4" transform="translate(455 141)"/>
    </g>
  </g>
</svg>
