<svg xmlns="http://www.w3.org/2000/svg" width="24" height="24" viewBox="0 0 24 24">
  <defs>
    <style>
      .cls-1, .cls-5 {
        fill: #fff;
      }

      .cls-1 {
        opacity: 0;
      }

      .cls-2 {
        fill: #f85fa2;
      }

      .cls-3 {
        fill: #ffa3bc;
      }

      .cls-4 {
        fill: none;
      }
    </style>
  </defs>
  <g id="组_680" data-name="组 680" transform="translate(-254 -130)">
    <g id="组_668" data-name="组 668" transform="translate(22)">
      <g id="组_666" data-name="组 666" transform="translate(232 130)">
        <rect id="矩形_895" data-name="矩形 895" class="cls-1" width="24" height="24"/>
        <g id="组_646" data-name="组 646" transform="translate(6 4)">
          <g id="icon_24pt_all_DOC" data-name="icon/24pt/all/DOC">
            <path id="路径_175" data-name="路径 175" class="cls-2" d="M1,16H11a1,1,0,0,0,1-1V4.1L7.438,0H1A1,1,0,0,0,0,1V15A1,1,0,0,0,1,16Z"/>
            <path id="路径_174" data-name="路径 174" class="cls-3" d="M.756,4.1h3.78L2.268,2.052,0,0V3.42A.723.723,0,0,0,.756,4.1Z" transform="translate(7.464)"/>
            <line id="直线_11" data-name="直线 11" class="cls-4" x2="7" transform="translate(2.5 11.5)"/>
            <line id="直线_12" data-name="直线 12" class="cls-4" x2="7" transform="translate(2.5 8.5)"/>
            <line id="直线_13" data-name="直线 13" class="cls-4" x2="2" transform="translate(2.5 5.5)"/>
          </g>
        </g>
      </g>
    </g>
    <path id="路径_440" data-name="路径 440" class="cls-5" d="M544.942,476.386v2.436a.971.971,0,1,1-.518-.859v-3.09a.259.259,0,0,1,.215-.255l3.547-.615a.259.259,0,0,1,.3.255V478.2a.97.97,0,1,1-.518-.859v-1.481Zm0-.525,3.029-.525v-.769l-3.029.525v.769Zm-.971,3.414a.453.453,0,1,0-.453-.453A.453.453,0,0,0,543.971,479.275Zm3.547-.621a.453.453,0,1,0-.453-.453A.453.453,0,0,0,547.518,478.654Z" transform="translate(-280 -332.897)"/>
  </g>
</svg>
