<svg xmlns="http://www.w3.org/2000/svg" xmlns:xlink="http://www.w3.org/1999/xlink" width="191" height="99" viewBox="0 0 191 99"><defs><style>.a{fill:#dae4f3;stroke:#dae4f3;stroke-width:0.5px;}.b,.j{fill:#778cf4;}.b,.i{opacity:0.8;}.c{fill:#0ad7b6;}.d,.i{fill:#fff;}.e{fill:#24f2d1;}.f{fill:#f1f3fe;}.g{fill:#2264e9;}.h{fill:#faac30;}.k,.m{fill:none;}.k{stroke:#fff;stroke-linecap:round;stroke-linejoin:round;stroke-width:2px;}.l{stroke:none;}.n{filter:url(#g);}.o{filter:url(#e);}.p{filter:url(#c);}.q{filter:url(#a);}</style><filter id="a" x="43" y="3.5" width="135.999" height="18.215" filterUnits="userSpaceOnUse"><feOffset dy="1" input="SourceAlpha"/><feGaussianBlur stdDeviation="1" result="b"/><feFlood flood-opacity="0.161"/><feComposite operator="in" in2="b"/><feComposite in="SourceGraphic"/></filter><filter id="c" x="43" y="15.715" width="136" height="81" filterUnits="userSpaceOnUse"><feOffset dy="1" input="SourceAlpha"/><feGaussianBlur stdDeviation="1" result="d"/><feFlood flood-opacity="0.161"/><feComposite operator="in" in2="d"/><feComposite in="SourceGraphic"/></filter><filter id="e" x="4" y="25.715" width="56" height="64" filterUnits="userSpaceOnUse"><feOffset dy="1" input="SourceAlpha"/><feGaussianBlur stdDeviation="1" result="f"/><feFlood flood-opacity="0.161"/><feComposite operator="in" in2="f"/><feComposite in="SourceGraphic"/></filter><filter id="g" x="149" y="25.715" width="38" height="42" filterUnits="userSpaceOnUse"><feOffset dy="1" input="SourceAlpha"/><feGaussianBlur stdDeviation="1" result="h"/><feFlood flood-opacity="0.161"/><feComposite operator="in" in2="h"/><feComposite in="SourceGraphic"/></filter></defs><g transform="translate(-1620 -199)"><g transform="translate(-3540 1493)"><g class="a" transform="translate(5160 -1294)"><path class="l" d="M4,0H187a4,4,0,0,1,4,4V99a0,0,0,0,1,0,0H0a0,0,0,0,1,0,0V4A4,4,0,0,1,4,0Z"/><path class="m" d="M4,.25H187A3.75,3.75,0,0,1,190.75,4V98.75a0,0,0,0,1,0,0H.25a0,0,0,0,1,0,0V4A3.75,3.75,0,0,1,4,.25Z"/></g></g><g transform="translate(675 -1241.285)"><rect class="b" width="50" height="58" rx="1" transform="translate(971 1459)"/><g transform="translate(-3972 2937)"><g class="q" transform="matrix(1, 0, 0, 1, 4917, -1496.72)"><path class="c" d="M4,0,126-.215a4,4,0,0,1,4,4v8L0,12V4A4,4,0,0,1,4,0Z" transform="translate(46 5.72)"/></g><g class="p" transform="matrix(1, 0, 0, 1, 4917, -1496.72)"><rect class="d" width="130" height="75" transform="translate(46 17.72)"/></g><path class="e" d="M-9980,7V6h5.192V2a2,2,0,0,1,2-2h25.423a2,2,0,0,1,2,2V6H-9850V7Z" transform="translate(14943.001 -1486)"/><circle class="d" cx="1" cy="1" r="1" transform="translate(4993 -1484)"/></g><rect class="f" width="45" height="61" rx="1" transform="translate(1022 1465)"/><g transform="translate(1030.124 1475.141)"><path class="c" d="M201.483,133.521h12.387a1.444,1.444,0,1,0,0-2.888H201.483a1.444,1.444,0,0,0,0,2.888Zm-2.507-4.38h17.6a1.444,1.444,0,1,0,0-2.888h-17.6a1.444,1.444,0,0,0,0,2.888Zm5.082-4.842a1.444,1.444,0,0,0,.555-2.778,7.9,7.9,0,1,1,6.273-.091,1.444,1.444,0,0,0,1.187,2.633,10.784,10.784,0,1,0-8.57.125A1.44,1.44,0,0,0,204.059,124.3Zm3.584-21.625a1.444,1.444,0,0,0,1.444-1.444v-3.8a1.444,1.444,0,0,0-2.888,0v3.8A1.444,1.444,0,0,0,207.643,102.674Zm10.513,4.836a1.441,1.441,0,0,0,1.107-.516l2.44-2.908a1.444,1.444,0,1,0-2.213-1.857l-2.44,2.908a1.444,1.444,0,0,0,1.105,2.372Zm-21.206-.135A1.444,1.444,0,0,0,198.055,105l-2.44-2.908a1.444,1.444,0,1,0-2.212,1.857l2.44,2.908A1.441,1.441,0,0,0,196.95,107.375Z" transform="translate(-193.065 -95.99)"/><path class="c" d="M407.557,666.517A1.444,1.444,0,0,0,409,665.073v-4.038a1.444,1.444,0,1,0-2.888,0v4.038A1.444,1.444,0,0,0,407.557,666.517Zm-7.266.09a1.444,1.444,0,0,0,1.444-1.444v-4.039a1.444,1.444,0,0,0-2.888,0v4.039A1.444,1.444,0,0,0,400.291,666.607Z" transform="translate(-389.312 -634.156)"/></g><g transform="translate(1092.23 1509)"><rect class="g" width="37" height="11" rx="1" transform="translate(-0.23)"/><circle class="d" cx="2.5" cy="2.5" r="2.5" transform="translate(15.77 3)"/><circle class="h" cx="2.5" cy="2.5" r="2.5" transform="translate(26.77 3)"/><circle class="d" cx="2.5" cy="2.5" r="2.5" transform="translate(4.77 3)"/></g><g class="o" transform="matrix(1, 0, 0, 1, 945, 1440.28)"><rect class="i" width="50" height="58" rx="1" transform="translate(7 27.72)"/></g><g class="n" transform="matrix(1, 0, 0, 1, 945, 1440.28)"><rect class="h" width="32" height="36" rx="1" transform="translate(152 27.72)"/></g><g transform="translate(-3 -0.682)"><circle class="j" cx="15.5" cy="15.5" r="15.5" transform="translate(965 1482.682)"/><path class="k" d="M5691.759-2592.409l6.128,6.45,9.375-8.754" transform="translate(-4719.311 4089.623)"/></g><path class="c" d="M21,386.622a2.625,2.625,0,0,0-5.1-.894.329.329,0,0,1-.31.219H5.41a.329.329,0,0,1-.31-.219,2.623,2.623,0,1,0,0,1.749.325.325,0,0,1,.308-.217H15.59a.325.325,0,0,1,.308.217,2.626,2.626,0,0,0,5.1-.855Z" transform="translate(1072 1102.021)"/><g transform="translate(1076.233 1477.183)"><path class="d" d="M44.212,297.674H30.323a.556.556,0,0,0-.556.556v10.185a.556.556,0,0,0,.556.556H44.212a.556.556,0,0,0,.556-.556V298.23a.556.556,0,0,0-.556-.556Zm-7.6,7.87-2.357-2.353.79-.786,1.574,1.574,2.87-2.88.786.785Z" transform="translate(0 -292.919)"/><path class="d" d="M274.188,2.9h1.172a3.8,3.8,0,0,0-7.453,1.019V5.773h1.111V3.921A2.685,2.685,0,0,1,274.188,2.9Z" transform="translate(-234.436 0)"/></g></g></g></svg>