<svg xmlns="http://www.w3.org/2000/svg" xmlns:xlink="http://www.w3.org/1999/xlink" width="191" height="99" viewBox="0 0 191 99"><defs><style>.a{fill:#dae4f3;stroke:#dae4f3;stroke-width:0.5px;}.b{fill:#0ad7b6;}.c{fill:#faac30;}.d,.g{fill:#fff;}.e{fill:#778cf4;}.f{fill:#24f2d1;}.g{opacity:0.8;}.h{fill:#f1f3fe;}.i{fill:#7d59c7;}.j{stroke:none;}.k{fill:none;}.l{filter:url(#g);}.m{filter:url(#e);}.n{filter:url(#c);}.o{filter:url(#a);}</style><filter id="a" x="25" y="4" width="141" height="18" filterUnits="userSpaceOnUse"><feOffset dy="1" input="SourceAlpha"/><feGaussianBlur stdDeviation="1" result="b"/><feFlood flood-opacity="0.161"/><feComposite operator="in" in2="b"/><feComposite in="SourceGraphic"/></filter><filter id="c" x="25" y="16" width="141" height="81" filterUnits="userSpaceOnUse"><feOffset dy="1" input="SourceAlpha"/><feGaussianBlur stdDeviation="1" result="d"/><feFlood flood-opacity="0.161"/><feComposite operator="in" in2="d"/><feComposite in="SourceGraphic"/></filter><filter id="e" x="140" y="13" width="47" height="47" filterUnits="userSpaceOnUse"><feOffset dy="1" input="SourceAlpha"/><feGaussianBlur stdDeviation="1" result="f"/><feFlood flood-opacity="0.161"/><feComposite operator="in" in2="f"/><feComposite in="SourceGraphic"/></filter><filter id="g" x="4" y="51" width="62" height="41" filterUnits="userSpaceOnUse"><feOffset dy="1" input="SourceAlpha"/><feGaussianBlur stdDeviation="1" result="h"/><feFlood flood-opacity="0.161"/><feComposite operator="in" in2="h"/><feComposite in="SourceGraphic"/></filter></defs><g transform="translate(-4924 1333)"><g class="a" transform="translate(4924 -1333)"><path class="j" d="M4,0H187a4,4,0,0,1,4,4V99a0,0,0,0,1,0,0H0a0,0,0,0,1,0,0V4A4,4,0,0,1,4,0Z"/><path class="k" d="M4,.25H187A3.75,3.75,0,0,1,190.75,4V98.75a0,0,0,0,1,0,0H.25a0,0,0,0,1,0,0V4A3.75,3.75,0,0,1,4,.25Z"/></g><g transform="translate(-11 164)"><g class="o" transform="matrix(1, 0, 0, 1, 4935, -1497)"><path class="b" d="M4,0H131a4,4,0,0,1,4,4v8a0,0,0,0,1,0,0H0a0,0,0,0,1,0,0V4A4,4,0,0,1,4,0Z" transform="translate(28 6)"/></g><path class="c" d="M2,0H23.718a2,2,0,0,1,2,2V6a0,0,0,0,1,0,0H0A0,0,0,0,1,0,6V2A2,2,0,0,1,2,0Z" transform="translate(4987.397 -1484)"/><g class="n" transform="matrix(1, 0, 0, 1, 4935, -1497)"><rect class="d" width="135" height="75" transform="translate(28 18)"/></g><path class="e" d="M2,0H23.718a2,2,0,0,1,2,2V6a0,0,0,0,1,0,0H0A0,0,0,0,1,0,6V2A2,2,0,0,1,2,0Z" transform="translate(4980.141 -1485)"/><path class="f" d="M-9980,7V6h5.192V2a2,2,0,0,1,2-2h25.423a2,2,0,0,1,2,2V6H-9845V7Z" transform="translate(14943.001 -1486)"/><circle class="d" cx="1" cy="1" r="1" transform="translate(4993 -1484)"/><g class="m" transform="matrix(1, 0, 0, 1, 4935, -1497)"><circle class="g" cx="20.5" cy="20.5" r="20.5" transform="translate(143 15)"/></g><rect class="h" width="77" height="57" rx="2" transform="translate(4992 -1471)"/><g transform="translate(1406 990.865)"><g transform="translate(3610 -2455)"><path class="d" d="M28.135,14.947A13.189,13.189,0,0,1,14.947,28.135H13.188A13.188,13.188,0,0,1,0,14.947V13.188A13.189,13.189,0,0,1,13.188,0h1.758A13.189,13.189,0,0,1,28.135,13.188Z"/><path class="e" d="M301.344,160a5.952,5.952,0,1,0,5.953,5.952A5.959,5.959,0,0,0,301.344,160Z" transform="translate(-287.276 -155.604)"/><path class="e" d="M201.552,588.256a7.294,7.294,0,0,1-9.176,0,9.514,9.514,0,0,0-4.312,7.339,35.081,35.081,0,0,0,4.481.237h8.835a34.939,34.939,0,0,0,4.485-.238A9.5,9.5,0,0,0,201.552,588.256Z" transform="translate(-182.897 -572.093)"/></g></g><g class="l" transform="matrix(1, 0, 0, 1, 4935, -1497)"><rect class="i" width="56" height="35" rx="2" transform="translate(7 53)"/></g><rect class="d" width="31" height="6" transform="translate(4955 -1436)"/><rect class="d" width="31" height="6" transform="translate(4955 -1422)"/><rect class="i" width="5" height="5" transform="translate(5043 -1423)"/><rect class="i" width="5" height="5" transform="translate(5050 -1423)"/><rect class="i" width="5" height="5" transform="translate(5057 -1423)"/><path class="b" d="M211.734,204.322h-8.808v-8.808a1.1,1.1,0,1,0-2.192,0v8.808h-8.808a1.1,1.1,0,1,0,0,2.192h8.808v8.808a1.1,1.1,0,1,0,2.192,0v-8.808h8.808a1.1,1.1,0,1,0,0-2.192Z" transform="translate(4897.17 -1666.418)"/></g></g></svg>