<svg xmlns="http://www.w3.org/2000/svg" width="729.544" height="147.752" viewBox="0 0 729.544 147.752"><defs><style>.a{opacity:0.5;}.b,.k{fill:#04d0af;}.c,.g{fill:#07d4b3;}.c{opacity:0.39;}.d,.e,.f,.i,.l,.m,.o{fill:none;}.d{stroke:#6f1bb8;stroke-width:2px;}.f{opacity:0.26;}.h{fill:#ececec;}.i{stroke:#ed7790;opacity:0.27;}.j{fill:#ebf1f5;}.k{opacity:0.65;}.l{stroke:#04d0af;}.m{stroke:#ebf1f5;}.n,.p,.q,.r,.s{stroke:none;}.p{fill:#dae4f3;}.q{fill:#1861e2;}.r{fill:#778cf4;}.s{fill:#7120b9;}</style></defs><g class="a" transform="translate(-594.455 -293.248)"><g transform="translate(594.455 293.35)"><ellipse class="b" cx="3.5" cy="4" rx="3.5" ry="4" transform="translate(18.545 33.897)"/><circle class="c" cx="13" cy="13" r="13" transform="translate(40.545 37.897)"/><g class="d" transform="translate(26.545 10.897)"><circle class="n" cx="8" cy="8" r="8"/><circle class="o" cx="8" cy="8" r="7"/></g><g class="e" transform="matrix(0.951, 0.309, -0.309, 0.951, 5.89, 0.352)"><path class="n" d="M0,13.582A5.478,5.478,0,0,1,2.628,8.9a5.48,5.48,0,1,1,7.134,1.26A5.481,5.481,0,1,1,0,13.582Z"/><path class="p" d="M 5.480472564697266 17.06198310852051 C 7.399472713470459 17.06198310852051 8.960692405700684 15.50065326690674 8.960692405700684 13.58151340484619 C 8.960692405700684 12.7827033996582 8.697802543640137 12.03171348571777 8.200442314147949 11.40973377227783 L 6.782962322235107 9.637083053588867 L 8.719882965087891 8.453923225402832 C 9.766042709350586 7.814873695373535 10.39062213897705 6.703303337097168 10.39062213897705 5.480473518371582 C 10.39062213897705 3.561333417892456 8.829292297363281 2.000003576278687 6.910152435302734 2.000003576278687 C 4.99128246307373 2.000003576278687 3.430172443389893 3.561333417892456 3.430172443389893 5.480473518371582 C 3.430172443389893 6.279273509979248 3.692962408065796 7.029983520507812 4.190142631530762 7.651443481445312 L 5.608542442321777 9.424403190612793 L 3.670782566070557 10.60774326324463 C 2.624592542648315 11.24663352966309 2.000002384185791 12.358323097229 2.000002384185791 13.58151340484619 C 2.000002384185791 15.50065326690674 3.56133246421814 17.06198310852051 5.480472564697266 17.06198310852051 M 5.480472564697266 19.06198310852051 C 2.453862428665161 19.06198310852051 2.499999936844688e-06 16.60822296142578 2.499999936844688e-06 13.58151340484619 C 2.499999936844688e-06 11.59966373443604 1.052242517471313 9.863393783569336 2.628422498703003 8.900853157043457 C 1.878422498703003 7.96337366104126 1.430172443389893 6.774163246154785 1.430172443389893 5.480473518371582 C 1.430172443389893 2.453763484954834 3.883052587509155 3.46160891240288e-06 6.910152435302734 3.46160891240288e-06 C 9.936522483825684 3.46160891240288e-06 12.39062213897705 2.453763484954834 12.39062213897705 5.480473518371582 C 12.39062213897705 7.462013244628906 11.33813285827637 9.198183059692383 9.762452125549316 10.16068363189697 C 10.51220226287842 11.09829330444336 10.96069240570068 12.28743362426758 10.96069240570068 13.58151340484619 C 10.96069240570068 16.60822296142578 8.507322311401367 19.06198310852051 5.480472564697266 19.06198310852051 Z"/></g><g class="f" transform="matrix(0.951, 0.309, -0.309, 0.951, 50.743, 75.636)"><path class="n" d="M0,13.582A5.478,5.478,0,0,1,2.628,8.9a5.48,5.48,0,1,1,7.134,1.26A5.481,5.481,0,1,1,0,13.582Z"/><path class="q" d="M 5.480472564697266 17.06198310852051 C 7.399472713470459 17.06198310852051 8.960692405700684 15.50065326690674 8.960692405700684 13.58151340484619 C 8.960692405700684 12.7827033996582 8.697802543640137 12.03171348571777 8.200442314147949 11.40973377227783 L 6.782962322235107 9.637083053588867 L 8.719882965087891 8.453923225402832 C 9.766042709350586 7.814873695373535 10.39062213897705 6.703303337097168 10.39062213897705 5.480473518371582 C 10.39062213897705 3.561333417892456 8.829292297363281 2.000003576278687 6.910152435302734 2.000003576278687 C 4.99128246307373 2.000003576278687 3.430172443389893 3.561333417892456 3.430172443389893 5.480473518371582 C 3.430172443389893 6.279273509979248 3.692962408065796 7.029983520507812 4.190142631530762 7.651443481445312 L 5.608542442321777 9.424403190612793 L 3.670782566070557 10.60774326324463 C 2.624592542648315 11.24663352966309 2.000002384185791 12.358323097229 2.000002384185791 13.58151340484619 C 2.000002384185791 15.50065326690674 3.56133246421814 17.06198310852051 5.480472564697266 17.06198310852051 M 5.480472564697266 19.06198310852051 C 2.453862428665161 19.06198310852051 2.499999936844688e-06 16.60822296142578 2.499999936844688e-06 13.58151340484619 C 2.499999936844688e-06 11.59966373443604 1.052242517471313 9.863393783569336 2.628422498703003 8.900853157043457 C 1.878422498703003 7.96337366104126 1.430172443389893 6.774163246154785 1.430172443389893 5.480473518371582 C 1.430172443389893 2.453763484954834 3.883052587509155 3.46160891240288e-06 6.910152435302734 3.46160891240288e-06 C 9.936522483825684 3.46160891240288e-06 12.39062213897705 2.453763484954834 12.39062213897705 5.480473518371582 C 12.39062213897705 7.462013244628906 11.33813285827637 9.198183059692383 9.762452125549316 10.16068363189697 C 10.51220226287842 11.09829330444336 10.96069240570068 12.28743362426758 10.96069240570068 13.58151340484619 C 10.96069240570068 16.60822296142578 8.507322311401367 19.06198310852051 5.480472564697266 19.06198310852051 Z"/></g><path class="g" d="M6.264,3.039a2,2,0,0,1,3.473,0l4.554,7.969A2,2,0,0,1,12.554,14H3.446A2,2,0,0,1,1.71,11.008Z" transform="translate(66.545 -0.103)"/><rect class="h" width="17.768" height="17.768" transform="translate(5.54 84.52) rotate(-30)"/><g class="i" transform="translate(30.277 111.58) rotate(5)"><rect class="n" width="10.661" height="17.768"/><rect class="o" x="0.5" y="0.5" width="9.661" height="16.768"/></g><rect class="j" width="9.95" height="9.95" rx="4.975" transform="translate(9.704 136.87) rotate(5)"/></g><g transform="translate(1248.665 297.962)"><ellipse class="k" cx="3.909" cy="3.909" rx="3.909" ry="3.909" transform="translate(49.362 33.762)"/><ellipse class="g" cx="8.173" cy="8.173" rx="8.173" ry="8.173" transform="translate(0 0.003)"/><g class="e" transform="matrix(-0.951, 0.309, -0.309, -0.951, 75.334, 18.129)"><path class="n" d="M0,5.48a5.477,5.477,0,0,0,2.628,4.681A5.48,5.48,0,1,0,9.762,8.9,5.481,5.481,0,1,0,0,5.48Z"/><path class="r" d="M 5.48051118850708 1.999996185302734 C 3.56135082244873 1.999996185302734 2.000000953674316 3.561335563659668 2.000000953674316 5.480475425720215 C 2.000000953674316 6.703695297241211 2.624561309814453 7.815385818481445 3.670711517333984 8.454245567321777 L 5.608341217041016 9.63752555847168 L 4.190140724182129 11.41044521331787 C 3.692901611328125 12.03205490112305 3.430081367492676 12.78279495239258 3.430081367492676 13.58151531219482 C 3.430081367492676 15.50065517425537 4.991271018981934 17.0619945526123 6.91024112701416 17.0619945526123 C 8.829411506652832 17.0619945526123 10.39076137542725 15.50065517425537 10.39076137542725 13.58151531219482 C 10.39076137542725 12.35869598388672 9.766151428222656 11.24714469909668 8.719921112060547 10.60811519622803 L 6.782670974731445 9.42485523223877 L 8.200540542602539 7.652095794677734 C 8.697831153869629 7.030335426330566 8.960680961608887 6.27940559387207 8.960680961608887 5.480475425720215 C 8.960680961608887 3.561335563659668 7.399481296539307 1.999996185302734 5.48051118850708 1.999996185302734 M 5.48051118850708 -3.814697265625e-06 C 8.507241249084473 -3.814697265625e-06 10.96068096160889 2.453765869140625 10.96068096160889 5.480475425720215 C 10.96068096160889 6.774555206298828 10.51233100891113 7.963695526123047 9.762420654296875 8.901305198669434 C 11.33824157714844 9.863805770874023 12.39076137542725 11.5999755859375 12.39076137542725 13.58151531219482 C 12.39076137542725 16.60822486877441 9.936620712280273 19.0619945526123 6.91024112701416 19.0619945526123 C 3.883171081542969 19.0619945526123 1.430081367492676 16.60822486877441 1.430081367492676 13.58151531219482 C 1.430081367492676 12.28782558441162 1.87843132019043 11.0986156463623 2.628340721130371 10.16113567352295 C 1.052170753479004 9.19859504699707 9.5367431640625e-07 7.462325096130371 9.5367431640625e-07 5.480475425720215 C 9.5367431640625e-07 2.453765869140625 2.453791618347168 -3.814697265625e-06 5.48051118850708 -3.814697265625e-06 Z"/></g><g class="e" transform="matrix(-0.809, -0.588, 0.588, -0.809, 28.831, 102.113)"><path class="n" d="M0,5.48a5.477,5.477,0,0,0,2.628,4.681A5.48,5.48,0,1,0,9.762,8.9,5.481,5.481,0,1,0,0,5.48Z"/><path class="p" d="M 5.48051118850708 1.999996185302734 C 3.56135082244873 1.999996185302734 2.000000953674316 3.561335563659668 2.000000953674316 5.480475425720215 C 2.000000953674316 6.703695297241211 2.624561309814453 7.815385818481445 3.670711517333984 8.454245567321777 L 5.608341217041016 9.63752555847168 L 4.190140724182129 11.41044521331787 C 3.692901611328125 12.03205490112305 3.430081367492676 12.78279495239258 3.430081367492676 13.58151531219482 C 3.430081367492676 15.50065517425537 4.991271018981934 17.0619945526123 6.91024112701416 17.0619945526123 C 8.829411506652832 17.0619945526123 10.39076137542725 15.50065517425537 10.39076137542725 13.58151531219482 C 10.39076137542725 12.35869598388672 9.766151428222656 11.24714469909668 8.719921112060547 10.60811519622803 L 6.782670974731445 9.42485523223877 L 8.200540542602539 7.652095794677734 C 8.697831153869629 7.030335426330566 8.960680961608887 6.27940559387207 8.960680961608887 5.480475425720215 C 8.960680961608887 3.561335563659668 7.399481296539307 1.999996185302734 5.48051118850708 1.999996185302734 M 5.48051118850708 -3.814697265625e-06 C 8.507241249084473 -3.814697265625e-06 10.96068096160889 2.453765869140625 10.96068096160889 5.480475425720215 C 10.96068096160889 6.774555206298828 10.51233100891113 7.963695526123047 9.762420654296875 8.901305198669434 C 11.33824157714844 9.863805770874023 12.39076137542725 11.5999755859375 12.39076137542725 13.58151531219482 C 12.39076137542725 16.60822486877441 9.936620712280273 19.0619945526123 6.91024112701416 19.0619945526123 C 3.883171081542969 19.0619945526123 1.430081367492676 16.60822486877441 1.430081367492676 13.58151531219482 C 1.430081367492676 12.28782558441162 1.87843132019043 11.0986156463623 2.628340721130371 10.16113567352295 C 1.052170753479004 9.19859504699707 9.5367431640625e-07 7.462325096130371 9.5367431640625e-07 5.480475425720215 C 9.5367431640625e-07 2.453765869140625 2.453791618347168 -3.814697265625e-06 5.48051118850708 -3.814697265625e-06 Z"/></g><g class="e" transform="translate(29.889 9.598)"><path class="n" d="M6.087,2.99a2,2,0,0,1,3.462,0L13.9,10.5a2,2,0,0,1-1.731,3h-8.7a2,2,0,0,1-1.731-3Z"/><path class="s" d="M 7.817708015441895 2.991719245910645 C 7.644358158111572 2.991719245910645 7.213007926940918 3.040339469909668 6.952287673950195 3.490689277648926 L 2.60346794128418 11.00227928161621 C 2.342198371887207 11.4535493850708 2.51579761505127 11.85229969024658 2.602567672729492 12.00279998779297 C 2.689337730407715 12.15328979492188 2.94743824005127 12.50331974029541 3.468897819519043 12.50331974029541 L 12.16651821136475 12.50331974029541 C 12.68796825408936 12.50331974029541 12.94607830047607 12.15328979492188 13.03283786773682 12.00279998779297 C 13.11960792541504 11.85231018066406 13.29321765899658 11.45355987548828 13.03194808959961 11.00227928161621 L 8.683128356933594 3.490689277648926 C 8.422408103942871 3.040339469909668 7.991057872772217 2.991719245910645 7.817708015441895 2.991719245910645 M 7.817708015441895 1.991722106933594 C 8.490550994873047 1.991722106933594 9.163393020629883 2.32436466217041 9.548558235168457 2.989649772644043 L 13.89737796783447 10.50123977661133 C 14.66929817199707 11.83456993103027 13.70718765258789 13.50331974029541 12.16651821136475 13.50331974029541 L 3.468897819519043 13.50331974029541 C 1.928228378295898 13.50331974029541 0.9661083221435547 11.83456993103027 1.738038063049316 10.50123977661133 L 6.086857795715332 2.989649772644043 C 6.472023010253906 2.32436466217041 7.144865989685059 1.991722106933594 7.817708015441895 1.991722106933594 Z"/></g><rect class="j" width="9.124" height="9.124" transform="translate(58.849 136.076) rotate(-150)"/><g class="l" transform="matrix(-0.966, 0.259, -0.259, -0.966, 40.035, 56.339)"><rect class="n" width="14.382" height="14.382"/><rect class="o" x="0.5" y="0.5" width="13.382" height="13.382"/></g><g class="m" transform="matrix(-0.996, 0.087, -0.087, -0.996, 65.439, 98.626)"><rect class="n" width="10.661" height="17.768"/><rect class="o" x="0.5" y="0.5" width="9.661" height="16.768"/></g></g></g></svg>