<svg xmlns="http://www.w3.org/2000/svg" xmlns:xlink="http://www.w3.org/1999/xlink" width="177" height="93" viewBox="0 0 177 93"><defs><style>.a{fill:#0ad7b6;}.b{fill:#24f2d1;}.c,.e,.i{fill:#fff;}.d,.g{fill:#778cf4;}.d{opacity:0.1;}.e{opacity:0.8;}.f{fill:#dcdcdc;}.h{fill:#7120b9;}.i{stroke:rgba(0,0,0,0);font-size:12px;font-family:MicrosoftYaHei, Microsoft YaHei;letter-spacing:0.01em;}.j{filter:url(#e);}.k{filter:url(#c);}.l{filter:url(#a);}</style><filter id="a" x="0" y="0" width="162" height="18" filterUnits="userSpaceOnUse"><feOffset dy="1" input="SourceAlpha"/><feGaussianBlur stdDeviation="1" result="b"/><feFlood flood-opacity="0.161"/><feComposite operator="in" in2="b"/><feComposite in="SourceGraphic"/></filter><filter id="c" x="0" y="12" width="162" height="81" filterUnits="userSpaceOnUse"><feOffset dy="1" input="SourceAlpha"/><feGaussianBlur stdDeviation="1" result="d"/><feFlood flood-opacity="0.161"/><feComposite operator="in" in2="d"/><feComposite in="SourceGraphic"/></filter><filter id="e" x="130" y="6" width="47" height="54" filterUnits="userSpaceOnUse"><feOffset dy="1" input="SourceAlpha"/><feGaussianBlur stdDeviation="1" result="f"/><feFlood flood-opacity="0.161"/><feComposite operator="in" in2="f"/><feComposite in="SourceGraphic"/></filter></defs><g transform="translate(-1306 -401)"><g class="l" transform="matrix(1, 0, 0, 1, 1306, 401)"><path class="a" d="M4,0H152a4,4,0,0,1,4,4v8a0,0,0,0,1,0,0H0a0,0,0,0,1,0,0V4A4,4,0,0,1,4,0Z" transform="translate(3 2)"/></g><path class="b" d="M-9980,7V6h6V2a2,2,0,0,1,2-2h30a2,2,0,0,1,2,2V6h116V7Z" transform="translate(11289 408)"/><g class="k" transform="matrix(1, 0, 0, 1, 1306, 401)"><rect class="c" width="156" height="75" transform="translate(3 14)"/></g><path class="d" d="M58.9,75V33.965S81.774,18.4,117.356,22.251c35.506,3.838,42.026,30.484,97.547,19.587V75Z" transform="translate(1250.097 415)"/><circle class="c" cx="1" cy="1" r="1" transform="translate(1345 410)"/><g class="j" transform="matrix(1, 0, 0, 1, 1306, 401)"><rect class="e" width="41" height="48" rx="2" transform="translate(133 8)"/></g><rect class="f" width="25" height="3" rx="1.5" transform="translate(1445 439)"/><rect class="f" width="19" height="3" rx="1.5" transform="translate(1445 449)"/><rect class="f" width="31" height="3" rx="1.5" transform="translate(1445 444)"/><circle class="g" cx="2.5" cy="2.5" r="2.5" transform="translate(1407 449)"/><circle class="h" cx="1.5" cy="1.5" r="1.5" transform="translate(1358 440)"/><circle class="h" cx="1.5" cy="1.5" r="1.5" transform="translate(1384 438)"/><circle class="c" cx="1.5" cy="1.5" r="1.5" transform="translate(1394 439)"/><circle class="c" cx="2" cy="2" r="2" transform="translate(1394 438)"/><g transform="translate(-7 1)"><circle class="a" cx="8" cy="8" r="8" transform="translate(1460 416)"/><text class="i" transform="translate(1465 429)"><tspan x="0" y="0">？</tspan></text></g><rect class="g" width="30" height="8" rx="3" transform="translate(1371 436)"/><rect class="g" width="30" height="8" rx="3" transform="translate(1371 445)"/><rect class="g" width="30" height="8" rx="3" transform="translate(1371 454)"/><circle class="c" cx="1" cy="1" r="1" transform="translate(1395 439)"/><circle class="c" cx="1" cy="1" r="1" transform="translate(1395 448)"/><circle class="c" cx="1" cy="1" r="1" transform="translate(1395 457)"/><rect class="c" width="1" height="4" rx="0.5" transform="translate(1374 438)"/><rect class="c" width="1" height="4" rx="0.5" transform="translate(1376 438)"/><rect class="c" width="1" height="4" rx="0.5" transform="translate(1378 438)"/><g transform="translate(0 9)"><rect class="c" width="1" height="4" rx="0.5" transform="translate(1374 438)"/><rect class="c" width="1" height="4" rx="0.5" transform="translate(1376 438)"/><rect class="c" width="1" height="4" rx="0.5" transform="translate(1378 438)"/></g><g transform="translate(0 18)"><rect class="c" width="1" height="4" rx="0.5" transform="translate(1374 438)"/><rect class="c" width="1" height="4" rx="0.5" transform="translate(1376 438)"/><rect class="c" width="1" height="4" rx="0.5" transform="translate(1378 438)"/></g></g></svg>