<svg xmlns="http://www.w3.org/2000/svg" xmlns:xlink="http://www.w3.org/1999/xlink" width="16" height="16" viewBox="0 0 16 16"><defs><style>.a{opacity:0;}.b{fill:#f9e2e2;}.c{fill:#ffbcbc;}.d{fill:#e1e2e2;opacity:0.82;}.e,.f{fill:#fff;}.f{stroke:#2a2e31;stroke-width:4px;}.g,.h{stroke:none;}.h{fill:#2a2e31;}.i{fill:none;clip-path:url(#b);}</style><clipPath id="b"><use xlink:href="#a"/></clipPath></defs><g class="a" transform="translate(4 4)"><path class="b" d="M0,0H8V8H0Z"/><rect class="c" transform="translate(4 4)"/></g><circle class="d" cx="8" cy="8" r="8"/><g transform="translate(0.028 0.028)"><g transform="translate(3.971 3.972)"><g class="e" transform="translate(0 0.355) rotate(-45)"><path class="g" d="M.251,0A.251.251,0,0,1,.5.251V10.578a.251.251,0,1,1-.5,0V.251A.251.251,0,0,1,.251,0Z"/><path class="h" d="M 0.2513081133365631 4.76837158203125e-06 C 0.3900980949401855 4.76837158203125e-06 0.5025981068611145 0.1125049591064453 0.5025981068611145 0.2512845993041992 L 0.50257807970047 10.5776948928833 C 0.50257807970047 10.71648406982422 0.3900681138038635 10.82898426055908 0.2512880861759186 10.82898426055908 C 0.1124981045722961 10.82898426055908 -1.9073486328125e-06 10.71648406982422 -1.9073486328125e-06 10.5776948928833 L 1.811981201171875e-05 0.2512941360473633 C 1.811981201171875e-05 0.1125049591064453 0.1125280857086182 4.76837158203125e-06 0.2513081133365631 4.76837158203125e-06 Z"/></g><g class="f" transform="translate(0.355 8.013) rotate(-135)"><rect id="a" class="g" width="0.503" height="10.829" rx="0.251"/><path class="i" d="M0,2h0.5025965571403503M2,0v10.828832626342773M0.5025965571403503,8.828832626342773h-0.5025965571403503M-1.4974034428596497,10.828832626342773v-10.828832626342773"/></g></g></g></svg>