<svg xmlns="http://www.w3.org/2000/svg" width="56" height="56" viewBox="0 0 56 56"><defs><style>.a{fill:none;}.b{fill:#07d4b3;}</style></defs><g transform="translate(-932 -575)"><rect class="a" width="56" height="56" transform="translate(932 575)"/><path class="b" d="M42.379,15.159l-6.261,6.268a8.838,8.838,0,0,1-8.592,2.278l5.226-5.219c.078-.067.162-.119.235-.192l6.261-6.268a4.43,4.43,0,0,0-6.261-6.27l-6.261,6.27h0l0,0L21.306,17.43A8.86,8.86,0,0,1,23.6,8.891l6.261-6.268A8.86,8.86,0,0,1,42.379,15.159ZM16.63,31.616l-.007-.007a2.245,2.245,0,1,1-3.128-3.217L28.376,13.529a2.245,2.245,0,1,1,3.246,3.1l.007.007Zm-4.64-4.889L5.728,33a4.43,4.43,0,1,0,6.261,6.268L18.251,33c.043-.046.073-.1.116-.143l5.3-5.291a8.864,8.864,0,0,1-2.282,8.568L15.12,42.4A8.86,8.86,0,0,1,2.6,29.86l6.261-6.268a8.834,8.834,0,0,1,8.564-2.284l-5.389,5.383C12.019,26.7,12,26.713,11.99,26.727Z" transform="translate(937.938 580.482)"/></g></svg>