<svg xmlns="http://www.w3.org/2000/svg" xmlns:xlink="http://www.w3.org/1999/xlink" width="191" height="99" viewBox="0 0 191 99"><defs><style>.a{fill:#dae4f3;stroke:#dae4f3;stroke-width:0.5px;}.b{fill:#0ad7b6;}.c,.i{fill:#7d59c7;}.c{opacity:0.57;}.d,.f{fill:#fff;}.e,.h{fill:#778cf4;}.e{opacity:0.1;}.f{opacity:0.8;}.g{fill:#dcdcdc;}.j{fill:#17bfa1;}.k{fill:#2873f7;}.l{fill:#faac30;}.m{fill:#8f1ed9;}.n{stroke:none;}.o{fill:none;}.p{filter:url(#i);}.q{filter:url(#g);}.r{filter:url(#e);}.s{filter:url(#c);}.t{filter:url(#a);}</style><filter id="a" x="10" y="4" width="162" height="18" filterUnits="userSpaceOnUse"><feOffset dy="1" input="SourceAlpha"/><feGaussianBlur stdDeviation="1" result="b"/><feFlood flood-opacity="0.161"/><feComposite operator="in" in2="b"/><feComposite in="SourceGraphic"/></filter><filter id="c" x="10" y="16" width="162" height="76" filterUnits="userSpaceOnUse"><feOffset dy="1" input="SourceAlpha"/><feGaussianBlur stdDeviation="1" result="d"/><feFlood flood-opacity="0.161"/><feComposite operator="in" in2="d"/><feComposite in="SourceGraphic"/></filter><filter id="e" x="140" y="10" width="47" height="54" filterUnits="userSpaceOnUse"><feOffset dy="1" input="SourceAlpha"/><feGaussianBlur stdDeviation="1" result="f"/><feFlood flood-opacity="0.161"/><feComposite operator="in" in2="f"/><feComposite in="SourceGraphic"/></filter><filter id="g" x="4" y="33" width="57" height="64" filterUnits="userSpaceOnUse"><feOffset dy="1" input="SourceAlpha"/><feGaussianBlur stdDeviation="1" result="h"/><feFlood flood-opacity="0.161"/><feComposite operator="in" in2="h"/><feComposite in="SourceGraphic"/></filter><filter id="i" x="85" y="33" width="57" height="64" filterUnits="userSpaceOnUse"><feOffset dy="1" input="SourceAlpha"/><feGaussianBlur stdDeviation="1" result="j"/><feFlood flood-opacity="0.161"/><feComposite operator="in" in2="j"/><feComposite in="SourceGraphic"/></filter></defs><g transform="translate(-1620 -238)"><g class="a" transform="translate(1620 238)"><path class="n" d="M4,0H187a4,4,0,0,1,4,4V99a0,0,0,0,1,0,0H0a0,0,0,0,1,0,0V4A4,4,0,0,1,4,0Z"/><path class="o" d="M4,.25H187A3.75,3.75,0,0,1,190.75,4V98.75a0,0,0,0,1,0,0H.25a0,0,0,0,1,0,0V4A3.75,3.75,0,0,1,4,.25Z"/></g><g transform="translate(-2067 -964)"><g class="t" transform="matrix(1, 0, 0, 1, 3687, 1202)"><path class="b" d="M4,0H152a4,4,0,0,1,4,4v8a0,0,0,0,1,0,0H0a0,0,0,0,1,0,0V4A4,4,0,0,1,4,0Z" transform="translate(13 6)"/></g><path class="c" d="M-9980,7V6h6V2a2,2,0,0,1,2-2h30a2,2,0,0,1,2,2V2a2,2,0,0,1,2-2h30a2,2,0,0,1,2,2V6h82V7Z" transform="translate(13680 1213)"/><g class="s" transform="matrix(1, 0, 0, 1, 3687, 1202)"><rect class="d" width="156" height="70" transform="translate(13 18)"/></g><path class="e" d="M0,0V41.035S22.871,56.6,58.453,52.749C93.959,48.911,100.48,22.265,156,33.162V0Z" transform="translate(3856 1290) rotate(180)"/><circle class="d" cx="1" cy="1" r="1" transform="translate(3736 1215)"/><circle class="d" cx="1" cy="1" r="1" transform="translate(3770 1215)"/><g class="r" transform="matrix(1, 0, 0, 1, 3687, 1202)"><rect class="f" width="41" height="48" rx="2" transform="translate(143 12)"/></g><rect class="g" width="25" height="3" rx="1.5" transform="translate(3836 1244)"/><rect class="g" width="19" height="3" rx="1.5" transform="translate(3836 1254)"/><rect class="g" width="31" height="3" rx="1.5" transform="translate(3836 1249)"/></g><g class="q" transform="matrix(1, 0, 0, 1, 1620, 238)"><path class="h" d="M1,0H50a1,1,0,0,1,1,1V57a1,1,0,0,1-1,1H1a1,1,0,0,1-1-1V1A1,1,0,0,1,1,0Z" transform="translate(7 35)"/></g><g class="p" transform="matrix(1, 0, 0, 1, 1620, 238)"><rect class="i" width="51" height="58" rx="1" transform="translate(88 35)"/></g><g transform="translate(-1972 2740)"><g transform="translate(3610 -2455)"><path class="d" d="M28.135,14.947A13.189,13.189,0,0,1,14.947,28.135H13.188A13.188,13.188,0,0,1,0,14.947V13.188A13.189,13.189,0,0,1,13.188,0h1.758A13.189,13.189,0,0,1,28.135,13.188Z"/><path class="h" d="M301.344,160a5.952,5.952,0,1,0,5.953,5.952A5.959,5.959,0,0,0,301.344,160Z" transform="translate(-287.276 -155.604)"/><path class="h" d="M201.552,588.256a7.294,7.294,0,0,1-9.176,0,9.514,9.514,0,0,0-4.312,7.339,35.081,35.081,0,0,0,4.481.237h8.835a34.939,34.939,0,0,0,4.485-.238A9.5,9.5,0,0,0,201.552,588.256Z" transform="translate(-182.897 -572.093)"/></g></g><g transform="translate(-1891 2740)"><g transform="translate(3610 -2455)"><path class="d" d="M28.135,14.947A13.189,13.189,0,0,1,14.947,28.135H13.188A13.188,13.188,0,0,1,0,14.947V13.188A13.189,13.189,0,0,1,13.188,0h1.758A13.189,13.189,0,0,1,28.135,13.188Z"/><path class="i" d="M301.344,160a5.952,5.952,0,1,0,5.953,5.952A5.959,5.959,0,0,0,301.344,160Z" transform="translate(-287.276 -155.604)"/><path class="i" d="M201.552,588.256a7.294,7.294,0,0,1-9.176,0,9.514,9.514,0,0,0-4.312,7.339,35.081,35.081,0,0,0,4.481.237h8.835a34.939,34.939,0,0,0,4.485-.238A9.5,9.5,0,0,0,201.552,588.256Z" transform="translate(-182.897 -572.093)"/></g></g><rect class="j" width="5" height="5" transform="translate(1680 302)"/><rect class="k" width="5" height="5" transform="translate(1687 300)"/><rect class="l" width="5" height="5" transform="translate(1694 304)"/><rect class="m" width="5" height="5" transform="translate(1701 300)"/><path class="b" d="M66.7,1.064,64.489.11A.922.922,0,0,0,63.758,1.8,7.822,7.822,0,0,0,64.766,16.58a1.075,1.075,0,0,0,.242.032.922.922,0,0,0,.238-1.812,5.981,5.981,0,0,1-.553-11.383l-.146.34a.919.919,0,0,0,.486,1.208.9.9,0,0,0,.359.076.922.922,0,0,0,.849-.544l.938-2.226a.925.925,0,0,0-.48-1.208Zm8.038,7.885a7.838,7.838,0,0,0-5.571-7.714A.922.922,0,1,0,68.635,3,5.984,5.984,0,0,1,69.7,14.037a.919.919,0,0,0-1.612-.884L66.832,15.2a.916.916,0,0,0,.3,1.272l2.044,1.272a.922.922,0,1,0,.954-1.568L69.853,16a7.834,7.834,0,0,0,4.884-7.052Z" transform="translate(1717.97 255.07)"/></g></svg>