<svg xmlns="http://www.w3.org/2000/svg" xmlns:xlink="http://www.w3.org/1999/xlink" width="24" height="24" viewBox="0 0 24 24"><defs><style>.a{fill:url(#a);}.b{fill:#1c201e;}.c{fill:none;}</style><linearGradient id="a" x1="0.5" x2="0.5" y2="1" gradientUnits="objectBoundingBox"><stop offset="0" stop-color="#19b796"/><stop offset="1" stop-color="#fff" stop-opacity="0"/></linearGradient></defs><g transform="translate(-318 -367)"><g transform="translate(-93 8)"><circle class="a" cx="5" cy="5" r="5" transform="translate(423 369)"/><g transform="translate(414 363)"><path class="b" d="M607.407,610.952a1.7,1.7,0,1,1-1.7,1.7A1.707,1.707,0,0,1,607.407,610.952Zm0,2.228a.523.523,0,1,0-.523-.523A.524.524,0,0,0,607.407,613.18Z" transform="translate(-603.158 -600.824)"/><path class="b" d="M282.074,321.747c.046-.24.191-.394.368-.39h.037a1.1,1.1,0,0,0,1.1-1.092,1.21,1.21,0,0,0-.1-.418.491.491,0,0,1,.169-.6l.011-.007,1.062-.584.011-.005a.563.563,0,0,1,.6.118,1.031,1.031,0,0,0,1.743-.009.561.561,0,0,1,.6-.124l.012.005,1.1.6.011.007a.491.491,0,0,1,.169.6,1.218,1.218,0,0,0-.1.418,1.1,1.1,0,0,0,1.1,1.092h.037c.178,0,.323.15.369.39a3.855,3.855,0,0,1,0,1.646c-.045.237-.188.39-.362.39h-.044a1.1,1.1,0,0,0-1.1,1.092,1.23,1.23,0,0,0,.1.418.492.492,0,0,1-.168.6l-.01.007-1.043.576-.011.005a.55.55,0,0,1-.6-.125,1.033,1.033,0,0,0-1.782.009.549.549,0,0,1-.4.169.5.5,0,0,1-.2-.04l-.012,0-1.081-.59-.011-.008a.49.49,0,0,1-.169-.6,1.213,1.213,0,0,0,.1-.418,1.1,1.1,0,0,0-1.1-1.092h-.037c-.177,0-.322-.15-.368-.39a5.2,5.2,0,0,1-.089-.823A5.092,5.092,0,0,1,282.074,321.747Zm1.1.961a2.28,2.28,0,0,1,1.593,2.167,1.937,1.937,0,0,1-.019.265l.128.07a2.02,2.02,0,0,1,2.748-.011l.1-.055a1.962,1.962,0,0,1-.019-.27,2.279,2.279,0,0,1,1.593-2.167c0-.049.006-.1.006-.138s0-.089-.006-.139a2.279,2.279,0,0,1-1.593-2.167,1.943,1.943,0,0,1,.019-.264l-.158-.086a2.027,2.027,0,0,1-2.687.012l-.129.071a1.944,1.944,0,0,1,.02.266,2.279,2.279,0,0,1-1.594,2.167c0,.049-.006.1-.006.139s0,.089.006.138Zm11.182-4.955a.591.591,0,1,1,0,1.182h-4.491a.591.591,0,1,1,0-1.182Zm-7.977-2.718a.591.591,0,0,1,.591-.591h7.386a.591.591,0,0,1,0,1.182h-7.386A.591.591,0,0,1,286.377,315.036Z" transform="translate(-281.984 -310.734)"/><path class="b" d="M157.129,155.463v-10a1.3,1.3,0,0,0-1.3-1.3h-9.588a1.3,1.3,0,0,0-1.3,1.3v3.311H143.76v-3.311a2.485,2.485,0,0,1,2.482-2.482h9.588a2.485,2.485,0,0,1,2.482,2.482v10a2.484,2.484,0,0,1-2.482,2.482H152.5v-1.182h3.325A1.3,1.3,0,0,0,157.129,155.463Z" transform="translate(-142.359 -142.98)"/></g></g><rect class="c" width="24" height="24" transform="translate(318 367)"/></g></svg>