<svg xmlns="http://www.w3.org/2000/svg" xmlns:xlink="http://www.w3.org/1999/xlink" width="24" height="24" viewBox="0 0 24 24"><defs><style>.a{fill:none;}.b{fill:url(#a);}.c{fill:#1c201e;}</style><linearGradient id="a" x1="0.5" x2="0.5" y2="1" gradientUnits="objectBoundingBox"><stop offset="0" stop-color="#19b796"/><stop offset="1" stop-color="#fff" stop-opacity="0"/></linearGradient></defs><g transform="translate(-486 -619)"><rect class="a" width="24" height="24" transform="translate(486 619)"/><circle class="b" cx="5" cy="5" r="5" transform="translate(498 632)"/><g transform="translate(395 528)"><path class="c" d="M103.5,106.385a2.885,2.885,0,1,1,2.885-2.885A2.885,2.885,0,0,1,103.5,106.385Zm0-4.615a1.731,1.731,0,1,0,1.731,1.731A1.731,1.731,0,0,0,103.5,101.769Zm-5.769-2.308a1.731,1.731,0,1,1,1.731-1.731A1.731,1.731,0,0,1,97.731,99.462Zm0-2.308a.577.577,0,1,0,.577.577A.577.577,0,0,0,97.731,97.154Zm11.538,2.308A1.731,1.731,0,1,1,111,97.731,1.731,1.731,0,0,1,109.269,99.462Zm0-2.308a.577.577,0,1,0,.577.577A.577.577,0,0,0,109.269,97.154Zm0,13.846A1.731,1.731,0,1,1,111,109.269,1.731,1.731,0,0,1,109.269,111Zm0-2.308a.577.577,0,1,0,.577.577A.577.577,0,0,0,109.269,108.692ZM97.731,111a1.731,1.731,0,1,1,1.731-1.731A1.731,1.731,0,0,1,97.731,111Zm0-2.308a.577.577,0,1,0,.577.577A.577.577,0,0,0,97.731,108.692Z" transform="translate(0 0)"/><path class="c" d="M233.942,234.944a.555.555,0,0,1-.413-.177l-2.952-2.952a.585.585,0,0,1,.827-.827l2.952,2.952a.567.567,0,0,1,0,.827A.555.555,0,0,1,233.942,234.944Zm-6.495-6.5a.555.555,0,0,1-.413-.177l-2.952-2.952a.585.585,0,1,1,.827-.827l2.952,2.952a.567.567,0,0,1,0,.827A.555.555,0,0,1,227.447,228.449Zm-2.952,6.5a.555.555,0,0,1-.413-.177.567.567,0,0,1,0-.827l2.952-2.952a.585.585,0,1,1,.827.827l-2.952,2.952A.555.555,0,0,1,224.5,234.944Zm6.389-6.389a.591.591,0,0,1-.413-.177.6.6,0,0,1,0-.838l3.059-3.047a.585.585,0,1,1,.827.827l-3.047,3.059A.6.6,0,0,1,230.884,228.555Z" transform="translate(-125.719 -126.13)"/></g></g></svg>