<svg id="icon_24pt_all_erweima" data-name="icon/24pt/all/erweima" xmlns="http://www.w3.org/2000/svg" width="24" height="24" viewBox="0 0 24 24">
  <defs>
    <style>
      .cls-1 {
        opacity: 0;
      }

      .cls-2 {
        fill: #f9e2e2;
      }

      .cls-3 {
        fill: #ffbcbc;
      }

      .cls-4, .cls-7 {
        fill: none;
      }

      .cls-4 {
        stroke: #999;
      }

      .cls-5 {
        fill: #999;
      }

      .cls-6 {
        stroke: none;
      }
    </style>
  </defs>
  <g id="底板" class="cls-1">
    <path id="路径_1" data-name="路径 1" class="cls-2" d="M0,0H24V24H0Z"/>
    <rect id="矩形_2" data-name="矩形 2" class="cls-3" width="16" height="16" transform="translate(4 4)"/>
  </g>
  <g id="组_74" data-name="组 74" transform="translate(-0.625 -0.625)">
    <g id="矩形_50" data-name="矩形 50" class="cls-4" transform="translate(4.625 14.625)">
      <rect class="cls-6" width="6" height="6" rx="1"/>
      <rect class="cls-7" x="0.5" y="0.5" width="5" height="5" rx="0.5"/>
    </g>
    <g id="矩形_41" data-name="矩形 41" class="cls-4" transform="translate(14.625 4.625)">
      <rect class="cls-6" width="6" height="6" rx="1"/>
      <rect class="cls-7" x="0.5" y="0.5" width="5" height="5" rx="0.5"/>
    </g>
    <rect id="矩形_38" data-name="矩形 38" class="cls-5" width="16" height="1" rx="0.5" transform="translate(4.625 12.125)"/>
    <rect id="矩形_39" data-name="矩形 39" class="cls-5" width="10" height="1" rx="0.5" transform="translate(13.125 4.625) rotate(90)"/>
    <rect id="矩形_42" data-name="矩形 42" class="cls-5" width="4" height="1" rx="0.5" transform="translate(13.125 16.625) rotate(90)"/>
    <g id="矩形_418" data-name="矩形 418" class="cls-4" transform="translate(14.625 14.625)">
      <rect class="cls-6" width="6" height="6" rx="1"/>
      <rect class="cls-7" x="0.5" y="0.5" width="5" height="5" rx="0.5"/>
    </g>
    <g id="矩形_419" data-name="矩形 419" class="cls-4" transform="translate(4.625 4.625)">
      <rect class="cls-6" width="6" height="6" rx="1"/>
      <rect class="cls-7" x="0.5" y="0.5" width="5" height="5" rx="0.5"/>
    </g>
  </g>
</svg>
