<svg xmlns="http://www.w3.org/2000/svg" width="32" height="32" viewBox="0 0 32 32"><defs><style>.a{fill:none;}.b{fill:#ffc75e;}.b,.c{fill-rule:evenodd;}.c{fill:#ff9b3d;}</style></defs><g transform="translate(-957 -428)"><g transform="translate(3906 -14023)"><path class="a" d="M16,0A16,16,0,1,1,0,16,16,16,0,0,1,16,0Z" transform="translate(-2949 14451)"/></g><g transform="translate(938 -213.126)"><g transform="translate(23 645.126)"><path class="b" d="M555.758,351.959a1.666,1.666,0,0,1-2.458-1.079,12.108,12.108,0,0,1-.157-4.533,1.66,1.66,0,0,1,2.475-1.168l3.439,1.991a1.663,1.663,0,0,1,0,2.879Z" transform="translate(-553 -336.203)"/><path class="c" d="M580.926,284a12.02,12.02,0,0,1-3.47-.422l3.876-1.389a10.21,10.21,0,0,0-.7-20.4,10.321,10.321,0,0,0-1.207.071l-3.035-1.088A12,12,0,1,1,580.926,284Zm-4.72-.839a12.028,12.028,0,0,1-4.61-3.261h0l-.024-.029q-.127-.146-.248-.3l-.09-.112q-.1-.125-.2-.252l-.07-.093-.024-.032h0l-.005-.007a.81.81,0,0,1,.251-1.174l8.694-5.075a.532.532,0,0,0,0-.918l-9.054-5.285a.81.81,0,0,1-.276-1.137q.08-.122.162-.243h0c.04-.058.081-.116.122-.173.026-.036.051-.073.077-.11q.118-.163.242-.322l.029-.039h0a12.054,12.054,0,0,1,4.11-3.35l2.57.921A10.209,10.209,0,0,0,573.2,265a.547.547,0,0,0,.119.849l10.148,5.923a.693.693,0,0,1,0,1.2l-9.683,5.652a.547.547,0,0,0-.092.875,10.176,10.176,0,0,0,5.453,2.611Z" transform="translate(-568.631 -260)"/><path class="b" d="M622.011,295.594a9.358,9.358,0,0,0-15.969-6.481l10.235,5.909a1.116,1.116,0,0,1,0,1.932l-9.9,5.718a9.358,9.358,0,0,0,15.639-7.079Zm-6.992-3.879a1.505,1.505,0,1,1,1.505-1.505A1.505,1.505,0,0,1,615.019,291.715Z" transform="translate(-600.578 -283.66)"/></g></g></g></svg>