<svg xmlns="http://www.w3.org/2000/svg" xmlns:xlink="http://www.w3.org/1999/xlink" width="56" height="56" viewBox="0 0 56 56">
  <defs>
    <style>
      .cls-1 {
        fill: #d4d8d8;
      }

      .cls-2 {
        fill: none;
      }

      .cls-3 {
        fill: #0c9;
      }

      .cls-4 {
        fill: url(#linear-gradient);
      }

      .cls-5 {
        fill: url(#linear-gradient-2);
      }

      .cls-6 {
        fill: url(#linear-gradient-3);
      }

      .cls-7 {
        fill: url(#linear-gradient-4);
      }
    </style>
    <linearGradient id="linear-gradient" x1="0.5" x2="0.5" y2="1" gradientUnits="objectBoundingBox">
      <stop offset="0" stop-color="#fff"/>
      <stop offset="1" stop-color="#f3f4f5" stop-opacity="0"/>
    </linearGradient>
    <linearGradient id="linear-gradient-2" x1="0.722" y1="0.73" x2="1.273" y2="0.197" gradientUnits="objectBoundingBox">
      <stop offset="0" stop-color="#fff"/>
      <stop offset="1" stop-color="#e1e2e2" stop-opacity="0"/>
    </linearGradient>
    <linearGradient id="linear-gradient-3" x1="0.63" y1="0.347" x2="1.041" y2="0.761" xlink:href="#linear-gradient-2"/>
    <linearGradient id="linear-gradient-4" x1="0.5" x2="0.5" y2="1" gradientUnits="objectBoundingBox">
      <stop offset="0" stop-color="#e1e2e2" stop-opacity="0"/>
      <stop offset="1" stop-color="#fff"/>
    </linearGradient>
  </defs>
  <g id="组_113" data-name="组 113" transform="translate(-225.855 -110.225)">
    <circle id="椭圆_116" data-name="椭圆 116" class="cls-1" cx="28" cy="28" r="28" transform="translate(225.855 110.225)"/>
    <g id="组_276" data-name="组 276" transform="translate(226.861 111.067)">
      <circle id="椭圆_117" data-name="椭圆 117" class="cls-2" cx="22.5" cy="22.5" r="22.5" transform="translate(4.994 5.159)"/>
      <path id="路径_301" data-name="路径 301" class="cls-3" d="M239.072,130.851H275.4" transform="translate(-229.315 -114.82)"/>
      <path id="路径_302" data-name="路径 302" class="cls-3" d="M239.072,157.1H275.4" transform="translate(-229.315 -118.477)"/>
      <path id="路径_303" data-name="路径 303" class="cls-3" d="M254.372,120.163v.033h.033l4.5,4.534h.033v.033l4.7,4.7h.033l6.654,6.687h.033v.033" transform="translate(-231.202 -113.259)"/>
      <path id="路径_304" data-name="路径 304" class="cls-3" d="M261.057,164.024l-4.534-4.567-4.73-4.73h-.033l-6.654-6.687-4.73-4.73-4.567-4.567" transform="translate(-228.89 -116.258)"/>
      <line id="直线_18" data-name="直线 18" class="cls-3" y1="25.269" x2="25.269" transform="translate(6.909 6.916)"/>
      <path id="路径_305" data-name="路径 305" class="cls-3" d="M270.355,149.376v.033l-6.687,6.687h-.033l-4.7,4.73v.033l-4.567,4.534" transform="translate(-231.202 -117.642)"/>
      <path id="路径_306" data-name="路径 306" class="cls-4" d="M275.4,157.1v.031a21.714,21.714,0,0,1-6.536,6.425,23.17,23.17,0,0,1-5.175,2.382,17.048,17.048,0,0,1-1.824.489,18.138,18.138,0,0,1-2.256.326,22.8,22.8,0,0,1-4.711,0,17.785,17.785,0,0,1-2.29-.326,17.05,17.05,0,0,1-1.824-.489,20.75,20.75,0,0,1-2.356-.914,22.444,22.444,0,0,1-2.787-1.468h-.033a20.136,20.136,0,0,1-3.616-2.87,21.091,21.091,0,0,1-2.92-3.555V157.1Z" transform="translate(-229.315 -118.648)"/>
      <path id="路径_308" data-name="路径 308" class="cls-5" d="M270.355,122.96h0a19.062,19.062,0,0,0-3.816-1.925c-.424-.163-.848-.325-1.3-.456-.587-.163-1.174-.326-1.761-.458h-.032c-.359-.1-.718-.162-1.077-.227a20.273,20.273,0,0,0-6.883,0c-.358.065-.718.13-1.076.227h-.033l4.534,4.534,11.449,11.449v-6.718h0Z" transform="translate(-231.202 -113.186)"/>
      <path id="路径_309" data-name="路径 309" class="cls-6" d="M270.355,156.1h0v-6.688l-6.686,6.688-4.73,4.728v.033l-4.567,4.534a18.014,18.014,0,0,0,2.251.359,22.036,22.036,0,0,0,4.632,0,16.62,16.62,0,0,0,2.218-.359h.033c.586-.13,1.173-.293,1.761-.456a22.605,22.605,0,0,0,5.088-2.382h0Z" transform="translate(-231.202 -117.647)"/>
      <path id="路径_310" data-name="路径 310" class="cls-7" d="M275.4,129.383v-.031a21.714,21.714,0,0,0-6.536-6.425,23.131,23.131,0,0,0-5.175-2.382,16.839,16.839,0,0,0-1.824-.489,18.312,18.312,0,0,0-2.256-.327,22.925,22.925,0,0,0-4.711,0,17.945,17.945,0,0,0-2.29.327,16.841,16.841,0,0,0-1.824.489,20.747,20.747,0,0,0-2.356.914,22.45,22.45,0,0,0-2.787,1.468h-.033a20.138,20.138,0,0,0-3.616,2.87,21.091,21.091,0,0,0-2.92,3.555v.031Z" transform="translate(-229.315 -113.186)"/>
      <path id="路径_315" data-name="路径 315" class="cls-7" d="M35.718,9.776V9.745a20.687,20.687,0,0,0-2.838-3.524,20.3,20.3,0,0,0-3.588-2.9A22.566,22.566,0,0,0,24.2.937,16.339,16.339,0,0,0,22.409.448,17.716,17.716,0,0,0,20.191.121a22.16,22.16,0,0,0-4.632,0,17.361,17.361,0,0,0-2.251.327,16.34,16.34,0,0,0-1.794.489A20.2,20.2,0,0,0,9.2,1.851,21.947,21.947,0,0,0,6.458,3.32H6.426A19.86,19.86,0,0,0,2.871,6.19,21.025,21.025,0,0,0,0,9.745v.031Z" transform="translate(25.256 54.65) rotate(-135)"/>
      <path id="路径_314" data-name="路径 314" class="cls-7" d="M35.137,9.776V9.745a20.63,20.63,0,0,0-2.792-3.524,20.033,20.033,0,0,0-3.53-2.9A22.036,22.036,0,0,0,23.809.937,15.867,15.867,0,0,0,22.045.448,17.163,17.163,0,0,0,19.863.121a21.447,21.447,0,0,0-4.557,0,16.819,16.819,0,0,0-2.215.327,15.868,15.868,0,0,0-1.764.489,19.682,19.682,0,0,0-2.279.914,21.476,21.476,0,0,0-2.7,1.468H6.322a19.6,19.6,0,0,0-3.5,2.87A20.965,20.965,0,0,0,0,9.745v.031Z" transform="translate(6.42 44.893) rotate(-90)"/>
      <path id="路径_313" data-name="路径 313" class="cls-7" d="M35.718,9.776V9.745a20.687,20.687,0,0,0-2.838-3.524,20.3,20.3,0,0,0-3.588-2.9A22.566,22.566,0,0,0,24.2.937,16.339,16.339,0,0,0,22.409.448,17.716,17.716,0,0,0,20.191.121a22.16,22.16,0,0,0-4.632,0,17.361,17.361,0,0,0-2.251.327,16.34,16.34,0,0,0-1.794.489A20.2,20.2,0,0,0,9.2,1.851,21.947,21.947,0,0,0,6.458,3.32H6.426A19.86,19.86,0,0,0,2.871,6.19,21.025,21.025,0,0,0,0,9.745v.031Z" transform="translate(0 25.256) rotate(-45)"/>
    </g>
  </g>
</svg>
