<svg xmlns="http://www.w3.org/2000/svg" xmlns:xlink="http://www.w3.org/1999/xlink" width="216" height="216" viewBox="0 0 216 216">
  <defs>
    <style>
      .cls-1 {
        fill: #e1e1e3;
      }

      .cls-2 {
        fill: none;
      }

      .cls-3 {
        fill: #0c9;
      }

      .cls-4 {
        fill: url(#linear-gradient);
      }

      .cls-5 {
        fill: url(#linear-gradient-2);
      }

      .cls-6 {
        fill: url(#linear-gradient-3);
      }

      .cls-7 {
        fill: url(#linear-gradient-4);
      }
    </style>
    <linearGradient id="linear-gradient" x1="0.5" x2="0.5" y2="1" gradientUnits="objectBoundingBox">
      <stop offset="0" stop-color="#fff"/>
      <stop offset="1" stop-color="#f3f4f5" stop-opacity="0"/>
    </linearGradient>
    <linearGradient id="linear-gradient-2" x1="0.722" y1="0.73" x2="1.273" y2="0.197" gradientUnits="objectBoundingBox">
      <stop offset="0" stop-color="#fff"/>
      <stop offset="1" stop-color="#e1e2e2" stop-opacity="0"/>
    </linearGradient>
    <linearGradient id="linear-gradient-3" x1="0.63" y1="0.347" x2="1.041" y2="0.761" xlink:href="#linear-gradient-2"/>
    <linearGradient id="linear-gradient-4" x1="0.5" x2="0.5" y2="1" gradientUnits="objectBoundingBox">
      <stop offset="0" stop-color="#e1e2e2" stop-opacity="0"/>
      <stop offset="1" stop-color="#fff"/>
    </linearGradient>
  </defs>
  <g id="组_505" data-name="组 505" transform="translate(42 42)">
    <rect id="矩形_481" data-name="矩形 481" class="cls-1" width="216" height="216" rx="4" transform="translate(-42 -42)"/>
    <circle id="椭圆_117" data-name="椭圆 117" class="cls-2" cx="54.564" cy="54.564" r="54.564" transform="translate(11.205 11.603)"/>
    <path id="路径_301" data-name="路径 301" class="cls-3" d="M239.072,130.851h87.966" transform="translate(-215.445 -92.034)"/>
    <path id="路径_302" data-name="路径 302" class="cls-3" d="M239.072,157.1h87.966" transform="translate(-215.445 -63.575)"/>
    <path id="路径_303" data-name="路径 303" class="cls-3" d="M254.372,120.163v.079h.079l10.9,10.979h.079v.079L276.8,142.674h.079L293,158.866h.079v.079" transform="translate(-198.266 -103.444)"/>
    <path id="路径_304" data-name="路径 304" class="cls-3" d="M296.944,199.958,285.965,188.9l-11.453-11.453h-.079l-16.113-16.192L246.868,149.8,235.81,138.744" transform="translate(-219.054 -84.295)"/>
    <line id="直线_18" data-name="直线 18" class="cls-3" y1="61.188" x2="61.188" transform="translate(16.731 16.748)"/>
    <path id="路径_305" data-name="路径 305" class="cls-3" d="M293.075,149.376v.079l-16.192,16.192H276.8L265.43,177.1v.079l-11.058,10.979" transform="translate(-198.266 -72.534)"/>
    <path id="路径_306" data-name="路径 306" class="cls-4" d="M327.039,157.1v.076a52.58,52.58,0,0,1-15.827,15.559,56.1,56.1,0,0,1-12.532,5.769,41.285,41.285,0,0,1-4.417,1.184,43.907,43.907,0,0,1-5.463.79,55.211,55.211,0,0,1-11.407,0,43.058,43.058,0,0,1-5.544-.79,41.288,41.288,0,0,1-4.417-1.184,50.243,50.243,0,0,1-5.7-2.214,54.353,54.353,0,0,1-6.748-3.555H254.9a48.763,48.763,0,0,1-8.755-6.951,51.072,51.072,0,0,1-7.072-8.608V157.1Z" transform="translate(-215.446 -63.987)"/>
    <path id="路径_308" data-name="路径 308" class="cls-5" d="M293.075,127.736h0a46.156,46.156,0,0,0-9.24-4.661c-1.028-.394-2.054-.788-3.159-1.1-1.422-.394-2.843-.79-4.265-1.108h-.078c-.87-.234-1.738-.392-2.608-.55a49.093,49.093,0,0,0-16.667,0c-.868.158-1.738.316-2.605.55h-.08l10.98,10.98,27.723,27.723V143.3h0Z" transform="translate(-198.267 -104.066)"/>
    <path id="路径_309" data-name="路径 309" class="cls-6" d="M293.075,165.608h0v-16.2l-16.191,16.2-11.454,11.45v.08l-11.058,10.978a43.61,43.61,0,0,0,5.451.87,53.365,53.365,0,0,0,11.216,0,40.24,40.24,0,0,0,5.371-.87h.08c1.42-.316,2.841-.71,4.263-1.1a54.736,54.736,0,0,0,12.322-5.769h0Z" transform="translate(-198.267 -72.492)"/>
    <path id="路径_310" data-name="路径 310" class="cls-7" d="M327.039,143.28V143.2a52.58,52.58,0,0,0-15.827-15.559,56.015,56.015,0,0,0-12.532-5.769,40.784,40.784,0,0,0-4.417-1.184,44.341,44.341,0,0,0-5.463-.792,55.516,55.516,0,0,0-11.407,0,43.459,43.459,0,0,0-5.544.792,40.788,40.788,0,0,0-4.417,1.184,50.248,50.248,0,0,0-5.7,2.214,54.365,54.365,0,0,0-6.748,3.555H254.9a48.768,48.768,0,0,0-8.755,6.951,51.074,51.074,0,0,0-7.072,8.608v.076Z" transform="translate(-215.446 -104.06)"/>
    <path id="路径_315" data-name="路径 315" class="cls-7" d="M86.49,23.673V23.6a50.093,50.093,0,0,0-6.873-8.533,49.152,49.152,0,0,0-8.688-7.027A54.643,54.643,0,0,0,58.607,2.269a39.564,39.564,0,0,0-4.343-1.184A42.9,42.9,0,0,0,48.893.294a53.66,53.66,0,0,0-11.216,0,42.041,42.041,0,0,0-5.451.792,39.567,39.567,0,0,0-4.343,1.184,48.917,48.917,0,0,0-5.609,2.214,53.143,53.143,0,0,0-6.635,3.555h-.078a48.09,48.09,0,0,0-8.608,6.951A50.911,50.911,0,0,0,0,23.6v.076Z" transform="translate(61.158 132.335) rotate(-135)"/>
    <path id="路径_314" data-name="路径 314" class="cls-7" d="M85.083,23.673V23.6a49.955,49.955,0,0,0-6.761-8.533,48.51,48.51,0,0,0-8.547-7.027A53.359,53.359,0,0,0,57.654,2.269a38.421,38.421,0,0,0-4.273-1.184A41.56,41.56,0,0,0,48.1.294a51.934,51.934,0,0,0-11.034,0,40.728,40.728,0,0,0-5.362.792,38.424,38.424,0,0,0-4.272,1.184,47.659,47.659,0,0,0-5.518,2.214,52,52,0,0,0-6.527,3.555h-.077A47.461,47.461,0,0,0,6.84,14.989,50.767,50.767,0,0,0,0,23.6v.076Z" transform="translate(15.547 108.709) rotate(-90)"/>
    <path id="路径_313" data-name="路径 313" class="cls-7" d="M86.49,23.673V23.6a50.093,50.093,0,0,0-6.873-8.533,49.152,49.152,0,0,0-8.688-7.027A54.643,54.643,0,0,0,58.607,2.269a39.564,39.564,0,0,0-4.343-1.184A42.9,42.9,0,0,0,48.893.294a53.66,53.66,0,0,0-11.216,0,42.041,42.041,0,0,0-5.451.792,39.567,39.567,0,0,0-4.343,1.184,48.917,48.917,0,0,0-5.609,2.214,53.143,53.143,0,0,0-6.635,3.555h-.078a48.09,48.09,0,0,0-8.608,6.951A50.911,50.911,0,0,0,0,23.6v.076Z" transform="translate(0 61.158) rotate(-45)"/>
  </g>
</svg>
