<svg xmlns="http://www.w3.org/2000/svg" width="32" height="32" viewBox="0 0 32 32"><defs><style>.a{fill:none;}.b{fill:#fff;}.c{fill:#0ad7b6;}</style></defs><g transform="translate(-138 -408.174)"><rect class="a" width="32" height="32" transform="translate(138 408.174)"/><g transform="translate(143 413.174)"><path class="b" d="M0,11A11,11,0,1,0,11,0,11,11,0,0,0,0,11Z"/><path class="b" d="M190.915,234.3h14.059v9.926H190.915Z" transform="translate(-186.945 -229.13)"/><path class="c" d="M121.722,137.642m-8.4-11.669a8.777,8.777,0,0,0-4.217,1.063,8.116,8.116,0,0,1,2.617-1.34l-.157-.157a5.817,5.817,0,0,0-2.978,1.109,14.577,14.577,0,0,0-1.489,6.184,4.035,4.035,0,0,0,3.218,1.553l.657-.832a3.517,3.517,0,0,1-1.886-1.276,8.171,8.171,0,0,0,8.47,0,3.517,3.517,0,0,1-1.886,1.276l.657.832a4.035,4.035,0,0,0,3.218-1.553,14.577,14.577,0,0,0-1.489-6.184,5.817,5.817,0,0,0-2.978-1.109l-.157.157a8.116,8.116,0,0,1,2.617,1.34,8.777,8.777,0,0,0-4.217-1.063m-1.914,3.5a1.123,1.123,0,0,1,1.082,1.174,1.081,1.081,0,1,1-2.155,0,1.122,1.122,0,0,1,1.073-1.174m3.856,0a1.178,1.178,0,0,1,0,2.348c-.592,0-1.073-1.174-1.073-1.174S114.662,129.476,115.263,129.476Z" transform="translate(-102.317 -119.571)"/></g></g></svg>