<svg xmlns="http://www.w3.org/2000/svg" width="80" height="30.543" viewBox="0 0 80 30.543"><defs><style>.a,.c,.e{fill:#0ad7b6;}.b{fill:#c09;}.c{opacity:0;}.d{fill:#60c;}.e{stroke:#000;stroke-miterlimit:10;stroke-width:1.013px;}.f{fill:#16e6e6;}.g{fill:#fc0;}</style></defs><path class="a" d="M789.726,505.067a11.409,11.409,0,1,1,2.8-22.47,1.931,1.931,0,1,1-.947,3.745,7.547,7.547,0,1,0,3.25,12.872,1.931,1.931,0,0,1,2.615,2.843A11.376,11.376,0,0,1,789.726,505.067Z" transform="translate(-778.317 -474.523)"/><path class="a" d="M884.37,505.067a9.189,9.189,0,0,1-9.179-9.179,1.931,1.931,0,1,1,3.863,0,5.316,5.316,0,0,0,10.631,0V484.18a1.931,1.931,0,1,1,3.863,0v11.708A9.189,9.189,0,0,1,884.37,505.067Z" transform="translate(-853.863 -474.523)"/><path class="a" d="M986.954,495.59H977.2a6.67,6.67,0,1,1,0-13.341h9.756a1.932,1.932,0,0,1,0,3.863H977.2a2.807,2.807,0,0,0,0,5.614h9.756a1.932,1.932,0,0,1,0,3.863Z" transform="translate(-928.21 -474.523)"/><path class="a" d="M884.37,495.59a9.189,9.189,0,0,1-9.179-9.179v-2.23a1.931,1.931,0,1,1,3.863,0v2.23a5.316,5.316,0,1,0,10.631,0v-2.23a1.931,1.931,0,1,1,3.863,0v2.23A9.189,9.189,0,0,1,884.37,495.59Z" transform="translate(-853.863 -474.523)"/><path class="a" d="M972.46,517.41a1.931,1.931,0,0,1-1.931-1.931V505.7a1.932,1.932,0,1,1,3.863,0v9.774A1.931,1.931,0,0,1,972.46,517.41Z" transform="translate(-928.21 -491.308)"/><g transform="translate(61.642 7.726)"><path class="a" d="M1069.988,491.727h-5.017a2.807,2.807,0,1,1,0-5.614h9.345a1.932,1.932,0,1,0,0-3.863h-9.345a6.67,6.67,0,0,0,0,13.341h5.017a2.807,2.807,0,1,1,0,5.614h-7.824a3.338,3.338,0,0,1,.763.158,1.931,1.931,0,0,1-.768,3.705h7.853a6.67,6.67,0,0,0-.023-13.34Z" transform="translate(-1058.301 -482.249)"/></g><circle class="b" cx="1.931" cy="1.931" r="1.931" transform="translate(15.89 10.224)"/><circle class="c" cx="1.931" cy="1.931" r="1.931" transform="translate(3.066 24.183)"/><path class="d" d="M1.931,0A1.931,1.931,0,1,1,0,1.931,1.931,1.931,0,0,1,1.931,0Z" transform="translate(35.823)"/><path class="e" d="M979.453,566.953" transform="translate(-935.17 -540.579)"/><path class="f" d="M1.931,0A1.931,1.931,0,1,1,0,1.931,1.931,1.931,0,0,1,1.931,0Z" transform="translate(42.352 26.681)"/><circle class="g" cx="1.931" cy="1.931" r="1.931" transform="translate(61.643 26.681)"/></svg>