<svg xmlns="http://www.w3.org/2000/svg" width="24" height="24" viewBox="0 0 24 24"><defs><style>.a{fill:none;opacity:0.24;}</style></defs><g transform="translate(-404 -927)"><rect class="a" width="24" height="24" transform="translate(404 927)"/><path d="M60.048,5.029a1.02,1.02,0,0,0-1.035.992V9.88a1.01,1.01,0,0,0,1.035.993,1.021,1.021,0,0,0,1.034-.993V6.022a1.031,1.031,0,0,0-1.034-.992Zm-12.48,0a1.02,1.02,0,0,0-1.034.992V9.88a1.036,1.036,0,0,0,2.069,0V6.022a1.01,1.01,0,0,0-1.035-.992Zm1.665.032v7.06a.79.79,0,0,0,.808.768h.922v2.145A1.01,1.01,0,0,0,52,16.027a1.02,1.02,0,0,0,1.035-.993V12.889h1.616v2.145a1.01,1.01,0,0,0,1.035.993,1.021,1.021,0,0,0,1.034-.993V12.889h.921a.78.78,0,0,0,.809-.768V5.061H49.233Zm6.757-3.65L56.848.258C56.88.178,56.88.082,56.8.05a.158.158,0,0,0-.21.048l-.873,1.2A5.677,5.677,0,0,0,53.808.963,5.306,5.306,0,0,0,51.9,1.3L51.028.1a.145.145,0,0,0-.21-.048.151.151,0,0,0-.033.208l.857,1.153a3.8,3.8,0,0,0-2.409,3.025h9.2a3.867,3.867,0,0,0-2.441-3.026ZM51.869,3.236a.478.478,0,0,1-.5-.48.487.487,0,0,1,.5-.48.478.478,0,0,1,.5.48A.488.488,0,0,1,51.869,3.236Zm3.944,0a.478.478,0,0,1-.5-.48.488.488,0,0,1,.5-.48.478.478,0,0,1,.5.48A.488.488,0,0,1,55.813,3.236Z" transform="translate(362.466 930.977)"/></g></svg>