<svg xmlns="http://www.w3.org/2000/svg" width="24" height="24" viewBox="0 0 24 24"><defs><style>.a{fill:none;opacity:0.24;}</style></defs><g transform="translate(-1011 -927)"><g transform="translate(607)"><rect class="a" width="24" height="24" transform="translate(404 927)"/></g><path d="M73.006,69.508v-.132L72.6,69.4a.517.517,0,0,0-.263.073.217.217,0,0,0,0,.348.381.381,0,0,0,.232.064.5.5,0,0,0,.173-.029.442.442,0,0,0,.139-.079.379.379,0,0,0,.093-.12A.353.353,0,0,0,73.006,69.508ZM72.2,64.2a8,8,0,1,0,8,8A7.942,7.942,0,0,0,72.2,64.2Zm1.552,4.741a.8.8,0,0,1,.161-.273.721.721,0,0,1,.248-.175.9.9,0,0,1,.616-.013.688.688,0,0,1,.223.13.634.634,0,0,1,.148.189.653.653,0,0,1,.064.23h-.322a.457.457,0,0,0-.043-.123.367.367,0,0,0-.082-.1.389.389,0,0,0-.12-.066.473.473,0,0,0-.155-.023.423.423,0,0,0-.186.041.407.407,0,0,0-.143.116.538.538,0,0,0-.091.184.834.834,0,0,0-.032.239.855.855,0,0,0,.032.245.516.516,0,0,0,.093.182.392.392,0,0,0,.145.114.42.42,0,0,0,.184.039.43.43,0,0,0,.268-.077.364.364,0,0,0,.136-.227h.322a.627.627,0,0,1-.447.545.932.932,0,0,1-.606-.016.7.7,0,0,1-.25-.172.761.761,0,0,1-.161-.272A1.085,1.085,0,0,1,73.7,69.3a1.032,1.032,0,0,1,.054-.359Zm-4.57-.486H69.5v.286h.005a.43.43,0,0,1,.077-.127.509.509,0,0,1,.109-.1.517.517,0,0,1,.136-.061.566.566,0,0,1,.157-.021.515.515,0,0,1,.3.084.453.453,0,0,1,.173.243h.009a.486.486,0,0,1,.086-.136.565.565,0,0,1,.121-.1.537.537,0,0,1,.15-.064A.663.663,0,0,1,71,68.436a.608.608,0,0,1,.225.039.5.5,0,0,1,.173.113.48.48,0,0,1,.111.175.66.66,0,0,1,.039.229V70.14H71.21V69.074a.361.361,0,0,0-.086-.257.317.317,0,0,0-.243-.091.377.377,0,0,0-.143.027.3.3,0,0,0-.111.077.357.357,0,0,0-.073.118.4.4,0,0,0-.027.15v1.047H70.2v-1.1a.348.348,0,0,0-.023-.132.273.273,0,0,0-.166-.166.389.389,0,0,0-.134-.023.355.355,0,0,0-.145.029.323.323,0,0,0-.113.08.335.335,0,0,0-.073.121.468.468,0,0,0-.045.152v1.034h-.318Zm.731,8.073a2.677,2.677,0,1,1,2.4-2.66A2.361,2.361,0,0,1,69.913,76.529Zm2.73-6.39a.652.652,0,0,1-.166.021.725.725,0,0,1-.23-.036.51.51,0,0,1-.18-.1.467.467,0,0,1-.118-.157.486.486,0,0,1-.043-.205.407.407,0,0,1,.166-.347.869.869,0,0,1,.479-.145l.456-.027v-.13a.268.268,0,0,0-.093-.222.407.407,0,0,0-.263-.077.483.483,0,0,0-.127.016.368.368,0,0,0-.1.048.279.279,0,0,0-.075.077.267.267,0,0,0-.041.1h-.316a.438.438,0,0,1,.055-.207.54.54,0,0,1,.141-.164.692.692,0,0,1,.211-.109.891.891,0,0,1,.264-.039.914.914,0,0,1,.279.039.641.641,0,0,1,.214.111.493.493,0,0,1,.136.173.527.527,0,0,1,.048.227V70.14h-.322v-.28h-.009a.469.469,0,0,1-.091.123.629.629,0,0,1-.123.095A.527.527,0,0,1,72.643,70.138Zm2.122,6.39c-1.126,0-1.89-.59-1.942-1.515h.732c.057.529.568.879,1.268.879.672,0,1.154-.35,1.154-.829,0-.414-.293-.665-.972-.836l-.661-.164c-.95-.236-1.383-.668-1.383-1.379,0-.875.765-1.483,1.853-1.483a1.639,1.639,0,0,1,1.835,1.49h-.725a1,1,0,0,0-1.126-.854c-.64,0-1.083.329-1.083.8,0,.375.279.6.958.768l.557.139c1.061.257,1.5.675,1.5,1.426,0,.958-.756,1.554-1.963,1.554Zm-4.852-4.668c-1.011,0-1.642.775-1.642,2.006s.632,2,1.642,2,1.642-.775,1.642-2S70.919,71.861,69.913,71.861Z" transform="translate(950.8 866.8)"/></g></svg>