<svg xmlns="http://www.w3.org/2000/svg" width="24" height="24" viewBox="0 0 24 24"><defs><style>.a{fill:none;}.b{fill:#0ad7b6;}</style></defs><g transform="translate(-1321 -385)"><rect class="a" width="24" height="24" transform="translate(1321 385)"/><g transform="translate(1325 389)"><path class="b" d="M13.892,16H2.111A2.113,2.113,0,0,1,0,13.891V11.75a.7.7,0,1,1,1.406,0v2.141a.7.7,0,0,0,.7.7H13.892a.7.7,0,0,0,.7-.7V2.109a.7.7,0,0,0-.7-.7H2.111a.7.7,0,0,0-.7.7V4.25A.7.7,0,1,1,0,4.25V2.109A2.113,2.113,0,0,1,2.111,0H13.892A2.113,2.113,0,0,1,16,2.109V13.891A2.113,2.113,0,0,1,13.892,16Z" transform="translate(-0.001)"/><path class="b" d="M.708,262.031a.708.708,0,0,1,0-1.416l8.164-.052-2.056-2.055a.708.708,0,0,1,1-1l3.254,3.254a.708.708,0,0,1-.5,1.208l-9.857.063a.006.006,0,0,0,0,0Z" transform="translate(0 -253.291)"/><path class="b" d="M420.509,472.473a.708.708,0,0,1-.5-1.208l3.255-3.257a.708.708,0,0,1,1,1l-3.255,3.257A.705.705,0,0,1,420.509,472.473Z" transform="translate(-413.26 -460.511)"/></g></g></svg>