<svg xmlns="http://www.w3.org/2000/svg" width="24" height="24" viewBox="0 0 24 24"><defs><style>.a{fill:none;opacity:0.24;}</style></defs><g transform="translate(-404 -927)"><rect class="a" width="24" height="24" transform="translate(404 927)"/><path d="M72.718,28.528a3.522,3.522,0,0,0,.777-2.6,3.774,3.774,0,0,0-2.441,1.317,3.251,3.251,0,0,0-.8,2.533A3.184,3.184,0,0,0,72.718,28.528Zm4.625,9.144a11.586,11.586,0,0,1-1.037,1.94c-.674,1.029-1.623,2.309-2.8,2.318-1.045.011-1.315-.681-2.732-.673s-1.715.687-2.761.677c-1.176-.011-2.075-1.166-2.748-2.195-1.883-2.874-2.08-6.247-.92-8.042A4.168,4.168,0,0,1,67.7,29.679c1.246,0,2.029.685,3.061.685,1,0,1.609-.686,3.05-.686A4.069,4.069,0,0,1,76.879,31.3a3.521,3.521,0,0,0,.464,6.372h0Z" transform="translate(345.374 905.07)"/></g></svg>