<svg xmlns="http://www.w3.org/2000/svg" xmlns:xlink="http://www.w3.org/1999/xlink" width="80" height="80" viewBox="0 0 80 80"><defs><style>.a{fill:#e1e1e3;}.b{fill:#fff;opacity:0.37;}.c{fill:url(#a);}.d{fill:url(#g);}.e{fill:none;}.f{filter:url(#k);}.g{filter:url(#h);}.h{filter:url(#e);}.i{filter:url(#b);}</style><linearGradient id="a" x1="0.5" x2="0.5" y2="1" gradientUnits="objectBoundingBox"><stop offset="0" stop-color="#fff"/><stop offset="1" stop-color="#fff" stop-opacity="0"/></linearGradient><filter id="b" x="32.826" y="20.483" width="29.185" height="44.63" filterUnits="userSpaceOnUse"><feOffset dy="3" input="SourceAlpha"/><feGaussianBlur stdDeviation="3" result="c"/><feFlood flood-opacity="0.02"/><feComposite operator="in" in2="c"/><feComposite in="SourceGraphic"/></filter><filter id="e" x="17.913" y="20.483" width="29.185" height="44.63" filterUnits="userSpaceOnUse"><feOffset dy="3" input="SourceAlpha"/><feGaussianBlur stdDeviation="3" result="f"/><feFlood flood-opacity="0.02"/><feComposite operator="in" in2="f"/><feComposite in="SourceGraphic"/></filter><linearGradient id="g" x1="0" y1="0.5" x2="1" y2="0.5" xlink:href="#a"/><filter id="h" x="17.913" y="20.483" width="44.098" height="29.185" filterUnits="userSpaceOnUse"><feOffset dy="3" input="SourceAlpha"/><feGaussianBlur stdDeviation="3" result="i"/><feFlood flood-opacity="0.02"/><feComposite operator="in" in2="i"/><feComposite in="SourceGraphic"/></filter><filter id="k" x="18" y="36" width="44" height="29" filterUnits="userSpaceOnUse"><feOffset dy="3" input="SourceAlpha"/><feGaussianBlur stdDeviation="3" result="l"/><feFlood flood-opacity="0.02"/><feComposite operator="in" in2="l"/><feComposite in="SourceGraphic"/></filter></defs><g transform="translate(-1192 -582)"><g transform="translate(347 -94)"><path class="a" d="M28,0A28,28,0,1,1,0,28,28,28,0,0,1,28,0Z" transform="translate(857 688)"/><g transform="translate(-369 -660.061)"><circle class="b" cx="28" cy="28" r="28" transform="translate(1226 1348.061)"/><g transform="translate(1240.913 1362.544)"><g class="i" transform="matrix(1, 0, 0, 1, -26.91, -26.48)"><path class="c" d="M0,0H11.185V26.63H0Z" transform="translate(41.83 26.48)"/></g><g class="h" transform="matrix(1, 0, 0, 1, -26.91, -26.48)"><path class="c" d="M0,0H11.185V26.63H0Z" transform="translate(38.1 53.11) rotate(180)"/></g><g class="g" transform="matrix(1, 0, 0, 1, -26.91, -26.48)"><path class="d" d="M0,0H26.1V11.185H0Z" transform="translate(26.91 26.48)"/></g><g class="f" transform="matrix(1, 0, 0, 1, -26.91, -26.48)"><rect class="d" width="26" height="11" transform="translate(53 53) rotate(180)"/></g></g></g></g><g transform="translate(1054 271)"><rect class="e" width="80" height="80" transform="translate(138 311)"/></g></g></svg>