<svg xmlns="http://www.w3.org/2000/svg" width="32" height="32" viewBox="0 0 32 32"><defs><style>.a{fill:none;}.b{fill:#fff;}.c{fill:#0ad7b6;}</style></defs><g transform="translate(-1492 -1097)"><g transform="translate(1354 688.826)"><rect class="a" width="32" height="32" transform="translate(138 408.174)"/></g><g transform="translate(35.52 -236.921)"><g transform="translate(1461.48 1338.921)"><path class="b" d="M11,0A11,11,0,1,1,0,11,11,11,0,0,1,11,0Z" transform="translate(0 0)"/><g transform="translate(2.946 5.597)"><path class="c" d="M1488.445,1387.853a1.776,1.776,0,0,1,0-3.387,6.139,6.139,0,0,1,2.382-3.33,5.353,5.353,0,1,0,0,10.051A6.139,6.139,0,0,1,1488.445,1387.853Z" transform="translate(-1483.629 -1380.809)"/><g transform="translate(5.402)"><path class="c" d="M1604.346,1421.045h0Z" transform="translate(-1593.641 -1415.692)"/><path class="c" d="M1530.6,1387.278a1.776,1.776,0,1,1,0-2.233l3.626-.778a5.353,5.353,0,1,0,0,3.788Z" transform="translate(-1523.868 -1380.809)"/></g></g></g></g></g></svg>