<svg xmlns="http://www.w3.org/2000/svg" width="16" height="16" viewBox="0 0 16 16"><defs><style>.a{fill:none;}</style></defs><g transform="translate(-573 -448)"><rect class="a" width="16" height="16" transform="translate(573 448)"/><path d="M41.726,2.69A2.977,2.977,0,0,1,44.7,5.549v3.1h.5a.346.346,0,1,1,0,.691H38.29a.346.346,0,1,1,0-.69h.461v-3.1A2.977,2.977,0,0,1,41.726,2.69Zm-.032.865a2.3,2.3,0,0,0-2.284,2v3.1h1.963V7.863a.346.346,0,1,1,.692,0v.783h1.912V5.55a2.3,2.3,0,0,0-2.283-1.995Zm.02.792a1.175,1.175,0,1,1-1.175,1.175,1.18,1.18,0,0,1,1.175-1.175Zm.186.732a.484.484,0,1,0-.186.931.491.491,0,0,0,.484-.483.484.484,0,0,0-.3-.447Zm3.082-2.511a.346.346,0,0,1,.461.5l-.534.488a.346.346,0,0,1-.461-.5l.521-.493Zm-6.854-.274a.346.346,0,0,1,.361.142l.461.516a.346.346,0,0,1-.461.492l-.46-.516a.346.346,0,0,1,.1-.635ZM41.714.951a.346.346,0,0,1,.346.346v.659a.346.346,0,1,1-.691,0V1.3a.345.345,0,0,1,.345-.346Z" transform="translate(539.142 451.049)"/></g></svg>