<svg xmlns="http://www.w3.org/2000/svg" width="32" height="32" viewBox="0 0 32 32"><defs><style>.a{fill:none;}.b{fill:#0ad7b6;}.c{fill:#fff;}</style></defs><g transform="translate(-1015 -501)"><rect class="a" width="32" height="32" transform="translate(1015 501)"/><path class="b" d="M0,12A12,12,0,1,0,12,0,12,12,0,0,0,0,12Z" transform="translate(1019 505)"/><path class="c" d="M72,76.3a8,8,0,0,0-2.642,15.546c.42.105.356-.193.356-.4V90.064c-2.426.284-2.524-1.321-2.687-1.589-.329-.561-1.106-.7-.874-.972.552-.284,1.115.072,1.768,1.035A1.69,1.69,0,0,0,69.781,89a2.255,2.255,0,0,1,.62-1.087c-2.513-.45-3.561-1.984-3.561-3.807a3.519,3.519,0,0,1,.863-2.354,3.119,3.119,0,0,1,.088-2.145,3.66,3.66,0,0,1,2.2.81,8.452,8.452,0,0,1,4.047.005,3.585,3.585,0,0,1,2.168-.785,3.14,3.14,0,0,1,.1,2.109,3.52,3.52,0,0,1,.874,2.365c0,1.827-1.055,3.362-3.575,3.806a2.279,2.279,0,0,1,.681,1.627v2.011c.014.161,0,.32.268.32A8,8,0,0,0,72,76.3Z" transform="translate(959 432.7)"/></g></svg>