<svg xmlns="http://www.w3.org/2000/svg" width="24" height="24" viewBox="0 0 24 24"><defs><style>.a{fill:none;opacity:0.24;}</style></defs><g transform="translate(-1400 -927)"><g transform="translate(1276 510.333)"><path d="M129.777,428.444m-1.778,0a1.778,1.778,0,1,0,1.778-1.778A1.778,1.778,0,0,0,128,428.444Z"/><path d="M428.444,428.444m-1.778,0a1.778,1.778,0,1,0,1.778-1.778A1.778,1.778,0,0,0,426.667,428.444Z" transform="translate(-292.445)"/><path d="M727.111,428.444m-1.778,0a1.778,1.778,0,1,0,1.778-1.778A1.778,1.778,0,0,0,725.334,428.444Z" transform="translate(-584.889)"/></g><g transform="translate(996)"><rect class="a" width="24" height="24" transform="translate(404 927)"/></g></g></svg>