<svg xmlns="http://www.w3.org/2000/svg" xmlns:xlink="http://www.w3.org/1999/xlink" width="40" height="40" viewBox="0 0 40 40"><defs><style>.a{fill:none;}.b{fill:url(#a);}</style><linearGradient id="a" x1="0.5" x2="0.5" y2="1" gradientUnits="objectBoundingBox"><stop offset="0" stop-color="#2bc0cb"/><stop offset="1" stop-color="#7fe4a1"/></linearGradient></defs><g transform="translate(-1231 -359)"><rect class="a" width="40" height="40" transform="translate(1231 359)"/><g transform="translate(1175 303)"><path class="b" d="M76,64A12,12,0,1,1,64,76,12,12,0,0,1,76,64Zm0,1.929A10.071,10.071,0,1,0,86.071,76,10.071,10.071,0,0,0,76,65.929Z"/><path class="b" d="M313.11,274h.038l.052,0h.069a1.193,1.193,0,0,1,.252.058h0l.007,0h0l.006,0,.022.008h0l.035.014,0,0,.011.005,0,0a1.08,1.08,0,0,1,.242.151l5.045,4.133.013.011a.862.862,0,0,1,.038,1.321,1.185,1.185,0,0,1-1.52.045l-3.238-2.653v8.717a1.086,1.086,0,0,1-2.15.016v-8.733l-3.238,2.653a1.185,1.185,0,0,1-1.52-.045.862.862,0,0,1,.038-1.321l.013-.011,5.045-4.133a1.082,1.082,0,0,1,.242-.151l0,0,.04-.017a1.19,1.19,0,0,1,.322-.08h.048l.043,0h.024Z" transform="translate(-237.123 -204.221)"/></g></g></svg>