<svg xmlns="http://www.w3.org/2000/svg" width="24" height="24" viewBox="0 0 24 24"><defs><style>.a{fill:#fff;}.b{fill:none;opacity:0.24;}</style></defs><g transform="translate(-1220 -927)"><g transform="translate(-49 -314.419)"><g transform="translate(1273 1245.419)"><path d="M0,0,5,0h6q5,0,5,5v6q0,5-5,5H5q-5,0-5-5V5Q0,0,5,0Z"/><path d="M284.082,229.646a.5.5,0,0,0-.138-.1,1.418,1.418,0,0,1-.3-.181.31.31,0,0,1-.125-.176c-.011-.05-.014-.1-.023-.154a.94.94,0,0,0-.068-.249.139.139,0,0,0-.108-.1c-.025,0-.023-.011-.016-.029a1.919,1.919,0,0,0,.061-.3,2.4,2.4,0,0,0-.059-.846,3.2,3.2,0,0,0-.154-.426,2.891,2.891,0,0,0-.4-.7c-.063-.081-.133-.153-.192-.235-.1-.145-.2-.285-.3-.434a2.165,2.165,0,0,1-.251-.475,2.64,2.64,0,0,1-.089-.471c-.026-.174-.034-.351-.05-.526a3.42,3.42,0,0,0-.088-.566,1.268,1.268,0,0,0-.148-.394,1.164,1.164,0,0,0-.306-.334,1.324,1.324,0,0,0-.652-.229,1.948,1.948,0,0,0-.595.035.781.781,0,0,0-.363.156,1.052,1.052,0,0,0-.3.409,1.508,1.508,0,0,0-.1.567,10.065,10.065,0,0,0,.074,1.182,1.191,1.191,0,0,1,0,.32.994.994,0,0,1-.188.422c-.125.171-.269.329-.4.5a1.43,1.43,0,0,0-.292.582,2.851,2.851,0,0,1-.173.539c-.075.162-.164.316-.251.472a1.127,1.127,0,0,0-.162.462.254.254,0,0,0,.024.156c.009.014,0,.02,0,.03a.266.266,0,0,0-.046.087c-.014.042-.036.086-.048.125a.148.148,0,0,1-.125.1.2.2,0,0,1-.046,0h-.295a.2.2,0,0,0-.137.049.4.4,0,0,0-.151.364c.009.141.035.279.058.419a.475.475,0,0,1-.028.287c-.038.077-.083.149-.125.222a.211.211,0,0,0,.1.334.268.268,0,0,0,.039.017,1.821,1.821,0,0,0,.222.069c.125.026.245.04.365.067a6.585,6.585,0,0,1,.7.2c.177.057.353.125.535.166a.885.885,0,0,0,.353.02.628.628,0,0,0,.364-.216.086.086,0,0,1,.021-.021c.045-.019.09-.036.137-.052a2.083,2.083,0,0,1,.6-.091,5.344,5.344,0,0,1,.627.025c.163.014.326.032.488.051a.044.044,0,0,1,.038.025.593.593,0,0,0,.092.125.725.725,0,0,0,.443.2.658.658,0,0,0,.344-.036.985.985,0,0,0,.261-.166q.236-.2.474-.4a2.8,2.8,0,0,1,.679-.395.651.651,0,0,0,.2-.125A.273.273,0,0,0,284.082,229.646Zm-3.579-5.427a.3.3,0,0,1,.078-.163.287.287,0,0,1,.146-.072.379.379,0,0,1,.365.076.312.312,0,0,1,.089.188,1.123,1.123,0,0,1-.009.443c-.009.05-.018.1-.025.146,0,.017-.008.024-.025.014A.252.252,0,0,0,281,224.8a.057.057,0,0,1-.04-.02.011.011,0,0,1,.008-.01.217.217,0,0,0,.153-.206.433.433,0,0,0-.055-.249.223.223,0,0,0-.191-.125.214.214,0,0,0-.186.1.248.248,0,0,0-.041.133v.161a.16.16,0,0,0,.021.074.133.133,0,0,1-.11-.092A.723.723,0,0,1,280.5,224.218Zm.394.138c-.014,0-.021-.026-.033-.041a.014.014,0,0,1,0-.01.116.116,0,0,1,.084-.02.142.142,0,0,1,.082.137.107.107,0,0,0,.025.074c-.036.01-.058,0-.068-.035A.137.137,0,0,0,280.9,224.356Zm-.778.279a.447.447,0,0,1,.28,0,1.768,1.768,0,0,1,.3.1c.114.051.237.08.351.132a.651.651,0,0,1,.2.125.1.1,0,0,1,.024.1.26.26,0,0,1-.113.156c-.176.117-.344.242-.53.341a.971.971,0,0,1-.324.125.533.533,0,0,1-.469-.142c-.064-.059-.125-.125-.187-.184a.413.413,0,0,1-.075-.125,1.171,1.171,0,0,0,.271.157.821.821,0,0,0,.62-.014,2.622,2.622,0,0,0,.516-.283c.01,0,.023-.017.009-.025s-.021-.04-.021-.062c-.015,0-.021.01-.03.016a2.239,2.239,0,0,1-.494.291.905.905,0,0,1-.3.074.612.612,0,0,1-.364-.092c-.045-.025-.088-.057-.132-.085a.439.439,0,0,1-.1-.125c-.011-.015,0-.032,0-.049a.3.3,0,0,1,.061-.112.832.832,0,0,1,.213-.178,1.7,1.7,0,0,1,.3-.147Zm-.376-.285c0-.017-.013-.037.013-.054a.063.063,0,0,1,.089.007.233.233,0,0,1,.063.151.076.076,0,0,0,0,.016c0,.011,0,.03-.019.027s-.038.01-.039-.022-.024-.069-.025-.1c0-.012-.009-.014-.018-.014h-.03c-.013,0-.026.007-.035-.009Zm-.163-.207a.222.222,0,0,1,.348-.06.365.365,0,0,1,.125.268v.182c0,.03-.026.046-.029.072,0,.007-.011,0-.018,0s-.008-.01-.008-.017a.7.7,0,0,0-.054-.275.166.166,0,0,0-.126-.095.16.16,0,0,0-.149.062.384.384,0,0,0-.044.374.2.2,0,0,0,.117.125.786.786,0,0,1-.078.049c-.013.011-.018,0-.023-.01a.485.485,0,0,1-.137-.374.822.822,0,0,1,.073-.3Zm2.516,4.467v.016s-.024-.012-.035-.019a.218.218,0,0,0-.312.069.579.579,0,0,0-.092.265c-.008.056,0,.113-.01.168a.743.743,0,0,0,.024.184,1.457,1.457,0,0,1,0,.166.035.035,0,0,1-.01.027,1.711,1.711,0,0,1-.85.645,1.8,1.8,0,0,1-.974.052.567.567,0,0,1-.3-.158.747.747,0,0,1-.117-.2c-.008-.015,0-.024.018-.025a.268.268,0,0,0,.174-.09c.023-.024.049-.045.072-.069a.172.172,0,0,0,.026-.215,1,1,0,0,0-.167-.214,2.882,2.882,0,0,0-.287-.265c-.077-.06-.164-.108-.251-.163a3,3,0,0,1-.414-.33.584.584,0,0,1-.168-.487,1.261,1.261,0,0,1,.09-.374,5.164,5.164,0,0,1,.279-.623.8.8,0,0,1,.09-.136c.01-.011.018-.017.029,0a.059.059,0,0,0,.031.016c.026,0,.029.02.014.04a2.3,2.3,0,0,0-.428.988.686.686,0,0,0,0,.315.4.4,0,0,0,.151.217.015.015,0,0,0,.019,0,1.2,1.2,0,0,1-.014-.249,2.13,2.13,0,0,1,.146-.646,5.2,5.2,0,0,1,.242-.514c.034-.067.065-.133.1-.2a.85.85,0,0,0,.094-.269,1.512,1.512,0,0,1,.133-.374c.045-.1.1-.193.151-.289a.786.786,0,0,0,.1-.325h.016c.06.054.125.1.182.159a.378.378,0,0,0,.23.1,1.01,1.01,0,0,0,.644-.149,3.264,3.264,0,0,0,.417-.3c.023-.017.031-.017.043.01.019.05.044.095.063.145a5.583,5.583,0,0,0,.306.623.063.063,0,0,1,.009.035.812.812,0,0,0,.059.306,1.538,1.538,0,0,0,.147.272c.025.039.051.08.079.117a1.411,1.411,0,0,1,.223.531,2.71,2.71,0,0,1,.055.635A4.506,4.506,0,0,1,282.1,228.61Zm1.162.1c-.02,0-.028-.015-.034-.029a.455.455,0,0,0-.231-.242,1.01,1.01,0,0,0-.466-.072.34.34,0,0,0-.22.108,1.745,1.745,0,0,0-.136.153c-.009.012-.018.031-.036.016s-.013-.03,0-.045a.637.637,0,0,1,.282-.289.049.049,0,0,0,.026-.026,1.939,1.939,0,0,0,.134-.715,1.336,1.336,0,0,0-.089-.452.686.686,0,0,0-.361-.374c-.014-.006-.034-.01-.024-.034s.02-.037.048-.029a.5.5,0,0,1,.259.163.993.993,0,0,1,.251.582c0,.06.008.125.008.153a2.2,2.2,0,0,1-.1.675c-.009.026,0,.032.023.036.084.01.171.01.251.026a.62.62,0,0,1,.355.172.3.3,0,0,1,.09.187c-.01.01-.005.03-.021.034Z" transform="translate(-272.628 -219.224)"/><path d="M284.971,353.7v.1a.2.2,0,0,1-.049.114.6.6,0,0,1-.464.223.829.829,0,0,1-.24-.051c-.206-.063-.405-.143-.61-.211a4.632,4.632,0,0,0-.779-.181,1.13,1.13,0,0,1-.319-.087.281.281,0,0,1-.115-.083.1.1,0,0,1-.019-.084.72.72,0,0,1,.088-.211.845.845,0,0,0,.108-.26.832.832,0,0,0-.015-.32c-.014-.07-.029-.141-.038-.211a.408.408,0,0,1,.094-.319.085.085,0,0,1,.043-.024.8.8,0,0,1,.225-.034h.143a.487.487,0,0,0,.152-.029.125.125,0,0,0,.087-.1.366.366,0,0,1,.019-.1.286.286,0,0,1,.184-.206.267.267,0,0,1,.251.021.842.842,0,0,1,.275.251c.075.112.142.228.207.346a4.344,4.344,0,0,0,.338.476,2.73,2.73,0,0,1,.363.607A1,1,0,0,1,284.971,353.7Zm2.557.469a.581.581,0,0,1-.522-.3.06.06,0,0,1-.009-.049c.018-.094.036-.187.05-.281.009-.063,0-.125.009-.189s.024-.157.039-.236a.509.509,0,0,0,.011-.089v-.878a.9.9,0,0,1,.03-.251.267.267,0,0,1,.051-.1.159.159,0,0,1,.27.08.833.833,0,0,0,.065.2.4.4,0,0,0,.311.235.48.48,0,0,0,.348-.055.658.658,0,0,0,.186-.158,1.086,1.086,0,0,1,.133-.125.35.35,0,0,0,.053-.053.1.1,0,0,1,.038-.031c.072-.036.089-.028.11.043a2.924,2.924,0,0,1,.065.294.685.685,0,0,0,.072.188.532.532,0,0,0,.277.251.552.552,0,0,1,.2.138.221.221,0,0,1-.041.335.471.471,0,0,1-.1.05,2.537,2.537,0,0,0-.808.483c-.114.105-.23.21-.353.3a.8.8,0,0,1-.414.188Zm-2.133-6.3c-.021,0-.031-.006-.03-.031a.158.158,0,0,1,.015-.063.035.035,0,0,1,.029-.02.135.135,0,0,0,.061-.019c.018-.011.034,0,.035.02s-.074.114-.11.113Zm.319,0a.043.043,0,0,1-.043-.021c-.01-.016-.021-.03-.033-.045a.081.081,0,0,1-.02-.048c0-.025.011-.031.031-.024a.177.177,0,0,1,.1.083C285.769,347.851,285.757,347.872,285.714,347.871Z" transform="translate(-277.974 -342.31)"/></g><g transform="translate(17.085 -10)"><g transform="translate(1256 1255.716)"><path class="a" d="M284.082,229.646a.5.5,0,0,0-.138-.1,1.418,1.418,0,0,1-.3-.181.31.31,0,0,1-.125-.176c-.011-.05-.014-.1-.023-.154a.94.94,0,0,0-.068-.249.139.139,0,0,0-.108-.1c-.025,0-.023-.011-.016-.029a1.919,1.919,0,0,0,.061-.3,2.4,2.4,0,0,0-.059-.846,3.2,3.2,0,0,0-.154-.426,2.891,2.891,0,0,0-.4-.7c-.063-.081-.133-.153-.192-.235-.1-.145-.2-.285-.3-.434a2.165,2.165,0,0,1-.251-.475,2.64,2.64,0,0,1-.089-.471c-.026-.174-.034-.351-.05-.526a3.42,3.42,0,0,0-.088-.566,1.268,1.268,0,0,0-.148-.394,1.164,1.164,0,0,0-.306-.334,1.324,1.324,0,0,0-.652-.229,1.948,1.948,0,0,0-.595.035.781.781,0,0,0-.363.156,1.052,1.052,0,0,0-.3.409,1.508,1.508,0,0,0-.1.567,10.065,10.065,0,0,0,.074,1.182,1.191,1.191,0,0,1,0,.32.994.994,0,0,1-.188.422c-.125.171-.269.329-.4.5a1.43,1.43,0,0,0-.292.582,2.851,2.851,0,0,1-.173.539c-.075.162-.164.316-.251.472a1.127,1.127,0,0,0-.162.462.254.254,0,0,0,.024.156c.009.014,0,.02,0,.03a.266.266,0,0,0-.046.087c-.014.042-.036.086-.048.125a.148.148,0,0,1-.125.1.2.2,0,0,1-.046,0h-.295a.2.2,0,0,0-.137.049.4.4,0,0,0-.151.364c.009.141.035.279.058.419a.475.475,0,0,1-.028.287c-.038.077-.083.149-.125.222a.211.211,0,0,0,.1.334.268.268,0,0,0,.039.017,1.821,1.821,0,0,0,.222.069c.125.026.245.04.365.067a6.585,6.585,0,0,1,.7.2c.177.057.353.125.535.166a.885.885,0,0,0,.353.02.628.628,0,0,0,.364-.216.086.086,0,0,1,.021-.021c.045-.019.09-.036.137-.052a2.083,2.083,0,0,1,.6-.091,5.344,5.344,0,0,1,.627.025c.163.014.326.032.488.051a.044.044,0,0,1,.038.025.593.593,0,0,0,.092.125.725.725,0,0,0,.443.2.658.658,0,0,0,.344-.036.985.985,0,0,0,.261-.166q.236-.2.474-.4a2.8,2.8,0,0,1,.679-.395.651.651,0,0,0,.2-.125A.273.273,0,0,0,284.082,229.646Zm-3.579-5.427a.3.3,0,0,1,.078-.163.287.287,0,0,1,.146-.072.379.379,0,0,1,.365.076.312.312,0,0,1,.089.188,1.123,1.123,0,0,1-.009.443c-.009.05-.018.1-.025.146,0,.017-.008.024-.025.014A.252.252,0,0,0,281,224.8a.057.057,0,0,1-.04-.02.011.011,0,0,1,.008-.01.217.217,0,0,0,.153-.206.433.433,0,0,0-.055-.249.223.223,0,0,0-.191-.125.214.214,0,0,0-.186.1.248.248,0,0,0-.041.133v.161a.16.16,0,0,0,.021.074.133.133,0,0,1-.11-.092A.723.723,0,0,1,280.5,224.218Zm.394.138c-.014,0-.021-.026-.033-.041a.014.014,0,0,1,0-.01.116.116,0,0,1,.084-.02.142.142,0,0,1,.082.137.107.107,0,0,0,.025.074c-.036.01-.058,0-.068-.035A.137.137,0,0,0,280.9,224.356Zm-.778.279a.447.447,0,0,1,.28,0,1.768,1.768,0,0,1,.3.1c.114.051.237.08.351.132a.651.651,0,0,1,.2.125.1.1,0,0,1,.024.1.26.26,0,0,1-.113.156c-.176.117-.344.242-.53.341a.971.971,0,0,1-.324.125.533.533,0,0,1-.469-.142c-.064-.059-.125-.125-.187-.184a.413.413,0,0,1-.075-.125,1.171,1.171,0,0,0,.271.157.821.821,0,0,0,.62-.014,2.622,2.622,0,0,0,.516-.283c.01,0,.023-.017.009-.025s-.021-.04-.021-.062c-.015,0-.021.01-.03.016a2.239,2.239,0,0,1-.494.291.905.905,0,0,1-.3.074.612.612,0,0,1-.364-.092c-.045-.025-.088-.057-.132-.085a.439.439,0,0,1-.1-.125c-.011-.015,0-.032,0-.049a.3.3,0,0,1,.061-.112.832.832,0,0,1,.213-.178,1.7,1.7,0,0,1,.3-.147Zm-.376-.285c0-.017-.013-.037.013-.054a.063.063,0,0,1,.089.007.233.233,0,0,1,.063.151.076.076,0,0,0,0,.016c0,.011,0,.03-.019.027s-.038.01-.039-.022-.024-.069-.025-.1c0-.012-.009-.014-.018-.014h-.03c-.013,0-.026.007-.035-.009Zm-.163-.207a.222.222,0,0,1,.348-.06.365.365,0,0,1,.125.268v.182c0,.03-.026.046-.029.072,0,.007-.011,0-.018,0s-.008-.01-.008-.017a.7.7,0,0,0-.054-.275.166.166,0,0,0-.126-.095.16.16,0,0,0-.149.062.384.384,0,0,0-.044.374.2.2,0,0,0,.117.125.786.786,0,0,1-.078.049c-.013.011-.018,0-.023-.01a.485.485,0,0,1-.137-.374.822.822,0,0,1,.073-.3Zm2.516,4.467v.016s-.024-.012-.035-.019a.218.218,0,0,0-.312.069.579.579,0,0,0-.092.265c-.008.056,0,.113-.01.168a.743.743,0,0,0,.024.184,1.457,1.457,0,0,1,0,.166.035.035,0,0,1-.01.027,1.711,1.711,0,0,1-.85.645,1.8,1.8,0,0,1-.974.052.567.567,0,0,1-.3-.158.747.747,0,0,1-.117-.2c-.008-.015,0-.024.018-.025a.268.268,0,0,0,.174-.09c.023-.024.049-.045.072-.069a.172.172,0,0,0,.026-.215,1,1,0,0,0-.167-.214,2.882,2.882,0,0,0-.287-.265c-.077-.06-.164-.108-.251-.163a3,3,0,0,1-.414-.33.584.584,0,0,1-.168-.487,1.261,1.261,0,0,1,.09-.374,5.164,5.164,0,0,1,.279-.623.8.8,0,0,1,.09-.136c.01-.011.018-.017.029,0a.059.059,0,0,0,.031.016c.026,0,.029.02.014.04a2.3,2.3,0,0,0-.428.988.686.686,0,0,0,0,.315.4.4,0,0,0,.151.217.015.015,0,0,0,.019,0,1.2,1.2,0,0,1-.014-.249,2.13,2.13,0,0,1,.146-.646,5.2,5.2,0,0,1,.242-.514c.034-.067.065-.133.1-.2a.85.85,0,0,0,.094-.269,1.512,1.512,0,0,1,.133-.374c.045-.1.1-.193.151-.289a.786.786,0,0,0,.1-.325h.016c.06.054.125.1.182.159a.378.378,0,0,0,.23.1,1.01,1.01,0,0,0,.644-.149,3.264,3.264,0,0,0,.417-.3c.023-.017.031-.017.043.01.019.05.044.095.063.145a5.583,5.583,0,0,0,.306.623.063.063,0,0,1,.009.035.812.812,0,0,0,.059.306,1.538,1.538,0,0,0,.147.272c.025.039.051.08.079.117a1.411,1.411,0,0,1,.223.531,2.71,2.71,0,0,1,.055.635A4.506,4.506,0,0,1,282.1,228.61Zm1.162.1c-.02,0-.028-.015-.034-.029a.455.455,0,0,0-.231-.242,1.01,1.01,0,0,0-.466-.072.34.34,0,0,0-.22.108,1.745,1.745,0,0,0-.136.153c-.009.012-.018.031-.036.016s-.013-.03,0-.045a.637.637,0,0,1,.282-.289.049.049,0,0,0,.026-.026,1.939,1.939,0,0,0,.134-.715,1.336,1.336,0,0,0-.089-.452.686.686,0,0,0-.361-.374c-.014-.006-.034-.01-.024-.034s.02-.037.048-.029a.5.5,0,0,1,.259.163.993.993,0,0,1,.251.582c0,.06.008.125.008.153a2.2,2.2,0,0,1-.1.675c-.009.026,0,.032.023.036.084.01.171.01.251.026a.62.62,0,0,1,.355.172.3.3,0,0,1,.09.187c-.01.01-.005.03-.021.034Z" transform="translate(-272.628 -219.224)"/><path class="a" d="M284.971,353.7v.1a.2.2,0,0,1-.049.114.6.6,0,0,1-.464.223.829.829,0,0,1-.24-.051c-.206-.063-.405-.143-.61-.211a4.632,4.632,0,0,0-.779-.181,1.13,1.13,0,0,1-.319-.087.281.281,0,0,1-.115-.083.1.1,0,0,1-.019-.084.72.72,0,0,1,.088-.211.845.845,0,0,0,.108-.26.832.832,0,0,0-.015-.32c-.014-.07-.029-.141-.038-.211a.408.408,0,0,1,.094-.319.085.085,0,0,1,.043-.024.8.8,0,0,1,.225-.034h.143a.487.487,0,0,0,.152-.029.125.125,0,0,0,.087-.1.366.366,0,0,1,.019-.1.286.286,0,0,1,.184-.206.267.267,0,0,1,.251.021.842.842,0,0,1,.275.251c.075.112.142.228.207.346a4.344,4.344,0,0,0,.338.476,2.73,2.73,0,0,1,.363.607A1,1,0,0,1,284.971,353.7Zm2.557.469a.581.581,0,0,1-.522-.3.06.06,0,0,1-.009-.049c.018-.094.036-.187.05-.281.009-.063,0-.125.009-.189s.024-.157.039-.236a.509.509,0,0,0,.011-.089v-.878a.9.9,0,0,1,.03-.251.267.267,0,0,1,.051-.1.159.159,0,0,1,.27.08.833.833,0,0,0,.065.2.4.4,0,0,0,.311.235.48.48,0,0,0,.348-.055.658.658,0,0,0,.186-.158,1.086,1.086,0,0,1,.133-.125.35.35,0,0,0,.053-.053.1.1,0,0,1,.038-.031c.072-.036.089-.028.11.043a2.924,2.924,0,0,1,.065.294.685.685,0,0,0,.072.188.532.532,0,0,0,.277.251.552.552,0,0,1,.2.138.221.221,0,0,1-.041.335.471.471,0,0,1-.1.05,2.537,2.537,0,0,0-.808.483c-.114.105-.23.21-.353.3a.8.8,0,0,1-.414.188Zm-2.133-6.3c-.021,0-.031-.006-.03-.031a.158.158,0,0,1,.015-.063.035.035,0,0,1,.029-.02.135.135,0,0,0,.061-.019c.018-.011.034,0,.035.02s-.074.114-.11.113Zm.319,0a.043.043,0,0,1-.043-.021c-.01-.016-.021-.03-.033-.045a.081.081,0,0,1-.02-.048c0-.025.011-.031.031-.024a.177.177,0,0,1,.1.083C285.769,347.851,285.757,347.872,285.714,347.871Z" transform="translate(-277.974 -342.31)"/></g></g></g><g transform="translate(816)"><rect class="b" width="24" height="24" transform="translate(404 927)"/></g></g></svg>