<svg xmlns="http://www.w3.org/2000/svg" width="32" height="32" viewBox="0 0 32 32"><defs><style>.a{fill:none;}</style></defs><g transform="translate(-1134 -546)"><g transform="translate(51 45)"><g transform="translate(68)"><g transform="translate(877 92.826)"><rect class="a" width="32" height="32" transform="translate(138 408.174)"/></g></g><path d="M75,76.3A11.144,11.144,0,0,0,64,87.59a11.286,11.286,0,0,0,7.369,10.667c.578.149.489-.273.489-.56V95.74c-3.335.4-3.47-1.866-3.694-2.244-.452-.793-1.521-.995-1.2-1.373.759-.4,1.534.1,2.431,1.462a2.282,2.282,0,0,0,2.556.656,3.206,3.206,0,0,1,.853-1.535c-3.456-.636-4.9-2.8-4.9-5.378A5.051,5.051,0,0,1,69.093,84a4.515,4.515,0,0,1,.12-3.03,4.96,4.96,0,0,1,3.028,1.144,11.323,11.323,0,0,1,5.565.008,4.856,4.856,0,0,1,2.981-1.108A4.546,4.546,0,0,1,80.922,84a5.052,5.052,0,0,1,1.2,3.34c0,2.58-1.45,4.749-4.916,5.375a3.263,3.263,0,0,1,.936,2.3v2.84c.02.227,0,.452.369.452A11.281,11.281,0,0,0,86,87.593,11.147,11.147,0,0,0,75,76.3Z" transform="translate(1024 429.397)"/></g></g></svg>