<svg xmlns="http://www.w3.org/2000/svg" width="24" height="24" viewBox="0 0 24 24"><defs><style>.a{fill:none;}.b{fill:#1dbfa2;}</style></defs><g transform="translate(-1619 -654)"><rect class="a" width="24" height="24" transform="translate(1619 654)"/><g transform="translate(1623.857 658.857)"><g transform="translate(-0.857 -0.857)"><rect class="a" width="15.857" height="15.857"/><path class="b" d="M50.254,42.667a.517.517,0,1,1,0,1.035,6.552,6.552,0,1,0,6.552,6.552.517.517,0,0,1,1.035,0,7.587,7.587,0,1,1-7.587-7.587ZM54.031,44.6l.037.033,1.463,1.463a.517.517,0,0,1,.034.695l-.034.037-1.463,1.463a.517.517,0,0,1-.765-.695l.033-.037.58-.58H52.668a2.242,2.242,0,0,0-2.24,2.161v2.149a.517.517,0,0,1-1.032.05l0-.05V49.219a3.276,3.276,0,0,1,3.183-3.275h1.342l-.58-.58a.517.517,0,0,1-.033-.695l.033-.037a.517.517,0,0,1,.695-.034Z" transform="translate(-41.841 -41.841)"/></g></g></g></svg>