<svg xmlns="http://www.w3.org/2000/svg" width="32" height="32" viewBox="0 0 32 32"><defs><style>.a{fill:none;}.b{fill:#0ad7b6;}.c{fill:#fff;}</style></defs><g transform="translate(-1015 -501)"><g transform="translate(877 92.826)"><rect class="a" width="32" height="32" transform="translate(138 408.174)"/><g transform="translate(142 412.174)"><path class="b" d="M0,12A12,12,0,1,0,12,0,12,12,0,0,0,0,12Z"/><path class="c" d="M65.566,65.028a.041.041,0,0,0-.021-.019A13.2,13.2,0,0,0,62.288,64a.049.049,0,0,0-.052.025,9.183,9.183,0,0,0-.405.833,12.187,12.187,0,0,0-3.658,0,8.423,8.423,0,0,0-.412-.833A.051.051,0,0,0,57.708,64a13.162,13.162,0,0,0-3.257,1.01.047.047,0,0,0-.021.018,13.494,13.494,0,0,0-2.364,9.1.055.055,0,0,0,.021.037,13.27,13.27,0,0,0,4,2.019.052.052,0,0,0,.056-.018,9.475,9.475,0,0,0,.817-1.329.051.051,0,0,0-.028-.07,8.738,8.738,0,0,1-1.248-.595.051.051,0,0,1-.005-.085q.126-.094.248-.194a.049.049,0,0,1,.052-.007,9.465,9.465,0,0,0,8.041,0,.049.049,0,0,1,.052.006q.122.1.248.195a.051.051,0,0,1,0,.085,8.2,8.2,0,0,1-1.249.594.051.051,0,0,0-.027.071,10.642,10.642,0,0,0,.817,1.328.051.051,0,0,0,.056.019,13.226,13.226,0,0,0,4-2.019.051.051,0,0,0,.021-.037,13.4,13.4,0,0,0-2.366-9.1Zm-8.219,7.286a1.623,1.623,0,0,1,0-3.224,1.623,1.623,0,0,1,0,3.224Zm5.316,0a1.623,1.623,0,0,1,0-3.224,1.623,1.623,0,0,1,0,3.224Z" transform="translate(-48 -58.094)"/></g></g></g></svg>