<svg xmlns="http://www.w3.org/2000/svg" width="24" height="24" viewBox="0 0 24 24"><defs><style>.a{fill:#0ad7b6;}.b{fill:#fff;}</style></defs><g transform="translate(-1512 -284)"><path class="a" d="M12,0A12,12,0,1,1,0,12,12,12,0,0,1,12,0Z" transform="translate(1512 284)"/><g transform="translate(1441.059 182.969)"><path class="b" d="M336.111,337.8a3.442,3.442,0,1,0,0,6.883,3.6,3.6,0,0,0,.623-.06.647.647,0,0,0-.113-1.285.657.657,0,0,0-.12.011,2.233,2.233,0,0,1-.388.04,2.148,2.148,0,1,1,2.167-2.148,2,2,0,0,1-.041.382.649.649,0,0,0,.528.753.671.671,0,0,0,.119.011.65.65,0,0,0,.643-.531,3.281,3.281,0,0,0,.061-.615,3.4,3.4,0,0,0-1.019-2.432A3.476,3.476,0,0,0,336.111,337.8Z" transform="translate(-253.169 -228.214)"/><path class="b" d="M91.325,111.45a.578.578,0,0,0-.442-.453,2.959,2.959,0,0,1-1.923-1.4,2.906,2.906,0,0,1-.268-2.344.566.566,0,0,0-.175-.6,8.533,8.533,0,0,0-2.775-1.584.585.585,0,0,0-.617.152,3,3,0,0,1-4.369,0,.6.6,0,0,0-.618-.151,8.53,8.53,0,0,0-2.774,1.586.572.572,0,0,0-.175.6,2.9,2.9,0,0,1-.266,2.345A2.954,2.954,0,0,1,75,111a.582.582,0,0,0-.442.454,8.187,8.187,0,0,0,0,3.163.578.578,0,0,0,.442.453,2.959,2.959,0,0,1,1.923,1.4,2.9,2.9,0,0,1,.266,2.346.577.577,0,0,0,.176.6A8.545,8.545,0,0,0,80.139,121a.587.587,0,0,0,.616-.15,3,3,0,0,1,4.37,0,.585.585,0,0,0,.427.184.613.613,0,0,0,.192-.031,8.546,8.546,0,0,0,2.774-1.584.575.575,0,0,0,.175-.6,2.894,2.894,0,0,1,.268-2.345,2.952,2.952,0,0,1,1.923-1.4.582.582,0,0,0,.442-.452,8.2,8.2,0,0,0,0-3.165Zm-4.11,6.992a6.912,6.912,0,0,1-1.674.956,3.955,3.955,0,0,0-5.2,0,6.916,6.916,0,0,1-1.674-.956,3.815,3.815,0,0,0-.446-2.714,3.906,3.906,0,0,0-2.158-1.74,6.555,6.555,0,0,1,0-1.913,3.906,3.906,0,0,0,2.158-1.74,3.834,3.834,0,0,0,.445-2.714,6.919,6.919,0,0,1,1.674-.956,3.953,3.953,0,0,0,5.2,0,6.917,6.917,0,0,1,1.674.956,3.831,3.831,0,0,0,.444,2.714,3.906,3.906,0,0,0,2.158,1.74,6.677,6.677,0,0,1,.07.958,6.229,6.229,0,0,1-.069.954,3.906,3.906,0,0,0-2.158,1.74A3.841,3.841,0,0,0,87.214,118.442Z" transform="translate(0 0)"/></g></g></svg>