<svg xmlns="http://www.w3.org/2000/svg" width="32" height="32" viewBox="0 0 32 32"><defs><style>.a{fill:none;}.b{fill:#4d9fe9;}</style></defs><g transform="translate(-1083 -501)"><g transform="translate(68)"><g transform="translate(877 92.826)"><rect class="a" width="32" height="32" transform="translate(138 408.174)"/></g></g><path class="b" d="M22,11A11,11,0,1,0,11,22,11,11,0,0,0,22,11ZM5.077,14.909a4.632,4.632,0,0,0,.58.037,4.692,4.692,0,0,0,3.018-1.1A2.468,2.468,0,0,1,6.4,12.038,2.271,2.271,0,0,0,7.5,12a2.582,2.582,0,0,1-1.95-2.558V9.41a2.326,2.326,0,0,0,1.1.336A2.726,2.726,0,0,1,5.9,6.275a6.853,6.853,0,0,0,5.009,2.768,2.707,2.707,0,0,1-.063-.587,2.456,2.456,0,0,1,2.43-2.533,2.418,2.418,0,0,1,1.774.837,4.65,4.65,0,0,0,1.543-.595,2.49,2.49,0,0,1-1.069,1.4,4.63,4.63,0,0,0,1.4-.382,5,5,0,0,1-1.213,1.3c.005.11.007.22.007.33,0,3.374-2.445,7.265-6.915,7.263A6.544,6.544,0,0,1,5.077,14.909Z" transform="translate(1088 506)"/></g></svg>