<svg xmlns="http://www.w3.org/2000/svg" width="32" height="32" viewBox="0 0 32 32"><defs><style>.a{fill:none;}.b{fill:#0ad7b6;}.c{fill:#fff;}</style></defs><g transform="translate(-1207 -11102)"><rect class="a" width="32" height="32" transform="translate(1207 11102)"/><g transform="translate(-37 -8)"><circle class="b" cx="12" cy="12" r="12" transform="translate(1248 11114)"/><path class="c" d="M15.075,72.614c0-.134,0-.266-.01-.4a6.535,6.535,0,0,0,1.717-1.571,7.521,7.521,0,0,1-1.976.46,3.121,3.121,0,0,0,1.513-1.682,7.34,7.34,0,0,1-2.184.717,3.686,3.686,0,0,0-2.511-1.009,3.228,3.228,0,0,0-3.439,3.052,2.8,2.8,0,0,0,.089.707,10.208,10.208,0,0,1-7.091-3.335,2.871,2.871,0,0,0-.466,1.566,3.1,3.1,0,0,0,1.53,2.617A3.713,3.713,0,0,1,.69,73.333v.04a3.244,3.244,0,0,0,2.76,3.082,3.782,3.782,0,0,1-.906.1A3.663,3.663,0,0,1,1.9,76.5a3.432,3.432,0,0,0,3.213,2.18A7.371,7.371,0,0,1,.839,80a7.732,7.732,0,0,1-.821-.045,10.438,10.438,0,0,0,5.273,1.407c6.325,0,9.784-4.686,9.784-8.752Z" transform="translate(1251.6 11051.751)"/></g></g></svg>