<svg xmlns="http://www.w3.org/2000/svg" xmlns:xlink="http://www.w3.org/1999/xlink" width="24" height="24" viewBox="0 0 24 24"><defs><style>.a{fill:#bac7cd;opacity:0.22;}.b{opacity:0;}.c{fill:#f9e2e2;}.d{fill:#ffbcbc;}.e,.f,.i{fill:none;}.f{stroke:#2a2e31;}.g,.h{stroke:none;}.h{fill:#2a2e31;}.i{clip-path:url(#b);}</style><clipPath id="b"><use xlink:href="#a"/></clipPath></defs><g transform="translate(-1174 -415)"><rect class="a" width="22" height="22" rx="4" transform="translate(1175 416)"/><g transform="translate(1174 415)"><g class="b"><path class="c" d="M0,0H24V24H0Z"/><rect class="d" width="16" height="16" transform="translate(4 4)"/></g><g transform="translate(-2 -2)"><g transform="translate(8.029 8.028)"><g class="e" transform="translate(0 0.51) rotate(-45)"><path class="g" d="M.361,0A.361.361,0,0,1,.721.361V15.181a.361.361,0,1,1-.721,0V.361A.361.361,0,0,1,.361,0Z"/><path class="h" d="M 0.3606601059436798 -1.9073486328125e-06 C 0.5598500967025757 -1.9073486328125e-06 0.7213200926780701 0.161468505859375 0.7213200926780701 0.3606576919555664 L 0.7213200926780701 15.18147850036621 C 0.7213200926780701 15.38065814971924 0.5598500967025757 15.54213809967041 0.3606601059436798 15.54213809967041 C 0.1614701151847839 15.54213809967041 1.192092895507812e-07 15.38065814971924 1.192092895507812e-07 15.18147850036621 L 1.192092895507812e-07 0.3606576919555664 C 1.192092895507812e-07 0.161468505859375 0.1614701151847839 -1.9073486328125e-06 0.3606601059436798 -1.9073486328125e-06 Z"/></g><g class="f" transform="translate(0.51 11.5) rotate(-135)"><rect id="a" class="g" width="0.721" height="15.542" rx="0.361"/><path class="i" d="M0,0.5h0.7213149070739746M0.5,0v15.542021751403809M0.7213149070739746,15.042021751403809h-0.7213149070739746M0.2213149070739746,15.542021751403809v-15.542021751403809"/></g></g></g></g></g></svg>