<svg xmlns="http://www.w3.org/2000/svg" width="24" height="24" viewBox="0 0 24 24"><defs><style>.a{fill:none;}.b{fill:#5f6368;}</style></defs><g transform="translate(-1536 -274)"><rect class="a" width="24" height="24" transform="translate(1536 274)"/><g transform="translate(1438.561 154.391)"><path class="b" d="M117.241,130.053c-.095-.5-.4-.824-.795-.824h-.068a1.929,1.929,0,0,1-1.926-1.927,2.224,2.224,0,0,1,.167-.734,1.041,1.041,0,0,0-.351-1.259l-1.993-1.11-.029-.014a1.176,1.176,0,0,0-1.242.248,2.833,2.833,0,0,1-1.523.855,2.83,2.83,0,0,1-1.533-.872,1.171,1.171,0,0,0-1.24-.257l-2.064,1.131-.031.02a1.04,1.04,0,0,0-.353,1.256,2.192,2.192,0,0,1,.168.736,1.929,1.929,0,0,1-1.926,1.927h-.081c-.381,0-.688.324-.782.824a7.385,7.385,0,0,0,0,3.121c.095.5.4.825.795.825h.068a1.928,1.928,0,0,1,1.926,1.926,2.2,2.2,0,0,1-.168.734,1.04,1.04,0,0,0,.35,1.258l1.956,1.1.03.014a1.151,1.151,0,0,0,1.247-.261,2.838,2.838,0,0,1,1.557-.908,2.845,2.845,0,0,1,1.567.927,1.135,1.135,0,0,0,.829.354,1.05,1.05,0,0,0,.417-.085l2.028-1.118.03-.019a1.04,1.04,0,0,0,.352-1.256,2.2,2.2,0,0,1-.168-.736A1.928,1.928,0,0,1,116.378,134h.079c.381,0,.689-.324.784-.825a7.386,7.386,0,0,0,0-3.121m-.989,1.561a8.412,8.412,0,0,1-.127,1.238,3.082,3.082,0,0,0-2.829,3.073,3.228,3.228,0,0,0,.221,1.09l-1.73.955a5.627,5.627,0,0,0-.678-.6,2.512,2.512,0,0,0-3.408-.011,5.228,5.228,0,0,0-.675.586l-1.664-.932a3.2,3.2,0,0,0,.221-1.091,3.082,3.082,0,0,0-2.828-3.073,6.063,6.063,0,0,1,0-2.477,3.081,3.081,0,0,0,2.828-3.073,3.231,3.231,0,0,0-.221-1.089l1.773-.974a5.485,5.485,0,0,0,.676.571,2.518,2.518,0,0,0,3.326.012,5.89,5.89,0,0,0,.674-.558l1.706.948a3.2,3.2,0,0,0-.221,1.091,3.081,3.081,0,0,0,2.829,3.073,8.463,8.463,0,0,1,.127,1.239"/><path class="b" d="M366.995,365.633a2.835,2.835,0,1,0,2.835,2.835,2.838,2.838,0,0,0-2.835-2.835m1.679,2.835a1.679,1.679,0,1,1-1.679-1.679,1.681,1.681,0,0,1,1.679,1.679" transform="translate(-257.59 -236.865)"/></g></g></svg>