<svg xmlns="http://www.w3.org/2000/svg" width="16" height="16" viewBox="0 0 16 16"><defs><style>.a{fill:none;}.b{fill:#1dbfa2;}</style></defs><g transform="translate(-989 -424)"><rect class="a" width="16" height="16" transform="translate(989 424)"/><path class="b" d="M132.569,131.356c.417-.193.822-.389,1.2-.581s.686-.338.911-.428a1.611,1.611,0,0,1,.543-.135.825.825,0,0,1,.586.228.737.737,0,0,1,.247.567.8.8,0,0,1-.122.4.6.6,0,0,1-.257.267,12.592,12.592,0,0,1-2.755.718c.182.165.4.39.67.667s.4.428.416.447c.1.135.233.3.408.5a3.727,3.727,0,0,1,.363.471.789.789,0,0,1,.1.412.742.742,0,0,1-.233.543.811.811,0,0,1-.6.234c-.246,0-.52-.192-.829-.572a12.032,12.032,0,0,1-1.189-2.056c-.491.89-.822,1.481-.989,1.766a3.057,3.057,0,0,1-.485.644.761.761,0,0,1-.534.219.8.8,0,0,1-.6-.247.772.772,0,0,1-.236-.529.67.67,0,0,1,.1-.4,14.405,14.405,0,0,1,1.863-2.1q-.815-.128-1.454-.282a9.127,9.127,0,0,1-1.359-.457.612.612,0,0,1-.228-.267.829.829,0,0,1-.109-.382.738.738,0,0,1,.247-.567.807.807,0,0,1,.568-.228,1.639,1.639,0,0,1,.582.14q.348.142.886.407t1.228.6c-.084-.408-.154-.876-.209-1.4s-.082-.888-.082-1.083a.9.9,0,0,1,.227-.616.751.751,0,0,1,.587-.257.736.736,0,0,1,.578.257.993.993,0,0,1,.228.685c0,.077-.013.23-.035.461s-.055.507-.1.833S132.62,130.937,132.569,131.356Z" transform="translate(865 300)"/></g></svg>